<?xml version="1.0" encoding="UTF-8"?>
<svg version="1.1" xmlns="http://www.w3.org/2000/svg" width="1280" height="379">
<path d="M0 0 C5.77409233 4.88244089 9.64045279 9.97275643 13.04296875 16.703125 C13.44386719 17.44433594 13.84476563 18.18554688 14.2578125 18.94921875 C17.08448043 24.5924953 18.34213321 30.37081056 18.04296875 36.703125 C17.23828125 38.97265625 17.23828125 38.97265625 16.04296875 40.703125 C11.60997106 41.99608266 8.61566782 41.68658583 4.16796875 40.578125 C-2.19905573 39.16966201 -6.4950653 40.73316303 -12.05078125 43.89453125 C-20.46525438 49.57430061 -26.52196299 58.91447875 -28.609375 68.7890625 C-31.54855997 86.19364799 -28.17051235 100.29699772 -17.95703125 114.703125 C-10.77465711 123.97124714 0.55760666 129.73078356 12.04296875 131.703125 C28.25861935 133.30134527 43.0979554 130.57687088 56.00390625 120.11328125 C67.23017405 109.69589301 71.23839462 95.59107111 72.04296875 80.703125 C72.58003461 54.759556 65.62719559 28.01150015 53.48144531 5.1418457 C51.2468373 0.80933908 50.6931801 -2.44355743 51.04296875 -7.296875 C56.33734698 -8.65125083 56.33734698 -8.65125083 59.47851562 -7.07369995 C62.06370192 -5.28250967 64.17120476 -3.40935698 66.38671875 -1.18017578 C67.21107422 -0.35566925 68.03542969 0.46883728 68.88476562 1.31832886 C69.76197266 2.20585846 70.63917969 3.09338806 71.54296875 4.0078125 C72.45626953 4.92394318 73.36957031 5.84007385 74.31054688 6.78396606 C76.73297384 9.21400219 79.14934134 11.64997665 81.56445312 14.08728027 C84.012024 16.55526104 86.46520834 19.01764735 88.91796875 21.48046875 C92.51477997 25.09315796 96.10854568 28.70884571 99.69921875 32.32763672 C102.80705898 35.45960615 105.9199152 38.58631201 109.04296875 41.703125 C129.04296875 61.703125 129.04296875 61.703125 131.16033936 63.82743835 C134.9172025 67.58403798 138.70612729 71.30822457 142.48925781 75.03833008 C151.0217296 83.45630612 159.53638936 91.89203735 168.04083633 100.33830738 C173.18417144 105.44550482 178.3339399 110.54589442 183.49902344 115.63110352 C188.01764506 120.07988608 192.52376316 124.54090065 197.01539779 129.01693457 C199.38922915 131.38166253 201.77031554 133.73773673 204.16321564 136.08326149 C206.83008553 138.69936991 209.47429031 141.33652118 212.11425781 143.97973633 C212.90697083 144.74728241 213.69968384 145.51482849 214.51641846 146.30563354 C220.3977939 152.26585699 220.3977939 152.26585699 221.22601318 156.93583679 C220.85014812 164.6716199 215.21923946 168.8076755 209.99487305 173.99414062 C209.17501923 174.81589279 208.35516541 175.63764496 207.51046753 176.48429871 C204.80090166 179.19756697 202.08420502 181.90357029 199.3671875 184.609375 C197.47976217 186.49560789 195.59268428 188.38218262 193.70600891 190.26916504 C189.75084875 194.22338967 185.79184203 198.1737293 181.83032227 202.12158203 C177.26058232 206.67561401 172.69607212 211.23483362 168.13454694 215.79709291 C163.73576212 220.19648988 159.33411627 224.59301219 154.93088722 228.98796082 C153.06242082 230.85324933 151.19455569 232.71914033 149.32730675 234.58564758 C146.71378914 237.19699133 144.09700086 239.80501212 141.47924805 242.41210938 C140.32645607 243.56558113 140.32645607 243.56558113 139.15037537 244.74235535 C135.25691623 248.61272287 131.30325573 252.24207233 127.04296875 255.703125 C125.98601654 256.83717255 124.96049658 258.00197669 123.98046875 259.203125 C120.62959428 263.13121946 117.06284102 266.80058362 113.41796875 270.453125 C112.8674585 271.00806641 112.31694824 271.56300781 111.74975586 272.13476562 C108.65662419 275.21718152 105.46188899 277.97967742 102.04296875 280.703125 C101.02931082 281.79714967 100.04890818 282.92299972 99.10546875 284.078125 C93.96630303 290.10218018 88.24868458 295.57509397 82.62329102 301.13916016 C79.10241177 304.62359589 75.6117581 308.13774162 72.125 311.65625 C70.7018735 313.08859193 69.27869532 314.52088251 67.85546875 315.953125 C67.13166016 316.6853125 66.40785156 317.4175 65.66210938 318.171875 C64.62280273 319.21601562 64.62280273 319.21601562 63.5625 320.28125 C62.93448486 320.91450195 62.30646973 321.54775391 61.65942383 322.20019531 C59.28999044 324.40322083 58.27857097 324.69350858 54.98046875 324.828125 C52.04296875 324.703125 52.04296875 324.703125 51.04296875 323.703125 C50.37109482 317.38587132 52.28384269 313.42058587 55.16796875 307.890625 C68.15878141 281.70486198 78.24203908 246.05617769 68.97265625 217.14453125 C63.17916183 201.93052281 53.88198195 193.1986449 39.20703125 186.38671875 C28.9450508 182.35221411 15.94640731 181.79693711 5.5078125 185.59765625 C-10.60465781 192.82400981 -20.42299391 201.98898817 -27.17578125 218.55078125 C-31.37176995 230.11073013 -31.0440914 244.38095221 -25.95703125 255.703125 C-21.37800184 264.10961061 -15.31549978 271.74158933 -6.125 275.1328125 C-1.06904645 276.04300882 3.88195462 275.59109958 8.97387695 275.08789062 C10.99160223 274.89324505 13.01778206 274.79099467 15.04296875 274.703125 C17.59138974 277.25154599 17.82385396 279.42981917 18.12890625 282.94921875 C17.74482114 295.25740076 10.39475341 307.03672326 2.04296875 315.703125 C-0.14379685 317.52172985 -2.44719356 319.09393113 -4.83203125 320.640625 C-5.48405518 321.06738525 -6.1360791 321.49414551 -6.80786133 321.93383789 C-26.76377045 334.68178463 -49.11741507 339.588985 -72.58203125 335.703125 C-91.9402206 331.28846298 -109.06190598 318.74275743 -120.08203125 302.453125 C-120.67576538 301.57805298 -120.67576538 301.57805298 -121.28149414 300.68530273 C-127.85920326 290.62264271 -132.37993914 279.65453844 -136.45703125 268.390625 C-136.69414825 267.7393866 -136.93126526 267.08814819 -137.17556763 266.41717529 C-144.36387669 246.58754448 -149.12318616 226.60273255 -151.95703125 205.703125 C-152.075625 204.85041016 -152.19421875 203.99769531 -152.31640625 203.11914062 C-156.02803156 174.9063697 -155.90849463 143.87730135 -151.95703125 115.703125 C-151.80637207 114.59533691 -151.65571289 113.48754883 -151.50048828 112.34619141 C-147.81367239 86.06390445 -142.04369888 59.93176206 -130.95703125 35.703125 C-130.63234863 34.99027344 -130.30766602 34.27742188 -129.97314453 33.54296875 C-120.05559341 12.09854761 -107.30464238 -5.88274133 -85.01953125 -15.671875 C-55.05077061 -26.3122493 -24.60232777 -19.10986622 0 0 Z " fill="#285AA6" transform="translate(675.95703125,32.296875)"/>
<path d="M0 0 C0.825 0.144375 1.65 0.28875 2.5 0.4375 C3.66149476 4.3091492 3.59608483 6.18855294 2.125 10 C0.18369993 13.53924094 -2.13552837 16.73273011 -4.5 20 C-30.56107659 56.73360386 -42.91900147 104.11246996 -46.5 148.4375 C-46.56703125 149.21561035 -46.6340625 149.9937207 -46.703125 150.79541016 C-50.22545408 194.24029123 -41.91970134 239.26377267 -25.5 279.4375 C-25.16742188 280.25444336 -24.83484375 281.07138672 -24.4921875 281.91308594 C-18.07265205 297.4726307 -10.45055977 313.03511992 -0.05859375 326.34375 C2.76812077 330.14104069 3.76434973 332.6792048 3.5 337.4375 C-0.095049 338.42324453 -1.79179506 338.84080092 -5.09887695 336.95751953 C-6.37444458 335.83772705 -6.37444458 335.83772705 -7.67578125 334.6953125 C-8.62791504 333.86290039 -9.58004883 333.03048828 -10.56103516 332.17285156 C-15.41851304 327.70063233 -20.07302514 323.03353726 -24.6875 318.3125 C-30.14177106 312.74991584 -35.58135953 307.27171273 -41.50512695 302.20751953 C-46.38290207 297.87954626 -50.86150276 293.11032304 -55.43359375 288.46484375 C-59.02936227 284.83410828 -62.62146956 281.26692643 -66.5 277.9375 C-72.12812757 273.10617614 -77.23436598 267.74752622 -82.43359375 262.46484375 C-86.6546141 258.2027762 -90.93968391 254.13091441 -95.49023438 250.22460938 C-100.1434185 246.08693836 -104.42548362 241.54741768 -108.7890625 237.109375 C-112.25612387 233.60657073 -115.72804602 230.17986279 -119.46875 226.96875 C-125.10544631 222.12453971 -130.22387138 216.75818928 -135.43359375 211.46484375 C-139.58606361 207.2719933 -143.79551266 203.25543351 -148.26757812 199.40771484 C-152.76187946 195.44128749 -157.07202422 191.28432079 -161.35742188 187.0949707 C-162.45898082 186.02533863 -163.56850666 184.96385474 -164.68554688 183.91040039 C-166.32044285 182.36683539 -167.92749603 180.79847688 -169.53125 179.22265625 C-170.03112427 178.76093521 -170.53099854 178.29921417 -171.04602051 177.82350159 C-173.62480051 175.22984225 -174.88338958 173.08520027 -175.17578125 169.4921875 C-174.83244173 164.53593783 -172.14772893 162.0420298 -168.65625 158.77734375 C-168.05373413 158.18377579 -167.45121826 157.59020782 -166.83044434 156.97865295 C-164.90498317 155.09117144 -162.95336458 153.2335434 -161 151.375 C-159.71697369 150.12356336 -158.43570429 148.87032278 -157.15625 147.61523438 C-151.69336225 142.28145175 -146.16573771 137.06649564 -140.36523438 132.09985352 C-136.39955509 128.56551971 -132.72468823 124.72197456 -129 120.9375 C-123.99079531 115.84789074 -118.95977219 110.90745399 -113.54101562 106.25585938 C-109.51503106 102.66907312 -105.78078502 98.77897178 -102 94.9375 C-96.99079531 89.84789074 -91.95977219 84.90745399 -86.54101562 80.25585938 C-82.51503106 76.66907312 -78.78078502 72.77897178 -75 68.9375 C-69.98072491 63.83765869 -64.93954375 58.88566517 -59.50976562 54.22460938 C-55.6669081 50.80749116 -52.10391313 47.10291335 -48.5 43.4375 C-40.0776494 34.87142328 -40.0776494 34.87142328 -35.5625 31 C-30.61075644 26.74444217 -26.07934943 22.08623352 -21.5 17.4375 C-4.92978723 0.6162234 -4.92978723 0.6162234 0 0 Z " fill="#CB2128" transform="translate(495.5,19.5625)"/>
<path d="M0 0 C0 3 0 3 -1.53125 4.60546875 C-2.1809375 5.12753906 -2.830625 5.64960938 -3.5 6.1875 C-4.1496875 6.71730469 -4.799375 7.24710938 -5.46875 7.79296875 C-5.9740625 8.19128906 -6.479375 8.58960938 -7 9 C-7.66 8.67 -8.32 8.34 -9 8 C-6.03 5.36 -3.06 2.72 0 0 Z " fill="#B9181C" transform="translate(382,126)"/>
</svg>
