<?xml version="1.0" encoding="UTF-8"?>
<svg version="1.1" xmlns="http://www.w3.org/2000/svg" width="512" height="336">
<path d="M0 0 C5.75373596 4.87306209 10.41443398 9.47525661 11.51171875 17.15625 C11.78621093 23.30690822 10.13988502 26.65944999 5.98046875 31.26953125 C5.15933594 32.11515625 4.33820313 32.96078125 3.4921875 33.83203125 C-6.22734173 44.43128429 -13.60111021 56.78313188 -14.2578125 71.51953125 C-13.60827277 83.18959515 -8.48207359 94.90122046 0.1796875 102.83203125 C10.32549758 110.54540737 20.38655788 114.24467211 33.1796875 112.83203125 C44.63554083 110.45769163 53.6788593 105.95585441 60.61328125 96.3828125 C70.63164741 80.06861524 70.82342663 62.17043975 66.72753906 43.98730469 C62.93771702 29.07796913 55.79950247 14.78969591 46.5859375 2.55078125 C44.84034098 -0.82403869 45.20514659 -2.56640451 46.1796875 -6.16796875 C51.68718259 -6.04934578 54.00120808 -3.86047877 57.6328125 -0.10351562 C58.26703125 0.57646484 58.90125 1.25644531 59.5546875 1.95703125 C60.89402962 3.34679262 62.23515168 4.73484102 63.578125 6.12109375 C64.17286621 6.74709473 64.76760742 7.3730957 65.38037109 8.01806641 C67.78373428 10.44099565 70.35218566 12.63518759 72.9609375 14.83203125 C77.03226698 18.50196205 80.8266363 22.46091032 84.68261719 26.35449219 C88.40809508 30.10235653 92.18563914 33.68922524 96.2265625 37.09765625 C99.32828413 39.85198505 102.20234509 42.83457526 105.11425781 45.78613281 C107.71938532 48.41292458 110.36457295 50.93226147 113.1796875 53.33203125 C117.03090819 56.61503905 120.5625761 60.18607637 124.11328125 63.78515625 C126.71873982 66.41226683 129.36422175 68.93196209 132.1796875 71.33203125 C136.02774598 74.6123434 139.55684548 78.18008927 143.10449219 81.77636719 C146.39334579 85.09268512 149.80138992 88.19202112 153.3515625 91.22265625 C155.825544 93.40060578 158.10532511 95.74731999 160.4140625 98.09765625 C162.19192834 99.84405544 164.03454145 101.46422364 165.9296875 103.08203125 C169.33807187 106.0148271 172.52368614 109.13275253 175.6796875 112.33203125 C178.79463514 115.48957647 181.93411096 118.56988402 185.3046875 121.45703125 C188.26309479 124.00150501 191.12476362 126.61847297 193.9296875 129.33203125 C194.64640625 130.02296875 195.363125 130.71390625 196.1015625 131.42578125 C201.68409972 137.88977171 202.90938674 142.75812206 202.8046875 151.14453125 C202.7934082 152.08151855 202.78212891 153.01850586 202.77050781 153.98388672 C202.41174998 164.158756 199.20142437 169.09052709 191.87109375 176.01806641 C190.31494596 177.44760741 188.73476865 178.84350444 187.140625 180.23046875 C184.62931725 182.43697397 182.26388109 184.6924813 179.9296875 187.08203125 C177.45380202 189.59875608 174.92081345 191.96980721 172.2421875 194.26953125 C169.25167034 196.83868396 166.44852066 199.52520381 163.6796875 202.33203125 C160.31854268 205.73921915 156.84267547 208.90661299 153.2109375 212.01953125 C150.94330178 214.04296005 148.813918 216.16856472 146.6796875 218.33203125 C143.95139343 221.09763533 141.19451916 223.74490156 138.2421875 226.26953125 C135.0693283 228.98822373 132.11630368 231.859548 129.1796875 234.83203125 C126.28376792 237.76321316 123.37726179 240.59606299 120.2421875 243.26953125 C116.89043586 246.13375538 113.77413351 249.19538346 110.6796875 252.33203125 C107.66737645 255.38520105 104.64419848 258.37275537 101.3671875 261.14453125 C97.42567248 264.50091414 93.81830742 268.15521059 90.1796875 271.83203125 C86.01322545 276.04214403 81.8268334 280.10444343 77.30078125 283.9296875 C73.71000371 287.15014544 70.36891714 290.62340468 66.97875977 294.05249023 C63.37019709 297.68643182 59.68402652 301.16243548 55.765625 304.46484375 C54.12983885 305.82311852 54.12983885 305.82311852 52.63671875 307.5 C51.1796875 308.83203125 51.1796875 308.83203125 48.4921875 309.01953125 C47.7290625 308.95765625 46.9659375 308.89578125 46.1796875 308.83203125 C45.38710959 306.06238996 44.92970074 304.44229096 46.04077148 301.72998047 C46.49782471 301.0392041 46.95487793 300.34842773 47.42578125 299.63671875 C47.92988525 298.84789307 48.43398926 298.05906738 48.95336914 297.24633789 C49.5024292 296.4083667 50.05148926 295.57039551 50.6171875 294.70703125 C58.9870403 281.34936935 65.56183407 267.49401641 68.1796875 251.83203125 C68.30859375 251.12304688 68.4375 250.4140625 68.5703125 249.68359375 C70.92662037 234.49160881 68.59859592 218.83804732 60.1796875 205.83203125 C53.16564204 196.83545832 43.99235156 191.88083362 32.76953125 190.0546875 C22.02957792 189.1313431 12.18185262 191.45757192 3.4140625 197.84765625 C-6.56918928 206.39618921 -12.27358185 216.10919068 -14.16796875 229.2421875 C-14.9482121 247.93410438 -2.9121414 262.18325561 8.83203125 275.23828125 C11.57868108 278.48649322 11.52418306 281.28792951 11.4453125 285.40234375 C10.65859129 292.59852891 6.07802648 297.75049215 0.9921875 302.59375 C-15.90653545 316.04231702 -37.68129999 320.32611121 -58.8203125 318.83203125 C-75.21546137 316.61243772 -87.96640616 306.69039358 -97.8203125 293.796875 C-124.34463603 254.47663758 -128.00879098 202.00636148 -128.00561523 156.00244141 C-128.00778655 152.4988969 -128.02595881 148.995676 -128.04492188 145.4921875 C-128.09418481 125.93359798 -127.22064584 106.36161109 -124.1328125 87.01953125 C-123.96765137 85.97168457 -123.80249023 84.92383789 -123.63232422 83.84423828 C-120.57832108 65.5012505 -116.33287131 46.90264754 -108.8203125 29.83203125 C-108.53607422 29.17879883 -108.25183594 28.52556641 -107.95898438 27.85253906 C-99.94735334 9.74417647 -88.63860517 -4.96133721 -70.05078125 -12.98046875 C-47.27084566 -21.35422984 -18.82100048 -14.46766657 0 0 Z " fill="#254F9B" transform="translate(309.8203125,17.16796875)"/>
<path d="M0 0 C1.67542976 0.28604898 3.34385343 0.61781233 5 1 C5.36601889 4.68171944 5.35762369 6.47780611 3.234375 9.578125 C2.41453125 10.45984375 1.5946875 11.3415625 0.75 12.25 C-21.48281571 37.29806207 -37.30511655 70.01547471 -45.25 102.375 C-45.48412598 103.31730469 -45.71825195 104.25960937 -45.95947266 105.23046875 C-49.82214545 121.77766058 -51.50783364 138.26014774 -51.39111328 155.22949219 C-51.37500088 157.99984922 -51.39110118 160.76874833 -51.41015625 163.5390625 C-51.42962196 179.80387522 -49.66668636 195.8903154 -45.6875 211.6875 C-45.47585205 212.54577393 -45.2642041 213.40404785 -45.04614258 214.28833008 C-37.07543146 245.75074783 -22.23285623 274.3938003 -2.0234375 299.765625 C-1.32178467 300.65121094 -1.32178467 300.65121094 -0.60595703 301.5546875 C0.65949125 303.13683962 1.9461656 304.70194944 3.234375 306.265625 C5.13020332 309.20164232 5.42388381 310.58399519 5 314 C2.79296875 314.73828125 2.79296875 314.73828125 0 315 C-2.32421875 313.48046875 -2.32421875 313.48046875 -4.6875 311.1875 C-5.55503906 310.35863281 -6.42257813 309.52976562 -7.31640625 308.67578125 C-8.64478516 307.35126953 -8.64478516 307.35126953 -10 306 C-10.85464844 305.14792969 -11.70929688 304.29585938 -12.58984375 303.41796875 C-14.28125849 301.72134164 -15.96876135 300.02080575 -17.65234375 298.31640625 C-19.60876579 296.38602643 -21.58968153 294.58409184 -23.6875 292.8125 C-27.84816017 289.261957 -31.6541478 285.38341393 -35.5 281.5 C-39.88756498 277.06962429 -44.2778671 272.75692949 -49.046875 268.734375 C-52.14859663 265.9800462 -55.02265759 262.99745599 -57.93457031 260.04589844 C-60.53969782 257.41910667 -63.18488545 254.89976978 -66 252.5 C-69.85122069 249.2169922 -73.3828886 245.64595488 -76.93359375 242.046875 C-79.53905232 239.41976442 -82.18453425 236.90006916 -85 234.5 C-88.84805848 231.21968785 -92.37715798 227.65194198 -95.92480469 224.05566406 C-99.21365829 220.73934613 -102.62170242 217.64001013 -106.171875 214.609375 C-108.6458565 212.43142547 -110.92563761 210.08471126 -113.234375 207.734375 C-115.01224084 205.98797581 -116.85485395 204.36780761 -118.75 202.75 C-122.67174487 199.37547535 -126.29638965 195.73723883 -129.92382812 192.05444336 C-132.60570677 189.34692088 -135.34236461 186.77497416 -138.25 184.3125 C-144.12803474 179.26728743 -151.11805519 173.00110614 -152.29956055 164.96166992 C-152.43863987 162.67484113 -152.45853377 160.41576893 -152.4375 158.125 C-152.45748047 157.36058594 -152.47746094 156.59617188 -152.49804688 155.80859375 C-152.49091846 147.41132433 -148.8652881 140.92801845 -143 135 C-141.12869605 133.31668092 -139.2215957 131.68196163 -137.3046875 130.05078125 C-134.5937571 127.63851268 -132.04503142 125.08397705 -129.5 122.5 C-125.78891571 118.73751389 -121.98139106 115.17188054 -117.9609375 111.7421875 C-114.90770829 109.02955756 -112.0859685 106.09399547 -109.21875 103.1875 C-106.59228878 100.59803119 -103.83023542 98.21163036 -101.03125 95.8125 C-98.76361428 93.7890712 -96.6342305 91.66346653 -94.5 89.5 C-91.79196435 86.75499458 -89.05830751 84.1272909 -86.125 81.625 C-82.75442257 78.737852 -79.61496136 75.65753002 -76.5 72.5 C-72.83153141 68.78153524 -69.06850777 65.2633181 -65.09375 61.875 C-62.46014387 59.51654675 -59.98174373 57.01553768 -57.5 54.5 C-54.48768569 51.44683383 -51.46451123 48.45927609 -48.1875 45.6875 C-44.24598498 42.33111711 -40.63861992 38.67682066 -37 35 C-32.83353795 30.78988722 -28.6471459 26.72758782 -24.12109375 22.90234375 C-20.53185445 19.68326541 -17.19212194 16.21160241 -13.8034668 12.78393555 C-9.69960443 8.65115152 -5.4546207 4.75389385 -1 1 C-0.67 0.67 -0.34 0.34 0 0 Z " fill="#C20016" transform="translate(152,11)"/>
</svg>
