<?xml version="1.0" encoding="UTF-8"?>
<svg version="1.1" xmlns="http://www.w3.org/2000/svg" width="2560" height="759">
<path d="M0 0 C0.76135254 0.11754639 1.52270508 0.23509277 2.30712891 0.35620117 C20.46446874 3.49750527 39.11142006 14.54719949 51.75 27.6875 C53.03515625 29.9609375 53.03515625 29.9609375 53.75 31.6875 C54.41 31.6875 55.07 31.6875 55.75 31.6875 C63.61651329 42.39753649 69.55857071 54.06013001 67.75 67.6875 C67.09 68.6775 66.43 69.6675 65.75 70.6875 C63.75390625 71.015625 63.75390625 71.015625 61.3125 70.9375 C59.96865234 70.90462891 59.96865234 70.90462891 58.59765625 70.87109375 C55.79221985 70.69022199 53.03829089 70.35299842 50.25 70 C42.35609016 69.25508175 36.34132003 71.22922894 30 75.9375 C19.43040814 84.82937887 13.65350844 95.77376018 12.0625 109.5625 C11.94037156 111.26964326 11.83687026 112.97819984 11.75 114.6875 C11.68554688 115.60144531 11.62109375 116.51539063 11.5546875 117.45703125 C10.97226846 131.95926543 16.21458703 144.61846074 23.75 156.6875 C24.73556581 157.70172879 25.7295502 158.70837682 26.75 159.6875 C26.75 160.3475 26.75 161.0075 26.75 161.6875 C27.34554687 161.95949219 27.94109375 162.23148438 28.5546875 162.51171875 C30.69667459 163.6589396 32.12540177 164.8339253 33.875 166.5 C44.5790479 175.89755812 58.16734331 178.8651617 72 178.875 C72.89074219 178.88724609 73.78148438 178.89949219 74.69921875 178.91210938 C82.66853361 178.92945912 90.52114635 178.15035016 97.75 174.5625 C101.58211679 172.6875 101.58211679 172.6875 103.75 172.6875 C103.75 172.0275 103.75 171.3675 103.75 170.6875 C105.61328125 169.28515625 105.61328125 169.28515625 108.0625 167.75 C110.40149527 166.27729927 112.47518151 164.96618011 114.41796875 162.99609375 C115.75 161.6875 115.75 161.6875 117.75 161.6875 C118.0903125 160.9140625 118.0903125 160.9140625 118.4375 160.125 C119.58715848 157.98991997 120.81249993 156.19210924 122.25 154.25 C124.25203694 151.50974885 125.66871697 148.93134908 126.75 145.6875 C127.41 145.6875 128.07 145.6875 128.75 145.6875 C134.01697557 119.24055884 135.45940291 89.12233191 124.75 63.6875 C124.25775582 62.27532409 123.77936038 60.85826969 123.3125 59.4375 C123.06371094 58.68855469 122.81492187 57.93960938 122.55859375 57.16796875 C121.97661369 55.3826676 121.40788465 53.59302708 120.84765625 51.80078125 C118.93268434 45.7943834 116.72312908 40.28580004 113.703125 34.74609375 C112.75 32.6875 112.75 32.6875 112.75 29.6875 C112.09 29.6875 111.43 29.6875 110.75 29.6875 C107.9147887 24.1352112 107.37047705 19.88637485 107.75 13.6875 C109.97265625 12.53515625 109.97265625 12.53515625 112.75 11.6875 C118.38658408 13.87351435 122.70656637 18.38162847 126.41796875 23.0234375 C129.03191389 26.28895254 131.99035833 29.07978666 135.25 31.6875 C137.96274788 33.85769831 140.30701647 36.2164362 142.75 38.6875 C143.70767081 39.64649539 144.66602671 40.60480705 145.625 41.5625 C162.1875 58.125 162.1875 58.125 178.75 74.6875 C179.29398438 75.20828125 179.83796875 75.7290625 180.3984375 76.265625 C181.88494622 77.70328132 183.32131617 79.19236576 184.75 80.6875 C184.75 81.3475 184.75 82.0075 184.75 82.6875 C185.389375 82.955625 186.02875 83.22375 186.6875 83.5 C188.75 84.6875 188.75 84.6875 189.75 87.6875 C191.07544521 88.36971494 192.41046896 89.03337553 193.75 89.6875 C195.35488076 91.11021648 196.90757848 92.59252195 198.42481995 94.10835266 C199.82752136 95.5025946 199.82752136 95.5025946 201.25856018 96.92500305 C202.28778983 97.95812121 203.31691537 98.99134308 204.34594727 100.0246582 C205.4348377 101.11083813 206.52415306 102.19659222 207.61386108 103.2819519 C210.57090872 106.22987936 213.52159171 109.18410158 216.47091031 112.1397593 C219.55882655 115.23273872 222.6516192 118.32083574 225.74363708 121.40971375 C230.93645644 126.59889384 236.12504339 131.79227789 241.3112793 136.98803711 C247.30487576 142.99251229 253.30563543 148.98975626 259.31017834 154.98328334 C264.46639444 160.1304186 269.6186965 165.28144744 274.76775783 170.43574017 C277.84254852 173.5136469 280.91866969 176.5901912 283.99832344 179.6632328 C286.89451871 182.55364389 289.78576446 185.448917 292.67329025 188.34798813 C293.73296662 189.41030557 294.79434229 190.4709311 295.85754585 191.5297184 C297.310434 192.97712777 298.75700031 194.43057998 300.2021637 195.88569641 C301.01275521 196.69704198 301.82334673 197.50838755 302.65850163 198.34431934 C305.76420275 201.82374772 307.59424445 204.46370635 308.1875 209.125 C307.4231325 215.34913539 303.33747626 219.3500287 299.03048706 223.66098022 C298.34144041 224.35470684 298.34144041 224.35470684 297.63847363 225.06244814 C296.11247546 226.59636389 294.57950112 228.12310169 293.04638672 229.64990234 C291.94519314 230.75380841 290.84442496 231.85813896 289.74404907 232.96286011 C286.76543637 235.95056413 283.78056422 238.93193928 280.79422903 241.91192198 C277.66915683 245.03192242 274.54897643 248.15680882 271.42800903 251.28091431 C266.19111214 256.52144525 260.95002182 261.75775452 255.70654297 266.99169922 C249.63833261 273.04900339 243.57739149 279.11350966 237.52013195 285.18176305 C232.31949102 290.39146576 227.11498059 295.5972787 221.90718663 300.79983103 C218.79642601 303.90746876 215.68704419 307.01645364 212.58114243 310.12894821 C209.66525685 313.05059128 206.74456036 315.96733628 203.82000351 318.88029861 C202.74512979 319.95251815 201.67197229 321.02646118 200.60062408 322.10220337 C199.14348762 323.56476632 197.68039483 325.02108968 196.21554565 326.47592163 C194.98721417 327.70312203 194.98721417 327.70312203 193.73406792 328.95511436 C191.75 330.6875 191.75 330.6875 189.75 330.6875 C189.440625 331.491875 189.440625 331.491875 189.125 332.3125 C187.21749574 335.60728009 184.70180616 338.28113628 181.75 340.6875 C181.09 340.6875 180.43 340.6875 179.75 340.6875 C179.5025 341.30625 179.255 341.925 179 342.5625 C177.52229238 345.07460296 176.31044823 345.44857344 173.75 346.6875 C173.42 347.6775 173.09 348.6675 172.75 349.6875 C171.12793741 351.39760774 169.45322793 353.05821483 167.75 354.6875 C165.9327636 356.5265238 164.11640356 358.36641388 162.30078125 360.20703125 C160.75329271 361.76923887 159.20486296 363.33050669 157.65600586 364.89135742 C156.58653132 365.9709909 155.51884361 367.05239711 154.45288086 368.13549805 C152.90682406 369.70568611 151.35450772 371.26943689 149.80078125 372.83203125 C148.41886597 374.22965698 148.41886597 374.22965698 147.0090332 375.65551758 C144.75 377.6875 144.75 377.6875 142.75 377.6875 C142.481875 378.326875 142.21375 378.96625 141.9375 379.625 C140.75 381.6875 140.75 381.6875 137.75 382.6875 C137.46125 383.265 137.1725 383.8425 136.875 384.4375 C135.35616932 387.47516137 133.20156267 389.3499635 130.75 391.6875 C129.925 392.5125 129.1 393.3375 128.25 394.1875 C127.425 395.0125 126.6 395.8375 125.75 396.6875 C124.574375 397.925 124.574375 397.925 123.375 399.1875 C120.38470238 402.03540249 117.4497252 404.79540309 113.75 406.6875 C109.56818182 406.50568182 109.56818182 406.50568182 107.75 404.6875 C106.32672531 395.67342695 110.6508835 389.32847575 114.74560547 381.6328125 C117.07275564 377.12558533 118.91491193 372.41102995 120.75 367.6875 C121.09675781 366.79933594 121.44351563 365.91117188 121.80078125 364.99609375 C126.60166778 352.26169589 129.60728417 339.62028386 131.40771484 326.16845703 C131.74419977 323.72954132 132.13058802 321.30211252 132.51953125 318.87109375 C134.36694832 306.1289159 132.78963159 294.75325148 130.23974609 282.19287109 C129.62239151 279.03469922 129.16384052 275.87807692 128.75 272.6875 C128.09 272.6875 127.43 272.6875 126.75 272.6875 C123.75 266.9375 123.75 266.9375 123.75 264.6875 C123.09 264.6875 122.43 264.6875 121.75 264.6875 C120.5234375 263.18359375 120.5234375 263.18359375 119.125 261.125 C112.51806802 252.07046368 103.57302427 245.74014787 92.75 242.6875 C92.75 242.0275 92.75 241.3675 92.75 240.6875 C85.90028527 239.8883053 79.14477326 239.50509215 72.25 239.5 C70.94095703 239.48163086 70.94095703 239.48163086 69.60546875 239.46289062 C53.29277269 239.42664019 40.49672226 245.56135556 28.6640625 256.640625 C17.59557814 268.09078124 11.40786161 284.50650697 11.6015625 300.3125 C12.30290433 316.25879838 15.90358893 328.86804151 27.12890625 340.32421875 C29.3344752 342.31284649 31.0252982 343.59120822 33.75 344.6875 C33.75 345.3475 33.75 346.0075 33.75 346.6875 C40.45622324 348.25704161 46.2603074 348.79588796 53.1015625 347.9921875 C55.65996202 347.69785835 58.17616214 347.51246615 60.75 347.4375 C61.45125 347.41171875 62.1525 347.3859375 62.875 347.359375 C64.75 347.6875 64.75 347.6875 66.46484375 348.83984375 C69.41571861 353.08228694 68.38183148 358.80893233 67.75 363.6875 C65.02694759 372.62915435 60.56417799 380.41977751 54.75 387.6875 C54.10546875 388.51894531 53.4609375 389.35039063 52.796875 390.20703125 C39.32691925 406.44581124 15.34818091 416.84804079 -5.22265625 419.37109375 C-22.82876642 420.94075204 -39.96400341 420.05102596 -56.25 412.6875 C-57.24 412.3575 -58.23 412.0275 -59.25 411.6875 C-59.25 411.0275 -59.25 410.3675 -59.25 409.6875 C-59.96800781 409.5946875 -60.68601562 409.501875 -61.42578125 409.40625 C-74.87352872 405.98386337 -86.77853421 390.51692795 -94.25 379.6875 C-94.85585937 378.81351563 -95.46171875 377.93953125 -96.0859375 377.0390625 C-105.97970555 362.13125815 -113.19443316 345.41936023 -117.61328125 328.1015625 C-118.19469807 325.89717236 -118.87336012 323.77610197 -119.625 321.625 C-126.64407195 300.78713013 -131.16303333 278.96366878 -133.03955078 257.05664062 C-133.26867774 254.47723459 -133.53876268 251.90357842 -133.80859375 249.328125 C-136.31490725 223.92641404 -136.52174974 197.77579238 -133.56201172 172.40527344 C-133.23137585 169.5252746 -132.94453821 166.64272511 -132.66015625 163.7578125 C-130.45332368 142.45663992 -126.33673152 121.23021887 -120.25 100.6875 C-119.99605469 99.81931641 -119.74210937 98.95113281 -119.48046875 98.05664062 C-111.09477829 69.4725405 -98.71748993 32.13929993 -72.25 14.6875 C-70.05078125 14.03515625 -70.05078125 14.03515625 -68.25 13.6875 C-68.25 13.0275 -68.25 12.3675 -68.25 11.6875 C-45.93455009 0.0899815 -25.05727901 -3.87537375 0 0 Z " fill="#285AA6" transform="translate(2232.25,167.3125)"/>
<path d="M0 0 C1.68416016 0.34998047 1.68416016 0.34998047 3.40234375 0.70703125 C16.0789975 3.57203349 26.21779697 9.55782479 36 18 C36.43699219 17.00419922 36.43699219 17.00419922 36.8828125 15.98828125 C40.01060996 9.25073012 42.61218264 4.75636819 49.76171875 1.89453125 C58.26040205 -0.45311468 67.08996037 0.20318098 75 4 C75 4.66 75 5.32 75 6 C75.5775 6.185625 76.155 6.37125 76.75 6.5625 C80.08190758 8.69121873 81.62719918 11.39149499 83 15 C84.67263347 22.71984678 85.64059941 36.71880118 82 44 C81.90322517 45.87432763 81.86924172 47.75208308 81.8671875 49.62890625 C81.86525391 51.30436523 81.86525391 51.30436523 81.86328125 53.01367188 C81.86714844 54.18478516 81.87101563 55.35589844 81.875 56.5625 C81.87113281 57.73748047 81.86726562 58.91246094 81.86328125 60.12304688 C81.86457031 61.23873047 81.86585938 62.35441406 81.8671875 63.50390625 C81.86887939 65.04800171 81.86887939 65.04800171 81.87060547 66.62329102 C81.73230066 68.95484108 81.73230066 68.95484108 83 70 C83.29418249 72.71598787 83.51667104 75.40084757 83.6875 78.125 C83.77741211 79.24648438 83.77741211 79.24648438 83.86914062 80.390625 C84.32585778 87.57297142 82.81014659 93.82493484 79 100 C72.35236877 106.9175858 65.30231623 110.06359443 55.75488281 110.29272461 C46.99445724 110.36551846 39.24866394 110.33829611 32.17578125 104.4921875 C24.51552995 96.51662319 24.57074071 86.32617444 24.47265625 75.90820312 C24.34646695 70.53773482 24.05598823 66.62019074 21 62 C18.17892499 59.26020797 18.17892499 59.26020797 15 57 C14.2575 56.443125 13.515 55.88625 12.75 55.3125 C2.88682022 50.60507329 -10.48892684 50.4258267 -20.92578125 53.26171875 C-30.7524499 56.75934658 -37.60907387 63.08250145 -42.79296875 72.12890625 C-50.10172852 87.70288077 -50.4968035 104.60097803 -50.39111328 121.50463867 C-50.37499847 124.56278943 -50.39107516 127.61962274 -50.41015625 130.67773438 C-50.43108785 149.80488036 -49.3439767 169.01916216 -36 184 C-26.87505412 192.42302696 -17.12883158 194.39247857 -5.0625 194.3125 C-4.18513184 194.30758545 -3.30776367 194.3026709 -2.40380859 194.29760742 C5.53549646 194.15369922 13.69143294 193.52917084 19.6875 187.65234375 C26.13089753 179.5405665 26.59664118 171.14631262 26.63598633 161.14477539 C26.70265488 154.63270733 27.81197646 149.13460664 30 143 C30.66 143 31.32 143 32 143 C32.268125 142.360625 32.53625 141.72125 32.8125 141.0625 C34 139 34 139 37 138 C37 137.34 37 136.68 37 136 C46.24572906 131.92100188 58.11494761 131.54516506 67.87890625 134.125 C75.59516627 137.30813489 81.38092736 143.58951793 85 151 C85.73655103 153.41797056 86.2731413 155.75623 86.67578125 158.25 C86.83318826 160.02200924 86.83318826 160.02200924 88 161 C89.59119409 183.34491124 84.60466385 202.01525349 69.7578125 219.14453125 C61.46900812 227.72684853 51.74239278 233.13792175 41 238 C40.15953125 238.38929688 39.3190625 238.77859375 38.453125 239.1796875 C33.41438734 241.36088602 28.24464306 242.82781364 22.9375 244.1875 C22.28861816 244.35467529 21.63973633 244.52185059 20.97119141 244.6940918 C11.3286151 247.04478768 1.76831753 247.19388732 -8.125 247.1875 C-10.05581421 247.1862915 -10.05581421 247.1862915 -12.02563477 247.18505859 C-23.06563475 247.11385531 -33.48696872 246.62802648 -44 243 C-45.95426271 242.44382602 -47.91253849 241.90151406 -49.875 241.375 C-50.84179688 241.11460937 -51.80859375 240.85421875 -52.8046875 240.5859375 C-53.89136719 240.29589844 -53.89136719 240.29589844 -55 240 C-55 239.34 -55 238.68 -55 238 C-56.3303125 237.814375 -56.3303125 237.814375 -57.6875 237.625 C-60.70387502 237.05587264 -63.20326054 236.23385564 -66 235 C-66 234.34 -66 233.68 -66 233 C-66.78375 232.814375 -67.5675 232.62875 -68.375 232.4375 C-75.69986986 229.53281023 -81.57275021 224.63109016 -87 219 C-88.20269531 217.75863281 -88.20269531 217.75863281 -89.4296875 216.4921875 C-98.61825583 206.6577773 -104.76618227 196.36945876 -110 184 C-110.3815625 183.10667969 -110.763125 182.21335937 -111.15625 181.29296875 C-113.55721008 175.22690674 -114.88541318 169.15480531 -115.96166992 162.74487305 C-116.48250786 159.64586791 -117.09077641 156.70757521 -118.0234375 153.703125 C-120.56629115 144.06062395 -120.19297999 133.90417001 -120.1875 124 C-120.18789276 123.32378601 -120.18828552 122.64757202 -120.18869019 121.9508667 C-120.16732472 91.16732472 -120.16732472 91.16732472 -117 88 C-116.63391034 86.44546691 -116.31882426 84.87882745 -116.02734375 83.30859375 C-115.85009766 82.36435547 -115.67285156 81.42011719 -115.49023438 80.44726562 C-115.30783203 79.45404297 -115.12542969 78.46082031 -114.9375 77.4375 C-114.75123047 76.44041016 -114.56496094 75.44332031 -114.37304688 74.41601562 C-113.91188047 71.94463671 -113.45436403 69.47263703 -113 67 C-112.34 67 -111.68 67 -111 67 C-110.86464844 65.03546875 -110.86464844 65.03546875 -110.7265625 63.03125 C-110.16260528 58.0086902 -108.60132096 54.00239211 -106.375 49.5 C-106.01599609 48.75878906 -105.65699219 48.01757812 -105.28710938 47.25390625 C-102.46530838 41.59039737 -99.23312168 36.71690702 -95 32 C-94.36191406 31.23300781 -93.72382812 30.46601563 -93.06640625 29.67578125 C-88.9106023 24.77468692 -84.5512138 20.32290967 -79 17 C-78.34 17 -77.68 17 -77 17 C-77 16.34 -77 15.68 -77 15 C-61.39754098 6 -61.39754098 6 -56 6 C-56 5.34 -56 4.68 -56 4 C-54.78441406 3.72285156 -53.56882812 3.44570312 -52.31640625 3.16015625 C-50.73172693 2.79446102 -49.14709388 2.42856525 -47.5625 2.0625 C-46.76005859 1.88009766 -45.95761719 1.69769531 -45.13085938 1.50976562 C-41.25047271 0.90338992 -41.25047271 0.90338992 -38 -1 C-25.83067467 -3.173522 -11.92922484 -3.22966494 0 0 Z " fill="#285AA6" transform="translate(142,228)"/>
<path d="M0 0 C3.375 0.25 3.375 0.25 4.375 1.25 C4.87102097 6.26856507 3.75217062 9.0112037 1.125 13.25 C0.52171875 14.24 -0.0815625 15.23 -0.703125 16.25 C-2.64113244 19.27518234 -4.6294547 22.26253982 -6.625 25.25 C-21.85784734 48.89842468 -32.81613045 74.23553236 -40.625 101.25 C-40.85525879 102.04148437 -41.08551758 102.83296875 -41.32275391 103.6484375 C-47.46358395 125.05799317 -51.16867796 146.76885896 -53.31542969 168.91943359 C-53.625 171.25 -53.625 171.25 -54.625 174.25 C-56.3421642 193.42500022 -56.60895131 213.63144631 -53.2109375 232.640625 C-52.73490351 235.57299441 -52.36075809 238.47071349 -52.0390625 241.421875 C-47.73405634 280.5915067 -35.94079267 317.76221625 -18.57299805 353.02832031 C-18.07582275 354.03991211 -17.57864746 355.05150391 -17.06640625 356.09375 C-16.61982666 356.99287109 -16.17324707 357.89199219 -15.71313477 358.81835938 C-14.74882266 360.9732951 -14.10221732 362.9454059 -13.625 365.25 C-12.965 365.25 -12.305 365.25 -11.625 365.25 C-10.36328125 367.05078125 -10.36328125 367.05078125 -8.9375 369.5625 C-6.15689664 374.36040384 -3.23572793 379.04203952 -0.23828125 383.70703125 C0.56029297 384.96580078 0.56029297 384.96580078 1.375 386.25 C1.931875 387.11625 2.48875 387.9825 3.0625 388.875 C4.71773364 391.87018468 4.74972161 393.8775055 4.375 397.25 C3.715 397.91 3.055 398.57 2.375 399.25 C-0.75 398.875 -0.75 398.875 -3.625 398.25 C-3.625 397.59 -3.625 396.93 -3.625 396.25 C-4.20636719 395.98445313 -4.78773438 395.71890625 -5.38671875 395.4453125 C-11.66930068 392.09021639 -16.48054106 386.45784964 -21.03515625 381.09765625 C-23.11064209 378.68560514 -25.34593368 376.46909089 -27.625 374.25 C-28.346875 373.5075 -29.06875 372.765 -29.8125 372 C-34.76340782 367.15911236 -39.87283583 362.45173134 -45.28125 358.125 C-47.93491032 356.00207174 -50.25248687 353.68182596 -52.625 351.25 C-53.8625 350.0125 -53.8625 350.0125 -55.125 348.75 C-67.625 336.25 -67.625 336.25 -69.66015625 334.1796875 C-73.91801644 329.87070378 -78.25378101 325.75269117 -82.84765625 321.8046875 C-85.2217263 319.72802842 -87.42525267 317.50919996 -89.625 315.25 C-90.511875 314.404375 -91.39875 313.55875 -92.3125 312.6875 C-94.625 310.25 -94.625 310.25 -95.6875 308.0625 C-96.91902102 305.68155937 -98.24608862 305.4222172 -100.625 304.25 C-111.8 295.725 -111.8 295.725 -113.625 290.25 C-114.285 289.92 -114.945 289.59 -115.625 289.25 C-117.625 288.25 -117.625 288.25 -118.625 285.25 C-119.264375 284.940625 -119.90375 284.63125 -120.5625 284.3125 C-123.12551718 282.99215782 -123.3657337 281.7685326 -124.625 279.25 C-125.93903276 278.54605388 -127.2770257 277.88654342 -128.625 277.25 C-139.01923077 269.06730769 -139.01923077 269.06730769 -140.625 264.25 C-141.94847617 263.563973 -143.28374062 262.9005732 -144.625 262.25 C-146.09327909 260.93142169 -147.51131623 259.5559134 -148.890625 258.14453125 C-149.69886719 257.32533203 -150.50710938 256.50613281 -151.33984375 255.66210938 C-152.17644531 254.80423828 -153.01304688 253.94636719 -153.875 253.0625 C-158.97969804 247.84961763 -164.08771661 242.76914584 -169.62890625 238.02124023 C-173.42612952 234.6517619 -176.94307082 230.99433144 -180.5 227.375 C-181.99508161 225.85449184 -183.49236644 224.33614589 -184.9921875 222.8203125 C-185.96841064 221.82668701 -185.96841064 221.82668701 -186.96435547 220.81298828 C-188.55642515 219.16455548 -188.55642515 219.16455548 -190.625 218.25 C-190.625 217.59 -190.625 216.93 -190.625 216.25 C-191.46998047 215.89421875 -191.46998047 215.89421875 -192.33203125 215.53125 C-195.13772916 213.96350057 -197.06255408 212.04085403 -199.3125 209.75 C-200.10011719 208.9559375 -200.88773438 208.161875 -201.69921875 207.34375 C-204.58671445 204.20440376 -205.15213197 201.76842581 -205.09765625 197.46484375 C-204.15619902 193.05322187 -200.75587595 190.30199729 -197.625 187.25 C-196.98046875 186.57066406 -196.3359375 185.89132812 -195.671875 185.19140625 C-192.2673456 181.63667702 -192.2673456 181.63667702 -190.625 180.25 C-189.965 180.25 -189.305 180.25 -188.625 180.25 C-188.3775 179.63125 -188.13 179.0125 -187.875 178.375 C-186.38759631 175.84641373 -185.18821991 175.53160996 -182.625 174.25 C-182.32722656 173.63511719 -182.02945312 173.02023437 -181.72265625 172.38671875 C-180.47261692 169.95336818 -179.17146457 168.78801647 -177.0625 167.0625 C-173.90742813 164.39897918 -170.95754002 161.63211262 -168.0625 158.6875 C-165.46399651 156.04888239 -162.85866413 153.54094161 -160 151.1875 C-157.50385251 149.10832909 -155.40846606 146.9194365 -153.3125 144.4375 C-149.84580362 140.35119047 -145.98428921 136.85435401 -141.95703125 133.328125 C-139.59474242 131.27718841 -139.59474242 131.27718841 -137.44921875 128.984375 C-135.625 127.25 -135.625 127.25 -133.625 127.25 C-133.37363281 126.66089844 -133.12226562 126.07179688 -132.86328125 125.46484375 C-131.47044599 122.97355798 -130.0041428 121.62699586 -127.8125 119.8125 C-124.56925719 117.10875212 -121.58753541 114.26031824 -118.625 111.25 C-104.09567078 96.55002807 -104.09567078 96.55002807 -98.37109375 91.77734375 C-94.99857504 88.82733298 -91.927427 85.56133785 -88.80078125 82.35546875 C-87.8463791 81.38278804 -86.89195188 80.41013192 -85.9375 79.4375 C-85.45216797 78.93541016 -84.96683594 78.43332031 -84.46679688 77.91601562 C-83.22375394 76.65582727 -81.92800108 75.44808956 -80.625 74.25 C-79.965 74.25 -79.305 74.25 -78.625 74.25 C-78.625 73.59 -78.625 72.93 -78.625 72.25 C-77.05078125 70.69921875 -77.05078125 70.69921875 -74.9375 68.9375 C-71.65677885 66.18811975 -68.62827638 63.30129388 -65.625 60.25 C-63.19059004 57.78859236 -60.75179761 55.33156261 -58.3125 52.875 C-57.68666016 52.24078125 -57.06082031 51.6065625 -56.41601562 50.953125 C-53.26951055 47.790484 -50.08406357 44.7393652 -46.69921875 41.83203125 C-41.30853485 37.18350967 -36.41283251 32.05005486 -31.453125 26.95117188 C-30.72867187 26.21576172 -30.00421875 25.48035156 -29.2578125 24.72265625 C-28.60699707 24.05500244 -27.95618164 23.38734863 -27.28564453 22.69946289 C-25.625 21.25 -25.625 21.25 -23.625 21.25 C-23.2846875 20.4146875 -23.2846875 20.4146875 -22.9375 19.5625 C-19.69361272 13.84707955 -13.77539846 9.65141869 -8.9296875 5.3359375 C-6.6791989 3.37131323 -6.6791989 3.37131323 -5.046875 1.4921875 C-3.625 0.25 -3.625 0.25 0 0 Z " fill="#CB2128" transform="translate(2064.625,175.75)"/>
<path d="M0 0 C5.23637118 0.03163971 9.37021635 0.64056687 14.375 2.1875 C23.92896715 3.65217288 32.93525657 3.03001677 42.375 1.1875 C42.705 0.8575 43.035 0.5275 43.375 0.1875 C45.06108966 0.11544489 46.75000659 0.10363932 48.4375 0.125 C49.35660156 0.13402344 50.27570313 0.14304687 51.22265625 0.15234375 C51.93292969 0.16394531 52.64320312 0.17554688 53.375 0.1875 C53.375 0.8475 53.375 1.5075 53.375 2.1875 C54.014375 2.31125 54.65375 2.435 55.3125 2.5625 C55.993125 2.76875 56.67375 2.975 57.375 3.1875 C58.52200379 5.48150758 58.50204371 6.76306889 58.50630188 9.3132782 C58.51031006 10.1778363 58.51431824 11.04239441 58.51844788 11.93315125 C58.51791916 12.88422256 58.51739044 13.83529388 58.5168457 14.81518555 C58.52032013 15.81550812 58.52379456 16.81583069 58.52737427 17.84646606 C58.53474199 20.02632272 58.54008194 22.20618693 58.54366493 24.38605309 C58.55082944 27.847503 58.56650043 31.30881106 58.58500671 34.7702179 C58.63744532 44.61510149 58.68535736 54.45991171 58.70092773 64.30493164 C58.71107243 70.32448698 58.74057091 76.34369158 58.78224754 82.36310768 C58.79448143 84.64774724 58.79969288 86.93243656 58.79744911 89.21710777 C58.18149579 110.0649131 58.18149579 110.0649131 65.8125 128.9375 C71.4187025 133.86001926 75.83402688 135.51695786 83.29296875 135.40625 C89.85247778 134.71707081 96.05782073 130.64098393 100.5 125.9375 C110.18955348 111.7261549 111.0233646 95.29345172 110.84155273 78.60058594 C110.81225415 75.66284846 110.82106496 72.72688788 110.83398438 69.7890625 C110.82775396 67.89061636 110.8193685 65.99217579 110.80859375 64.09375 C110.81152939 63.23108521 110.81446503 62.36842041 110.81748962 61.47961426 C110.72679248 55.57792682 109.5440321 50.67087758 107.375 45.1875 C105.70888095 45.144779 104.04117115 45.14686168 102.375 45.1875 C102.045 45.5175 101.715 45.8475 101.375 46.1875 C96.22656007 46.77695906 90.77179075 47.37592536 86.02734375 45.0234375 C81.75603666 41.4866864 79.85425013 37.91999873 78.890625 32.42578125 C78.09123897 23.62077925 77.76644115 15.90064339 83.5625 8.75 C86.9308325 5.27684388 89.79701539 3.68574951 94.375 2.1875 C95.303125 1.83945312 96.23125 1.49140625 97.1875 1.1328125 C104.97502347 -1.17672265 112.73650859 -0.09064656 120.375 2.1875 C129.71275658 3.4957461 141.66607032 4.54196484 150.375 0.1875 C155.13883201 -0.39368751 158.51988114 -0.26338085 162.8125 2 C165.47402466 4.27203325 167.22223811 5.85358137 167.6311264 9.42399883 C167.63552608 10.74270835 167.63552608 10.74270835 167.64001465 12.08805847 C167.64828781 13.09873383 167.65656097 14.10940918 167.66508484 15.15071106 C167.66410294 16.25879623 167.66312103 17.36688141 167.66210938 18.50854492 C167.66894241 19.6763147 167.67577545 20.84408447 167.68281555 22.04724121 C167.69642341 24.58776607 167.7054639 27.12831848 167.71052551 29.66887474 C167.7187982 33.69140508 167.73900643 37.71370337 167.76306152 41.73616028 C167.81204362 50.28240086 167.84432006 58.82867711 167.875 67.375 C167.90810992 76.58466045 167.94418413 85.7942554 167.99913073 95.00381547 C168.0261311 99.63912218 168.03797451 104.2743309 168.04724121 108.90971375 C168.06021845 111.34630642 168.07373946 113.78289628 168.08789062 116.21948242 C168.08690872 117.31744644 168.08592682 118.41541046 168.08491516 119.54664612 C168.13250865 125.44192347 168.66854417 130.53670779 170.375 136.1875 C171.303125 136.0225 172.23125 135.8575 173.1875 135.6875 C179.59096483 134.81548345 185.85745397 133.99738733 191.8125 136.8125 C197.85775191 142.4154164 199.84611631 148.0889685 200.375 156.1875 C199.82267033 164.0006635 197.35324766 171.8786931 191.3125 177.125 C187.8568892 179.55127992 185.47849128 180.31367088 181.35546875 180.3203125 C180.58009766 180.32160156 179.80472656 180.32289063 179.00585938 180.32421875 C178.19955078 180.32035156 177.39324219 180.31648437 176.5625 180.3125 C175.76779297 180.31636719 174.97308594 180.32023438 174.15429688 180.32421875 C169.76265054 180.31695383 165.71032527 179.9363821 161.375 179.1875 C158.87630076 179.09673528 156.37534203 179.057418 153.875 179.0625 C151.97234375 179.05863281 151.97234375 179.05863281 150.03125 179.0546875 C146.70002149 179.17569366 143.65248561 179.62418216 140.375 180.1875 C125.79130295 181.2781611 125.79130295 181.2781611 121.625 178.4375 C118.36034533 173.7218877 117.39106049 168.77583271 116.375 163.1875 C115.30958984 164.30125 115.30958984 164.30125 114.22265625 165.4375 C106.53255721 172.86387822 97.33690151 177.5587187 87.375 181.1875 C86.54742188 181.49558594 85.71984375 181.80367187 84.8671875 182.12109375 C67.83647858 188.15400589 46.63540923 186.8229134 30.23828125 179.61328125 C25.99797529 177.50180557 22.18471331 174.98968583 18.375 172.1875 C17.488125 171.589375 16.60125 170.99125 15.6875 170.375 C9.40455058 164.43166947 6.30955956 157.4919508 4.375 149.1875 C4.21331078 148.54954184 4.05162155 147.91158367 3.88503265 147.25429344 C2.59832738 141.93932181 2.08069967 136.99486657 2.08789062 131.53759766 C2.08105759 130.72489914 2.07422455 129.91220062 2.06718445 129.07487488 C2.05369522 127.32677554 2.04457896 125.57863786 2.03947449 123.83049393 C2.03110728 121.05420854 2.01053079 118.27823998 1.98693848 115.50204468 C1.93895186 109.60557749 1.90587843 103.70907835 1.875 97.8125 C1.83917526 90.98028935 1.79704098 84.14823516 1.73905945 77.31617355 C1.71918294 74.59826214 1.71071094 71.88047454 1.70275879 69.1625061 C1.64947707 60.64778843 1.42646632 52.51036067 -0.625 44.1875 C-1.4809375 44.50976562 -2.336875 44.83203125 -3.21875 45.1640625 C-9.77698236 47.13454057 -16.84054776 47.35990094 -23.1875 44.6875 C-28.56524952 39.17185946 -30.22849728 33.48184064 -30.66015625 25.859375 C-30.55864922 18.14484044 -27.73318023 11.68420276 -22.625 5.9375 C-18.65137681 3.61955314 -14.64453587 2.77713039 -10.171875 1.80078125 C-2.75365858 0.01449294 -2.75365858 0.01449294 0 0 Z " fill="#285AA6" transform="translate(1305.625,289.8125)"/>
<path d="M0 0 C0.89460938 -0.00128906 1.78921875 -0.00257813 2.7109375 -0.00390625 C3.65195312 -0.00003906 4.59296875 0.00382812 5.5625 0.0078125 C6.97402344 0.00201172 6.97402344 0.00201172 8.4140625 -0.00390625 C9.75597656 -0.00197266 9.75597656 -0.00197266 11.125 0 C11.95128906 0.00112793 12.77757812 0.00225586 13.62890625 0.00341797 C15.5625 0.1328125 15.5625 0.1328125 16.5625 1.1328125 C18.08806715 1.33623393 19.62167737 1.48008819 21.15625 1.59765625 C22.105 1.67564453 23.05375 1.75363281 24.03125 1.83398438 C26.02071996 1.98909125 28.01030079 2.14278397 30 2.29492188 C46.71976644 3.67699934 60.74558269 8.50462854 72.375 21.0703125 C83.57769748 34.55504095 82.69612181 51.97797855 82.79229546 68.59374428 C82.80887708 71.3557882 82.83211374 74.11770532 82.85719299 76.87968445 C82.92754215 84.72514424 82.98826002 92.5706507 83.03930664 100.41625977 C83.07110508 105.23244196 83.11236238 110.04846764 83.15950203 114.86452293 C83.17549211 116.69410588 83.18782747 118.52372462 83.19640923 120.35335732 C83.20857203 122.90671361 83.23271986 125.45970082 83.25952148 128.01293945 C83.26011063 128.76471466 83.26069977 129.51648987 83.26130676 130.29104614 C83.31754431 134.33720662 83.76799915 137.48824114 85.5625 141.1328125 C86.5525 141.13539063 87.5425 141.13796875 88.5625 141.140625 C101.66485264 141.42261005 101.66485264 141.42261005 107.04296875 146.42578125 C112.83905207 152.93706251 113.21180213 157.83463548 112.9375 166.53515625 C112.13100204 174.27249609 108.79519096 178.72455336 102.84765625 183.59375 C94.62332463 189.13287249 85.97391819 190.3127527 76.3125 190.3203125 C75.50425781 190.33255859 74.69601562 190.34480469 73.86328125 190.35742188 C61.58498147 190.38688979 51.17859243 186.78174087 41.9375 178.5625 C39.52893257 176.05813727 38.5625 174.64346182 38.5625 171.1328125 C37.61503906 171.76896484 37.61503906 171.76896484 36.6484375 172.41796875 C18.72851592 184.16662051 1.58717897 190.30630747 -19.8125 190.3203125 C-20.78960937 190.33255859 -21.76671875 190.34480469 -22.7734375 190.35742188 C-37.6196781 190.38703539 -50.78207206 185.81763308 -63.4375 178.1328125 C-63.4375 177.4728125 -63.4375 176.8128125 -63.4375 176.1328125 C-64.03046875 175.875 -64.6234375 175.6171875 -65.234375 175.3515625 C-67.61410965 174.03511355 -68.94728792 172.70700468 -70.6875 170.6328125 C-71.20828125 170.024375 -71.7290625 169.4159375 -72.265625 168.7890625 C-73.4375 167.1328125 -73.4375 167.1328125 -73.4375 165.1328125 C-74.0975 165.1328125 -74.7575 165.1328125 -75.4375 165.1328125 C-76.42516013 162.92794431 -77.40268516 160.71943939 -78.375 158.5078125 C-78.65279297 157.89035156 -78.93058594 157.27289063 -79.21679688 156.63671875 C-85.00487571 143.38689972 -83.52016399 126.5059022 -78.8125 113.0703125 C-72.97417755 99.41862172 -62.0271945 91.72277296 -48.9140625 86.0390625 C-42.6201177 83.54416546 -36.30674049 82.19927044 -29.65576172 81.08349609 C-26.25652974 80.76310305 -26.25652974 80.76310305 -23.4375 79.1328125 C-21.80309129 78.82428478 -20.15863906 78.56860611 -18.51171875 78.3359375 C3.14672333 75.43637502 3.14672333 75.43637502 20.4375 63.0078125 C22.23401236 58.41672537 22.1982847 53.99049334 21.5625 49.1328125 C19.24166109 44.22334557 16.26090347 41.77566445 11.5625 39.1328125 C8.22517978 38.05160725 4.99574502 37.90261629 1.5 37.8203125 C0.45714844 37.78292969 -0.58570313 37.74554688 -1.66015625 37.70703125 C-4.47741798 37.89101332 -4.47741798 37.89101332 -6.27734375 39.69140625 C-7.85869127 43.01915777 -7.84953309 45.83519397 -7.9375 49.5078125 C-8.08583338 55.67600906 -8.84254288 60.10760342 -12.9453125 64.890625 C-22.31099242 72.80847034 -32.02038629 74.86729491 -44.2421875 73.9140625 C-52.70232732 72.54357256 -59.83884636 68.80703339 -65.15625 62.02734375 C-70.34028689 54.36192335 -72.04339889 47.3329088 -71.4375 38.1328125 C-69.3037423 27.46402401 -64.2629001 19.4346557 -55.4375 13.1328125 C-41.04360897 4.284109 -24.88722671 2.20529884 -8.359375 1.37890625 C-5.091655 1.10368384 -3.45886056 0.00472153 0 0 Z M16.58984375 112.515625 C11.50259882 114.25104589 6.41565721 115.13325214 1.125 116.0078125 C-11.75591212 118.12175226 -11.75591212 118.12175226 -21.625 126.0078125 C-22.63845025 129.90569808 -22.56453171 132.25864098 -21.4375 136.1328125 C-17.75582665 141.23964973 -12.49548357 143.81623368 -6.4375 145.1328125 C1.03090081 144.97722082 8.6166933 142.64833402 14.24609375 137.6328125 C21.00577855 130.35055855 23.04670176 123.27015583 22.703125 113.44140625 C22.65671875 112.67957031 22.6103125 111.91773438 22.5625 111.1328125 C20.25403392 111.1328125 18.75847959 111.72565845 16.58984375 112.515625 Z " fill="#285AA6" transform="translate(322.4375,284.8671875)"/>
<path d="M0 0 C1.26972656 -0.00257813 2.53945313 -0.00515625 3.84765625 -0.0078125 C6.9375 0.125 6.9375 0.125 7.9375 1.125 C9.87837232 1.33900448 11.82018868 1.5466359 13.76513672 1.71972656 C32.72211298 3.42398204 50.65195492 9.48127463 63.5703125 24.10546875 C79.5833237 43.66769444 84.35422645 66.39295091 82.73046875 91.30078125 C82.1273738 96.19844242 81.32266366 99.34975711 77.625 102.75 C72.27394424 106.91059617 65.73830357 106.28938671 59.28198242 106.33032227 C58.3156488 106.34022186 57.34931519 106.35012146 56.35369873 106.36032104 C53.16681347 106.39185152 49.97991331 106.41666007 46.79296875 106.44140625 C44.58050657 106.46198307 42.36804825 106.48297974 40.15559387 106.50437927 C34.33760717 106.5595247 28.51958544 106.60896718 22.70153809 106.65722656 C16.76258228 106.70749657 10.82367724 106.76315392 4.88476562 106.81835938 C-6.76427953 106.92584886 -18.4133688 107.02731427 -30.0625 107.125 C-30.09659373 108.69255389 -30.12064942 110.26032764 -30.140625 111.828125 C-30.15512695 112.70114258 -30.16962891 113.57416016 -30.18457031 114.47363281 C-29.8688883 121.33024614 -26.93519052 126.64981685 -23.0625 132.125 C-23.0625 132.785 -23.0625 133.445 -23.0625 134.125 C-22.47597656 134.40472656 -21.88945313 134.68445313 -21.28515625 134.97265625 C-19.21978354 136.04345581 -17.40868986 137.23919666 -15.5 138.5625 C-7.81123148 143.34662263 -0.56828756 144.91140433 8.27734375 142.875 C12.21751165 141.76411566 16.09824668 140.54694568 19.9375 139.125 C19.9375 138.465 19.9375 137.805 19.9375 137.125 C21.3359375 135.71484375 21.3359375 135.71484375 23.3125 134.0625 C25.73922573 132.02096883 28.09579317 129.97227875 30.37890625 127.76953125 C38.38818423 120.08613939 44.00729346 117.94357366 55.0625 117.75 C55.73168457 117.73573975 56.40086914 117.72147949 57.09033203 117.70678711 C63.78403958 117.77364165 69.53270937 119.98044161 74.58203125 124.48828125 C78.70484706 129.46655164 80.72360467 136.22627874 80.3828125 142.64453125 C78.32774414 154.09162254 72.40325051 163.35174442 63.9375 171.125 C63.2775 171.125 62.6175 171.125 61.9375 171.125 C61.6075 172.115 61.2775 173.105 60.9375 174.125 C43.37650836 186.59417199 22.81964064 190.30170059 1.75 190.3125 C0.51185547 190.32474609 -0.72628906 190.33699219 -2.00195312 190.34960938 C-17.33989608 190.373713 -30.2573689 187.57968916 -44.0625 181.125 C-45.031875 180.691875 -46.00125 180.25875 -47 179.8125 C-53.70428886 176.11830002 -59.86468437 171.76834268 -65.0625 166.125 C-66.238125 165.01125 -66.238125 165.01125 -67.4375 163.875 C-78.39670038 152.39393293 -86.04620137 137.76469551 -88.66796875 122.05859375 C-88.87705052 120.12662747 -88.87705052 120.12662747 -90.0625 119.125 C-90.91245207 114.3532867 -91.19082811 109.74683101 -91.1953125 104.90625 C-91.19626923 104.24467896 -91.19722595 103.58310791 -91.19821167 102.90148926 C-91.19888724 101.513264 -91.19707684 100.12503546 -91.19287109 98.73681641 C-91.18751389 96.63046062 -91.19283736 94.52431802 -91.19921875 92.41796875 C-91.19855786 91.05989537 -91.19727647 89.70182212 -91.1953125 88.34375 C-91.19418457 87.12623047 -91.19305664 85.90871094 -91.19189453 84.65429688 C-90.96676127 78.51368102 -89.82258478 72.99194925 -88.0625 67.125 C-87.89234375 66.35800781 -87.7221875 65.59101563 -87.546875 64.80078125 C-84.80019648 53.02175606 -78.98436822 41.29114072 -71.0625 32.125 C-70.50820313 31.45210938 -69.95390625 30.77921875 -69.3828125 30.0859375 C-53.87136441 11.6790191 -34.43766939 4.07406139 -11.01098633 1.43457031 C-1.95651033 -0.00398069 -1.95651033 -0.00398069 0 0 Z M-27.20703125 56.58984375 C-29.1286029 59.21531744 -29.71344514 60.92628418 -30.0625 64.125 C-26.8495279 66.2669814 -26.02408371 66.37416157 -22.33154297 66.36791992 C-21.37400116 66.37099655 -20.41645935 66.37407318 -19.42990112 66.37724304 C-17.88292038 66.36646477 -17.88292038 66.36646477 -16.3046875 66.35546875 C-14.71649704 66.35478142 -14.71649704 66.35478142 -13.09622192 66.3540802 C-10.85857014 66.35105877 -8.62092044 66.34317575 -6.38330078 66.33081055 C-2.94426083 66.31253593 0.49451028 66.31030098 3.93359375 66.31054688 C6.10416901 66.30563245 8.27474244 66.29980446 10.4453125 66.29296875 C11.48068146 66.29185593 12.51605042 66.2907431 13.58279419 66.28959656 C14.53403168 66.28321671 15.48526917 66.27683685 16.46533203 66.27026367 C17.30677765 66.26645187 18.14822327 66.26264008 19.01516724 66.25871277 C20.94553765 66.33574112 20.94553765 66.33574112 21.9375 65.125 C22.64016553 59.7570961 22.27392547 55.25681999 19.265625 50.69140625 C14.59157594 45.1787778 8.72905252 42.56488023 1.5546875 41.90625 C-11.13282334 41.44065327 -18.86183398 47.54571874 -27.20703125 56.58984375 Z " fill="#285AA6" transform="translate(897.0625,284.875)"/>
<path d="M0 0 C1.12535156 0.00580078 1.12535156 0.00580078 2.2734375 0.01171875 C3.02367187 0.00785156 3.77390625 0.00398438 4.546875 0 C10.14682697 0.01010822 10.14682697 0.01010822 11.2734375 1.13671875 C13.94074246 1.49097019 16.5979154 1.79797412 19.2734375 2.07421875 C25.39311687 2.74330881 31.29699616 3.61544277 37.2734375 5.13671875 C37.2734375 5.79671875 37.2734375 6.45671875 37.2734375 7.13671875 C38.4903125 7.30171875 39.7071875 7.46671875 40.9609375 7.63671875 C55.5360713 10.94924916 69.22164127 24.05902441 77.2734375 36.13671875 C77.2734375 37.12671875 77.2734375 38.11671875 77.2734375 39.13671875 C77.9334375 39.13671875 78.5934375 39.13671875 79.2734375 39.13671875 C83.41434946 47.33912792 86.90403365 55.04475795 88.66796875 64.13671875 C89.22747972 67.19983249 89.22747972 67.19983249 90.3046875 70.33203125 C91.55518203 75.24324769 91.78081531 79.9615953 91.9609375 85.01171875 C92.0007373 86.02169922 92.04053711 87.03167969 92.08154297 88.07226562 C92.51327594 101.13580305 92.50799102 114.66831116 88.2734375 127.13671875 C87.85440486 129.01119141 87.43803808 130.88626081 87.0234375 132.76171875 C84.67169964 142.33495468 79.86333472 151.06242276 74.2734375 159.13671875 C73.6134375 159.13671875 72.9534375 159.13671875 72.2734375 159.13671875 C72.0878125 159.81734375 71.9021875 160.49796875 71.7109375 161.19921875 C69.71724426 165.27328754 66.77569042 168.27048818 63.2734375 171.13671875 C62.6134375 171.13671875 61.9534375 171.13671875 61.2734375 171.13671875 C61.2734375 171.79671875 61.2734375 172.45671875 61.2734375 173.13671875 C56.88882212 176.13671875 56.88882212 176.13671875 54.2734375 176.13671875 C54.2734375 176.79671875 54.2734375 177.45671875 54.2734375 178.13671875 C28.87738872 190.79917444 -1.81328943 195.45996441 -29.4765625 186.76171875 C-30.89807689 186.23290493 -32.31480699 185.69105945 -33.7265625 185.13671875 C-34.50128906 184.86085938 -35.27601562 184.585 -36.07421875 184.30078125 C-54.69618977 177.3950107 -70.20263613 164.42788018 -78.63696289 146.25268555 C-80.10189931 142.91802243 -81.44250129 139.54468661 -82.7265625 136.13671875 C-83.1390625 135.04359375 -83.5515625 133.95046875 -83.9765625 132.82421875 C-93.53109715 104.72264625 -90.89881893 69.50633105 -77.90527344 42.97729492 C-74.1522103 35.77159858 -69.54941364 29.80351358 -63.7265625 24.13671875 C-62.96730469 23.35683594 -62.20804688 22.57695312 -61.42578125 21.7734375 C-47.36358568 8.07948273 -27.95833106 2.70946189 -8.84375 1.3828125 C-5.7649669 1.02494657 -3.4559435 0.00623817 0 0 Z M-10.7265625 49.13671875 C-10.7265625 49.79671875 -10.7265625 50.45671875 -10.7265625 51.13671875 C-11.4278125 51.32234375 -12.1290625 51.50796875 -12.8515625 51.69921875 C-18.75958605 54.65323053 -23.2848602 61.07606483 -25.7265625 67.13671875 C-26.63394353 70.55560085 -27.40670222 73.97561638 -28.11328125 77.44140625 C-28.7265625 80.13671875 -28.7265625 80.13671875 -29.7265625 81.13671875 C-31.24961698 100.19996272 -30.96846185 120.38357695 -18.7265625 136.13671875 C-13.87631962 141.44888952 -7.70343387 143.82586035 -0.7265625 145.13671875 C3.14433658 145.01334348 6.5731464 144.24281501 10.2734375 143.13671875 C11.01722656 142.94851563 11.76101563 142.7603125 12.52734375 142.56640625 C19.8388691 140.37433603 23.36314472 135.07205643 26.9609375 128.63671875 C35.10149364 110.96383397 35.55077748 84.49497718 29.2734375 66.13671875 C25.86238025 58.32635403 20.47584889 51.27762879 12.42578125 47.96484375 C4.84337594 45.97293554 -3.3929561 46.40793497 -10.7265625 49.13671875 Z " fill="#285AA6" transform="translate(1195.7265625,284.86328125)"/>
<path d="M0 0 C0.95003906 0.19464844 1.90007812 0.38929688 2.87890625 0.58984375 C14.77981904 3.15849543 24.33525633 8.39598384 32 18 C37.45648157 26.77214262 39.25544134 35.36369164 37.57421875 45.58984375 C35.95863935 52.02242674 33.22165053 56.83928553 28 61 C21.07525983 65.00854677 13.99466992 67.4679136 6 66 C-1.90923864 63.87800914 -7.02614709 60.87570104 -11.79296875 54.18359375 C-15.1069649 48.18837094 -14.41936199 41.47724719 -13 35 C-21.49742107 36.17923147 -21.49742107 36.17923147 -28.1875 41 C-31.11169123 46.0983111 -31.55960752 52.54114929 -30.6328125 58.26953125 C-30.14667617 60.21267384 -30.14667617 60.21267384 -28 61 C-25.97709156 61.09404017 -23.95375247 61.18315721 -21.92944336 61.23950195 C-5.7394151 61.72596748 -5.7394151 61.72596748 0 66 C0.74609375 68.13671875 0.74609375 68.13671875 1 70 C1.66 70 2.32 70 3 70 C4.18397001 72.36794003 4.12913001 73.82581309 4.1328125 76.46484375 C4.13410156 77.34720703 4.13539062 78.22957031 4.13671875 79.13867188 C4.13285156 80.06228516 4.12898438 80.98589844 4.125 81.9375 C4.12886719 82.85724609 4.13273437 83.77699219 4.13671875 84.72460938 C4.13542969 85.60826172 4.13414063 86.49191406 4.1328125 87.40234375 C4.13168457 88.21179443 4.13055664 89.02124512 4.12939453 89.85522461 C4 92 4 92 3 95 C2.34 95 1.68 95 1 95 C0.979375 95.5775 0.95875 96.155 0.9375 96.75 C-0.52647096 100.26353031 -3.63382456 101.58859179 -7 103 C-11.867669 104.25119661 -16.81624765 104.33522827 -21.8125 104.5625 C-22.69615234 104.60568359 -23.57980469 104.64886719 -24.49023438 104.69335938 C-26.65999623 104.79891536 -28.8299791 104.89991071 -31 105 C-31.02320035 115.57057256 -31.04095429 126.14113904 -31.05181217 136.71173191 C-31.05702417 141.62041182 -31.06409123 146.52907428 -31.07543945 151.43774414 C-31.08632818 156.17747608 -31.09228952 160.91719125 -31.09487724 165.65693474 C-31.09672071 167.46256715 -31.10032052 169.26819868 -31.10573006 171.07382393 C-31.11301994 173.60856208 -31.1139876 176.14323152 -31.11352539 178.67797852 C-31.1189183 179.79036896 -31.1189183 179.79036896 -31.12442017 180.92523193 C-31.27346736 190.18830997 -31.27346736 190.18830997 -27 198 C-26.05125 197.835 -25.1025 197.67 -24.125 197.5 C-17.94895872 196.63384787 -10.52777501 195.61200887 -5 199 C-4.67 199.99 -4.34 200.98 -4 202 C-3.34 202 -2.68 202 -2 202 C1.4609919 211.49712659 3.02496857 222.36819748 -1 232 C-3.97135237 236.34101858 -7.06091087 239.98973049 -12 242 C-14.68212891 242.24291992 -14.68212891 242.24291992 -17.7265625 242.23046875 C-19.39912109 242.22756836 -19.39912109 242.22756836 -21.10546875 242.22460938 C-22.26691406 242.21236328 -23.42835937 242.20011719 -24.625 242.1875 C-25.76324219 242.18685547 -26.90148438 242.18621094 -28.07421875 242.18554688 C-33.0803093 242.15968303 -38.01580423 242.06071796 -42.9921875 241.49609375 C-49.15582508 240.80173142 -55.30396233 240.85432357 -61.5 240.875 C-63.23830078 240.86919922 -63.23830078 240.86919922 -65.01171875 240.86328125 C-70.91434254 240.86995088 -76.67136078 241.10335482 -82.53417969 241.76855469 C-87.14112373 242.20096884 -91.75118983 242.18435455 -96.375 242.1875 C-97.34566406 242.19974609 -98.31632813 242.21199219 -99.31640625 242.22460938 C-100.25097656 242.22654297 -101.18554688 242.22847656 -102.1484375 242.23046875 C-102.98552246 242.23457764 -103.82260742 242.23868652 -104.68505859 242.24291992 C-107.19924168 241.97909244 -108.82825466 241.26148719 -111 240 C-111 239.34 -111 238.68 -111 238 C-111.61488281 237.73832031 -112.22976563 237.47664062 -112.86328125 237.20703125 C-116.49639288 235.15468848 -117.76237973 231.80670879 -119 228 C-120.45216269 219.79893732 -121.31343579 210.17842679 -116.6328125 202.86328125 C-114.18913904 199.86643793 -112.72699349 198.24233116 -109 197 C-102.92148246 196.67090829 -96.98876044 196.93533148 -91 198 C-87.50445211 192.75667816 -87.8536271 187.06326624 -87.87060547 180.9309082 C-87.86885315 180.14481171 -87.86710083 179.35871521 -87.86529541 178.54879761 C-87.86091553 175.96610264 -87.86380038 173.38347684 -87.8671875 170.80078125 C-87.86651355 169.00050341 -87.86554277 167.20022565 -87.86428833 165.39994812 C-87.86281677 161.63503143 -87.86494927 157.87013853 -87.86962891 154.10522461 C-87.87533819 149.27639286 -87.87203619 144.44761655 -87.86605644 139.61878681 C-87.86244671 135.90510132 -87.86359111 132.19142903 -87.86618423 128.47774315 C-87.86685172 126.69671815 -87.86603128 124.91569196 -87.86370468 123.13466835 C-87.86117009 120.6500492 -87.86502963 118.1655206 -87.87060547 115.6809082 C-87.86858124 114.94371048 -87.86655701 114.20651276 -87.86447144 113.44697571 C-87.87735218 110.35449385 -88.01401843 107.95794471 -89 105 C-89.90621094 104.96261719 -90.81242188 104.92523438 -91.74609375 104.88671875 C-108.49521227 103.98279807 -108.49521227 103.98279807 -114.9375 98.5 C-119.96914468 92.40103675 -120.34254481 86.80197082 -119.7890625 79.04296875 C-118.90071563 72.91672763 -117.71691162 69.10166228 -113 65 C-106.62160039 61.57456317 -100.29511953 61.60976818 -93.1953125 61.50390625 C-90.02892396 61.34208087 -90.02892396 61.34208087 -88.60546875 59.49609375 C-87.72452859 55.86434689 -87.47254815 52.21408894 -87.1875 48.5 C-86.0202646 36.34343239 -82.15546009 27.17963415 -74 18 C-73.21625 17.113125 -72.4325 16.22625 -71.625 15.3125 C-62.37150622 7.16061262 -52.59803823 3.09380653 -40.625 0.61328125 C-38.08816854 0.26406667 -38.08816854 0.26406667 -37 -1 C-24.96793493 -2.96888337 -11.81205734 -3.12498688 0 0 Z " fill="#285AA6" transform="translate(1101,228)"/>
<path d="M0 0 C6.56528042 5.48332221 10.78833503 11.09048784 14 19 C14.31839844 19.70640625 14.63679687 20.4128125 14.96484375 21.140625 C18.46895249 29.86052694 18.36909352 40.32857243 14.9140625 49.046875 C10.86320773 57.70254758 5.80740093 64.81314842 -3 69 C-11.68138428 71.28533129 -21.93692455 71.18143835 -30 67 C-35.37060345 63.57263677 -39.2752863 59.20690381 -41 53 C-41.62951541 46.8721854 -41.5859077 41.65796605 -39 36 C-46.55171994 36.52994526 -51.92910254 38.50494765 -57.125 44.125 C-67.86150774 57.79482418 -70.80795143 77.02859665 -71 94 C-71.02852051 95.50530273 -71.02852051 95.50530273 -71.05761719 97.04101562 C-71.11867922 100.50653605 -71.15745351 103.97157706 -71.1875 107.4375 C-71.20744019 109.10945435 -71.20744019 109.10945435 -71.2277832 110.81518555 C-71.23281331 116.89017819 -70.93003999 122.21669995 -69 128 C-67.2456424 129.71195826 -67.2456424 129.71195826 -65 130 C-64.40703125 129.84917969 -63.8140625 129.69835937 -63.203125 129.54296875 C-57.73302606 128.19484153 -51.91201715 128.40901288 -46.5625 130.0625 C-42.00459269 133.5087226 -40.39085439 136.67484432 -39.46484375 142.18359375 C-38.4586739 152.74259457 -38.58821462 161.90557915 -45.3671875 170.44140625 C-48.85346062 173.76921241 -51.92149075 174.25008154 -56.65625 174.23046875 C-58.31527344 174.22756836 -58.31527344 174.22756836 -60.0078125 174.22460938 C-61.73644531 174.20624023 -61.73644531 174.20624023 -63.5 174.1875 C-64.62148438 174.18685547 -65.74296875 174.18621094 -66.8984375 174.18554688 C-72.28207556 174.15757185 -77.59943589 173.99330464 -82.9609375 173.49609375 C-89.68633187 172.87939574 -96.37534754 172.8530618 -103.125 172.875 C-104.92130859 172.86919922 -104.92130859 172.86919922 -106.75390625 172.86328125 C-112.74714152 172.86984558 -118.6065332 173.07780849 -124.56054688 173.75097656 C-129.09742108 174.21410824 -133.63020504 174.3462912 -138.1875 174.4375 C-139.13302734 174.48326172 -140.07855469 174.52902344 -141.05273438 174.57617188 C-145.96959678 174.65497873 -149.15510703 174.42132917 -153.02734375 171.22265625 C-159.07806969 165.13776065 -160.77972926 158.55226203 -161.1875 150.125 C-161.00609119 142.17324716 -159.13777994 137.50843531 -153.75390625 131.56640625 C-149.46367002 127.73481443 -143.38924768 128.80961897 -138 129 C-135.30798834 129.24396356 -132.67443824 129.59631121 -130 130 C-128.79957571 121.49824194 -128.83609554 113.0342331 -128.83203125 104.46875 C-128.82881156 102.86649548 -128.82544697 101.26424124 -128.82194519 99.6619873 C-128.8159848 96.31680622 -128.81410222 92.97165086 -128.81469727 89.62646484 C-128.81479899 85.35988384 -128.80112184 81.09346884 -128.78392506 76.82692719 C-128.7727602 73.52218887 -128.77077939 70.21749022 -128.77130699 66.91273499 C-128.7701346 65.34041265 -128.76575489 63.76808904 -128.75797462 62.19578552 C-128.72221026 54.22585271 -128.80086738 46.73536866 -131 39 C-132.66611905 38.957279 -134.33382885 38.95936168 -136 39 C-136.33 39.33 -136.66 39.66 -137 40 C-142.54466653 40.52601036 -147.43048034 40.75673269 -152.5 38.3125 C-157.43252606 33.7499134 -160.30852979 29.81896009 -161 23 C-161.08201109 15.19072179 -160.92839355 7.40071238 -156 1 C-152.85749144 -2.20009379 -149.08756137 -5.77395832 -144.546875 -6.265625 C-138.91748461 -6.23417589 -134.42465705 -5.56303678 -129 -4 C-119.46273159 -2.66722788 -110.42508996 -2.98526627 -101 -5 C-100.67 -5.33 -100.34 -5.66 -100 -6 C-98.07421875 -6.16796875 -98.07421875 -6.16796875 -95.6875 -6.1875 C-94.51767578 -6.20876953 -94.51767578 -6.20876953 -93.32421875 -6.23046875 C-89.58146249 -5.8593383 -87.73120213 -4.86171418 -85.29296875 -1.98828125 C-83.45763617 2.25349949 -83.431993 6.23421124 -83.3125 10.8125 C-83.27833984 11.69615234 -83.24417969 12.57980469 -83.20898438 13.49023438 C-83.12689567 15.65972167 -83.06176121 17.8298389 -83 20 C-82.61328125 19.40832031 -82.2265625 18.81664062 -81.828125 18.20703125 C-75.89655172 9.20689655 -75.89655172 9.20689655 -73 6 C-72.34 6 -71.68 6 -71 6 C-71 5.34 -71 4.68 -71 4 C-51.31490419 -10.93859608 -20.71006985 -15.78238268 0 0 Z " fill="#285AA6" transform="translate(789,296)"/>
<path d="M0 0 C1.5778125 1.11375 1.5778125 1.11375 3.1875 2.25 C11.73440364 10.60697245 17.01149251 20.36287546 17.41894531 32.37744141 C17.47623326 39.31682152 17.04315555 45.66694655 14 52 C13.443125 53.175625 12.88625 54.35125 12.3125 55.5625 C11.879375 56.366875 11.44625 57.17125 11 58 C10.34 58 9.68 58 9 58 C8.62875 59.175625 8.62875 59.175625 8.25 60.375 C6.8175952 63.38305008 5.9690761 63.75490357 3 65 C2.67 65.66 2.34 66.32 2 67 C-6.35301995 70.81752275 -15.99210431 71.35260834 -24.8125 68.9375 C-30.86698992 66.5970166 -34.53455052 62.31635563 -37.9375 56.9375 C-40.23603938 50.77515824 -40.05515829 42.16547487 -38 36 C-45.50333258 36.23820103 -50.29532793 38.04250951 -56 43 C-57.90038049 45.68654708 -57.90038049 45.68654708 -59 48 C-59.66 48 -60.32 48 -61 48 C-61.18949219 49.10794922 -61.18949219 49.10794922 -61.3828125 50.23828125 C-61.95943053 52.81846445 -62.75656924 54.80758339 -63.875 57.1875 C-71.72121677 76.54718703 -74.44336083 106.8370069 -68.94921875 126.953125 C-68.63597656 127.62859375 -68.32273437 128.3040625 -68 129 C-64.61292453 130.12902516 -63.40814753 129.74177329 -60 129 C-55.16535387 128.63879081 -50.63068248 128.3754833 -46.0625 130.125 C-40.73849015 134.96500895 -39.29683583 139.43614916 -38.84375 146.40234375 C-38.5830225 153.97430487 -38.70055922 162.65660208 -43.44213867 168.8984375 C-47.42868018 173.05483165 -50.5346154 174.46065276 -56.30078125 174.71875 C-58.63886643 174.68182592 -60.97661809 174.60798794 -63.3125 174.5 C-65.05176758 174.46519531 -65.05176758 174.46519531 -66.82617188 174.4296875 C-72.06679412 174.30007121 -77.26147795 174.00499892 -82.4765625 173.4765625 C-89.00353119 172.83583462 -95.50918425 172.8538489 -102.0625 172.875 C-103.26455078 172.87113281 -104.46660156 172.86726562 -105.70507812 172.86328125 C-111.71583861 172.86983964 -117.58756704 173.08164182 -123.55834961 173.75976562 C-128.11595706 174.20818936 -132.67348566 174.26535184 -137.25 174.3125 C-138.20390625 174.34150391 -139.1578125 174.37050781 -140.140625 174.40039062 C-145.93532076 174.45270385 -149.51127821 174.05455525 -154 170 C-159.58251534 162.68040744 -160.35020737 154.21393589 -159.84765625 145.296875 C-158.94868886 138.71118135 -156.04384592 134.30243427 -151 130 C-144.38887206 127.79629069 -136.77840295 128.79495059 -130 130 C-128.48536717 124.58985539 -127.74807927 119.88632619 -127.74121094 114.22631836 C-127.7377063 113.49512283 -127.73420166 112.76392731 -127.73059082 112.01057434 C-127.72186774 109.62023105 -127.72758834 107.23018947 -127.734375 104.83984375 C-127.73302578 103.1641077 -127.73108311 101.48837204 -127.72857666 99.81263733 C-127.72563829 96.31182097 -127.729882 92.81110712 -127.73925781 89.31030273 C-127.75066044 84.83609594 -127.7440796 80.36212892 -127.73211288 75.88793087 C-127.72486699 72.43142406 -127.72719458 68.9749736 -127.73236847 65.51846504 C-127.73369696 63.86913588 -127.73208548 62.21980151 -127.72740936 60.57047844 C-127.72229806 58.26161115 -127.73011803 55.95312612 -127.74121094 53.64428711 C-127.74280212 52.33382919 -127.74439331 51.02337128 -127.74603271 49.67320251 C-128.01562072 45.77407297 -128.79609127 42.69830917 -130 39 C-131.66611905 38.957279 -133.33382885 38.95936168 -135 39 C-135.33 39.33 -135.66 39.66 -136 40 C-141.35692607 40.51541402 -147.06716248 40.94487798 -152 38.5 C-157.0486872 34.29276067 -158.96210641 29.70249784 -159.875 23.25 C-160.43686747 14.1196536 -159.13264357 5.0971246 -153 -2 C-150 -4 -150 -4 -146 -4 C-146 -4.66 -146 -5.32 -146 -6 C-144.18757948 -6.02687279 -142.37504767 -6.04633715 -140.5625 -6.0625 C-139.55316406 -6.07410156 -138.54382813 -6.08570313 -137.50390625 -6.09765625 C-135 -6 -135 -6 -134 -5 C-123.59057068 -2.80379092 -113.14691256 -2.18377586 -102.8125 -5.0625 C-98.12603431 -6.2149096 -93.79666696 -6.17692624 -89 -6 C-89 -5.34 -89 -4.68 -89 -4 C-88.195625 -3.731875 -87.39125 -3.46375 -86.5625 -3.1875 C-85.2940625 -2.5996875 -85.2940625 -2.5996875 -84 -2 C-83.0268319 0.9195043 -82.8070454 3.05444951 -82.68359375 6.10546875 C-82.64169922 7.08837891 -82.59980469 8.07128906 -82.55664062 9.08398438 C-82.51732422 10.10814453 -82.47800781 11.13230469 -82.4375 12.1875 C-82.39431641 13.22326172 -82.35113281 14.25902344 -82.30664062 15.32617188 C-82.20055634 17.8839819 -82.09849854 20.44188845 -82 23 C-81.73590332 22.39164307 -81.47180664 21.78328613 -81.19970703 21.15649414 C-80.84763184 20.35332764 -80.49555664 19.55016113 -80.1328125 18.72265625 C-79.78621582 17.92867432 -79.43961914 17.13469238 -79.08251953 16.31665039 C-73.95696543 5.34768717 -64.1573287 -1.13680262 -53.28125 -5.8125 C-35.86934997 -12.11394954 -15.19429397 -10.81345739 0 0 Z " fill="#285AA6" transform="translate(603,296)"/>
<path d="M0 0 C11.23490187 9.02865226 15.63397019 20.12582518 18 34 C18.15616517 37.51608236 17.80358197 40.5818651 17 44 C16.73316406 45.24330078 16.73316406 45.24330078 16.4609375 46.51171875 C14.18106634 55.48012761 9.68986389 62.61174037 1.98828125 67.84765625 C-5.05859177 71.9317968 -13.70038747 72.03407074 -21.5625 70.5 C-28.12101758 68.55017045 -32.74077547 65.39462627 -36.3125 59.4375 C-39.52794303 52.88752345 -39.97582722 46.47638447 -38 39.4375 C-37.67 38.633125 -37.34 37.82875 -37 37 C-41.37934119 37.51958285 -45.68803391 38.05675742 -50 39 C-50 39.66 -50 40.32 -50 41 C-50.78375 41.226875 -51.5675 41.45375 -52.375 41.6875 C-55.21875 42.78125 -55.21875 42.78125 -56.3125 45.625 C-56.539375 46.40875 -56.76625 47.1925 -57 48 C-57.66 48 -58.32 48 -59 48 C-59.18175781 48.56847656 -59.36351562 49.13695312 -59.55078125 49.72265625 C-59.80214844 50.49480469 -60.05351563 51.26695312 -60.3125 52.0625 C-60.55613281 52.81660156 -60.79976562 53.57070313 -61.05078125 54.34765625 C-62 57 -62 57 -63.50390625 60.16015625 C-65.49261054 64.72953684 -65.99976653 69.4654963 -66.625 74.375 C-66.86363976 76.17495309 -67.10564054 77.97446489 -67.3515625 79.7734375 C-67.50359131 80.95558838 -67.50359131 80.95558838 -67.65869141 82.16162109 C-68 84 -68 84 -69 85 C-69.1136432 87.8869192 -69.1641924 90.74897535 -69.16796875 93.63671875 C-69.17129715 94.50891556 -69.17462555 95.38111237 -69.17805481 96.27973938 C-69.18312997 98.13171866 -69.18546295 99.98370713 -69.18530273 101.83569336 C-69.18747742 104.65819639 -69.20559394 107.4803012 -69.22460938 110.30273438 C-69.22754561 112.10156116 -69.22952886 113.90038981 -69.23046875 115.69921875 C-69.24124702 116.96048836 -69.24124702 116.96048836 -69.25224304 118.24723816 C-69.23428863 122.89919401 -68.78381793 126.62242154 -67 131 C-65.906875 130.835 -64.81375 130.67 -63.6875 130.5 C-50.66183148 128.92394046 -50.66183148 128.92394046 -45.0625 131.1875 C-41.44569736 134.36590232 -38.82928313 137.19972651 -38 142 C-37.44359501 152.38979326 -37.01762706 161.96220877 -42.9375 170.9375 C-45.74388533 173.74388533 -47.75290085 174.88952425 -51.7421875 175.24291992 C-52.77601562 175.23881104 -53.80984375 175.23470215 -54.875 175.23046875 C-56.60169922 175.22756836 -56.60169922 175.22756836 -58.36328125 175.22460938 C-60.16345703 175.20624023 -60.16345703 175.20624023 -62 175.1875 C-63.16917969 175.18685547 -64.33835937 175.18621094 -65.54296875 175.18554688 C-72.07479446 175.15292399 -78.49718491 174.82382056 -84.99902344 174.22485352 C-90.37115451 173.82233702 -95.7405548 173.85597369 -101.125 173.875 C-102.22714844 173.87113281 -103.32929687 173.86726562 -104.46484375 173.86328125 C-110.20979565 173.87009614 -115.81394285 174.11937781 -121.52099609 174.75976562 C-126.09180215 175.20271157 -130.66074267 175.26522056 -135.25 175.3125 C-136.20390625 175.34150391 -137.1578125 175.37050781 -138.140625 175.40039062 C-144.10893539 175.4542712 -147.45504053 174.96863235 -152 171 C-153.6875 168.6875 -153.6875 168.6875 -155 166 C-155.76763672 164.44345703 -155.76763672 164.44345703 -156.55078125 162.85546875 C-158.28321456 158.76863456 -158.53862608 155.02738287 -158.5 150.625 C-158.49500488 149.87911621 -158.49000977 149.13323242 -158.48486328 148.36474609 C-158.29387506 142.32293252 -157.18783749 137.57766278 -153 133 C-147.94806294 129.03062088 -142.14377804 129.58006866 -136 130 C-134.824375 130.20625 -133.64875 130.4125 -132.4375 130.625 C-131.2309375 130.810625 -131.2309375 130.810625 -130 131 C-126.52803669 127.52803669 -126.88476991 123.31671405 -126.85336304 118.58024597 C-126.85404282 117.54605278 -126.85404282 117.54605278 -126.85473633 116.4909668 C-126.85137772 115.75206207 -126.8480191 115.01315735 -126.84455872 114.25186157 C-126.83508743 111.81763002 -126.83310745 109.38346756 -126.83203125 106.94921875 C-126.82881572 105.24917066 -126.82545143 103.54912284 -126.82194519 101.84907532 C-126.81596327 98.28747924 -126.8141043 94.72590739 -126.81469727 91.16430664 C-126.81479877 86.61502332 -126.80115479 82.06589648 -126.78392506 77.5166502 C-126.77277026 74.00520625 -126.77077914 70.49379971 -126.77130699 66.98233986 C-126.77013181 65.30592116 -126.76573609 63.62950135 -126.75797462 61.9531002 C-126.74810539 59.60102975 -126.75107996 57.24929339 -126.75708008 54.8972168 C-126.74865082 53.87213264 -126.74865082 53.87213264 -126.74005127 52.82633972 C-126.77173257 47.90429079 -127.67900728 43.70336941 -129 39 C-130.98 39 -132.96 39 -135 39 C-135 39.66 -135 40.32 -135 41 C-146.66193434 41.62289264 -146.66193434 41.62289264 -151.625 39.3125 C-157.35596944 33.73234555 -158.2728208 28.24632638 -158.4375 20.5 C-158.5271785 12.65582193 -156.66857924 6.45677358 -152 0 C-147.82446517 -3.6327153 -144.37179716 -5.27782831 -138.8125 -5.1875 C-137.93207031 -5.18105469 -137.05164062 -5.17460937 -136.14453125 -5.16796875 C-134 -5 -134 -5 -133 -4 C-120.99878231 -1.43458597 -109.76452861 -1.53984453 -98 -5 C-93.69235076 -5.45106275 -90.13089611 -5.43310915 -86.0625 -3.875 C-82.32325922 -0.4756902 -81.90612273 3.89394179 -81.5859375 8.7421875 C-81.50698854 10.45274824 -81.43685292 12.16373579 -81.375 13.875 C-81.33632812 14.75414062 -81.29765625 15.63328125 -81.2578125 16.5390625 C-81.16418966 18.69238793 -81.08103541 20.84616414 -81 23 C-80.44570312 21.80632812 -79.89140625 20.61265625 -79.3203125 19.3828125 C-74.5686312 9.90865251 -65.90472355 1.02544914 -56 -3 C-54.68 -3 -53.36 -3 -52 -3 C-52 -3.66 -52 -4.32 -52 -5 C-33.68347368 -8.99633302 -16.5154584 -10.41675813 0 0 Z " fill="#285AA6" transform="translate(1673,295)"/>
<path d="M0 0 C0 3 0 3 -1.96875 5.26171875 C-2.8040625 6.06222656 -3.639375 6.86273438 -4.5 7.6875 C-5.3353125 8.49574219 -6.170625 9.30398438 -7.03125 10.13671875 C-7.6809375 10.75160156 -8.330625 11.36648438 -9 12 C-9 9 -9 9 -6.75 6.5625 C-5.8425 5.716875 -4.935 4.87125 -4 4 C-3.236875 3.236875 -2.47375 2.47375 -1.6875 1.6875 C-1.130625 1.130625 -0.57375 0.57375 0 0 Z " fill="#C61920" transform="translate(1950,283)"/>
<path d="M0 0 C0 3 0 3 -1.53125 4.60546875 C-2.1809375 5.12753906 -2.830625 5.64960938 -3.5 6.1875 C-4.1496875 6.71730469 -4.799375 7.24710937 -5.46875 7.79296875 C-5.9740625 8.19128906 -6.479375 8.58960938 -7 9 C-6.6875 7.0625 -6.6875 7.0625 -6 5 C-5.01 4.67 -4.02 4.34 -3 4 C-3 3.34 -3 2.68 -3 2 C-2.01 1.34 -1.02 0.68 0 0 Z " fill="#1A4480" transform="translate(721,298)"/>
<path d="M0 0 C0.66 0.33 1.32 0.66 2 1 C0.02 2.98 -1.96 4.96 -4 7 C-4.66 6.67 -5.32 6.34 -6 6 C-2.25 1.125 -2.25 1.125 0 0 Z " fill="#15409F" transform="translate(1525,292)"/>
</svg>
