<?xml version="1.0" encoding="UTF-8"?>
<svg version="1.1" xmlns="http://www.w3.org/2000/svg" width="723" height="200">
<path d="M0 0 C0.75562225 -0.00361542 1.51124451 -0.00723083 2.2897644 -0.01095581 C14.47088365 -0.03439316 26.06313453 0.82550119 37.8125 4.3125 C38.1425 4.6425 38.4725 4.9725 38.8125 5.3125 C38.74138069 14.73469728 36.80840101 24.1707303 35.22851562 33.43383789 C34.80808158 35.90092709 34.39569054 38.36926638 33.984375 40.83789062 C33.71921279 42.41414042 33.45360445 43.99031525 33.1875 45.56640625 C33.06455566 46.3007338 32.94161133 47.03506134 32.81494141 47.79164124 C32.31175257 50.72833371 31.75650633 53.48048102 30.8125 56.3125 C30.1525 56.3125 29.4925 56.3125 28.8125 56.3125 C28.23113281 55.71695313 27.64976562 55.12140625 27.05078125 54.5078125 C24.53470716 52.04004001 22.15808379 50.73613672 19 49.1875 C18.00355469 48.68992188 17.00710937 48.19234375 15.98046875 47.6796875 C5.55152282 43.17890936 -7.0745139 42.37953868 -17.8828125 46.2734375 C-26.772671 50.2814076 -34.189449 55.06715246 -38.0625 64.3125 C-39.91371414 70.13378784 -39.71213155 74.69690856 -37.4375 80.375 C-34.11442796 86.63918177 -28.65307509 88.98248557 -22.1875 91.3125 C-10.95933165 94.10660641 0.04759394 91.83119383 10.8125 88.3125 C11.46669922 88.10302734 12.12089844 87.89355469 12.79492188 87.67773438 C18.70195574 85.66113369 23.54091637 83.52317733 26.76953125 77.91015625 C27.83015334 75.34817277 28.69548909 72.74184618 29.5390625 70.1015625 C35.33551613 52.85444586 50.69457562 42.02164541 66.27319336 34.16748047 C74.40065623 30.31118399 83.04464024 28.18613203 91.8125 26.3125 C92.73933594 26.11011719 93.66617188 25.90773438 94.62109375 25.69921875 C115.80619788 23.13211311 138.85206889 24.85710991 156.66015625 37.609375 C165.57727262 44.66538723 170.28968124 52.0888936 174.8125 62.3125 C175.35777344 61.13494141 175.35777344 61.13494141 175.9140625 59.93359375 C183.04582226 45.0300445 193.46044916 36.2236703 208.890625 30.3046875 C232.11088661 22.41973235 256.50452942 22.90710433 278.8125 33.3125 C279.4725 33.6425 280.1325 33.9725 280.8125 34.3125 C281.8025 32.0025 282.7925 29.6925 283.8125 27.3125 C334.3025 26.8175 334.3025 26.8175 385.8125 26.3125 C385.16716881 31.4751495 384.62509649 35.52126809 383.18359375 40.34375 C382.87099609 41.40078125 382.55839844 42.4578125 382.23632812 43.546875 C381.7480957 45.16335937 381.7480957 45.16335937 381.25 46.8125 C380.92064453 47.92109375 380.59128906 49.0296875 380.25195312 50.171875 C379.44439543 52.88714144 378.63112271 55.60055315 377.8125 58.3125 C378.45574219 57.55066406 379.09898437 56.78882813 379.76171875 56.00390625 C394.53708676 38.94580352 414.39378836 28.34052915 436.8125 25.3125 C440.90068995 25.02977224 444.96548838 24.97906289 449.0625 25 C450.15135498 25.00273926 451.24020996 25.00547852 452.36206055 25.00830078 C462.13602605 25.13449133 471.99188267 25.73762318 480.8125 30.3125 C479.97960438 35.66987013 479.14334446 41.0267001 478.30395508 46.38305664 C478.01884795 48.20550294 477.73466256 50.02809368 477.45141602 51.85083008 C477.04425107 54.46994891 476.63377996 57.08853129 476.22265625 59.70703125 C476.09657486 60.52275101 475.97049347 61.33847076 475.84059143 62.1789093 C475.34389671 65.32568419 474.82191346 68.28425963 473.8125 71.3125 C471.51355405 70.16855334 469.22299695 69.01053988 466.9375 67.83984375 C465.90625 67.31519531 464.875 66.79054688 463.8125 66.25 C462.78125 65.72277344 461.75 65.19554688 460.6875 64.65234375 C453.40296421 61.25751253 444.67888775 61.10411222 436.91796875 63.03125 C434.43500427 63.97714123 432.14642225 65.04515512 429.8125 66.3125 C429.15507813 66.65152344 428.49765625 66.99054688 427.8203125 67.33984375 C422.40834016 70.6032863 419.87778737 75.45626292 417.8125 81.3125 C417.11106791 86.57324068 417.91678251 89.87239985 420.8125 94.3125 C426.44434927 99.81919706 431.57578208 101.59712668 439.375 101.6875 C449.27888011 101.53062756 458.21561753 99.03019803 466.32421875 93.265625 C467.8125 92.3125 467.8125 92.3125 469.8125 92.3125 C467.77931459 102.88733583 465.64309497 113.43767019 463.25 123.9375 C462.95379761 125.29621216 462.95379761 125.29621216 462.65161133 126.68237305 C462.45591553 127.52195557 462.26021973 128.36153809 462.05859375 129.2265625 C461.80613892 130.3395874 461.80613892 130.3395874 461.54858398 131.47509766 C460.8125 133.3125 460.8125 133.3125 457.8125 135.3125 C455.68359375 135.91015625 455.68359375 135.91015625 453.25 136.375 C452.46496094 136.53097656 451.67992187 136.68695313 450.87109375 136.84765625 C428.993884 140.17254509 405.05095474 140.7828557 385.8125 128.3125 C375.88130721 120.62549883 368.19195359 111.81118251 366.50830078 98.99731445 C366.37649137 96.65632951 366.34534213 94.34441825 366.375 92 C366.38039795 91.1747583 366.3857959 90.3495166 366.39135742 89.49926758 C366.62569324 80.01746595 369.60268023 72.73213954 373.8125 64.3125 C365.5625 63.6525 357.3125 62.9925 348.8125 62.3125 C348.1525 65.2825 347.4925 68.2525 346.8125 71.3125 C346.187308 73.57773602 345.53643422 75.83607786 344.85717773 78.08569336 C344.29165443 79.96695168 344.29165443 79.96695168 343.71470642 81.88621521 C343.30862659 83.22496246 342.90241942 84.56367109 342.49609375 85.90234375 C342.07512909 87.29709429 341.65440258 88.69191673 341.23390198 90.08680725 C340.35759949 92.99119109 339.47910271 95.89489854 338.59887695 98.7980957 C337.47001193 102.52167152 336.34570509 106.24660454 335.22288418 109.9720068 C334.35702271 112.84368457 333.48930278 115.71479795 332.62095833 118.58572578 C332.20545001 119.95993868 331.79040215 121.33429089 331.37582207 122.7087841 C330.79850742 124.62142818 330.21853301 126.53326883 329.63842773 128.44506836 C329.3091478 129.53266953 328.97986786 130.62027069 328.64060974 131.74082947 C327.8125 134.3125 327.8125 134.3125 326.8125 136.3125 C310.3125 136.6425 293.8125 136.9725 276.8125 137.3125 C283.93098683 112.57877456 291.32887641 87.93790127 298.8125 63.3125 C290.2325 63.3125 281.6525 63.3125 272.8125 63.3125 C275.8125 51.3125 275.8125 51.3125 278.8125 39.3125 C278.24535278 40.18986816 278.24535278 40.18986816 277.66674805 41.08496094 C275.94598861 43.74510783 274.22301798 46.4038155 272.5 49.0625 C271.90509766 49.98289063 271.31019531 50.90328125 270.69726562 51.8515625 C269.83198242 53.18574219 269.83198242 53.18574219 268.94921875 54.546875 C268.42030029 55.36381836 267.89138184 56.18076172 267.34643555 57.02246094 C265.90258401 59.17801202 264.38994037 61.2533511 262.8125 63.3125 C260.30650083 62.31457533 257.8047171 61.30927739 255.3125 60.27734375 C254.4875 59.93832031 253.6625 59.59929688 252.8125 59.25 C251.9875 58.90839844 251.1625 58.56679688 250.3125 58.21484375 C245.81148088 56.59025716 241.58424537 56.13553692 236.8125 56.0625 C235.801875 56.03671875 234.79125 56.0109375 233.75 55.984375 C230.41102194 56.35734595 228.54214493 57.40576273 225.8125 59.3125 C226.1425 60.6325 226.4725 61.9525 226.8125 63.3125 C227.55298584 63.47331055 228.29347168 63.63412109 229.05639648 63.79980469 C232.45652126 64.54412117 235.85319297 65.30319225 239.25 66.0625 C240.99700195 66.44148438 240.99700195 66.44148438 242.77929688 66.828125 C252.56288663 69.03287762 264.1888909 71.8511526 270.35546875 80.46875 C274.42299083 87.66951739 275.03038823 94.13289301 273.1484375 102.13671875 C269.26695039 114.23683291 260.75503564 122.84030503 249.80859375 129.00390625 C222.92708202 142.16430279 192.91736177 140.6403727 165.10546875 131.49609375 C162.5286038 130.56988962 160.23308126 129.56182164 157.8125 128.3125 C161.10463054 122.09423403 164.75324358 116.3228746 168.875 110.625 C169.90826507 109.18410477 170.94083093 107.74270784 171.97265625 106.30078125 C172.45621582 105.62611816 172.93977539 104.95145508 173.43798828 104.25634766 C175.28549214 101.64358998 177.05606447 98.98716801 178.8125 96.3125 C179.69550781 96.85519531 180.57851563 97.39789063 181.48828125 97.95703125 C191.65868798 104.07636841 201.58416919 108.84882679 213.8125 107.3125 C216.58535235 106.61549886 218.30459818 105.80656917 220.8125 104.3125 C221.82877502 102.07669496 221.8125 100.73444077 221.8125 98.3125 C221.11801758 98.21751221 220.42353516 98.12252441 219.70800781 98.0246582 C187.12292762 93.46891143 187.12292762 93.46891143 176.8125 82.3125 C176.1525 81.3225 175.4925 80.3325 174.8125 79.3125 C174.66554688 80.03953125 174.51859375 80.7665625 174.3671875 81.515625 C170.00680253 101.06217833 158.78743946 114.67673523 142.1875 125.4375 C119.72799939 138.39762063 90.26406672 142.34738929 65.12890625 136.28125 C50.06448008 131.88080513 36.56883963 124.78105665 28.5625 110.6875 C26.84750906 106.91342281 26.04057068 103.08985313 25.203125 99.0390625 C24.80915527 97.14921631 24.80915527 97.14921631 24.40722656 95.22119141 C24.2109668 94.26132324 24.01470703 93.30145508 23.8125 92.3125 C23.45853149 94.01563354 23.45853149 94.01563354 23.09741211 95.75317383 C22.21265158 99.9700414 21.28829173 104.17740103 20.35180664 108.38305664 C19.95229579 110.20330261 19.56351808 112.02593924 19.18579102 113.85083008 C18.64033022 116.47661975 18.05661147 119.09134103 17.46484375 121.70703125 C17.30410873 122.52275101 17.14337372 123.33847076 16.97776794 124.1789093 C16.44706913 126.42556256 15.92602076 128.28938005 14.8125 130.3125 C-2.9675976 140.70859747 -35.26868915 138.78803532 -54.65234375 134.3515625 C-65.22366642 131.24441131 -74.49536426 127.25667426 -83.1875 120.3125 C-83.82042969 119.84199219 -84.45335938 119.37148437 -85.10546875 118.88671875 C-94.10798114 111.83176975 -99.76158972 101.38994052 -102.1875 90.3125 C-103.91028064 69.13774372 -98.54350719 52.49727133 -85.375 36 C-63.64144246 11.05279143 -32.21851288 0.1175589 0 0 Z M279.8125 36.3125 C280.8125 38.3125 280.8125 38.3125 280.8125 38.3125 Z M80.54296875 71.2578125 C76.6379596 75.89445993 75.06795757 81.12286365 74.375 87.0625 C75.15619397 92.86565517 77.39911104 96.68132354 82.08203125 100.27734375 C89.13451584 104.49609864 97.59863038 103.98562961 105.3125 102.1875 C112.66685349 99.9873056 117.74745019 96.55139998 121.75 89.9375 C124.5058283 84.38860248 125.21250663 79.89032049 124.25 73.6875 C122.06879581 68.56641191 119.24184549 65.32501526 114.06640625 63.16796875 C101.33388011 59.8205219 90.0602759 62.40538709 80.54296875 71.2578125 Z M24.8125 83.3125 C25.8125 86.3125 25.8125 86.3125 25.8125 86.3125 Z " fill="#E5052E" transform="translate(102.1875,-0.3125)"/>
<path d="M0 0 C1.09344727 0.00491455 2.18689453 0.0098291 3.31347656 0.01489258 C11.46225158 0.13287677 18.81488157 0.8387971 26.625 3.3125 C27.72714844 3.6528125 28.82929687 3.993125 29.96484375 4.34375 C42.11312466 8.53965566 53.6209227 16.26442999 59.96875 27.7421875 C65.04586443 38.80304395 65.66680889 53.01600018 62.1875 64.6875 C54.35335235 84.19011404 38.93075235 97.98342895 19.81640625 106.1875 C-6.26405772 115.38110297 -35.85958769 117.50509971 -61.375 105.3125 C-64.53110246 103.49293424 -67.46120756 101.49477071 -70.375 99.3125 C-71.24125 98.735 -72.1075 98.1575 -73 97.5625 C-80.43709354 90.51683243 -85.23721438 81.77668352 -85.80859375 71.48046875 C-85.83214321 69.82047902 -85.83292868 68.16003107 -85.8125 66.5 C-85.80420166 65.6234375 -85.79590332 64.746875 -85.78735352 63.84375 C-85.60330094 56.74888353 -84.47047164 50.75367601 -81.375 44.3125 C-80.92382812 43.34441406 -80.47265625 42.37632813 -80.0078125 41.37890625 C-69.94253316 22.12467786 -51.08585019 10.66542759 -30.9375 4.125 C-20.79482327 0.95119304 -10.58248024 -0.05674473 0 0 Z M-30.375 46.3125 C-34.63966584 52.65859427 -36.72299993 58.67383376 -35.375 66.3125 C-34.23556303 70.01390085 -32.70389354 72.41930926 -29.46875 74.59375 C-21.37104966 78.82389197 -13.42510666 79.24843435 -4.60546875 77.0625 C2.30253347 74.73966913 7.55343854 70.29930254 11.625 64.3125 C13.93963769 59.47280301 14.23167311 54.59245191 13.625 49.3125 C11.64993927 43.80312008 8.64213487 40.7918007 3.41015625 38.2265625 C-8.17070464 34.42583116 -22.04158068 37.39767934 -30.375 46.3125 Z " fill="#E5052E" transform="translate(659.375,24.6875)"/>
<path d="M0 0 C1.30211046 3.90633137 0.47812346 6.19538173 -0.4375 10.1875 C-0.86869141 12.09595703 -0.86869141 12.09595703 -1.30859375 14.04296875 C-1.53675781 15.01878906 -1.76492188 15.99460938 -2 17 C1.96 17 5.92 17 10 17 C10.13277344 16.09636719 10.26554687 15.19273437 10.40234375 14.26171875 C10.57894531 13.08222656 10.75554687 11.90273437 10.9375 10.6875 C11.11152344 9.51574219 11.28554688 8.34398437 11.46484375 7.13671875 C12 4 12 4 13 1 C19.93 1 26.86 1 34 1 C33.67 5.62 33.34 10.24 33 15 C34.093125 13.783125 35.18625 12.56625 36.3125 11.3125 C40.97640211 6.64859789 45.85356647 4.24249495 52 2 C52.98419922 1.63068359 52.98419922 1.63068359 53.98828125 1.25390625 C63.24513427 -1.62027724 73.71122077 -0.96469136 82.5859375 2.7265625 C87.67501489 5.411092 91.7873032 8.5794222 94 14 C94 14.99 94 15.98 94 17 C94.66 17 95.32 17 96 17 C96.06058594 16.26394531 96.12117187 15.52789062 96.18359375 14.76953125 C96.26738281 13.79371094 96.35117187 12.81789062 96.4375 11.8125 C96.55931641 10.36810547 96.55931641 10.36810547 96.68359375 8.89453125 C96.97349361 6.24248442 97.47679265 3.61603677 98 1 C105.59 1 113.18 1 121 1 C120.30672303 4.89616538 119.61312136 8.79227084 118.91870117 12.68823242 C118.56718032 14.66123053 118.21620367 16.63432558 117.86523438 18.60742188 C117.64287109 19.85458984 117.42050781 21.10175781 117.19140625 22.38671875 C116.98717041 23.53358154 116.78293457 24.68044434 116.57250977 25.86206055 C116.0766244 28.58001985 115.54183467 31.29082665 115 34 C120.61 34 126.22 34 132 34 C131.49259359 40.17344462 130.73254212 44.9361026 129 51 C115.8 51 102.6 51 89 51 C89.66 46.05 90.32 41.1 91 36 C90.29875 37.010625 89.5975 38.02125 88.875 39.0625 C83.79982897 45.05266581 74.6758233 49.41535468 67 51 C63.77419093 51.26591377 60.54814771 51.27694343 57.3125 51.3125 C56.45205078 51.34150391 55.59160156 51.37050781 54.70507812 51.40039062 C46.8592174 51.47725286 39.98841733 49.33187672 34.0625 44 C33.51722656 43.525625 32.97195313 43.05125 32.41015625 42.5625 C30.84828645 40.83189635 29.9462519 39.12106706 29 37 C28.566875 38.5159375 28.566875 38.5159375 28.125 40.0625 C26.5625 45.53125 26.5625 45.53125 25 51 C18.07 51 11.14 51 4 51 C5.125 39.75 5.125 39.75 6 35 C2.37 35 -1.26 35 -5 35 C-5.20496094 36.07121094 -5.40992188 37.14242187 -5.62109375 38.24609375 C-5.89302709 39.64326851 -6.16517352 41.04040181 -6.4375 42.4375 C-6.57220703 43.14455078 -6.70691406 43.85160156 -6.84570312 44.58007812 C-7.88671875 49.88671875 -7.88671875 49.88671875 -9 51 C-10.56172745 51.08685603 -12.12729344 51.10702219 -13.69140625 51.09765625 C-14.63564453 51.09443359 -15.57988281 51.09121094 -16.55273438 51.08789062 C-17.54595703 51.07951172 -18.53917969 51.07113281 -19.5625 51.0625 C-20.55958984 51.05798828 -21.55667969 51.05347656 -22.58398438 51.04882812 C-25.05604849 51.03700007 -27.52799518 51.02051849 -30 51 C-28.29461156 37.22962472 -25.58029632 23.6269135 -23 10 C-23.70962891 11.17018677 -23.70962891 11.17018677 -24.43359375 12.36401367 C-26.22997183 15.32580516 -28.02673175 18.28736436 -29.82373047 21.2487793 C-30.59373457 22.51789565 -31.36359688 23.78709804 -32.13330078 25.05639648 C-32.68800049 25.97110718 -32.68800049 25.97110718 -33.25390625 26.90429688 C-33.6238269 27.51533768 -33.99374756 28.12637848 -34.37487793 28.75593567 C-35.12693803 29.99221044 -35.88389253 31.22552064 -36.64562988 32.45585632 C-38.53775896 35.52171348 -40.33236957 38.59252724 -41.97851562 41.7980957 C-46.52131491 50.39971739 -46.52131491 50.39971739 -50.5 52.01489258 C-53.31337212 52.2845936 -55.69160188 52.15469781 -58.5 51.8125 C-61.635 51.544375 -64.77 51.27625 -68 51 C-68.66 43.41 -69.32 35.82 -70 28 C-73.63 35.59 -77.26 43.18 -81 51 C-87.27 51 -93.54 51 -100 51 C-102.63302917 41.521095 -105.00689081 31.99022016 -107.26730347 22.4163208 C-107.58824628 21.05905554 -107.91109234 19.70223888 -108.23587036 18.34588623 C-108.69943663 16.40643095 -109.15453632 14.4649581 -109.609375 12.5234375 C-109.87717773 11.38825684 -110.14498047 10.25307617 -110.42089844 9.08349609 C-111 6 -111 6 -111 1 C-103.41 1 -95.82 1 -88 1 C-87.34 9.25 -86.68 17.5 -86 26 C-85.21753906 24.36289063 -84.43507812 22.72578125 -83.62890625 21.0390625 C-82.60678013 18.90103722 -81.58464421 16.76301663 -80.5625 14.625 C-80.04623047 13.54476562 -79.52996094 12.46453125 -78.99804688 11.3515625 C-78.25844727 9.8046875 -78.25844727 9.8046875 -77.50390625 8.2265625 C-77.04830322 7.27346191 -76.5927002 6.32036133 -76.12329102 5.33837891 C-75.42614075 3.88710629 -74.72002926 2.44005853 -74 1 C-68.06 1 -62.12 1 -56 1 C-55.80083984 3.09601563 -55.80083984 3.09601563 -55.59765625 5.234375 C-55.41942879 7.07293199 -55.24103466 8.91147282 -55.0625 10.75 C-54.93198242 12.13058594 -54.93198242 12.13058594 -54.79882812 13.5390625 C-54.66831055 14.87324219 -54.66831055 14.87324219 -54.53515625 16.234375 C-54.456604 17.05131836 -54.37805176 17.86826172 -54.29711914 18.70996094 C-54.01670988 20.87120901 -53.57555495 22.90017313 -53 25 C-52.67201416 24.30849854 -52.34402832 23.61699707 -52.00610352 22.90454102 C-50.52709809 19.78947924 -49.04484435 16.6759742 -47.5625 13.5625 C-46.7880957 11.92958008 -46.7880957 11.92958008 -45.99804688 10.26367188 C-45.50498047 9.22919922 -45.01191406 8.19472656 -44.50390625 7.12890625 C-44.04830322 6.17056885 -43.5927002 5.21223145 -43.12329102 4.22485352 C-42 2 -42 2 -41 1 C-37.97192956 0.8396444 -34.96414546 0.74039552 -31.93359375 0.68359375 C-31.02497086 0.66281265 -30.11634796 0.64203156 -29.18019104 0.62062073 C-26.26604054 0.55502328 -23.35179696 0.4961932 -20.4375 0.4375 C-18.46678709 0.39432446 -16.49608374 0.35071049 -14.52539062 0.30664062 C-9.68369012 0.19933157 -4.84189563 0.09809325 0 0 Z M31 17 C32 19 32 19 32 19 Z M51.5 22.8125 C50.73429837 26.16244465 51.15750421 28.69019512 52 32 C53.46041766 34.11670357 53.46041766 34.11670357 56 35 C61.3559599 35.51009142 64.66143863 35.4708491 69 32 C71.61100478 29.47902987 71.97834546 28.15158177 72.5 24.5 C72.30536515 20.92300992 72.30536515 20.92300992 69.9375 18.5625 C63.16985453 14.96268858 56.31602706 16.99313396 51.5 22.8125 Z " fill="#115BAD" transform="translate(335,149)"/>
<path d="M0 0 C0.98046875 1.75 0.98046875 1.75 1 4 C-0.43359375 6.796875 -0.43359375 6.796875 -2.4375 9.75 C-3.09621094 10.73484375 -3.75492188 11.7196875 -4.43359375 12.734375 C-4.95050781 13.48203125 -5.46742188 14.2296875 -6 15 C-6.556875 14.7834375 -7.11375 14.566875 -7.6875 14.34375 C-13.05188593 12.38647405 -17.29852383 11.68901039 -23 12 C-22.505 12.99 -22.505 12.99 -22 14 C-20.12328008 14.53120222 -18.22165836 14.97579099 -16.3125 15.375 C-11.46963834 16.53682667 -7.74039391 17.5473287 -4 21 C-2.95083183 23.3116424 -1.94517031 25.64392328 -1 28 C1.40375016 24.04959789 3.80647694 20.09857594 6.20825195 16.14697266 C7.02567809 14.80240001 7.84338502 13.45799804 8.66137695 12.11376953 C9.83618622 10.18306419 11.00998868 8.25175 12.18359375 6.3203125 C12.55028671 5.71816925 12.91697968 5.116026 13.29478455 4.49563599 C15.23694406 1.29799383 15.23694406 1.29799383 17 -2 C25.25 -2 33.5 -2 42 -2 C43.72262942 2.30657356 44.91509094 6.43432147 45.9453125 10.92578125 C46.12005096 11.67337204 46.29478943 12.42096283 46.474823 13.19120789 C47.02857168 15.56413064 47.57686147 17.93827574 48.125 20.3125 C48.50094158 21.92781832 48.87723985 23.54305367 49.25390625 25.15820312 C50.17340281 29.10452021 51.08800784 33.0519422 52 37 C54.12013896 28.10020763 55.99198804 19.17729907 57.6875 10.1875 C57.91244141 9.00607422 58.13738281 7.82464844 58.36914062 6.60742188 C58.91500921 3.73870824 59.45783263 0.86941544 60 -2 C67.59 -2 75.18 -2 83 -2 C82.30672303 1.89616538 81.61312136 5.79227084 80.91870117 9.68823242 C80.56718032 11.66123053 80.21620367 13.63432558 79.86523438 15.60742188 C79.64287109 16.85458984 79.42050781 18.10175781 79.19140625 19.38671875 C78.98717041 20.53358154 78.78293457 21.68044434 78.57250977 22.86206055 C78.0766244 25.58001985 77.54183467 28.29082665 77 31 C82.61 31 88.22 31 94 31 C93.49259359 37.17344462 92.73254212 41.9361026 91 48 C70.87 48 50.74 48 30 48 C30 46.02 30 44.04 30 42 C22.08 42.495 22.08 42.495 14 43 C13.34 44.65 12.68 46.3 12 48 C4.08 48 -3.84 48 -12 48 C-11.34 46.35 -10.68 44.7 -10 43 C-10.53109375 43.27714844 -11.0621875 43.55429688 -11.609375 43.83984375 C-12.66898438 44.38318359 -12.66898438 44.38318359 -13.75 44.9375 C-14.79414062 45.47697266 -14.79414062 45.47697266 -15.859375 46.02734375 C-21.02748453 48.37562709 -26.10640732 48.2172903 -31.6875 48.25 C-32.54794922 48.270625 -33.40839844 48.29125 -34.29492188 48.3125 C-40.38793574 48.34923256 -45.35317873 47.27623803 -51 45 C-51.66 45.99 -52.32 46.98 -53 48 C-54.79702759 48.36076355 -54.79702759 48.36076355 -56.99072266 48.34057617 C-58.22177231 48.34023628 -58.22177231 48.34023628 -59.47769165 48.33988953 C-60.36419403 48.32440567 -61.25069641 48.30892181 -62.1640625 48.29296875 C-63.07127045 48.28872391 -63.97847839 48.28447906 -64.91317749 48.28010559 C-67.81741732 48.26328133 -70.7209691 48.2256226 -73.625 48.1875 C-75.59113583 48.17245799 -77.55728251 48.15876875 -79.5234375 48.14648438 C-84.34922439 48.11336557 -89.17449545 48.06155786 -94 48 C-91.63016983 34.59583095 -89.25734967 21.1917463 -86.75 7.8125 C-86.58725586 6.92925049 -86.42451172 6.04600098 -86.25683594 5.13598633 C-85.11705673 -0.88294327 -85.11705673 -0.88294327 -84 -2 C-81.04294679 -2.08868299 -78.10934944 -2.11520296 -75.15234375 -2.09765625 C-73.82270348 -2.09553383 -73.82270348 -2.09553383 -72.46620178 -2.09336853 C-69.62326746 -2.08775215 -66.78041069 -2.07519691 -63.9375 -2.0625 C-62.01497509 -2.05748711 -60.09244896 -2.05292384 -58.16992188 -2.04882812 C-53.44658451 -2.03777741 -48.72330542 -2.02050183 -44 -2 C-44.14295891 -0.60386935 -44.28951558 0.79189308 -44.4375 2.1875 C-44.51871094 2.96480469 -44.59992187 3.74210938 -44.68359375 4.54296875 C-45.00597621 7.04640786 -45.50498105 9.52490524 -46 12 C-52.27 12 -58.54 12 -65 12 C-65 13.32 -65 14.64 -65 16 C-59.72 16 -54.44 16 -49 16 C-49.4813146 21.3746797 -49.96342744 24.9085686 -52 30 C-56.95 30 -61.9 30 -67 30 C-67.33 30.99 -67.66 31.98 -68 33 C-62.06 33 -56.12 33 -50 33 C-50 34.65 -50 36.3 -50 38 C-48.35 35.03 -46.7 32.06 -45 29 C-44.01 29 -43.02 29 -42 29 C-42 29.66 -42 30.32 -42 31 C-36.60539047 33.27141454 -31.73842251 33.20413361 -26 33 C-25.67 32.01 -25.34 31.02 -25 30 C-25.72445312 29.96261719 -26.44890625 29.92523438 -27.1953125 29.88671875 C-34.16705028 29.41264058 -39.07570025 28.69343398 -44.375 23.8125 C-46.48775038 20.15581666 -46.779632 17.07498376 -46 13 C-42.40229199 5.80458397 -36.80418292 1.40849334 -29.375 -1.375 C-20.29631824 -4.08725618 -8.55727784 -4.9003215 0 0 Z M27 16 C26.16209211 17.78953185 25.32980604 19.58169695 24.5 21.375 C24.0359375 22.37273437 23.571875 23.37046875 23.09375 24.3984375 C21.8708127 26.83692626 21.8708127 26.83692626 22 29 C24.31 29 26.62 29 29 29 C28.67 24.71 28.34 20.42 28 16 C27.67 16 27.34 16 27 16 Z " fill="#115BAD" transform="translate(561,152)"/>
<path d="M0 0 C73.92 0 147.84 0 224 0 C227 11 227 11 227 14 C152.09 14 77.18 14 0 14 C0 9.38 0 4.76 0 0 Z " fill="#115BAD" transform="translate(4,186)"/>
<path d="M0 0 C71.28 0 142.56 0 216 0 C216.99 4.62 217.98 9.24 219 14 C146.73 14 74.46 14 0 14 C0 9.38 0 4.76 0 0 Z " fill="#115BAD" transform="translate(4,150)"/>
<path d="M0 0 C72.6 0 145.2 0 220 0 C220.99 4.29 221.98 8.58 223 13 C149.41 13 75.82 13 0 13 C0 8.71 0 4.42 0 0 Z " fill="#115BAD" transform="translate(4,169)"/>
<path d="M0 0 C1.6874269 0.00015917 3.37485866 0.00585622 5.06225586 0.01586914 C6.39189613 0.01799156 6.39189613 0.01799156 7.74839783 0.02015686 C10.59133215 0.02577324 13.43418892 0.03832848 16.27709961 0.05102539 C18.19962452 0.05603828 20.12215065 0.06060155 22.04467773 0.06469727 C26.7680151 0.07574798 31.49129419 0.09302356 36.21459961 0.11352539 C36.0716407 1.50965605 35.92508403 2.90541847 35.77709961 4.30102539 C35.69588867 5.07833008 35.61467773 5.85563477 35.53100586 6.65649414 C35.2086234 9.15993325 34.70961856 11.63843063 34.21459961 14.11352539 C27.94459961 14.11352539 21.67459961 14.11352539 15.21459961 14.11352539 C15.21459961 15.43352539 15.21459961 16.75352539 15.21459961 18.11352539 C20.49459961 18.11352539 25.77459961 18.11352539 31.21459961 18.11352539 C30.71711314 22.87518161 30.15512005 27.41092319 29.21459961 32.11352539 C23.93459961 32.11352539 18.65459961 32.11352539 13.21459961 32.11352539 C12.88459961 33.10352539 12.55459961 34.09352539 12.21459961 35.11352539 C18.15459961 35.11352539 24.09459961 35.11352539 30.21459961 35.11352539 C28.33959961 48.98852539 28.33959961 48.98852539 27.21459961 50.11352539 C24.2575464 50.20220838 21.32394905 50.22872835 18.36694336 50.21118164 C17.03730309 50.20905922 17.03730309 50.20905922 15.68080139 50.20689392 C12.83786707 50.20127755 9.9950103 50.1887223 7.15209961 50.17602539 C5.2295747 50.1710125 3.30704856 50.16644923 1.38452148 50.16235352 C-3.33881588 50.1513028 -8.06209497 50.13402722 -12.78540039 50.11352539 C-13.00164173 44.29224942 -12.18539577 38.98260869 -11.07055664 33.27758789 C-10.80776161 31.89765152 -10.80776161 31.89765152 -10.53965759 30.48983765 C-10.17030366 28.55798247 -9.79781787 26.62672371 -9.42236328 24.69604492 C-8.84597252 21.72860009 -8.28078242 18.75917772 -7.71704102 15.78930664 C-7.35636885 13.91027436 -6.99506332 12.03136352 -6.63305664 10.15258789 C-6.46322769 9.26100983 -6.29339874 8.36943176 -6.11842346 7.45083618 C-4.68809285 0.14059743 -4.68809285 0.14059743 0 0 Z " fill="#115BAD" transform="translate(668.785400390625,149.886474609375)"/>
<path d="M0 0 C2.80065061 1.43817194 3.74991317 2.45569336 5.0625 5.3125 C4.96727475 9.40718566 2.77779233 11.15760785 0 14 C-3.09173752 15.54586876 -5.59429552 15.29359521 -9 15 C-11.5 13.4375 -11.5 13.4375 -13 11 C-13.125 7.5 -13.125 7.5 -12 4 C-8.14827479 0.50657481 -5.17727116 -0.78784561 0 0 Z M-6 3 C-6 3.33 -6 3.66 -6 4 C-4.35 4 -2.7 4 -1 4 C-1 3.67 -1 3.34 -1 3 C-2.65 3 -4.3 3 -6 3 Z M0 4 C0 5.32 0 6.64 0 8 C-0.99 8.495 -0.99 8.495 -2 9 C-1.34 9.66 -0.68 10.32 0 11 C0.33 8.69 0.66 6.38 1 4 C0.67 4 0.34 4 0 4 Z M-9 5 C-10.29633621 6.06645115 -10.29633621 6.06645115 -10.0625 8.5625 C-10.041875 9.366875 -10.02125 10.17125 -10 11 C-9.34 10.01 -8.68 9.02 -8 8 C-8.33 7.01 -8.66 6.02 -9 5 Z M-6 9 C-6.33 9.99 -6.66 10.98 -7 12 C-5.68 11.67 -4.36 11.34 -3 11 C-3.99 10.34 -4.98 9.68 -6 9 Z " fill="#E5052E" transform="translate(705,123)"/>
</svg>
