<?xml version="1.0" encoding="UTF-8"?>
<svg version="1.1" xmlns="http://www.w3.org/2000/svg" width="1900" height="438">
<path d="M0 0 C0.07698936 0.63495864 0.15397873 1.26991728 0.2333011 1.92411709 C4.84179408 39.93171139 9.45170199 77.93913384 14.06333831 115.94634688 C14.62255768 120.55521313 15.18176574 125.16408075 15.7409668 129.77294922 C15.85224936 130.69012529 15.96353193 131.60730136 16.0781867 132.55227065 C17.85759298 147.21812301 19.63609259 161.88408518 21.41423034 176.55009139 C23.25182092 191.70628472 25.09044777 206.86235212 26.92995125 222.01831341 C27.95763965 230.48583098 28.98491535 238.9533981 30.01098442 247.42111206 C31.07490674 256.20095447 32.14025091 264.98062358 33.20662279 273.76016879 C33.4879595 276.07702658 33.76906633 278.39391217 34.05013835 280.71080208 C36.07951645 297.43360611 38.13583561 314.15262655 40.24946954 330.86500835 C40.57086852 333.40681226 40.89171765 335.94868501 41.21241361 338.4905777 C42.12864781 345.74999737 43.04655481 353.009163 43.9770793 360.26676655 C44.35201371 363.19833877 44.72297183 366.13040489 45.09297626 369.062603 C45.34595492 371.05659749 45.60410096 373.0499343 45.86242449 375.04324341 C46.62138282 381.08037284 47.19978553 386.91482112 47 393 C45.73237823 392.99666908 45.73237823 392.99666908 44.43914795 392.99327087 C36.38093297 392.9730331 28.32272682 392.9579082 20.26449203 392.94818783 C16.12407069 392.94302215 11.98367075 392.93604301 7.84326172 392.92456055 C-9.46909593 392.87776195 -26.71642963 392.86233698 -44 394 C-47.06506258 367.2459209 -49.80393413 340.46316834 -52.46666527 313.66637611 C-53.18290998 306.45889264 -53.90284853 299.2517808 -54.62336731 292.04472351 C-56.6682765 271.58518619 -58.70881822 251.12521528 -60.74487305 230.66479492 C-61.87660725 219.29226057 -63.0114969 207.9200456 -64.14986783 196.54817361 C-64.86739917 189.37844413 -65.58096725 182.20833471 -66.29161298 175.03791964 C-66.73133707 170.61048346 -67.17474354 166.18342205 -67.61923409 161.7564621 C-67.82517908 159.69777208 -68.02958051 157.63892702 -68.23236847 155.57992363 C-68.50799456 152.78355457 -68.78901099 149.98778006 -69.07145691 147.1920929 C-69.15141645 146.36744437 -69.23137599 145.54279585 -69.31375855 144.69315797 C-69.38554165 141.03913872 -69.38554165 141.03913872 -71 138 C-77.8370252 152.05465873 -84.63778838 166.12110715 -91.1875 180.3125 C-106.53670017 213.55074772 -122.23926772 246.66729407 -138.69555664 279.37207031 C-141.83657037 285.62819463 -144.88444915 291.92079185 -147.875 298.25 C-151.4962806 305.91164319 -155.24073954 313.503153 -159.0546875 321.0703125 C-159.51275284 321.97945404 -159.97081818 322.88859558 -160.44276428 323.82528687 C-160.91000412 324.75257599 -161.37724396 325.67986511 -161.85864258 326.63525391 C-171.56460292 345.89910816 -180.92187062 365.25248815 -189.6315918 384.98779297 C-191.0123725 388.02723494 -192.50703229 391.01406459 -194 394 C-201.59 394 -209.18 394 -217 394 C-236.57119143 354.11613631 -236.57119143 354.11613631 -243.5 339 C-248.81497125 327.40719405 -254.38589207 315.95017168 -260 304.5 C-266.16208719 291.93207015 -272.22262706 279.33660288 -278.05859375 266.61328125 C-282.71907937 256.49979087 -287.6022312 246.50019907 -292.5 236.5 C-298.44698603 224.35752319 -304.28309887 212.18299021 -309.91992188 199.89282227 C-315.77352613 187.20045439 -321.94981091 174.66475409 -328.11108398 162.11962891 C-328.73798378 160.84142525 -328.73798378 160.84142525 -329.37754822 159.53739929 C-330.15555201 157.95170839 -330.93493068 156.36669085 -331.71607971 154.782547 C-333.75753852 150.62237414 -335.72473836 146.4356438 -337.6373291 142.2144928 C-338.30368252 140.7449167 -338.30368252 140.7449167 -338.98349762 139.2456522 C-339.31894341 138.50458697 -339.65438919 137.76352175 -340 137 C-344.18316468 179.42680451 -348.29899922 221.85912327 -352.24609375 264.30859375 C-352.42080248 266.18625614 -352.59552197 268.06391753 -352.77025223 269.94157791 C-354.26875397 286.04734492 -355.76342219 302.15346736 -357.25419432 318.25995165 C-358.14240339 327.85623686 -359.03260036 337.45233271 -359.9267469 347.04806668 C-360.42616054 352.40929884 -360.92241727 357.77081028 -361.41619384 363.13256443 C-361.71881346 366.41061694 -362.02438312 369.68838933 -362.33081627 372.96608734 C-362.47195224 374.48219669 -362.61185744 375.99842118 -362.75045395 377.51476479 C-362.93907782 379.57656521 -363.13205778 381.63791237 -363.32615662 383.69920349 C-363.43283378 384.85094779 -363.53951094 386.00269209 -363.64942074 387.18933773 C-364 390 -364 390 -365 393 C-381.83 393 -398.66 393 -416 393 C-414.82015423 385.33100249 -413.63560161 377.78484397 -412.06225586 370.20825195 C-411.69123884 368.38331226 -411.32104006 366.55820607 -410.95155334 364.73295593 C-410.76006273 363.78865911 -410.56857212 362.8443623 -410.37127876 361.87145042 C-405.77125041 339.05723435 -402.12461587 316.19822527 -398.96884155 293.14499664 C-398.55252244 290.1148798 -398.13106119 287.08551908 -397.70800781 284.05633545 C-390.30035002 231.0140251 -383.4171154 177.89874874 -376.49814224 124.79092026 C-372.30812216 92.63118624 -368.10128868 60.47232362 -363.61157227 28.3527832 C-363.16525051 25.15298769 -362.72433399 21.95246801 -362.28320312 18.75195312 C-361.99511205 16.68485116 -361.70671527 14.61779176 -361.41796875 12.55078125 C-361.28883591 11.60858231 -361.15970306 10.66638336 -361.0266571 9.69563293 C-360.90595352 8.83999252 -360.78524994 7.98435211 -360.66088867 7.1027832 C-360.55685226 6.35470901 -360.45281586 5.60663483 -360.34562683 4.83589172 C-360 3 -360 3 -359 1 C-358.20255371 1.0714624 -357.40510742 1.1429248 -356.58349609 1.21655273 C-346.57815807 2.03077534 -336.65647553 2.11737905 -326.625 2.0625 C-325.00260557 2.05746856 -323.3802096 2.0529086 -321.7578125 2.04882812 C-317.83850279 2.03796742 -313.91926906 2.02079612 -310 2 C-291.66294251 39.39024709 -291.66294251 39.39024709 -284.5 55 C-278.94062413 67.11281829 -273.11175238 79.08374312 -267.24996948 91.05230713 C-262.2438354 101.27869418 -257.30972219 111.52531194 -252.5625 121.875 C-247.22517931 133.5086912 -241.63450223 145.00806354 -236 156.5 C-230.36549417 167.99194382 -224.77503375 179.49140111 -219.4375 191.125 C-214.24705553 202.43609135 -208.83892181 213.63152733 -203.375 224.8125 C-202.55289241 226.49592868 -201.73078949 228.17935965 -200.90869141 229.86279297 C-199.33164801 233.09119363 -197.75412239 236.31935817 -196.17626953 239.54736328 C-195.45084497 241.03157485 -194.72542173 242.51578705 -194 244 C-193.67376648 244.6673114 -193.34753296 245.3346228 -193.01141357 246.02215576 C-191.10317796 249.92730961 -189.20486369 253.83713383 -187.3125 257.75 C-186.86116699 258.67143799 -186.40983398 259.59287598 -185.94482422 260.54223633 C-185.54666504 261.36876709 -185.14850586 262.19529785 -184.73828125 263.046875 C-184.39837158 263.74651367 -184.05846191 264.44615234 -183.70825195 265.16699219 C-183 267 -183 267 -183 270 C-182.34 270 -181.68 270 -181 270 C-180.75556152 269.18966309 -180.51112305 268.37932617 -180.25927734 267.54443359 C-178.74815778 263.29115058 -176.84440321 259.33390987 -174.8515625 255.2890625 C-174.4428743 254.45231995 -174.0341861 253.61557739 -173.6131134 252.753479 C-172.28747727 250.04213926 -170.95636072 247.33353272 -169.625 244.625 C-168.70818623 242.7528788 -167.7916019 240.88064522 -166.87524414 239.00830078 C-161.71057322 228.4661674 -156.50355793 217.94647186 -151.22209167 207.46231079 C-148.05322627 201.15375073 -144.97704272 194.80693946 -141.94921875 188.4296875 C-136.39824829 176.78312036 -130.72819138 165.1969224 -125.03295898 153.62036133 C-122.16230525 147.78478854 -119.29584763 141.94715587 -116.4296875 136.109375 C-115.8662262 134.96178711 -115.30276489 133.81419922 -114.722229 132.63183594 C-110.28973678 123.59996967 -105.88575297 114.55463243 -101.5 105.5 C-91.61018398 85.09182423 -81.62677553 64.72948406 -71.60968018 44.3835144 C-68.75684444 38.58578244 -65.91777963 32.7818247 -63.10102844 26.96647644 C-61.6195222 23.91203183 -60.1276259 20.8627544 -58.63284302 17.81478882 C-57.96757722 16.45184502 -57.30720933 15.08649822 -56.65206909 13.71865845 C-55.77297479 11.88440294 -54.87536121 10.05905605 -53.9765625 8.234375 C-53.49268066 7.23631836 -53.00879883 6.23826172 -52.51025391 5.20996094 C-51 3 -51 3 -49.21557617 2.17456055 C-46.3205367 1.94646653 -43.47888739 1.92689566 -40.57421875 1.97265625 C-38.67591309 1.99295898 -38.67591309 1.99295898 -36.73925781 2.01367188 C-35.74472595 2.02611938 -35.74472595 2.02611938 -34.73010254 2.03881836 C-23.05737806 2.17415025 -11.48309056 0 0 0 Z " fill="#206B33" transform="translate(1146,35)"/>
<path d="M0 0 C26.16650852 -0.07036774 52.33300267 -0.1231233 78.49958706 -0.15543652 C90.65169391 -0.17084502 102.80374166 -0.19181817 114.95581055 -0.22631836 C125.55889573 -0.25640634 136.16193808 -0.2756186 146.76506478 -0.28226548 C152.36902399 -0.28614519 157.97286072 -0.29513444 163.57678032 -0.31719017 C221.01594113 -0.53424355 275.79770805 5.30406411 319 47 C319.85207031 47.78890625 320.70414062 48.5778125 321.58203125 49.390625 C353.63530624 79.87909444 369.54928232 127.1208783 371.12475586 170.42944336 C371.20655279 174.28664009 371.2465921 178.14207898 371.25 182 C371.25067474 182.69431122 371.25134949 183.38862244 371.25204468 184.10397339 C371.15717385 246.27628553 348.87475143 299.34620805 305.15039062 343.10107422 C282.52527512 365.33083006 253.19637738 380.66523623 222.5625 388.25 C221.57475586 388.49661377 220.58701172 388.74322754 219.56933594 388.99731445 C205.12751345 392.3917298 190.52833162 393.30070874 175.75 393.6328125 C174.15590841 393.67417987 172.56183304 393.71617647 170.96777344 393.75875854 C167.65699936 393.84565957 164.34615766 393.92762008 161.03515625 394.00537109 C156.84345513 394.1038366 152.65203489 394.21093758 148.46063232 394.32132149 C144.39049636 394.42813863 140.32025489 394.5306447 136.25 394.6328125 C135.1274884 394.66148596 135.1274884 394.66148596 133.9822998 394.69073868 C119.36451038 395.05872193 104.7783016 395.23784157 90.16796875 394.5078125 C77.71746462 393.95363096 65.28544536 393.84704276 52.82397461 393.86962891 C49.30383026 393.87501326 45.78381254 393.86962692 42.26367188 393.86328125 C28.14670317 393.85958986 14.09549915 394.24068026 0 395 C0.05475589 394.35537245 0.10951178 393.7107449 0.16592693 393.04658318 C1.59943901 375.93730997 2.57830213 358.85557373 3.11328125 341.6953125 C3.13406809 341.04359904 3.15485493 340.39188558 3.17627168 339.72042322 C4.50746584 297.794872 4.26637646 255.84224498 4.20059693 213.90086675 C4.18717942 204.92213089 4.18489916 195.94341936 4.1855461 186.96467483 C4.18622741 176.01603856 4.17927591 165.06741637 4.1700995 154.11878443 C4.16800181 151.04069493 4.16726315 147.96260781 4.16686058 144.88451767 C4.16170255 124.38259315 4.06407065 103.9135983 3.23687744 83.42619324 C2.95963987 76.4719003 2.848009 69.51744281 2.75390625 62.55859375 C2.73642712 61.32248698 2.71894798 60.08638021 2.70093918 58.81281567 C2.63581301 54.1626208 2.57431728 49.51243203 2.52319336 44.86206055 C2.48283413 41.32325722 2.43156062 37.78473289 2.37890625 34.24609375 C2.3704921 33.22366074 2.36207794 32.20122772 2.35340881 31.14781189 C2.23827647 24.07227627 1.67460464 17.09960749 0.98106384 10.0594635 C0.88704017 9.08966317 0.7930165 8.11986283 0.69614363 7.12067461 C0.46576664 4.74694846 0.23367776 2.37340309 0 0 Z M91 33 C90.23969886 85.98402058 89.8349704 138.95734127 89.87143159 191.94676197 C89.87520737 198.07283062 89.8738297 204.1988831 89.86962891 210.32495117 C89.836008 260.55762318 90.22355625 310.77324892 91 361 C91.83921903 361.00512761 92.67843805 361.01025522 93.54308796 361.01553822 C96.04054184 361.03079761 98.53799552 361.04609179 101.03544903 361.06141186 C103.86802324 361.07873497 106.70059936 361.09568869 109.53317738 361.11237812 C121.54907646 361.18367035 121.54907646 361.18367035 127.00448608 361.23373413 C147.15744472 361.41599139 167.14830766 361.24348654 186.625 355.375 C187.47562012 355.12411621 188.32624023 354.87323242 189.20263672 354.61474609 C207.86496879 348.83559908 222.82270449 339.34764311 237 326 C237.92232422 325.17435547 237.92232422 325.17435547 238.86328125 324.33203125 C244.58711149 319.00294793 248.76805706 312.51932263 253 306 C253.60972656 305.07445312 254.21945313 304.14890625 254.84765625 303.1953125 C284.4003089 255.66872305 286.26536852 185.19501748 274.4765625 132.01953125 C267.11778052 100.97622566 252.31188838 72.10327906 224.80444336 54.4140625 C197.04615035 37.38225802 165.49775632 32.75790725 133.3828125 32.90234375 C131.75267212 32.90385437 131.75267212 32.90385437 130.08959961 32.90539551 C126.95563671 32.90944965 123.82172781 32.91872473 120.68778229 32.92951584 C114.99482796 32.94725182 109.3018541 32.95825779 103.60888672 32.97094727 C101.20498653 32.97646595 98.80108638 32.98200334 96.39718628 32.98756409 C94.59812419 32.99170939 92.79906209 32.9958547 91 33 Z " fill="#206B33" transform="translate(0,35)"/>
<path d="M0 0 C19.67369729 16.97144741 28.35678461 38.89755945 31.5625 64.125 C31.64989778 66.42379934 31.69133072 68.72467243 31.69380188 71.02513123 C31.69697545 72.01181379 31.69697545 72.01181379 31.70021313 73.01842934 C31.70616201 75.20297723 31.70521668 77.38746652 31.7043457 79.57202148 C31.70738054 81.14626157 31.71090288 82.72050077 31.71487427 84.29473877 C31.72273763 87.67553745 31.72789843 91.0563257 31.73116493 94.43713188 C31.73709585 99.78730847 31.75365489 105.13741929 31.77250671 110.48756409 C31.77884329 112.3221769 31.78516892 114.15678974 31.79148388 115.99140263 C31.79464969 116.90988582 31.7978155 117.82836901 31.80107725 118.77468503 C31.84309633 131.22290681 31.87613805 143.67109672 31.88842773 156.11938477 C31.8968135 164.52723157 31.91931901 172.93491403 31.9577834 181.34267861 C31.97751827 185.7873763 31.98995697 190.23182849 31.98494911 194.6765728 C31.98029573 198.85708832 31.9941454 203.03713814 32.02196121 207.21755981 C32.02886004 208.74773187 32.02901364 210.27795221 32.02176094 211.80812263 C31.98745274 219.86241151 32.20072269 226.13622817 36.5625 233.125 C36.5625 233.785 36.5625 234.445 36.5625 235.125 C45.90570585 239.94729979 55.14744255 241.96946078 65.5625 243.125 C65.44794319 245.04231918 65.32043742 246.9588675 65.1875 248.875 C65.11789062 249.94234375 65.04828125 251.0096875 64.9765625 252.109375 C64.3353035 256.77967639 64.3353035 256.77967639 62.5625 259.125 C60.32482125 260.44982437 58.24002144 261.52560694 55.875 262.5625 C54.8842749 263.01036865 54.8842749 263.01036865 53.87353516 263.46728516 C40.50227198 269.3703706 28.2023872 272.338152 13.5625 272.5 C12.31082031 272.53738281 11.05914063 272.57476562 9.76953125 272.61328125 C-3.33645978 272.73551329 -13.75720708 268.96430629 -23.4375 260.125 C-24.18644531 259.46757812 -24.93539063 258.81015625 -25.70703125 258.1328125 C-33.13354409 251.22501691 -38.92100722 242.6672417 -42.4375 233.125 C-43.0975 233.125 -43.7575 233.125 -44.4375 233.125 C-44.83388672 233.99705078 -44.83388672 233.99705078 -45.23828125 234.88671875 C-47.33784719 238.80545258 -50.44813144 241.86498902 -53.4375 245.125 C-53.94023438 245.70507812 -54.44296875 246.28515625 -54.9609375 246.8828125 C-67.96472228 261.07476036 -89.65622976 270.15802118 -108.58984375 271.24902344 C-131.68492915 272.04035251 -155.83229449 268.48828666 -173.8125 252.6875 C-175.37249324 251.18547097 -176.91567085 249.66568367 -178.4375 248.125 C-179.07300781 247.51140625 -179.70851563 246.8978125 -180.36328125 246.265625 C-194.87008843 231.21199804 -197.88508513 209.40771057 -197.65625 189.4453125 C-197.46578533 182.73381379 -196.37332805 176.57214906 -194.4375 170.125 C-194.05464844 168.82949219 -194.05464844 168.82949219 -193.6640625 167.5078125 C-186.59943922 147.22132547 -168.86381316 133.60997387 -150.3125 124.375 C-136.28503072 117.99385505 -121.17242796 114.97082446 -106.125 112.0625 C-84.57123293 107.88872781 -60.95821449 102.8380518 -47.8828125 83.58984375 C-44.04894804 77.05155057 -42.67038045 70.24421928 -44 62.75 C-47.09279633 51.01375962 -54.17743144 42.15829014 -64.43579102 35.92700195 C-83.1880869 25.05314339 -102.55136472 22.70293956 -123.4375 28.125 C-138.14712873 32.72155864 -150.13896393 40.56624474 -161.2578125 51.12109375 C-164.73300516 54.31602893 -166.80092741 54.22579506 -171.4375 54.125 C-172.2333477 50.37587516 -173.02337808 46.62554576 -173.8125 42.875 C-174.03421875 41.83085937 -174.2559375 40.78671875 -174.484375 39.7109375 C-175.98895809 32.54204162 -177.29015963 25.35957334 -178.4375 18.125 C-156.37331839 2.04315629 -130.08724537 -10.61133722 -103.4375 -16.875 C-102.77782227 -17.03581055 -102.11814453 -17.19662109 -101.43847656 -17.36230469 C-68.76353975 -25.00694741 -27.39268131 -20.95730641 0 0 Z M-104.38671875 147.984375 C-115.61047093 159.76809746 -119.10235411 175.45163911 -118.72265625 191.31640625 C-117.96514489 201.43385255 -116.27468154 210.69146957 -110.4375 219.125 C-109.86 220.0325 -109.2825 220.94 -108.6875 221.875 C-102.58112391 227.98137609 -94.30118511 231.11070312 -85.75 231.4375 C-74.98454199 231.15936507 -65.36042199 228.16962587 -57.7265625 220.37890625 C-36.97820844 195.04906284 -42.94257447 148.75591851 -42.4375 118.125 C-61.40654828 118.125 -91.25592965 135.45881265 -104.38671875 147.984375 Z " fill="#206B33" transform="translate(1424.4375,165.875)"/>
<path d="M0 0 C0.12787283 8.94566881 -0.2647978 17.74850568 -0.9609375 26.6640625 C-2.12722064 42.83614151 -2.42983687 58.98258753 -2.60089111 75.19146729 C-2.64199445 78.9141808 -2.69258075 82.63676681 -2.7421875 86.359375 C-2.83700561 93.57282688 -2.9219804 100.78634468 -3 108 C1.30146661 107.92999771 5.60208422 107.84153026 9.90283203 107.73754883 C11.35911196 107.70474973 12.81550534 107.67658571 14.27197266 107.65356445 C23.27354475 107.50757622 31.47736959 106.7698991 40.23779297 104.53442383 C43 104 43 104 46 105 C45.75636719 106.20849609 45.75636719 106.20849609 45.5078125 107.44140625 C44.90835083 111.64224916 44.85390834 115.70159173 44.875 119.9375 C44.87113281 120.71029297 44.86726563 121.48308594 44.86328125 122.27929688 C44.87118739 126.95577846 45.22613027 131.38749075 46 136 C33.20918473 136.12293405 20.45128675 135.97029989 7.66796875 135.49609375 C6.33150906 135.4480125 4.9950426 135.40011942 3.65856934 135.35241699 C0.43897504 135.23678214 -2.78053913 135.11928235 -6 135 C-5.93938392 159.67886157 -5.86182639 184.35762008 -5.76428509 209.03636456 C-5.71938345 220.49599473 -5.67995582 231.95559422 -5.65356445 243.4152832 C-5.63053874 253.40743219 -5.59708973 263.3994836 -5.55129844 273.39155513 C-5.52742787 278.67874731 -5.50865874 283.96584322 -5.50238609 289.253088 C-5.49630729 294.23781264 -5.47620708 299.22229118 -5.44572449 304.20692444 C-5.43698888 306.0284739 -5.43321231 307.85005559 -5.43499184 309.67162514 C-5.64263788 328.89201634 -5.64263788 328.89201634 2 346 C9.28026564 351.97426379 16.16815614 354.39098261 25.5 354.375 C26.2822998 354.37628906 27.06459961 354.37757813 27.87060547 354.37890625 C35.37002019 354.24479763 41.93445704 352.54450422 49 350 C49.02900455 353.6041498 49.04680018 357.20826962 49.0625 360.8125 C49.07087891 361.83666016 49.07925781 362.86082031 49.08789062 363.91601562 C49.09111328 364.89892578 49.09433594 365.88183594 49.09765625 366.89453125 C49.10289307 367.80050049 49.10812988 368.70646973 49.11352539 369.63989258 C49 372 49 372 48 375 C45.74024203 376.12987898 43.61623679 377.02637359 41.25 377.875 C40.55205322 378.13112061 39.85410645 378.38724121 39.13500977 378.65112305 C23.07885105 384.31460629 6.92620927 387.18055203 -10.0625 387.25 C-11.91391602 387.2809375 -11.91391602 387.2809375 -13.80273438 387.3125 C-33.17516184 387.3935986 -50.78626596 382.15822616 -65.21484375 368.9765625 C-81.80456715 351.84552375 -82.16081504 328.76301675 -82.11352539 306.42333984 C-82.11324296 304.54996746 -82.11340234 302.67659497 -82.1139679 300.80322266 C-82.11425369 295.74198298 -82.10839219 290.68076721 -82.10139394 285.61953306 C-82.09512411 280.32111452 -82.09455373 275.02269537 -82.09336853 269.72427368 C-82.09026589 259.7018827 -82.08206693 249.67950269 -82.07201904 239.65711653 C-82.06082471 228.24235118 -82.05533909 216.82758529 -82.05032361 205.41281581 C-82.0398834 181.94187114 -82.02230468 158.47093618 -82 135 C-82.60801421 135.07087043 -83.21602842 135.14174086 -83.84246731 135.21475887 C-84.64536725 135.30654698 -85.44826719 135.39833509 -86.27549744 135.49290466 C-87.06913665 135.58440009 -87.86277586 135.67589552 -88.68046474 135.77016354 C-91.79543444 136.07881744 -94.8748306 136.11221009 -98.00390625 136.09765625 C-99.6756189 136.09390991 -99.6756189 136.09390991 -101.38110352 136.09008789 C-103.45089478 136.07643188 -103.45089478 136.07643188 -105.5625 136.0625 C-112.2140625 136.0315625 -112.2140625 136.0315625 -119 136 C-119 125.77 -119 115.54 -119 105 C-105.5 105 -105.5 105 -99.921875 105.4375 C-98.74238281 105.52773437 -97.56289062 105.61796875 -96.34765625 105.7109375 C-95.16042969 105.80632812 -93.97320313 105.90171875 -92.75 106 C-91.51636719 106.09539062 -90.28273438 106.19078125 -89.01171875 106.2890625 C-86.00746767 106.52195018 -83.00360877 106.75899341 -80 107 C-80.15887192 105.98066879 -80.31774384 104.96133759 -80.48143005 103.91111755 C-80.9492496 100.38276566 -81.18984086 96.97660612 -81.29711914 93.42211914 C-81.33708511 92.16134048 -81.37705109 90.90056183 -81.41822815 89.60157776 C-81.45728843 88.24610635 -81.49626248 86.89063245 -81.53515625 85.53515625 C-81.57822679 84.13267484 -81.6216435 82.73020402 -81.66539001 81.32774353 C-81.77897107 77.65690766 -81.8878825 73.98594789 -81.99578857 70.31494141 C-82.10697686 66.5607854 -82.22262713 62.80676707 -82.33789062 59.05273438 C-82.56293597 51.70194973 -82.78304331 44.3510283 -83 37 C-70.45763824 30.53615438 -57.66148537 24.74627814 -44.75 19.0625 C-41.86440866 17.78815626 -38.97930836 16.51270736 -36.09436035 15.23690796 C-34.20015607 14.39957815 -32.30554839 13.56316027 -30.41052246 12.72769165 C-25.66040328 10.63114253 -20.91983193 8.51608284 -16.19335938 6.36669922 C-15.26944397 5.94714462 -14.34552856 5.52759003 -13.39361572 5.09532166 C-11.63734866 4.29618448 -9.88251577 3.49388575 -8.1293335 2.68800354 C-6.96171478 2.15686195 -6.96171478 2.15686195 -5.77050781 1.61499023 C-4.74657928 1.14548195 -4.74657928 1.14548195 -3.70196533 0.66648865 C-2 0 -2 0 0 0 Z " fill="#206B33" transform="translate(1851,51)"/>
<path d="M0 0 C-0.09087891 0.75877441 -0.18175781 1.51754883 -0.27539062 2.29931641 C-0.7104979 6.0719196 -1.11476228 9.84703765 -1.5 13.625 C-1.57269104 14.33353119 -1.64538208 15.04206238 -1.72027588 15.77206421 C-2.69581218 25.62711409 -3.10635031 35.38900497 -3.0234375 45.29296875 C-3.01519958 46.33086548 -3.00696167 47.36876221 -2.99847412 48.43811035 C-2.94624723 53.61430849 -2.8510982 58.78683857 -2.71289062 63.96142578 C-2.68065962 65.87662208 -2.64874377 67.79182372 -2.6171875 69.70703125 C-2.58184906 70.58795944 -2.54651062 71.46888763 -2.51010132 72.37651062 C-2.43672781 78.39436488 -2.43672781 78.39436488 -5.39892578 81.5793457 C-8 83 -8 83 -10 83.0234375 C-10.66 82.80945313 -11.32 82.59546875 -12 82.375 C-32.00843467 76.83724543 -52.30901369 77.15680629 -70.86328125 87.046875 C-82.88977898 94.53535428 -88.18608239 105.79284674 -91.54072571 119.15357971 C-92.14485473 122.89775859 -92.1474625 126.59327764 -92.14526367 130.37475586 C-92.14862228 131.20867859 -92.1519809 132.04260132 -92.15544128 132.90179443 C-92.164964 135.67282604 -92.16689841 138.44379674 -92.16796875 141.21484375 C-92.17119221 143.18258182 -92.17455705 145.15031965 -92.17805481 147.11805725 C-92.18405755 151.27345325 -92.1858947 155.42882848 -92.18530273 159.58422852 C-92.18522308 163.74638367 -92.19189623 167.908425 -92.20581055 172.07055664 C-92.29732465 199.8557358 -91.72544225 227.53570231 -90.29414368 255.28541565 C-89.85297175 263.85644542 -89.42858342 272.42833154 -89 281 C-117.05 281 -145.1 281 -174 281 C-174 266.07196899 -174 266.07196899 -173.64868164 258.65014648 C-173.61127365 257.80874619 -173.57386566 256.96734589 -173.5353241 256.10044861 C-173.45475023 254.29618634 -173.37287509 252.49198177 -173.28978157 250.68783379 C-173.15647958 247.79120018 -173.02695852 244.89441723 -172.89830017 241.99757385 C-172.57725719 234.78548953 -172.25022088 227.57367973 -171.9229126 220.36187744 C-170.17853793 181.90029946 -168.78511426 143.50455243 -168.8125 105 C-168.81261959 104.24605328 -168.81273918 103.49210655 -168.8128624 102.71531296 C-168.81886006 72.66695535 -169.04518952 42.75306821 -173.75634766 12.99414062 C-174 11 -174 11 -174 7 C-148.26 7 -122.52 7 -96 7 C-95.5625 30.625 -95.5625 30.625 -95.43188477 37.99072266 C-95.22984857 48.68919986 -94.97737514 59.33881597 -94 70 C-93.56244385 69.09870361 -93.1248877 68.19740723 -92.67407227 67.26879883 C-91.01298954 63.85460145 -89.33766912 60.44754378 -87.65844727 57.04223633 C-86.94016259 55.58086543 -86.22550764 54.11770359 -85.51489258 52.65258789 C-75.48101702 31.98209513 -63.56725329 13.45111581 -41 5.3125 C-35.41844984 3.50170809 -29.77487033 2.2116917 -24 1.1875 C-23.32582031 1.0635083 -22.65164063 0.9395166 -21.95703125 0.81176758 C-14.67985007 -0.34619852 -7.34595715 -0.10343863 0 0 Z " fill="#206B33" transform="translate(1704,148)"/>
<path d="M0 0 C106.92 0 213.84 0 324 0 C330 13 330 13 330 17 C218.79 17 107.58 17 -7 17 C-4 8 -4 8 0 0 Z " fill="#206B33" transform="translate(365,411)"/>
<path d="M0 0 C0.99 0.495 0.99 0.495 2 1 C2.70317492 3.97138244 3.2847047 6.89369082 3.8046875 9.8984375 C3.96993927 10.80316803 4.13519104 11.70789856 4.30545044 12.64004517 C5.01369781 16.51792762 5.70202037 20.39926372 6.39013672 24.28076172 C8.49684211 42.06139257 8.49684211 42.06139257 16.7890625 57.15234375 C20.66971055 59.38536872 22.90454333 59.63715399 27.375 59.5625 C28.11596924 59.55025391 28.85693848 59.53800781 29.62036133 59.52539062 C39.42845802 59.19392533 49.20242065 57.75595054 58.91748047 56.42407227 C59.59562302 56.33207047 60.27376556 56.24006866 60.97245789 56.14527893 C62.83347222 55.89082581 64.69350765 55.6292423 66.5534668 55.3671875 C70.06286657 54.99330231 73.47356423 54.9369626 77 55 C73.87720528 57.53504617 70.70255035 59.19168217 67.046875 60.85546875 C65.29225952 61.6597229 65.29225952 61.6597229 63.50219727 62.48022461 C62.88869415 62.75913544 62.27519104 63.03804626 61.64309692 63.32540894 C58.46812517 64.77124868 55.30312544 66.23864818 52.13671875 67.703125 C50.89764456 68.27543578 49.65855004 68.84770257 48.41943359 69.41992188 C47.29102051 69.94134766 46.16260742 70.46277344 45 71 C44.07654785 71.42603516 43.1530957 71.85207031 42.20166016 72.29101562 C39.98048044 73.32379062 37.76986643 74.37560255 35.5625 75.4375 C34.38816406 75.99308594 33.21382812 76.54867187 32.00390625 77.12109375 C28.3627505 79.39859169 26.49774587 81.51690484 24 85 C21.48155171 97.34039662 33.21582528 113.69646223 38.62207031 124.29248047 C40.66613851 128.30890788 42.67706202 132.34166551 44.6875 136.375 C45.33705421 137.67457184 45.98677279 138.97406154 46.63671875 140.2734375 C47.08660156 141.17320312 47.53648437 142.07296875 48 143 C40.57190643 143 32.63663851 132.87309851 27.4375 127.75 C15.3553385 115.54511376 5.35541802 101.85546773 1 85 C0.6596875 86.01578125 0.319375 87.0315625 -0.03125 88.078125 C-4.4519876 100.81668627 -10.58836673 110.78624436 -19.84375 120.69140625 C-21.81972307 122.80698611 -23.69515839 124.97639777 -25.5625 127.1875 C-29.05398951 131.19505262 -32.93966571 134.58454233 -37 138 C-37.65742188 138.58394531 -38.31484375 139.16789063 -38.9921875 139.76953125 C-39.61351562 140.31996094 -40.23484375 140.87039062 -40.875 141.4375 C-41.70644531 142.17806641 -41.70644531 142.17806641 -42.5546875 142.93359375 C-44 144 -44 144 -46 144 C-44.41484322 138.63663494 -42.03781067 133.86678736 -39.5 128.91015625 C-38.60407207 127.13871972 -37.70824173 125.36723382 -36.8125 123.59570312 C-35.40568065 120.82553632 -33.99688813 118.05639499 -32.5859375 115.28833008 C-31.21873764 112.60238385 -29.85903854 109.91273892 -28.5 107.22265625 C-28.07912109 106.4026564 -27.65824219 105.58265656 -27.22460938 104.73780823 C-23.76498099 97.87725295 -20.83754493 91.78483824 -23 84 C-29.84562523 74.94610857 -42.52995662 70.78067 -52.625 66.375 C-67.97091654 59.62962748 -67.97091654 59.62962748 -75 56 C-75 55.67 -75 55.34 -75 55 C-65.7589193 55.38895695 -56.71850572 56.26382423 -47.5625 57.5625 C-31.77107447 60.19622752 -31.77107447 60.19622752 -16.2890625 57.9765625 C-10.66672857 53.12178269 -9.12529483 45.67759103 -7.5625 38.6875 C-7.35858643 37.80682861 -7.15467285 36.92615723 -6.94458008 36.01879883 C-4.24874733 24.09069031 -2.1305719 12.03944394 0 0 Z " fill="#206B33" transform="translate(526,0)"/>
<path d="M0 0 C96.03 0 192.06 0 291 0 C295 8 295 8 297 15 C197.34 15 97.68 15 -5 15 C-4 10 -4 10 0 0 Z " fill="#206B33" transform="translate(381,371)"/>
<path d="M0 0 C85.14 0 170.28 0 258 0 C263 12 263 12 263 14 C174.56 14 86.12 14 -5 14 C-4 9 -4 9 0 0 Z " fill="#206B33" transform="translate(398,332)"/>
<path d="M0 0 C74.91 0 149.82 0 227 0 C231 8 231 8 232 13 C154.12 13 76.24 13 -4 13 C-3 8 -3 8 0 0 Z " fill="#206B33" transform="translate(413,295)"/>
<path d="M0 0 C65.34 0 130.68 0 198 0 C201 8 201 8 201 11 C133.35 11 65.7 11 -4 11 C-1 2 -1 2 0 0 Z " fill="#206B33" transform="translate(428,260)"/>
<path d="M0 0 C55.44 0 110.88 0 168 0 C171 7 171 7 171 10 C113.25 10 55.5 10 -4 10 C-2.68 6.7 -1.36 3.4 0 0 Z " fill="#206B33" transform="translate(443,225)"/>
<path d="M0 0 C45.87 0 91.74 0 139 0 C143 8 143 8 143 9 C94.82 9 46.64 9 -3 9 C-2.01 6.03 -1.02 3.06 0 0 Z " fill="#206B33" transform="translate(457,191)"/>
<path d="M0 0 C36.96 0 73.92 0 112 0 C114 4 114 4 114 7 C75.39 7 36.78 7 -3 7 C-2.01 4.69 -1.02 2.38 0 0 Z " fill="#206B33" transform="translate(471,159)"/>
<path d="M0 0 C2.84124653 1.23532458 4.42097859 2.2555439 6.3125 4.6875 C7.35535913 8.19529889 7.64641043 11.41723579 7 15 C5.07696166 18.41184222 3.65940323 20.42958014 -0.125 21.73046875 C-4.31676935 22.44561859 -6.53457842 22.22001748 -10.4375 20.375 C-13.16405526 17.84794879 -14.24334249 16.61514146 -15 13 C-14.81057861 7.69620111 -13.69737793 4.80941968 -10 1 C-6.80621918 -0.59689041 -3.47478685 -0.37348957 0 0 Z " fill="#206B33" transform="translate(561,27)"/>
<path d="M0 0 C2.62855579 2.02774304 4.02292805 3.66542157 4.55859375 6.9921875 C4.6724807 11.40028257 4.65419075 13.94982753 2.25 17.75 C-1.74728255 20.27889304 -5.10165428 20.99528665 -9.8125 20.6875 C-13.482761 19.12568681 -14.5852373 18.02839404 -16.8125 14.6875 C-17.52014306 9.83273949 -17.521587 5.88561251 -15 1.625 C-10.64230619 -2.23467166 -5.18779859 -2.42097267 0 0 Z " fill="#206B33" transform="translate(502.8125,28.3125)"/>
</svg>
