<?xml version="1.0" encoding="UTF-8"?>
<svg version="1.1" xmlns="http://www.w3.org/2000/svg" width="1280" height="322">
<path d="M0 0 C2.06024323 0.01610327 4.11852603 0.00004188 6.17871094 -0.01904297 C25.67409092 -0.05251568 40.91789953 5.8181255 55.06152344 19.39111328 C60.28407657 24.94796439 65.30933886 30.72604856 69.06152344 37.39111328 C70.41644227 35.89179267 71.77041022 34.39161274 73.12402344 32.89111328 C74.36539063 31.52019531 74.36539063 31.52019531 75.63183594 30.12158203 C77.07184199 28.50331157 78.49206397 26.86645025 79.86621094 25.19189453 C84.27245089 19.82640138 89.25911908 16.15774362 95.06152344 12.39111328 C96.00382813 11.72853516 96.94613281 11.06595703 97.91699219 10.38330078 C101.25797819 8.26665127 104.64620944 6.70633022 108.31152344 5.26611328 C109.53355469 4.76853516 110.75558594 4.27095703 112.01464844 3.75830078 C120.98914978 0.54748538 129.74758446 0.04430533 139.23657227 0.07543945 C141.22840852 0.07858077 143.22022651 0.05432542 145.21191406 0.02978516 C157.69675672 0.0236198 169.65722363 1.58546656 180.99902344 7.07861328 C182.04219727 7.55911133 182.04219727 7.55911133 183.10644531 8.04931641 C184.7648266 8.81560293 186.41432916 9.60106609 188.06152344 10.39111328 C188.06152344 11.05111328 188.06152344 11.71111328 188.06152344 12.39111328 C188.939375 12.62701172 189.81722656 12.86291016 190.72167969 13.10595703 C199.77153509 16.58829905 206.60335884 25.63694494 212.06152344 33.39111328 C212.58359375 34.09751953 213.10566406 34.80392578 213.64355469 35.53173828 C219.84938846 44.26703848 223.117321 53.54581343 225.31152344 63.95361328 C225.47475098 64.70102783 225.63797852 65.44844238 225.80615234 66.21850586 C229.5176776 85.35519335 228.19832168 105.58984528 228.16291738 125.00117469 C228.15658454 129.0703462 228.1560723 133.13951878 228.15489197 137.20869446 C228.1518075 144.88270879 228.14363378 152.55670855 228.13354248 160.23071653 C228.12229075 168.98068634 228.11684826 177.73065692 228.11184704 186.48063219 C228.10144812 204.45080075 228.0839057 222.42095584 228.06152344 240.39111328 C218.82154792 240.41423852 209.5815823 240.43202929 200.34158421 240.44292545 C196.05152429 240.44815389 191.7614841 240.45525081 187.47143555 240.46655273 C183.33472944 240.47738303 179.19804236 240.48339042 175.06132317 240.48599052 C173.4796004 240.48784452 171.89787872 240.49146464 170.31616402 240.49684334 C168.10829506 240.50405568 165.90050571 240.50510414 163.69262695 240.50463867 C162.43354019 240.50685928 161.17445343 240.5090799 159.87721252 240.5113678 C157.06152344 240.39111328 157.06152344 240.39111328 156.06152344 239.39111328 C155.95723887 237.57436713 155.92353544 235.75354679 155.91676331 233.93382263 C155.90986481 232.74919937 155.90296631 231.56457611 155.89585876 230.34405518 C155.89193871 228.37659332 155.89193871 228.37659332 155.88793945 226.36938477 C155.88163745 224.98321829 155.87487205 223.59705385 155.86767578 222.21089172 C155.85297612 219.2179602 155.84126313 216.22503665 155.83172798 213.23208427 C155.81629901 208.49567357 155.79234714 203.75933018 155.76683044 199.02296448 C155.69557469 185.55156715 155.63595659 172.08013034 155.5847168 158.60864258 C155.55636409 151.17432677 155.52095048 143.74007701 155.47806305 136.30583054 C155.45135458 131.60225211 155.4334094 126.89874846 155.4220258 122.19510925 C155.41286309 119.25892052 155.39548313 116.32282193 155.37584686 113.38668633 C155.36487591 111.3867733 155.36362479 109.38681425 155.36271667 107.38687134 C155.29579204 99.09310558 154.60967927 92.12898917 150.93652344 84.57861328 C149.58665048 81.79511613 149.06152344 80.54972173 149.06152344 77.39111328 C148.44277344 77.14361328 147.82402344 76.89611328 147.18652344 76.64111328 C145.06152344 75.39111328 145.06152344 75.39111328 144.24902344 73.42236328 C143.20795039 71.19798894 143.20795039 71.19798894 140.80371094 70.34423828 C129.63507878 67.60533666 117.9390996 66.66037929 106.97949219 70.73486328 C105.06152344 71.39111328 105.06152344 71.39111328 102.06152344 71.39111328 C101.73152344 72.38111328 101.40152344 73.37111328 101.06152344 74.39111328 C100.33964844 74.88611328 99.61777344 75.38111328 98.87402344 75.89111328 C91.18366081 82.72699117 88.47948032 92.5623269 87.86912346 102.53463936 C87.78405178 106.14495368 87.7602181 109.75073969 87.75854492 113.36206055 C87.75086777 114.74121083 87.74231841 116.12035649 87.73297119 117.49949646 C87.71481569 120.44809526 87.70269957 123.39663223 87.69543266 126.34527779 C87.68388028 131.00490722 87.65840111 135.66439925 87.63111877 140.32395935 C87.58961962 147.68539209 87.55712684 155.04683153 87.52864462 162.40832514 C87.47746442 175.61863998 87.41559806 188.82889836 87.34330422 202.03911442 C87.31835433 206.67522018 87.2989374 211.31130731 87.28392208 215.94745553 C87.27375243 218.81990003 87.25960866 221.69231526 87.2444458 224.56473732 C87.23531009 226.540877 87.23119218 228.51703784 87.22718811 230.49319458 C87.22028961 231.65809921 87.21339111 232.82300385 87.20628357 234.02320862 C87.20242866 235.04170678 87.19857374 236.06020494 87.19460201 237.10956669 C87.06152344 239.39111328 87.06152344 239.39111328 86.06152344 240.39111328 C83.88889663 240.49067606 81.71299238 240.51911047 79.53808594 240.52050781 C78.85679626 240.52226013 78.17550659 240.52401245 77.47357178 240.52581787 C75.21119677 240.5302357 72.94889931 240.52729866 70.68652344 240.52392578 C69.12093084 240.52459884 67.55533834 240.52556888 65.98974609 240.52682495 C62.70441699 240.52830183 59.41911502 240.52614769 56.13378906 240.52148438 C51.91331828 240.51578709 47.69291108 240.51906614 43.47244263 240.52505684 C40.23835772 240.52866272 37.00428799 240.52752374 33.77020264 240.52492905 C32.21360263 240.52425985 30.65700126 240.52508794 29.10040283 240.5274086 C26.92855148 240.52993558 24.75680448 240.52609393 22.58496094 240.52050781 C21.34665527 240.51971222 20.10834961 240.51891663 18.83251953 240.51809692 C16.06152344 240.39111328 16.06152344 240.39111328 15.06152344 239.39111328 C14.96598182 237.57939828 14.94132538 235.76392272 14.94367981 233.94969177 C14.94200302 232.17747757 14.94200302 232.17747757 14.94029236 230.36946106 C14.94579857 228.40682564 14.94579857 228.40682564 14.95141602 226.40454102 C14.95165802 225.02150472 14.95138133 223.63846824 14.95062256 222.25543213 C14.94951339 219.26741932 14.95095682 216.27942183 14.95398903 213.29141045 C14.95761916 208.55280739 14.94848407 203.81428435 14.936203 199.07569885 C14.93317011 197.87549509 14.93317011 197.87549509 14.93007594 196.65104479 C14.9259066 195.01398905 14.92170384 193.37693339 14.91746843 191.73987782 C14.8893655 180.70634059 14.86909617 169.67297335 14.88647461 158.6394043 C14.89809327 151.20198624 14.88825275 143.76492582 14.85441703 136.32757145 C14.83737147 132.39658197 14.83080437 128.4662369 14.85053444 124.5352459 C15.26945571 98.76580523 15.26945571 98.76580523 4.87402344 75.64111328 C-1.45887088 69.41835626 -9.25748241 68.04339989 -17.87597656 67.95361328 C-24.8442262 68.02655321 -31.30946635 69.28188276 -37.93847656 71.39111328 C-37.93847656 72.05111328 -37.93847656 72.71111328 -37.93847656 73.39111328 C-38.80472656 73.86548828 -39.67097656 74.33986328 -40.56347656 74.82861328 C-48.21815892 79.75077309 -50.41737097 89.42755676 -52.29211044 97.75681496 C-53.33960528 103.64652454 -53.3695537 109.44287181 -53.35498047 115.41137695 C-53.36238266 116.75979354 -53.3710944 118.10820346 -53.3809967 119.456604 C-53.404061 123.07365761 -53.40945369 126.69053899 -53.4116559 130.307657 C-53.41736417 134.10639165 -53.44066374 137.90501785 -53.46224976 141.70368958 C-53.50058384 148.87967575 -53.5249263 156.05563037 -53.54337442 163.23169261 C-53.57695006 176.11257606 -53.63449739 188.99336566 -53.69736612 201.87413579 C-53.71885676 206.39205432 -53.7341253 210.90993983 -53.74420571 215.42789781 C-53.74952485 217.55439963 -53.75699108 219.68088124 -53.7653656 221.80737305 C-53.77538696 224.40239789 -53.78176231 226.99744022 -53.78392029 229.59248352 C-53.78937363 230.72918488 -53.79482697 231.86588623 -53.80044556 233.03703308 C-53.80300165 234.02858996 -53.80555775 235.02014685 -53.8081913 236.04175091 C-53.93847656 238.39111328 -53.93847656 238.39111328 -54.93847656 240.39111328 C-78.03847656 240.39111328 -101.13847656 240.39111328 -124.93847656 240.39111328 C-126.63201949 237.00402742 -126.07481506 233.15132161 -126.06546021 229.42564392 C-126.0670202 228.48542359 -126.06858019 227.54520327 -126.07018745 226.57649142 C-126.07419575 223.40652875 -126.07100846 220.23661346 -126.06787109 217.06665039 C-126.0692252 214.80199658 -126.07100518 212.53734299 -126.07318115 210.27268982 C-126.07775411 204.107643 -126.07596655 197.94261284 -126.07280207 191.77756572 C-126.07027807 185.33979289 -126.07261609 178.90202154 -126.07418823 172.46424866 C-126.07612649 160.95896872 -126.07301056 149.45369734 -126.0679289 137.94841874 C-126.06345987 127.50670573 -126.06423779 117.06500383 -126.06884766 106.62329102 C-126.07419326 94.5093385 -126.07619442 82.39539471 -126.07323539 70.28144079 C-126.07167228 63.8645495 -126.07147982 57.44766588 -126.07477188 51.03077507 C-126.07764929 45.00049765 -126.07567732 38.97024133 -126.06987762 32.9399662 C-126.06854938 30.7198935 -126.06894522 28.49981903 -126.07114029 26.27974701 C-126.07384925 23.26300659 -126.07047382 20.24633496 -126.06546021 17.229599 C-126.06880629 15.89363746 -126.06880629 15.89363746 -126.07221997 14.5306868 C-126.05262647 8.50526319 -126.05262647 8.50526319 -124.93847656 7.39111328 C-122.88290995 7.29697641 -120.82407475 7.2736833 -118.76635742 7.27758789 C-117.8005349 7.27736885 -117.8005349 7.27736885 -116.81520081 7.27714539 C-114.67787354 7.27784443 -112.54063244 7.28563637 -110.40332031 7.29345703 C-108.92501371 7.29532124 -107.44670649 7.29674513 -105.96839905 7.29774475 C-102.07048854 7.30156969 -98.17261507 7.31139977 -94.27471924 7.32244873 C-90.30001324 7.33266336 -86.32530127 7.33724248 -82.35058594 7.34228516 C-74.54653061 7.35302206 -66.74251349 7.37061866 -58.93847656 7.39111328 C-58.44347656 16.30111328 -58.44347656 16.30111328 -57.93847656 25.39111328 C-56.88660156 23.96798828 -56.88660156 23.96798828 -55.81347656 22.51611328 C-41.73444154 6.14049808 -20.961268 -0.19417802 0 0 Z " fill="#303AB2" transform="translate(282.9384765625,37.60888671875)"/>
<path d="M0 0 C0.70654724 0.00215515 1.41309448 0.0043103 2.14105225 0.00653076 C25.7814953 0.12234637 44.97590186 5.2142945 62.4375 22.25 C64.08934249 23.95007147 65.18818229 25.18886458 66.25 27.3125 C66.58 20.7125 66.91 14.1125 67.25 7.3125 C90.68 7.3125 114.11 7.3125 138.25 7.3125 C138.25 84.2025 138.25 161.0925 138.25 240.3125 C115.15 240.3125 92.05 240.3125 68.25 240.3125 C66.73578999 238.79828999 67.03690144 237.38777232 66.93359375 235.27734375 C66.87075195 234.06401367 66.87075195 234.06401367 66.80664062 232.82617188 C66.76732422 231.97603516 66.72800781 231.12589844 66.6875 230.25 C66.64431641 229.39599609 66.60113281 228.54199219 66.55664062 227.66210938 C66.45023298 225.54577963 66.34958269 223.42916187 66.25 221.3125 C65.54230469 222.20839844 64.83460938 223.10429687 64.10546875 224.02734375 C54.33115162 235.73247502 38.16520179 243.70840673 23.25 246.3125 C21.7080256 246.4029179 20.16301264 246.45017562 18.6184082 246.45776367 C17.73010818 246.46414352 16.84180817 246.47052338 15.92658997 246.47709656 C14.50306465 246.47876579 14.50306465 246.47876579 13.05078125 246.48046875 C12.06055466 246.48379715 11.07032806 246.48712555 10.0500946 246.49055481 C7.95633406 246.49561039 5.86256547 246.49796356 3.76879883 246.49780273 C0.59117055 246.49998035 -2.58610537 246.51812632 -5.76367188 246.53710938 C-7.80468632 246.54004548 -9.84570241 246.54202882 -11.88671875 246.54296875 C-12.82561447 246.55015427 -13.76451019 246.55733978 -14.7318573 246.56474304 C-23.96593928 246.53331833 -32.2399044 244.83286329 -40.75 241.3125 C-41.63171875 240.97476563 -42.5134375 240.63703125 -43.421875 240.2890625 C-56.16268897 235.2668898 -66.99142482 228.99600922 -76.75 219.3125 C-77.595625 218.508125 -78.44125 217.70375 -79.3125 216.875 C-80.116875 216.029375 -80.92125 215.18375 -81.75 214.3125 C-82.42675781 213.60738281 -83.10351562 212.90226563 -83.80078125 212.17578125 C-108.88296426 185.32309121 -116.70450283 149.24570556 -115.66845703 113.49902344 C-114.01817732 80.91657778 -100.31579334 50.89616992 -76.69140625 28.34765625 C-72.12455882 24.3125 -72.12455882 24.3125 -69.75 24.3125 C-69.75 23.6525 -69.75 22.9925 -69.75 22.3125 C-49.72138599 6.61210343 -25.02132526 -0.13716947 0 0 Z M-18.75 74.3125 C-19.678125 74.8075 -20.60625 75.3025 -21.5625 75.8125 C-32.45615895 83.28243757 -40.09113454 97.50157376 -43.125 110.125 C-45.8791558 127.615309 -42.90905606 144.22305995 -32.93359375 159.00390625 C-23.50869033 171.4752431 -12.32615396 178.38476837 2.92578125 180.72265625 C19.14370379 182.63193807 33.5681187 179.3699079 46.6875 169.4375 C57.62404025 160.03313206 65.58712396 145.74113501 67.078125 131.328125 C67.13484375 130.33296875 67.1915625 129.3378125 67.25 128.3125 C67.33507812 126.91257812 67.33507812 126.91257812 67.421875 125.484375 C67.50039303 122.73624395 67.42293816 120.05592809 67.25 117.3125 C67.16492188 115.93191406 67.16492188 115.93191406 67.078125 114.5234375 C65.62891212 101.72205707 58.1176003 86.89265826 48.125 78.75 C40.82248067 72.97410588 33.46191391 68.99741417 24.25 67.3125 C23.27933594 67.08175781 22.30867188 66.85101563 21.30859375 66.61328125 C7.60437823 63.86608625 -6.86465358 66.99271462 -18.75 74.3125 Z " fill="#313AB2" transform="translate(658.75,37.6875)"/>
<path d="M0 0 C12.34345138 -0.30184956 24.68601858 -0.53251237 37.03241539 -0.67355824 C42.76626743 -0.74127305 48.49758645 -0.83302775 54.22998047 -0.98071289 C59.76748948 -1.1224764 65.30257081 -1.19979474 70.84175491 -1.23340416 C72.94952237 -1.25733725 75.0571638 -1.30408021 77.16389084 -1.37449074 C93.23863972 -1.89013173 93.23863972 -1.89013173 97.84882355 1.26550674 C101.40465658 4.70413646 103.65812109 8.68257905 106 13 C107.1343328 14.52459837 108.29381998 16.03158559 109.5 17.5 C112.43022422 21.26045441 115.34272074 25.03429917 118.25 28.8125 C118.67474609 29.36421875 119.09949219 29.9159375 119.53710938 30.484375 C120.69337487 31.98807162 121.8467835 33.49396377 123 35 C123.59296875 35.74636719 124.1859375 36.49273437 124.796875 37.26171875 C126 39 126 39 126 41 C126.66 41 127.32 41 128 41 C129.296875 42.46875 129.296875 42.46875 130.75 44.5 C131.27335938 45.221875 131.79671875 45.94375 132.3359375 46.6875 C133.15964844 47.8321875 133.15964844 47.8321875 134 49 C135.12174886 50.50243286 136.24658023 52.00257093 137.375 53.5 C138.25 54.66666667 139.125 55.83333333 140 57 C143.48613435 53.71893238 146.36895562 50.30018882 149.1953125 46.44140625 C151.86557414 42.82903931 154.62843847 39.28835643 157.37963867 35.73754883 C159.66821856 32.77177618 161.88319786 29.77790549 164 26.6875 C164.66 25.800625 165.32 24.91375 166 24 C166.66 24 167.32 24 168 24 C168.24234375 23.28457031 168.4846875 22.56914063 168.734375 21.83203125 C170.17419481 18.61021224 171.96519306 16.37253673 174.25 13.6875 C177.44319366 9.9892207 177.44319366 9.9892207 180.22458076 5.98781586 C183.73744881 0.44474406 183.73744881 0.44474406 187.06145859 -0.72616577 C189.54142134 -0.98423532 191.90971695 -0.99090232 194.40185547 -0.90820312 C195.32932083 -0.90937134 196.25678619 -0.91053955 197.21235657 -0.91174316 C200.26551226 -0.90618741 203.31471805 -0.84405604 206.3671875 -0.78125 C208.48851386 -0.7663225 210.60986786 -0.75493789 212.73123169 -0.74694824 C218.30506007 -0.7164546 223.87721116 -0.63791399 229.45037842 -0.54931641 C235.14116729 -0.46736596 240.83222818 -0.43091702 246.5234375 -0.390625 C257.68302719 -0.3049183 268.84137393 -0.16844362 280 0 C280 5.11946559 277.82327954 6.97314889 274.5625 10.5625 C273.45212028 11.81942564 272.34275431 13.07724751 271.234375 14.3359375 C270.68330078 14.95694336 270.13222656 15.57794922 269.56445312 16.21777344 C265.91732003 20.37259111 262.48208398 24.70710585 259 29 C257.39654372 30.95891503 255.79238211 32.91725294 254.1875 34.875 C252.03790271 37.49837009 249.91159268 40.1166912 247.86328125 42.8203125 C247.24839844 43.53960937 246.63351562 44.25890625 246 45 C245.34 45 244.68 45 244 45 C243.7525 45.78375 243.505 46.5675 243.25 47.375 C241.77860006 50.46493987 240.92681545 50.53659227 238 52 C237.72285156 52.73992187 237.44570312 53.47984375 237.16015625 54.2421875 C235.76127119 57.5674833 233.92406332 59.51780528 231.4375 62.125 C228.05401242 65.73356545 224.79286054 69.39705267 221.6875 73.25 C218.03450737 77.77737917 214.26289253 82.18139351 210.4375 86.5625 C200.98720146 97.23786548 200.98720146 97.23786548 193 109 C193.43570312 109.556875 193.87140625 110.11375 194.3203125 110.6875 C197.16324225 114.33038834 199.99673383 117.97622601 202.75 121.6875 C206.96591252 127.33885727 211.36609679 132.84817452 215.72949219 138.38574219 C219.24895055 142.8574291 222.74174482 147.34924097 226.19140625 151.875 C230.89960377 158.04698567 235.70405269 164.12083422 240.625 170.125 C244.90538557 175.35144631 248.98937694 180.65223845 252.91015625 186.15625 C258.06208947 193.1667311 263.64214378 199.86440503 269.125 206.6171875 C271.10218279 209.0639512 273.05676728 211.52615581 275 214 C275.50160645 214.63679687 276.00321289 215.27359375 276.52001953 215.9296875 C278.21287743 218.08989881 279.88913037 220.26216795 281.5625 222.4375 C282.11228516 223.13673584 282.66207031 223.83597168 283.22851562 224.55639648 C283.73189453 225.21712158 284.23527344 225.87784668 284.75390625 226.55859375 C285.21095947 227.14954834 285.6680127 227.74050293 286.13891602 228.34936523 C286.42307373 228.89407471 286.70723145 229.43878418 287 230 C286.67 230.99 286.34 231.98 286 233 C274.04772276 233.3018954 262.09635935 233.53253432 250.14103889 233.67355824 C244.58874507 233.74126393 239.03906853 233.83299899 233.48828125 233.98071289 C228.12582816 234.12251339 222.76588286 234.19980159 217.40169907 234.23340416 C215.36090486 234.25733104 213.32024033 234.30406226 211.28052139 234.37449074 C195.7109553 234.89044816 195.7109553 234.89044816 191.16961288 231.7236042 C187.63843674 228.27556883 185.34293082 224.30759665 183 220 C182.04813786 218.70277472 181.07259705 217.42185312 180.0546875 216.17578125 C179.33539062 215.23089844 178.61609375 214.28601563 177.875 213.3125 C177.12992188 212.33925781 176.38484375 211.36601562 175.6171875 210.36328125 C174 208 174 208 174 206 C173.01 205.67 172.02 205.34 171 205 C169.36545329 202.90518381 167.85958649 200.82171689 166.375 198.625 C162.44975166 192.94751265 158.32466424 187.63161981 153.8125 182.40234375 C151.9986746 179.99824327 150.9709613 177.83702756 150 175 C149.34 175 148.68 175 148 175 C146.2734375 172.8125 146.2734375 172.8125 144.375 170 C143.74335937 169.071875 143.11171875 168.14375 142.4609375 167.1875 C141.97882813 166.465625 141.49671875 165.74375 141 165 C136.50016228 169.07797793 133.21555741 173.78168841 129.76953125 178.76953125 C129.18558594 179.50558594 128.60164062 180.24164063 128 181 C127.34 181 126.68 181 126 181 C125.63648438 182.07314453 125.63648438 182.07314453 125.265625 183.16796875 C123.82580519 186.38978776 122.03480694 188.62746327 119.75 191.3125 C115.36296011 196.5531585 111.23040197 201.89726303 107.2421875 207.4453125 C102.86529645 213.52334339 98.34045718 219.45444931 93.6809082 225.31689453 C91.68662183 227.82970252 89.78079795 230.32880308 88 233 C85.00964694 233.28606944 82.22734562 233.37798899 79.23583984 233.34057617 C78.32846573 233.34101425 77.42109161 233.34145233 76.48622131 233.34190369 C73.47757686 233.33980839 70.46948498 233.31644244 67.4609375 233.29296875 C65.37871607 233.28737543 63.2964907 233.28310409 61.21426392 233.28010559 C55.72653353 233.26863603 50.23904031 233.23915067 44.75140381 233.20599365 C39.15461435 233.17533823 33.55778667 233.16160995 27.9609375 233.14648438 C16.97385397 233.11428301 5.98694669 233.06306119 -5 233 C-5.65234375 231.1953125 -5.65234375 231.1953125 -6 229 C-4.67453206 227.30068212 -3.32380144 225.61599834 -1.86328125 224.03125 C3.95306193 217.69058238 9.04982189 210.66427919 14.27490234 203.83325195 C17.55296387 199.55556525 20.92254099 195.35757536 24.3125 191.16796875 C25.77834922 189.28475968 27.09835487 187.3885322 28.375 185.375 C28.91125 184.59125 29.4475 183.8075 30 183 C30.66 183 31.32 183 32 183 C32.34417969 181.94619141 32.34417969 181.94619141 32.6953125 180.87109375 C34.25196117 177.44553454 36.41672963 174.8612014 38.875 172.0625 C41.51209707 169.03022963 44.04182664 166.02096693 46.1953125 162.62109375 C46.79085937 161.75613281 47.38640625 160.89117187 48 160 C48.66 160 49.32 160 50 160 C50.2371875 159.2884375 50.474375 158.576875 50.71875 157.84375 C52.216932 154.51851679 54.10968447 152.25340143 56.5 149.5 C60.18666006 145.19225822 63.7491408 140.82124804 67.1875 136.3125 C67.60636475 135.76343994 68.02522949 135.21437988 68.45678711 134.64868164 C68.86550049 134.11235107 69.27421387 133.57602051 69.6953125 133.0234375 C71.63376898 130.48044545 73.59064269 127.95457132 75.5625 125.4375 C79.7883692 120.01868208 83.89050378 114.50728405 88 109 C84.90720717 104.08791727 81.3568689 99.82913856 77.5 95.5 C74.42500478 92.04847476 71.46575461 88.7021077 68.90625 84.84375 C66.88017471 81.82124424 64.60438121 79.53113299 62 77 C60.64341771 75.39435768 59.31060994 73.76838199 58 72.125 C54.29460511 67.54557508 50.49449201 63.06644454 46.625 58.625 C41.14392601 52.33044102 35.72872292 45.98497516 30.3515625 39.6015625 C28.9668453 37.96071264 27.57781109 36.32361195 26.1875 34.6875 C21.06652398 28.65823528 16.00124486 22.59157415 11.015625 16.44921875 C9.19661269 14.23890728 7.33134726 12.08356524 5.4375 9.9375 C3 7 3 7 3 5 C2.34 5 1.68 5 1 5 C0.67 3.35 0.34 1.7 0 0 Z " fill="#E4012C" transform="translate(837,45)"/>
<path d="M0 0 C-0.33 0.66 -0.66 1.32 -1 2 C-3.21391171 2.49131464 -5.44832363 2.89099536 -7.6875 3.25 C-18.24760655 5.15419821 -28.1502743 8.7899213 -36.44921875 15.80078125 C-38 17 -38 17 -41 18 C-42.69088222 19.97956942 -44.35830472 21.97945196 -46 24 C-46.66 24.33 -47.32 24.66 -48 25 C-49.11634152 26.65051288 -49.11634152 26.65051288 -50.125 28.5625 C-50.74375 29.696875 -51.3625 30.83125 -52 32 C-52.66 32 -53.32 32 -54 32 C-54 24.74 -54 17.48 -54 10 C-74.79 10 -95.58 10 -117 10 C-117 84.91 -117 159.82 -117 237 C-94.89 237 -72.78 237 -50 237 C-50.00644531 232.06160156 -50.01289063 227.12320313 -50.01953125 222.03515625 C-50.0257309 201.98021538 -49.93600544 181.9261721 -49.76428032 161.87196922 C-49.71925734 156.5960562 -49.67992655 151.32023164 -49.65356445 146.04418945 C-49.62730371 140.81536534 -49.5868425 135.58682036 -49.53681374 130.35817146 C-49.52041482 128.40619423 -49.50873602 126.45417011 -49.50238609 124.50213432 C-49.46728923 114.74485285 -49.12546534 105.19350231 -47.65161133 95.53540039 C-47.53534488 94.76109649 -47.41907843 93.98679258 -47.29928875 93.18902493 C-45.8679165 84.75654119 -42.10016661 78.88936172 -36 73 C-34.515 73.495 -34.515 73.495 -33 74 C-33.721875 74.639375 -34.44375 75.27875 -35.1875 75.9375 C-45.47335815 86.3981886 -46.45050562 101.09476644 -46.41650391 115.02026367 C-46.4239061 116.36868026 -46.43261784 117.71709018 -46.44252014 119.06549072 C-46.46558443 122.68254433 -46.47097713 126.29942571 -46.47317934 129.91654372 C-46.4788876 133.71527837 -46.50218718 137.51390457 -46.52377319 141.31257629 C-46.56210728 148.48856247 -46.58644973 155.66451709 -46.60489786 162.84057933 C-46.6384735 175.72146278 -46.69602083 188.60225238 -46.75888956 201.48302251 C-46.7803802 206.00094104 -46.79564874 210.51882655 -46.80572915 215.03678453 C-46.81104828 217.16328635 -46.81851452 219.28976796 -46.82688904 221.41625977 C-46.83691039 224.01128461 -46.84328575 226.60632694 -46.84544373 229.20137024 C-46.85089706 230.33807159 -46.8563504 231.47477295 -46.86196899 232.6459198 C-46.86452509 233.63747668 -46.86708118 234.62903357 -46.86971474 235.65063763 C-47 238 -47 238 -48 240 C-71.1 240 -94.2 240 -118 240 C-119.69354293 236.61291414 -119.1363385 232.76020833 -119.12698364 229.03453064 C-119.12854363 228.09431031 -119.13010362 227.15408999 -119.13171089 226.18537813 C-119.13571919 223.01541547 -119.13253189 219.84550018 -119.12939453 216.67553711 C-119.13074864 214.4108833 -119.13252862 212.14622971 -119.13470459 209.88157654 C-119.13927755 203.71652972 -119.13748999 197.55149956 -119.1343255 191.38645244 C-119.13180151 184.94867961 -119.13413952 178.51090825 -119.13571167 172.07313538 C-119.13764993 160.56785544 -119.134534 149.06258406 -119.12945233 137.55730546 C-119.12498331 127.11559245 -119.12576122 116.67389055 -119.13037109 106.23217773 C-119.1357167 94.11822522 -119.13771786 82.00428143 -119.13475883 69.89032751 C-119.13319572 63.47343622 -119.13300325 57.0565526 -119.13629532 50.63966179 C-119.13917272 44.60938437 -119.13720076 38.57912805 -119.13140106 32.54885292 C-119.13007282 30.32878021 -119.13046866 28.10870575 -119.13266373 25.88863373 C-119.13537268 22.87189331 -119.13199726 19.85522168 -119.12698364 16.83848572 C-119.13032973 15.50252418 -119.13032973 15.50252418 -119.13374341 14.13957351 C-119.11414991 8.11414991 -119.11414991 8.11414991 -118 7 C-115.94443339 6.90586313 -113.88559819 6.88257002 -111.82788086 6.88647461 C-110.86205833 6.88625557 -110.86205833 6.88625557 -109.87672424 6.8860321 C-107.73939697 6.88673115 -105.60215587 6.89452309 -103.46484375 6.90234375 C-101.98653715 6.90420796 -100.50822993 6.90563185 -99.02992249 6.90663147 C-95.13201198 6.91045641 -91.23413851 6.92028648 -87.33624268 6.93133545 C-83.36153667 6.94155008 -79.38682471 6.9461292 -75.41210938 6.95117188 C-67.60805404 6.96190878 -59.80403692 6.97950538 -52 7 C-51.505 15.91 -51.505 15.91 -51 25 C-49.948125 23.576875 -49.948125 23.576875 -48.875 22.125 C-37.37309653 8.74689951 -17.77130795 -1.23985869 0 0 Z " fill="#A0A5DB" transform="translate(276,38)"/>
<path d="M0 0 C5.65241456 0.33590168 10.71505359 0.92625262 15.953125 3.13671875 C18.02092817 4.03927166 18.02092817 4.03927166 20.296875 4.76953125 C30.18039092 8.21617135 43.14267056 16.28534112 48 26 C48.33 19.4 48.66 12.8 49 6 C72.43 6 95.86 6 120 6 C120 82.89 120 159.78 120 239 C96.9 239 73.8 239 50 239 C48.48578999 237.48578999 48.78690144 236.07527232 48.68359375 233.96484375 C48.64169922 233.15595703 48.59980469 232.34707031 48.55664062 231.51367188 C48.51732422 230.66353516 48.47800781 229.81339844 48.4375 228.9375 C48.39431641 228.08349609 48.35113281 227.22949219 48.30664062 226.34960938 C48.20023298 224.23327963 48.09958269 222.11666187 48 220 C46.93845703 221.34384766 46.93845703 221.34384766 45.85546875 222.71484375 C36.16665331 234.31758336 19.86269466 242.57098356 5 245 C2.66698014 245.03824623 0.33288492 245.04574284 -2 245 C1.41882284 241.96675868 4.65403158 241.15531423 9.0625 240.125 C15.01119395 238.67048772 20.33471265 236.71647788 25.828125 233.953125 C28 233 28 233 31 233 C31 232.34 31 231.68 31 231 C32.48198644 229.92354707 34.01301625 228.91429825 35.5625 227.9375 C41.3263193 224.04037217 45.86695806 219.26608389 49 213 C49.66 213 50.32 213 51 213 C51 220.59 51 228.18 51 236 C73.11 236 95.22 236 118 236 C118 160.76 118 85.52 118 8 C95.89 8 73.78 8 51 8 C51 15.59 51 23.18 51 31 C47.57872135 29.85957378 47.35983806 29.33499161 45.5 26.4375 C36.26497451 13.69088458 17.70609436 5.18067815 2.58203125 2.36328125 C1.72996094 2.24339844 0.87789062 2.12351563 0 2 C0 1.34 0 0.68 0 0 Z " fill="#8288D0" transform="translate(677,39)"/>
<path d="M0 0 C3.14968453 2.20692181 4.76506463 4.29519388 6 8 C2.75728494 7.4409112 1.06942576 6.5867822 -1 4 C-1 3.34 -1 2.68 -1 2 C-12.78261728 -1.74901459 -25.28321118 -3.04273044 -37.08203125 1.34375 C-39 2 -39 2 -42 2 C-42.33 2.99 -42.66 3.98 -43 5 C-43.721875 5.495 -44.44375 5.99 -45.1875 6.5 C-52.87786262 13.33587789 -55.58204312 23.17121362 -56.19239998 33.14352608 C-56.27747166 36.7538404 -56.30130534 40.35962641 -56.30297852 43.97094727 C-56.31065567 45.35009755 -56.31920502 46.7292432 -56.32855225 48.10838318 C-56.34670775 51.05698198 -56.35882387 54.00551895 -56.36609077 56.95416451 C-56.37764316 61.61379394 -56.40312233 66.27328597 -56.43040466 70.93284607 C-56.47190382 78.29427881 -56.50439659 85.65571825 -56.53287882 93.01721185 C-56.58405902 106.2275267 -56.64592538 119.43778508 -56.71821922 132.64800113 C-56.7431691 137.2841069 -56.76258603 141.92019403 -56.77760136 146.55634224 C-56.78777101 149.42878675 -56.80191478 152.30120198 -56.81707764 155.17362404 C-56.82621334 157.14976371 -56.83033126 159.12592456 -56.83433533 161.1020813 C-56.84123383 162.26698593 -56.84813232 163.43189056 -56.85523987 164.63209534 C-56.86102224 166.15984258 -56.86102224 166.15984258 -56.86692142 167.71845341 C-57 170 -57 170 -58 171 C-60.1726268 171.09956278 -62.34853106 171.12799719 -64.5234375 171.12939453 C-65.20472717 171.13114685 -65.88601685 171.13289917 -66.58795166 171.13470459 C-68.85032667 171.13912242 -71.11262413 171.13618538 -73.375 171.1328125 C-74.9405926 171.13348556 -76.5061851 171.1344556 -78.07177734 171.13571167 C-81.35710645 171.13718855 -84.64240842 171.13503441 -87.92773438 171.13037109 C-92.14820516 171.1246738 -96.36861236 171.12795286 -100.58908081 171.13394356 C-103.82316572 171.13754944 -107.05723545 171.13641046 -110.2913208 171.13381577 C-111.84792081 171.13314657 -113.40452218 171.13397466 -114.96112061 171.13629532 C-117.13297196 171.1388223 -119.30471896 171.13498065 -121.4765625 171.12939453 C-122.71486816 171.12859894 -123.95317383 171.12780334 -125.22900391 171.12698364 C-128 171 -128 171 -129 170 C-129.09646028 168.16505514 -129.12187344 166.32635413 -129.12025452 164.48887634 C-129.12162918 163.2926918 -129.12300385 162.09650726 -129.12442017 160.86407471 C-129.12088057 159.52648901 -129.11724575 158.18890356 -129.11352539 156.85131836 C-129.11324352 155.45217389 -129.11340125 154.05302927 -129.1139679 152.65388489 C-129.11425588 148.84413541 -129.10835898 145.03441714 -129.10139394 141.22467494 C-129.09516059 137.24748691 -129.09455662 133.27029824 -129.09336853 129.29310608 C-129.09025516 121.75661461 -129.08204169 114.22013757 -129.07201904 106.68365246 C-129.06085808 98.10580172 -129.0553475 89.5279503 -129.05032361 80.9500941 C-129.03985908 63.30005454 -129.02225953 45.65002843 -129 28 C-128.34 28.33 -127.68 28.66 -127 29 C-127 74.87 -127 120.74 -127 168 C-104.89 168 -82.78 168 -60 168 C-60.01160156 158.3475 -60.02320313 148.695 -60.03515625 138.75 C-60.04026591 132.63411432 -60.0451213 126.51823018 -60.04882812 120.40234375 C-60.05475873 110.69546988 -60.06172586 100.9886047 -60.07543945 91.28173828 C-60.08542277 84.21187775 -60.09186211 77.14202429 -60.09408849 70.07215691 C-60.09538941 66.33052573 -60.09843598 62.58891473 -60.10573006 58.84729004 C-60.11381645 54.66511142 -60.11398879 50.48296766 -60.11352539 46.30078125 C-60.11712067 45.06719376 -60.12071594 43.83360626 -60.12442017 42.56263733 C-60.11728595 36.6104254 -59.91532095 30.88425872 -59 25 C-58.34 25 -57.68 25 -57 25 C-56.855625 23.906875 -56.71125 22.81375 -56.5625 21.6875 C-56 18 -56 18 -55 15 C-54.34 15 -53.68 15 -53 15 C-52.9071875 13.948125 -52.9071875 13.948125 -52.8125 12.875 C-51.71677837 8.99783115 -49.79572359 6.86074042 -47 4 C-44.6875 3.125 -44.6875 3.125 -43 3 C-43 2.34 -43 1.68 -43 1 C-30.54808973 -4.40365917 -12.64194161 -6.23471974 0 0 Z " fill="#8F94D5" transform="translate(427,107)"/>
<path d="M0 0 C0.33 0 0.66 0 1 0 C5.80014731 19.52059904 4.1378335 40.63112546 4.10139394 60.61006141 C4.09506111 64.67923292 4.09454887 68.7484055 4.09336853 72.81758118 C4.09028406 80.49159551 4.08211035 88.16559527 4.07201904 95.83960325 C4.06076732 104.58957306 4.05532483 113.33954364 4.05032361 122.0895189 C4.03992468 140.05968747 4.02238226 158.02984256 4 176 C-5.23997552 176.02312524 -14.47994114 176.04091601 -23.71993923 176.05181217 C-28.00999915 176.05704061 -32.30003933 176.06413753 -36.59008789 176.07543945 C-40.726794 176.08626975 -44.86348108 176.09227714 -49.00020027 176.09487724 C-50.58192304 176.09673124 -52.16364471 176.10035136 -53.74535942 176.10573006 C-55.95322838 176.1129424 -58.16101773 176.11399086 -60.36889648 176.11352539 C-61.62798325 176.115746 -62.88707001 176.11796661 -64.18431091 176.12025452 C-67 176 -67 176 -68 175 C-68.10880464 173.10207019 -68.1468932 171.2000693 -68.15821838 169.29905701 C-68.17290161 167.44167404 -68.17290161 167.44167404 -68.18788147 165.54676819 C-68.19378642 164.16195717 -68.19959682 162.77714575 -68.20532227 161.39233398 C-68.21489543 159.94392616 -68.22490517 158.49552115 -68.23532104 157.04711914 C-68.2624371 153.10310729 -68.28341025 149.15908339 -68.30332303 145.21502948 C-68.32514141 141.09768125 -68.35255032 136.98037044 -68.37937927 132.86305237 C-68.42936244 125.06096851 -68.47428032 117.25886395 -68.51740164 109.45673949 C-68.56672606 100.57657039 -68.62166191 91.69643882 -68.67708123 82.81630599 C-68.79098757 64.54423882 -68.89780767 46.27213625 -69 28 C-68.34 28 -67.68 28 -67 28 C-64.75227348 35.19873681 -64.72986696 41.98127406 -64.77294922 49.484375 C-64.77351422 50.83529146 -64.77319504 52.18620853 -64.77206421 53.53712463 C-64.77149316 57.18328342 -64.78320702 60.82930915 -64.79721212 64.47543716 C-64.80976108 68.29375779 -64.81089325 72.11208186 -64.81326294 75.93041992 C-64.81946551 83.15149847 -64.83585969 90.37251607 -64.85596192 97.59356785 C-64.88255148 107.35807354 -64.89330345 117.12259604 -64.90496635 126.88712883 C-64.92374123 142.25813149 -64.96359501 157.62900556 -65 173 C-42.89 173 -20.78 173 2 173 C1.89201884 152.2249118 1.78002231 131.449858 1.66066074 110.67483234 C1.60536915 101.02875792 1.55189382 91.3826798 1.50268555 81.73657227 C1.45979394 73.32959721 1.41350338 64.92264893 1.36312145 56.5157153 C1.33656063 52.06381813 1.31170856 47.61192614 1.29092598 43.15999794 C1.27131195 38.96988964 1.24715398 34.77983214 1.21950912 30.58976936 C1.21016391 29.05188674 1.2024796 27.51399299 1.19658089 25.97609329 C1.18827658 23.87583713 1.17398809 21.77570281 1.15821838 19.67549133 C1.15176583 18.50020528 1.14531328 17.32491922 1.1386652 16.11401844 C1.01277549 13.28690045 0.61484265 10.75403881 0 8 C-0.11678799 5.32321927 -0.0454506 2.68158543 0 0 Z " fill="#AAAEDD" transform="translate(507,102)"/>
<path d="M0 0 C0.33 0 0.66 0 1 0 C1 76.56 1 153.12 1 232 C-22.1 232 -45.2 232 -69 232 C-70.51421001 230.48578999 -70.21309856 229.07527232 -70.31640625 226.96484375 C-70.35830078 226.15595703 -70.40019531 225.34707031 -70.44335938 224.51367188 C-70.48267578 223.66353516 -70.52199219 222.81339844 -70.5625 221.9375 C-70.60568359 221.08349609 -70.64886719 220.22949219 -70.69335938 219.34960938 C-70.79976702 217.23327963 -70.90041731 215.11666187 -71 213 C-72.06154297 214.34384766 -72.06154297 214.34384766 -73.14453125 215.71484375 C-82.83334669 227.31758336 -99.13730534 235.57098356 -114 238 C-116.33301986 238.03824623 -118.66711508 238.04574284 -121 238 C-117.58117716 234.96675868 -114.34596842 234.15531423 -109.9375 233.125 C-103.98880605 231.67048772 -98.66528735 229.71647788 -93.171875 226.953125 C-91 226 -91 226 -88 226 C-88 225.34 -88 224.68 -88 224 C-86.51801356 222.92354707 -84.98698375 221.91429825 -83.4375 220.9375 C-77.6736807 217.04037217 -73.13304194 212.26608389 -70 206 C-69.34 206 -68.68 206 -68 206 C-68 213.92 -68 221.84 -68 230 C-45.56 230 -23.12 230 0 230 C0 154.1 0 78.2 0 0 Z " fill="#B9BDE4" transform="translate(796,46)"/>
<path d="M0 0 C0.66 0 1.32 0 2 0 C0.63055898 2.94956528 -0.87830409 5.52468811 -3 8 C-3.66 8 -4.32 8 -5 8 C-5.2475 8.78375 -5.495 9.5675 -5.75 10.375 C-7.22139994 13.46493987 -8.07318455 13.53659227 -11 15 C-11.27714844 15.73992187 -11.55429688 16.47984375 -11.83984375 17.2421875 C-13.23872881 20.5674833 -15.07593668 22.51780528 -17.5625 25.125 C-20.94598758 28.73356545 -24.20713946 32.39705267 -27.3125 36.25 C-30.96549263 40.77737917 -34.73710747 45.18139351 -38.5625 49.5625 C-48.01279854 60.23786548 -48.01279854 60.23786548 -56 72 C-55.56429688 72.556875 -55.12859375 73.11375 -54.6796875 73.6875 C-51.83675775 77.33038834 -49.00326617 80.97622601 -46.25 84.6875 C-42.03408748 90.33885727 -37.63390321 95.84817452 -33.27050781 101.38574219 C-29.75104945 105.8574291 -26.25825518 110.34924097 -22.80859375 114.875 C-18.10039623 121.04698567 -13.29594731 127.12083422 -8.375 133.125 C-4.09461443 138.35144631 -0.01062306 143.65223845 3.91015625 149.15625 C7.95060816 154.6542855 12.28408579 159.92587379 16.57226562 165.23144531 C18.64029805 167.79314621 20.69511071 170.36524497 22.75 172.9375 C23.38421875 173.73027344 24.0184375 174.52304687 24.671875 175.33984375 C25.11015625 175.88769531 25.5484375 176.43554688 26 177 C25.01 177.33 24.02 177.66 23 178 C22.37351562 177.14535156 21.74703125 176.29070312 21.1015625 175.41015625 C20.27625386 174.29411389 19.45072138 173.17823702 18.625 172.0625 C18.2125 171.49853516 17.8 170.93457031 17.375 170.35351562 C15.1230631 167.19151048 15.1230631 167.19151048 12 165 C10.98623856 163.34166785 9.9895619 161.67288524 9 160 C7.36959985 157.70562026 5.65722816 155.47788655 3.9375 153.25 C3.49083984 152.66089844 3.04417969 152.07179687 2.58398438 151.46484375 C0.21551846 148.25218693 0.21551846 148.25218693 -3 146 C-3.94257895 144.3315511 -4.88278597 142.66169981 -5.80859375 140.98388672 C-7.85990612 137.56811534 -10.44172621 134.6062466 -13 131.5625 C-17.50029121 126.12133706 -21.86106176 120.61267564 -26.0625 114.9375 C-30.38906034 109.10157541 -34.84156575 103.39296688 -39.40795898 97.74316406 C-43.98486955 92.06355555 -48.41156536 86.2741337 -52.81225586 80.45727539 C-53.33053955 79.7739917 -53.84882324 79.09070801 -54.3828125 78.38671875 C-54.84059082 77.78045654 -55.29836914 77.17419434 -55.77001953 76.54956055 C-57.05992286 74.86392825 -57.05992286 74.86392825 -59 73 C-58.47453923 68.47703929 -55.41757095 65.69977788 -52.5 62.4375 C-51.3948148 61.17667333 -50.29065646 59.91494585 -49.1875 58.65234375 C-48.64222656 58.03085449 -48.09695313 57.40936523 -47.53515625 56.76904297 C-45.46961409 54.38880784 -43.48103518 51.95080271 -41.5 49.5 C-37.51785369 44.58771733 -33.41144524 39.79214612 -29.24804688 35.03320312 C-26.34136491 31.68054304 -23.68341342 28.25515599 -21.18457031 24.58691406 C-20 23 -20 23 -18.47949219 21.48339844 C-16.76933267 19.86505745 -16.76933267 19.86505745 -15 17 C-14.34 17 -13.68 17 -13 17 C-12.566875 16.1028125 -12.566875 16.1028125 -12.125 15.1875 C-11 13 -11 13 -9 10 C-8.34 10 -7.68 10 -7 10 C-6.773125 9.46375 -6.54625 8.9275 -6.3125 8.375 C-4.54429911 5.17539839 -2.46329797 2.70962777 0 0 Z " fill="#F5B1BC" transform="translate(1086,82)"/>
<path d="M0 0 C12.39562365 -0.20867841 24.79082845 -0.36851981 37.18785191 -0.46630955 C42.94463269 -0.51324857 48.70021046 -0.57689569 54.45629883 -0.67895508 C60.01311465 -0.77686281 65.56877476 -0.83058236 71.12638664 -0.85389519 C73.24480319 -0.87050444 75.36315757 -0.90294076 77.48108101 -0.95157051 C94.15009656 -1.31902986 94.15009656 -1.31902986 98.89401245 2.06350708 C100.6753324 4.32640569 101.94090193 6.33089128 103 9 C102.67 9.66 102.34 10.32 102 11 C98.14200359 7.27503795 98.14200359 7.27503795 96.91239929 4.89349365 C94.37364167 2.37983374 92.25500052 2.5008343 88.78829956 2.43885803 C87.93881744 2.4438884 87.08933533 2.44891876 86.21411133 2.45410156 C85.31634476 2.44376389 84.41857819 2.43342621 83.49360657 2.42277527 C80.52290045 2.3932514 77.55287281 2.39184607 74.58203125 2.390625 C72.52364291 2.37564983 70.46526662 2.35892409 68.40690613 2.34051514 C62.98669903 2.29675503 57.56665402 2.27682331 52.14630127 2.26177979 C46.61631653 2.24223992 41.08650766 2.20026645 35.55664062 2.16015625 C24.70448121 2.08476031 13.85236098 2.03452567 3 2 C3.9504554 3.10943106 4.9009921 4.21879247 5.8515625 5.328125 C6.64554443 6.2547998 6.64554443 6.2547998 7.45556641 7.20019531 C8.7591301 8.71930242 10.06662269 10.23503679 11.375 11.75 C13.7199679 14.54592326 15.77764447 17.51530174 17.875 20.5 C20.69886134 24.4427498 23.4024309 27.58618889 27.359375 30.390625 C29.39523023 32.38770204 30.53768441 34.69243704 31.89746094 37.17626953 C33.64748947 40.07102443 35.91744245 42.37664347 38.25 44.8125 C42.53166317 49.34632152 46.52013137 54.00796612 50.34375 58.94140625 C51.92342789 60.98132554 51.92342789 60.98132554 53.59375 62.58984375 C55.77808786 64.78024921 57.28793507 67.43190261 59 70 C60.62351109 71.79394446 60.62351109 71.79394446 62 73 C61.67 73.66 61.34 74.32 61 75 C57.77336575 71.85179089 54.80985781 68.64829827 52 65.125 C48.25873906 60.49830731 44.41243746 55.9826116 40.5 51.5 C36.00466218 46.34447606 31.61375893 41.12488029 27.30859375 35.80859375 C24.58654881 32.4970027 21.79822716 29.24720625 19 26 C15.2409638 21.62861047 11.49711608 17.24692666 7.8125 12.8125 C7.09707031 11.95269531 6.38164063 11.09289062 5.64453125 10.20703125 C4 8 4 8 3 5 C2.34 5 1.68 5 1 5 C0.67 3.35 0.34 1.7 0 0 Z " fill="#ED899D" transform="translate(837,45)"/>
<path d="M0 0 C3.14968453 2.20692181 4.76506463 4.29519388 6 8 C2.75728494 7.4409112 1.06942576 6.5867822 -1 4 C-1 3.34 -1 2.68 -1 2 C-12.78261728 -1.74901459 -25.28321118 -3.04273044 -37.08203125 1.34375 C-39 2 -39 2 -42 2 C-42.33 2.99 -42.66 3.98 -43 5 C-43.721875 5.495 -44.44375 5.99 -45.1875 6.5 C-52.87786262 13.33587789 -55.58204312 23.17121362 -56.19239998 33.14352608 C-56.27747166 36.7538404 -56.30130534 40.35962641 -56.30297852 43.97094727 C-56.31065567 45.35009755 -56.31920502 46.7292432 -56.32855225 48.10838318 C-56.34670775 51.05698198 -56.35882387 54.00551895 -56.36609077 56.95416451 C-56.37764316 61.61379394 -56.40312233 66.27328597 -56.43040466 70.93284607 C-56.47190382 78.29427881 -56.50439659 85.65571825 -56.53287882 93.01721185 C-56.58405902 106.2275267 -56.64592538 119.43778508 -56.71821922 132.64800113 C-56.7431691 137.2841069 -56.76258603 141.92019403 -56.77760136 146.55634224 C-56.78777101 149.42878675 -56.80191478 152.30120198 -56.81707764 155.17362404 C-56.82621334 157.14976371 -56.83033126 159.12592456 -56.83433533 161.1020813 C-56.84123383 162.26698593 -56.84813232 163.43189056 -56.85523987 164.63209534 C-56.86102224 166.15984258 -56.86102224 166.15984258 -56.86692142 167.71845341 C-57 170 -57 170 -58 171 C-60.17805719 171.09429342 -62.3592128 171.11742538 -64.53930664 171.11352539 C-65.22220261 171.11367142 -65.90509857 171.11381744 -66.60868835 171.1139679 C-68.87587614 171.11326876 -71.14298274 171.1054764 -73.41015625 171.09765625 C-74.97814387 171.09579207 -76.54613207 171.09436817 -78.11412048 171.09336853 C-82.24876503 171.08954334 -86.38337466 171.07971306 -90.51800537 171.06866455 C-94.73400398 171.05845044 -98.95000822 171.05387091 -103.16601562 171.04882812 C-111.44402647 171.03809079 -119.7220089 171.02101436 -128 171 C-128 170.67 -128 170.34 -128 170 C-105.23 170 -82.46 170 -59 170 C-58.95101562 159.94917969 -58.90203125 149.89835937 -58.8515625 139.54296875 C-58.81616802 133.16730921 -58.78028288 126.79165865 -58.7421875 120.41601562 C-58.68184104 110.30120916 -58.62347088 100.18641953 -58.578125 90.0715332 C-58.5450858 82.70384373 -58.50518954 75.33622799 -58.45720994 67.96862012 C-58.43206298 64.07096889 -58.41024753 60.17336582 -58.39665604 56.27565575 C-58.38372768 52.59928034 -58.36155993 48.92307113 -58.33261681 45.24678802 C-58.3193702 43.27011335 -58.31564049 41.29338189 -58.31230164 39.31666565 C-58.23481939 30.97731108 -57.6516739 22.9550217 -55 15 C-54.34 15 -53.68 15 -53 15 C-52.9071875 13.948125 -52.9071875 13.948125 -52.8125 12.875 C-51.71677837 8.99783115 -49.79572359 6.86074042 -47 4 C-44.6875 3.125 -44.6875 3.125 -43 3 C-43 2.34 -43 1.68 -43 1 C-30.54808973 -4.40365917 -12.64194161 -6.23471974 0 0 Z " fill="#E3E3EE" transform="translate(427,107)"/>
<path d="M0 0 C0.8667485 0.02876221 1.73349701 0.05752441 2.62651062 0.0871582 C4.01770866 0.08540588 4.01770866 0.08540588 5.43701172 0.08361816 C8.49016742 0.08917392 11.53937321 0.15130528 14.59184265 0.21411133 C16.71316901 0.22903883 18.83452301 0.24042344 20.95588684 0.24841309 C26.52971522 0.27890673 32.10186631 0.35744734 37.67503357 0.44604492 C43.36582245 0.52799536 49.05688334 0.56444431 54.74809265 0.60473633 C65.90768234 0.69044302 77.06602908 0.82691771 88.22465515 0.99536133 C88.22465515 6.11466941 86.0480955 7.9686745 82.78715515 11.55786133 C81.68063082 12.80953311 80.57517257 14.06214811 79.4707489 15.31567383 C78.92015808 15.93603516 78.36956726 16.55639648 77.80229187 17.19555664 C75.58560606 19.72440341 73.46676044 22.31995531 71.34965515 24.93286133 C68.03729297 29.01147123 64.66574254 33.02487588 61.22465515 36.99536133 C59.73965515 36.50036133 59.73965515 36.50036133 58.22465515 35.99536133 C59.22432312 34.93961914 59.22432312 34.93961914 60.2441864 33.86254883 C65.92803437 27.79568381 71.28074112 21.57764649 76.34306335 14.98120117 C79.5181592 10.84695546 82.81662374 6.97139797 86.22465515 2.99536133 C55.20465515 3.32536133 24.18465515 3.65536133 -7.77534485 3.99536133 C-8.43534485 5.64536133 -9.09534485 7.29536133 -9.77534485 8.99536133 C-10.93002958 10.63856652 -12.14006219 12.24417729 -13.40034485 13.80786133 C-14.03198547 14.59805664 -14.6636261 15.38825195 -15.31440735 16.20239258 C-16.03757141 17.08991211 -16.03757141 17.08991211 -16.77534485 17.99536133 C-17.43534485 17.66536133 -18.09534485 17.33536133 -18.77534485 16.99536133 C-16.77534485 14.32869466 -14.77534485 11.66202799 -12.77534485 8.99536133 C-12.1975015 8.02255596 -12.1975015 8.02255596 -11.60798454 7.03009796 C-8.33171162 1.89786808 -6.13036956 0.08347971 0 0 Z " fill="#F1A0AF" transform="translate(1028.7753448486328,44.004638671875)"/>
<path d="M0 0 C0.66 0 1.32 0 2 0 C2.65355469 1.86591797 2.65355469 1.86591797 3.3203125 3.76953125 C10.40608222 23.70715841 20.29520549 39.77924779 35 55 C35.60972656 55.65871094 36.21945312 56.31742187 36.84765625 56.99609375 C39.70683312 59.658086 42.81162302 61.78187117 46.0625 63.9375 C46.72354736 64.37698975 47.38459473 64.81647949 48.06567383 65.26928711 C54.5792678 69.51433996 61.35223908 73.29463722 69 75 C69 75.66 69 76.32 69 77 C69.63164063 77.09796875 70.26328125 77.1959375 70.9140625 77.296875 C78.79416375 78.61401008 86.35428779 80.70070553 94 83 C94 83.33 94 83.66 94 84 C73.1072507 84.26687818 53.0252122 73.60381682 37 61 C36.29230469 60.44699219 35.58460938 59.89398438 34.85546875 59.32421875 C29.09278589 54.56176487 24.54302389 48.9092231 20 43 C19.3915625 42.21882813 18.783125 41.43765625 18.15625 40.6328125 C9.85465706 29.42566204 1.22322009 14.06703103 0 0 Z " fill="#A7ABDD" transform="translate(549,200)"/>
<path d="M0 0 C-0.33 0.66 -0.66 1.32 -1 2 C-3.1953125 2.67578125 -3.1953125 2.67578125 -6.125 3.3125 C-37.12183326 10.70320402 -62.09265293 28.03811052 -78.859375 55.23828125 C-83.99002629 63.95807733 -87.4976103 73.54145057 -91 83 C-91.66 83 -92.32 83 -93 83 C-92.13297411 73.98293079 -88.15440095 66.64776402 -83.95898438 58.79589844 C-83.16096375 57.30143822 -82.38263424 55.79648361 -81.609375 54.2890625 C-75.33331828 42.36455473 -65.62226743 31.23767678 -55 23 C-54.34 23 -53.68 23 -53 23 C-53 22.34 -53 21.68 -53 21 C-39.21365455 10.19290717 -17.75637667 -0.41293899 0 0 Z " fill="#A2A6D9" transform="translate(642,39)"/>
<path d="M0 0 C0.33 0.99 0.66 1.98 1 3 C-1.49734936 7.93112982 -4.97686583 12.23642287 -9 16 C-11.57528922 18.84958038 -13.76522334 21.29567001 -15 25 C14.7 25 44.4 25 75 25 C75.66 23.68 76.32 22.36 77 21 C78.70745076 18.5027963 80.57807668 16.13549224 82.4375 13.75 C82.92798828 13.1003125 83.41847656 12.450625 83.92382812 11.78125 C85.21021614 10.12856257 86.59920481 8.55690163 88 7 C88.99 7 89.98 7 91 7 C90.34644531 7.8353125 90.34644531 7.8353125 89.6796875 8.6875 C82.61024867 17.67583389 82.61024867 17.67583389 76 27 C73.00964694 27.28606944 70.22734562 27.37798899 67.23583984 27.34057617 C66.32846573 27.34101425 65.42109161 27.34145233 64.48622131 27.34190369 C61.47757686 27.33980839 58.46948498 27.31644244 55.4609375 27.29296875 C53.37871607 27.28737543 51.2964907 27.28310409 49.21426392 27.28010559 C43.72653353 27.26863603 38.23904031 27.23915067 32.75140381 27.20599365 C27.15461435 27.17533823 21.55778667 27.16160995 15.9609375 27.14648438 C4.97385397 27.11428301 -6.01305331 27.06306119 -17 27 C-17.65234375 25.1953125 -17.65234375 25.1953125 -18 23 C-16.68191451 21.31014681 -15.33993066 19.63375352 -13.88671875 18.05859375 C-8.75474419 12.45911012 -4.0558962 6.42183565 0 0 Z " fill="#F5A9B7" transform="translate(849,251)"/>
<path d="M0 0 C0.99 0.33 1.98 0.66 3 1 C2.278125 1.639375 1.55625 2.27875 0.8125 2.9375 C-11.96611251 15.93331273 -10.46486282 34.97605589 -10.51171875 51.80078125 C-10.52858967 54.09149625 -10.54674311 56.38220213 -10.56611633 58.67289734 C-10.61336033 64.66174468 -10.64333477 70.65055501 -10.66955566 76.63952637 C-10.69949108 82.76691999 -10.74597646 88.89418645 -10.79101562 95.02148438 C-10.87675713 107.01425604 -10.94423132 119.00705409 -11 131 C-11.66 130.67 -12.32 130.34 -13 130 C-13.06996185 117.68095121 -13.12304335 105.36195082 -13.15543652 93.04274273 C-13.17099505 87.32049658 -13.1920508 81.59838782 -13.22631836 75.8762207 C-13.25926584 70.33890778 -13.27692647 64.80172577 -13.28463173 59.26432228 C-13.29011248 57.16715247 -13.30081176 55.06998862 -13.31719017 52.9728756 C-13.3942178 42.687334 -13.22995581 32.61274749 -11.6652832 22.42895508 C-11.54819346 21.66111285 -11.43110373 20.89327063 -11.31046581 20.10216045 C-9.85659563 11.72011486 -6.06548414 5.85587778 0 0 Z " fill="#C5C8E4" transform="translate(240,111)"/>
<path d="M0 0 C4.33064072 1.54090239 6.50094818 4.87517446 9.125 8.4375 C9.78822266 9.31631836 9.78822266 9.31631836 10.46484375 10.21289062 C12.38334853 12.76606692 14.22821081 15.34231622 16 18 C18.89780022 18.31592868 21.58638771 18.43736501 24.48876953 18.43237305 C25.36688293 18.4425647 26.24499634 18.45275635 27.14971924 18.46325684 C30.06081408 18.49352288 32.97158063 18.50267345 35.8828125 18.51171875 C37.89778753 18.52855536 39.91275199 18.5467042 41.92770386 18.56611633 C47.23773903 18.61373303 52.54773138 18.6434668 57.85791016 18.66955566 C63.27384911 18.69930245 68.68964029 18.74585286 74.10546875 18.79101562 C84.73690205 18.87718144 95.36836567 18.94446752 106 19 C105.01 17.02 104.02 15.04 103 13 C105.99324263 14.0975223 106.84610901 14.67682892 108.25 17.625 C108.62125 18.800625 108.62125 18.800625 109 20 C106.91054607 22.08945393 102.39307512 21.26272762 99.50805664 21.31982422 C98.61689148 21.34085205 97.72572632 21.36187988 96.80755615 21.38354492 C88.55900722 21.56687257 80.30901752 21.67267466 72.05890751 21.75568962 C66.51559467 21.81224511 60.97518779 21.8936458 55.43334961 22.03564453 C50.07615445 22.17235593 44.72159094 22.24457061 39.36276054 22.27234268 C37.32479146 22.29376121 35.28692435 22.3376972 33.24995613 22.405056 C17.73686031 22.89426331 17.73686031 22.89426331 13.20426559 19.75711823 C9.67726868 16.31738766 7.43008144 12.26618102 5 8 C4.10564208 6.88222486 3.1893876 5.78158412 2.25111389 4.70040894 C0 2 0 2 0 0 Z " fill="#F5A9B7" transform="translate(1015,257)"/>
<path d="M0 0 C0.99 0 1.98 0 3 0 C4.71741049 1.94259544 6.23297998 3.84721094 7.75 5.9375 C8.65340843 7.14861462 9.55705469 8.35955188 10.4609375 9.5703125 C11.11787598 10.46024902 11.11787598 10.46024902 11.78808594 11.36816406 C13.28115027 13.37856736 14.82285026 15.34746313 16.375 17.3125 C20.1790168 22.18921348 23.87585677 27.14620944 27.56860352 32.10742188 C30.92429507 36.606554 34.37007809 41.00785489 37.98828125 45.30078125 C38.32214844 45.86152344 38.65601563 46.42226562 39 47 C38.67 47.99 38.34 48.98 38 50 C35 46.25 35 46.25 35 44 C33.515 43.505 33.515 43.505 32 43 C30.36545329 40.90518381 28.85958649 38.82171689 27.375 36.625 C23.44975166 30.94751265 19.32466424 25.63161981 14.8125 20.40234375 C12.9986746 17.99824327 11.9709613 15.83702756 11 13 C10.34 13 9.68 13 9 13 C7.2734375 10.8125 7.2734375 10.8125 5.375 8 C4.74335937 7.071875 4.11171875 6.14375 3.4609375 5.1875 C2.97882812 4.465625 2.49671875 3.74375 2 3 C-2.49983772 7.07797793 -5.78444259 11.78168841 -9.23046875 16.76953125 C-9.81441406 17.50558594 -10.39835938 18.24164063 -11 19 C-11.66 19 -12.32 19 -13 19 C-13.24234375 19.71542969 -13.4846875 20.43085938 -13.734375 21.16796875 C-15.17419481 24.38978776 -16.96519306 26.62746327 -19.25 29.3125 C-23.88559745 34.84843019 -28.3705309 40.40369142 -32.25 46.5 C-32.8275 47.325 -33.405 48.15 -34 49 C-34.66 49 -35.32 49 -36 49 C-34.69357994 45.30709974 -33.14197509 42.67707168 -30.625 39.6875 C-27.01646572 35.29592031 -23.57731896 30.81026279 -20.1875 26.25 C-15.31839138 19.71467419 -10.3372322 13.27903392 -5.27734375 6.890625 C-3.92324257 5.17186878 -2.60693973 3.42035449 -1.37890625 1.609375 C-0.92386719 1.07828125 -0.46882812 0.5471875 0 0 Z " fill="#F2A3B3" transform="translate(976,207)"/>
<path d="M0 0 C-0.33 0.66 -0.66 1.32 -1 2 C-3.21391171 2.49131464 -5.44832363 2.89099536 -7.6875 3.25 C-18.24760655 5.15419821 -28.1502743 8.7899213 -36.44921875 15.80078125 C-38 17 -38 17 -41 18 C-42.69088222 19.97956942 -44.35830472 21.97945196 -46 24 C-46.66 24.33 -47.32 24.66 -48 25 C-48.4640625 25.99 -48.4640625 25.99 -48.9375 27 C-50 29 -50 29 -53 30 C-53 22.74 -53 15.48 -53 8 C-74.45 8 -95.9 8 -118 8 C-118 7.67 -118 7.34 -118 7 C-96.22 7 -74.44 7 -52 7 C-51.505 15.91 -51.505 15.91 -51 25 C-49.948125 23.576875 -49.948125 23.576875 -48.875 22.125 C-37.37309653 8.74689951 -17.77130795 -1.23985869 0 0 Z " fill="#B8BBE3" transform="translate(276,38)"/>
<path d="M0 0 C5.60091346 5.44088736 10.39169353 11.42972425 15.125 17.625 C15.55425781 18.18445313 15.98351562 18.74390625 16.42578125 19.3203125 C17.61987811 20.87814964 18.8100722 22.43897607 20 24 C20.59554687 24.75023438 21.19109375 25.50046875 21.8046875 26.2734375 C23 28 23 28 23 30 C23.66 30 24.32 30 25 30 C26.296875 31.46875 26.296875 31.46875 27.75 33.5 C28.27335938 34.221875 28.79671875 34.94375 29.3359375 35.6875 C29.88507812 36.450625 30.43421875 37.21375 31 38 C32.12174886 39.50243286 33.24658023 41.00257093 34.375 42.5 C35.25 43.66666667 36.125 44.83333333 37 46 C40.48613435 42.71893238 43.36895562 39.30018882 46.1953125 35.44140625 C48.43962561 32.40526838 50.75161499 29.42297798 53.0625 26.4375 C56.47160611 22.02284391 59.80827202 17.57481011 63 13 C63.495 13.99 63.495 13.99 64 15 C62.02495163 19.07353726 59.09747484 22.51610719 56.30859375 26.0546875 C53.23818375 29.97192801 50.21224339 33.92244674 47.1875 37.875 C46.61209473 38.62491211 46.03668945 39.37482422 45.44384766 40.14746094 C44.89905762 40.8593457 44.35426758 41.57123047 43.79296875 42.3046875 C43.05856567 43.2635083 43.05856567 43.2635083 42.30932617 44.24169922 C41.15544393 45.79125356 40.07167201 47.39249199 39 49 C38.01 49 37.02 49 36 49 C34.34191637 47.14112092 32.89391323 45.32096373 31.4375 43.3125 C30.54319135 42.11441714 29.64865364 40.91650524 28.75390625 39.71875 C28.29773926 39.10128906 27.84157227 38.48382813 27.37158203 37.84765625 C25.24009852 34.97633777 23.05839209 32.14442439 20.875 29.3125 C20.45935791 28.77101318 20.04371582 28.22952637 19.61547852 27.67163086 C17.07720808 24.37103004 14.49342004 21.11222634 11.875 17.875 C0 3.09183673 0 3.09183673 0 0 Z " fill="#F4ABB9" transform="translate(940,56)"/>
<path d="M0 0 C0.66 0.33 1.32 0.66 2 1 C1.86722656 1.72445312 1.73445312 2.44890625 1.59765625 3.1953125 C1.42105469 4.16210938 1.24445312 5.12890625 1.0625 6.125 C0.88847656 7.07632813 0.71445312 8.02765625 0.53515625 9.0078125 C0.35855469 9.99523437 0.18195312 10.98265625 0 12 C-0.17257324 12.9187793 -0.34514648 13.83755859 -0.52294922 14.78417969 C-1.37610922 20.53536882 -1.19073382 26.32101412 -1.1875 32.125 C-1.18789276 32.79040802 -1.18828552 33.45581604 -1.18869019 34.14138794 C-1.17896006 47.91738001 0.0081169 61.37982634 2 75 C1.01 74.67 0.02 74.34 -1 74 C-6.21758989 50.43880792 -7.96959041 23.1649428 0 0 Z " fill="#A5A9DC" transform="translate(548,123)"/>
<path d="M0 0 C0.66 0 1.32 0 2 0 C0.63055898 2.94956528 -0.87830409 5.52468811 -3 8 C-3.66 8 -4.32 8 -5 8 C-5.2475 8.78375 -5.495 9.5675 -5.75 10.375 C-7.22139994 13.46493987 -8.07318455 13.53659227 -11 15 C-11.27714844 15.73992187 -11.55429688 16.47984375 -11.83984375 17.2421875 C-13.23872881 20.5674833 -15.07593668 22.51780528 -17.5625 25.125 C-20.94598758 28.73356545 -24.20713946 32.39705267 -27.3125 36.25 C-31.50210699 41.44243845 -35.85783259 46.47178679 -40.25073242 51.49169922 C-44.14223039 55.95671137 -47.84200989 60.51584715 -51.4140625 65.2421875 C-53 67 -53 67 -56 68 C-54.71076019 65.21176763 -53.31380469 63.01003398 -51.27734375 60.71484375 C-50.47647339 59.80375854 -50.47647339 59.80375854 -49.65942383 58.87426758 C-49.09118896 58.23513428 -48.5229541 57.59600098 -47.9375 56.9375 C-46.75143564 55.58696283 -45.56654474 54.23539422 -44.3828125 52.8828125 C-43.80305664 52.22055664 -43.22330078 51.55830078 -42.62597656 50.87597656 C-39.73823984 47.54423948 -36.96714325 44.12025502 -34.19140625 40.6953125 C-29.74076864 35.22126624 -25.21522909 29.80547005 -20.66210938 24.41650391 C-18.63208513 22.00529282 -16.75077864 19.62616796 -15 17 C-14.34 17 -13.68 17 -13 17 C-12.566875 16.1028125 -12.566875 16.1028125 -12.125 15.1875 C-11 13 -11 13 -9 10 C-8.34 10 -7.68 10 -7 10 C-6.773125 9.46375 -6.54625 8.9275 -6.3125 8.375 C-4.54429911 5.17539839 -2.46329797 2.70962777 0 0 Z " fill="#E697A4" transform="translate(1086,82)"/>
<path d="M0 0 C1.32 0 2.64 0 4 0 C4 0.66 4 1.32 4 2 C4.54269531 2.07863281 5.08539062 2.15726562 5.64453125 2.23828125 C17.85640308 6.18739403 25.14785404 19.59411376 30.6640625 30.19921875 C35.12516595 40.52953932 36.88168061 56.07417506 32.97680664 66.81420898 C32.65446045 67.53552002 32.33211426 68.25683105 32 69 C31.34 69 30.68 69 30 69 C30.0721875 68.33355469 30.144375 67.66710937 30.21875 66.98046875 C32.19334233 47.37166993 30.09943569 31.08200857 18 15 C18 14.34 18 13.68 18 13 C17.11248047 12.59394531 17.11248047 12.59394531 16.20703125 12.1796875 C14.032039 11.01712527 12.49402048 9.78924083 10.6875 8.125 C7.34499825 5.17318028 3.93384721 3.0873475 0 1 C0 0.67 0 0.34 0 0 Z " fill="#A0A4DA" transform="translate(694,108)"/>
<path d="M0 0 C5.06590193 3.76695272 8.75586037 8.20955363 12.671875 13.14453125 C15.49777494 16.61052598 18.54215335 19.8276859 21.6640625 23.02734375 C23 25 23 25 22.95703125 26.9453125 C21.68983075 29.66591439 20.01481657 31.65579434 18.0625 33.9375 C14.58528269 38.07704442 11.21347503 42.26218816 7.9375 46.5625 C2.98700621 53.04141714 -2.07350833 59.42487929 -7.23828125 65.734375 C-7.96402344 66.62640625 -8.68976562 67.5184375 -9.4375 68.4375 C-10.42556641 69.64212891 -10.42556641 69.64212891 -11.43359375 70.87109375 C-13.17304846 73.00660934 -13.17304846 73.00660934 -14 76 C-16.0625 77.1875 -16.0625 77.1875 -18 78 C-16.56997559 73.70992676 -14.45268442 70.90119345 -11.5 67.5 C-7.81333994 63.19225822 -4.2508592 58.82124804 -0.8125 54.3125 C-0.39363525 53.76343994 0.02522949 53.21437988 0.45678711 52.64868164 C0.86550049 52.11235107 1.27421387 51.57602051 1.6953125 51.0234375 C3.63376898 48.48044545 5.59064269 45.95457132 7.5625 43.4375 C11.7883692 38.01868208 15.89050378 32.50728405 20 27 C16.88467917 22.0552893 13.30771285 17.74585905 9.4375 13.375 C0 2.66159218 0 2.66159218 0 0 Z " fill="#EFB2BC" transform="translate(905,127)"/>
<path d="M0 0 C14.64310337 -0.77068965 27.0568281 3.79203976 40 10 C40 10.66 40 11.32 40 12 C40.87785156 12.23589844 41.75570312 12.47179688 42.66015625 12.71484375 C51.71379582 16.1986419 58.52488363 25.26382875 64 33 C63.505 33.99 63.505 33.99 63 35 C62.34515625 34.23816406 61.6903125 33.47632813 61.015625 32.69140625 C53.82398331 24.49408027 46.07351968 16.62000666 36 12 C36 11.34 36 10.68 36 10 C35.31808594 9.8865625 34.63617188 9.773125 33.93359375 9.65625 C30.50933267 8.89023687 27.35631067 7.70925387 24.0625 6.5 C17.53260821 4.1952367 11.67498953 3.36033865 4.73046875 3.140625 C2 3 2 3 0 2 C0 1.34 0 0.68 0 0 Z " fill="#A5A9DD" transform="translate(431,38)"/>
<path d="M0 0 C0.99 0.33 1.98 0.66 3 1 C0.19364829 3.96262187 -2.69550596 6.26659685 -6.0625 8.5625 C-14.39830067 14.55176161 -22.59198463 21.55425278 -27 31 C-28.65 30.67 -30.3 30.34 -32 30 C-32 29.34 -32 28.68 -32 28 C-32.99 27.67 -33.98 27.34 -35 27 C-35.37125 26.01 -35.7425 25.02 -36.125 24 C-38.2118544 18.51487997 -42.78061891 14.90093723 -47 11 C-46.01 10.67 -45.02 10.34 -44 10 C-42.22461301 12.05872549 -40.45465816 14.12172999 -38.6875 16.1875 C-37.93823242 17.0547168 -37.93823242 17.0547168 -37.17382812 17.93945312 C-34.43774803 21.14664635 -32.04686164 24.29049989 -30 28 C-28.64508116 26.50067938 -27.29111322 25.00049946 -25.9375 23.5 C-25.10992187 22.58605469 -24.28234375 21.67210938 -23.4296875 20.73046875 C-21.98968145 19.11219829 -20.56945946 17.47533697 -19.1953125 15.80078125 C-14.78423256 10.42939443 -9.77110428 6.81840233 -4 3 C-3.30261719 2.41863281 -2.60523438 1.83726563 -1.88671875 1.23828125 C-1.26410156 0.82964844 -0.64148438 0.42101563 0 0 Z " fill="#B0B4E1" transform="translate(382,47)"/>
<path d="M0 0 C3.14968453 2.20692181 4.76506463 4.29519388 6 8 C2.75728494 7.4409112 1.06942576 6.5867822 -1 4 C-1 3.34 -1 2.68 -1 2 C-12.78261728 -1.74901459 -25.28321118 -3.04273044 -37.08203125 1.34375 C-39 2 -39 2 -42 2 C-42.33 2.99 -42.66 3.98 -43 5 C-43.721875 5.495 -44.44375 5.99 -45.1875 6.5 C-50.58065871 11.29391885 -53.44893523 18.33821474 -56 25 C-57.46726798 21.18510326 -56.43336419 18.70988378 -55 15 C-54.34 15 -53.68 15 -53 15 C-52.938125 14.29875 -52.87625 13.5975 -52.8125 12.875 C-51.71677837 8.99783115 -49.79572359 6.86074042 -47 4 C-44.6875 3.125 -44.6875 3.125 -43 3 C-43 2.34 -43 1.68 -43 1 C-30.54808973 -4.40365917 -12.64194161 -6.23471974 0 0 Z " fill="#CECFEA" transform="translate(427,107)"/>
<path d="M0 0 C0.86099304 0.02516693 1.72198608 0.05033386 2.60906982 0.07626343 C3.52663559 0.07524124 4.44420135 0.07421906 5.38957214 0.07316589 C8.41534269 0.07803378 11.43807623 0.13243662 14.46331787 0.18734741 C16.56365816 0.20040646 18.66401979 0.21036918 20.76438904 0.21736145 C26.28708988 0.2440626 31.80849778 0.31280412 37.33068848 0.39028931 C42.9678193 0.46195333 48.60515949 0.49387979 54.24261475 0.52914429 C65.29982281 0.60417192 76.35607212 0.723612 87.41253662 0.87094116 C87.41253662 1.20094116 87.41253662 1.53094116 87.41253662 1.87094116 C56.39253662 2.20094116 25.37253662 2.53094116 -6.58746338 2.87094116 C-7.24746338 4.52094116 -7.90746338 6.17094116 -8.58746338 7.87094116 C-9.74214811 9.51414636 -10.95218072 11.11975713 -12.21246338 12.68344116 C-12.844104 13.47363647 -13.47574463 14.26383179 -14.12652588 15.07797241 C-14.60863525 15.6696521 -15.09074463 16.26133179 -15.58746338 16.87094116 C-16.24746338 16.54094116 -16.90746338 16.21094116 -17.58746338 15.87094116 C-17.21234619 15.3746521 -16.837229 14.87836304 -16.45074463 14.36703491 C-15.68310791 13.34803101 -15.68310791 13.34803101 -14.89996338 12.30844116 C-14.40109619 11.6471521 -13.902229 10.98586304 -13.38824463 10.30453491 C-11.63197982 8.04877856 -11.63197982 8.04877856 -10.64117146 6.12997341 C-7.7787771 1.24827442 -5.61717192 0.06775109 0 0 Z " fill="#F17F95" transform="translate(1027.5874633789063,45.129058837890625)"/>
<path d="M0 0 C0.33 0.66 0.66 1.32 1 2 C-0.9590876 5.91817519 -3.20902183 9.34461811 -5.875 12.8125 C-14.20765879 23.76219987 -19.36311894 36.11977484 -24 49 C-24.66 49 -25.32 49 -26 49 C-25.13297411 39.98293079 -21.15440095 32.64776402 -16.95898438 24.79589844 C-16.16096375 23.30143822 -15.38263424 21.79648361 -14.609375 20.2890625 C-11.66832484 14.70106719 -7.98567231 9.88292081 -4 5 C-3.195625 3.989375 -2.39125 2.97875 -1.5625 1.9375 C-1.046875 1.298125 -0.53125 0.65875 0 0 Z " fill="#B2B8E3" transform="translate(575,73)"/>
<path d="M0 0 C1.35641602 -0.02416992 1.35641602 -0.02416992 2.74023438 -0.04882812 C10.36220111 -0.05427628 17.6989865 0.64230503 23.7421875 5.625 C29.50268925 13.1027834 34.33919754 20.56696828 33.9375 30.3125 C33.2775 30.3125 32.6175 30.3125 31.9375 30.3125 C31.58558594 29.2503125 31.23367188 28.188125 30.87109375 27.09375 C26.46517991 14.18411035 26.46517991 14.18411035 16.78515625 4.953125 C7.60027503 0.71618137 -3.19099874 1.95508595 -13.0625 2.3125 C-8.77393316 -0.54654456 -5.04429027 -0.01745429 0 0 Z " fill="#BBBEE7" transform="translate(265.0625,103.6875)"/>
<path d="M0 0 C11.87407395 -0.20870824 23.74771032 -0.36853443 35.62324619 -0.46630955 C41.13791843 -0.51324243 46.65133417 -0.57687708 52.1652832 -0.67895508 C57.4886855 -0.7768866 62.81088099 -0.83058698 68.13511467 -0.85389519 C70.16422462 -0.87050034 72.19326988 -0.90292891 74.2218647 -0.95157051 C90.18442953 -1.31902986 90.18442953 -1.31902986 94.84030151 2.06350708 C96.616893 4.32152324 97.90691166 6.35119681 99 9 C98.67 9.66 98.34 10.32 98 11 C95.4000702 8.48972295 93.00908773 6.0136316 91 3 C91 2.34 91 1.68 91 1 C60.97 1 30.94 1 0 1 C0 0.67 0 0.34 0 0 Z " fill="#F4A2B1" transform="translate(841,45)"/>
<path d="M0 0 C0.66 0.33 1.32 0.66 2 1 C-1.65821625 5.66737935 -1.65821625 5.66737935 -3.45703125 7.41796875 C-14.52773717 18.7689457 -18.27920669 33.752269 -18.1730957 49.08081055 C-18.07800103 54.42462088 -17.71291241 59.70407927 -17 65 C-21.9015276 60.0984724 -20.29327071 50.44925891 -20.33007812 43.96655273 C-20.25193816 35.72083328 -19.0009009 28.72999918 -16 21 C-15.34 21 -14.68 21 -14 21 C-13.814375 19.88625 -13.814375 19.88625 -13.625 18.75 C-12.51966077 13.88650738 -10.55276479 11.44174089 -7 8 C-6.34 7.01 -5.68 6.02 -5 5 C-4.34 5 -3.68 5 -3 5 C-2.690625 4.360625 -2.38125 3.72125 -2.0625 3.0625 C-1 1 -1 1 0 0 Z " fill="#C0C3E8" transform="translate(634,114)"/>
<path d="M0 0 C0.66 0.33 1.32 0.66 2 1 C-1.35466568 6.03199852 -7.38382055 7.19050662 -13.12890625 8.4765625 C-23.546912 9.90368658 -36.94579495 10.56407269 -47 7 C-47.66 6.34 -48.32 5.68 -49 5 C-48.17145508 5.10658936 -48.17145508 5.10658936 -47.32617188 5.21533203 C-31.31701737 7.2015548 -17.20209778 8.15360315 -2.2578125 0.92578125 C-1.51273438 0.62027344 -0.76765625 0.31476563 0 0 Z " fill="#BBBEE5" transform="translate(699,211)"/>
<path d="M0 0 C0.66 0.33 1.32 0.66 2 1 C0.43157092 4.84978047 -2.0835049 7.09192192 -5 10 C-6.56702321 11.81170789 -8.10900585 13.64538172 -9.625 15.5 C-10.38039063 16.4178125 -11.13578125 17.335625 -11.9140625 18.28125 C-13.82884711 20.77692432 -15.4262537 23.28171094 -17 26 C-19.94751155 30.48782404 -23.14690366 34.24088162 -27 38 C-29.03698605 40.30247002 -31.0246667 42.64453383 -33 45 C-33 40.86558078 -30.79607896 38.83039104 -28.3125 35.75 C-27.39086274 34.58547698 -26.47027943 33.42011901 -25.55078125 32.25390625 C-25.10814941 31.69461426 -24.66551758 31.13532227 -24.20947266 30.55908203 C-22.73003527 28.65199944 -21.35654904 26.68338938 -20 24.6875 C-19.01 23.3571875 -19.01 23.3571875 -18 22 C-17.34 22 -16.68 22 -16 22 C-15.77054688 21.29875 -15.54109375 20.5975 -15.3046875 19.875 C-13.74435295 16.43665799 -11.58020021 13.82025913 -9.125 11 C-6.0257398 7.37653259 -2.9573509 3.74139276 0 0 Z " fill="#F2B2BC" transform="translate(885,206)"/>
<path d="M0 0 C14.23045775 -0.69229254 26.09209584 2.2299053 38 10 C38.495 10.99 38.495 10.99 39 12 C33.04230603 10.76349748 27.91185289 8.73243219 22.41796875 6.12109375 C17.44411552 3.81496148 12.7313814 3.66732794 7.36132812 3.39453125 C2.20170612 3.10085306 2.20170612 3.10085306 0 2 C0 1.34 0 0.68 0 0 Z " fill="#9BA0D9" transform="translate(289,38)"/>
<path d="M0 0 C0.66 0 1.32 0 2 0 C3.24382542 3.85554863 3.16172105 7.71601532 3.16796875 11.72265625 C3.17129715 12.46454697 3.17462555 13.20643768 3.17805481 13.97080994 C3.18310559 15.53497703 3.18546371 17.09915484 3.18530273 18.66333008 C3.18749554 21.05763356 3.20568757 23.4514807 3.22460938 25.84570312 C3.22754241 27.36718593 3.22952781 28.88867091 3.23046875 30.41015625 C3.23765427 31.12583267 3.24483978 31.84150909 3.25224304 32.57887268 C3.23518951 36.27915467 3.10947211 37.83579183 1 41 C0.67 27.47 0.34 13.94 0 0 Z " fill="#CACCE6" transform="translate(438,130)"/>
<path d="M0 0 C0.66 0.33 1.32 0.66 2 1 C1.18208984 1.89138672 1.18208984 1.89138672 0.34765625 2.80078125 C-4.5794755 8.21641495 -9.30712911 13.74753314 -13.9140625 19.4375 C-16.55141268 22.67739086 -19.26408759 25.84317799 -22 29 C-22.99 28.67 -23.98 28.34 -25 28 C-24.33355469 27.29617187 -23.66710938 26.59234375 -22.98046875 25.8671875 C-17.17757381 19.67134396 -11.7383255 13.32113284 -6.61791992 6.54638672 C-4.53914298 3.82263298 -2.88098307 1.92065538 0 0 Z " fill="#F5AAB6" transform="translate(1112,52)"/>
<path d="M0 0 C0.66 0 1.32 0 2 0 C1.52343588 1.79236067 1.04366502 3.58386897 0.5625 5.375 C0.29566406 6.37273437 0.02882813 7.37046875 -0.24609375 8.3984375 C-1 11 -1 11 -2 13 C-2.66 13 -3.32 13 -4 13 C-4.21914063 13.69738281 -4.43828125 14.39476562 -4.6640625 15.11328125 C-6.32820434 18.70919007 -8.69284757 21.33241932 -11.375 24.1875 C-12.09816406 24.98704102 -12.09816406 24.98704102 -12.8359375 25.80273438 C-15.33768704 28.50503178 -17.53387617 30.66118914 -21 32 C-19.60097997 28.78768702 -18.79146835 27.83734531 -15.875 25.5625 C-8.1527233 19.21056468 -3.7003202 9.09662048 0 0 Z " fill="#C1C4E7" transform="translate(723,179)"/>
<path d="M0 0 C3.70295197 1.51636721 5.76245642 3.69453341 8.375 6.6875 C9.55255859 8.03134766 9.55255859 8.03134766 10.75390625 9.40234375 C11.49511719 10.25957031 12.23632812 11.11679688 13 12 C13.58652344 12.66128906 14.17304687 13.32257813 14.77734375 14.00390625 C17.84742635 17.49583226 20.43703809 21.11136814 23 25 C24.62351109 26.79394446 24.62351109 26.79394446 26 28 C25.67 28.66 25.34 29.32 25 30 C21.73256978 26.8122632 18.72982698 23.56039258 15.875 20 C11.81754498 14.97778755 7.66676247 10.04550972 3.45458984 5.15234375 C0 1.10818705 0 1.10818705 0 0 Z " fill="#F8BAC7" transform="translate(873,90)"/>
<path d="M0 0 C0.99 0.33 1.98 0.66 3 1 C2.278125 1.639375 1.55625 2.27875 0.8125 2.9375 C-7.33778018 11.31801408 -8.86326178 21.93432217 -11 33 C-11.33 33 -11.66 33 -12 33 C-12.56738927 21.6522147 -10.26440069 11.91024147 -3 3 C-2.01720793 1.98308321 -1.02256458 0.97691437 0 0 Z " fill="#B1B5E0" transform="translate(240,111)"/>
<path d="M0 0 C0.8971875 0.309375 0.8971875 0.309375 1.8125 0.625 C-1.1875 2.625 -1.1875 2.625 -4.1875 2.625 C-4.5175 3.615 -4.8475 4.605 -5.1875 5.625 C-5.909375 6.12 -6.63125 6.615 -7.375 7.125 C-12.76815871 11.91891885 -15.63643523 18.96321474 -18.1875 25.625 C-19.65476798 21.81010326 -18.62086419 19.33488378 -17.1875 15.625 C-16.5275 15.625 -15.8675 15.625 -15.1875 15.625 C-15.125625 14.92375 -15.06375 14.2225 -15 13.5 C-13.90427837 9.62283115 -11.98322359 7.48574042 -9.1875 4.625 C-6.875 3.75 -6.875 3.75 -5.1875 3.625 C-5.1875 2.965 -5.1875 2.305 -5.1875 1.625 C-2.1875 -0.375 -2.1875 -0.375 0 0 Z " fill="#AAAEDE" transform="translate(389.1875,106.375)"/>
<path d="M0 0 C0 3.9856317 -1.37779403 4.98961076 -3.9375 8 C-4.75347656 8.96679688 -5.56945313 9.93359375 -6.41015625 10.9296875 C-6.83699707 11.43209961 -7.26383789 11.93451172 -7.70361328 12.45214844 C-8.99410955 13.99296696 -10.24944048 15.55638026 -11.49609375 17.1328125 C-12.28113281 18.12023437 -13.06617188 19.10765625 -13.875 20.125 C-14.59429688 21.03507812 -15.31359375 21.94515625 -16.0546875 22.8828125 C-18 25 -18 25 -21 26 C-19.6886807 23.15530821 -18.24017874 20.92172334 -16.171875 18.57421875 C-15.61886719 17.94193359 -15.06585937 17.30964844 -14.49609375 16.65820312 C-13.91988281 16.00787109 -13.34367187 15.35753906 -12.75 14.6875 C-11.61961209 13.39989722 -10.48940296 12.11213745 -9.359375 10.82421875 C-8.80572266 10.19563965 -8.25207031 9.56706055 -7.68164062 8.91943359 C-5.09571102 5.96783973 -2.54805751 2.98431584 0 0 Z " fill="#E49DAA" transform="translate(1051,124)"/>
<path d="M0 0 C0.66 0.33 1.32 0.66 2 1 C1.87882813 1.63164063 1.75765625 2.26328125 1.6328125 2.9140625 C0.36856858 9.66318004 -0.60942593 16.40973849 -1.4375 23.2265625 C-1.623125 24.14179688 -1.80875 25.05703125 -2 26 C-2.66 26.33 -3.32 26.66 -4 27 C-4.32300128 20.97064285 -3.68219385 15.46718202 -2.5625 9.5625 C-2.360802 8.49708984 -2.360802 8.49708984 -2.1550293 7.41015625 C-1.14321753 2.28643505 -1.14321753 2.28643505 0 0 Z " fill="#B8BCE1" transform="translate(548,123)"/>
<path d="M0 0 C0.33 0.99 0.66 1.98 1 3 C-0.37109375 5.12890625 -0.37109375 5.12890625 -2.4375 7.5625 C-3.1696875 8.44164062 -3.901875 9.32078125 -4.65625 10.2265625 C-5.4296875 11.14179688 -6.203125 12.05703125 -7 13 C-8.48614339 14.80678391 -9.96566701 16.61903968 -11.4375 18.4375 C-12.42556641 19.64212891 -12.42556641 19.64212891 -13.43359375 20.87109375 C-15.17304846 23.00660934 -15.17304846 23.00660934 -16 26 C-18.0625 27.1875 -18.0625 27.1875 -20 28 C-18.56024218 23.64908351 -16.3709087 20.81612114 -13.375 17.375 C-8.58704766 11.79636055 -4.23700257 6.01228298 0 0 Z " fill="#F9C2CC" transform="translate(907,177)"/>
<path d="M0 0 C-3.57110031 2.10856425 -7.06253893 2.63264255 -11.125 3.3125 C-16.94432614 4.36348671 -21.88039679 6.0145084 -27.046875 8.9140625 C-29 10 -29 10 -32 11 C-31.67 10.01 -31.34 9.02 -31 8 C-29.34795544 7.29788106 -27.68076231 6.63028587 -26 6 C-25.67 5.34 -25.34 4.68 -25 4 C-22.30703881 3.18467253 -19.67547731 2.49674422 -16.9375 1.875 C-16.19822266 1.69324219 -15.45894531 1.51148437 -14.69726562 1.32421875 C-9.6847256 0.15769587 -5.14372041 -0.17515506 0 0 Z " fill="#C2C5E5" transform="translate(669,103)"/>
<path d="M0 0 C4.33064072 1.54090239 6.50094818 4.87517446 9.125 8.4375 C9.78822266 9.31631836 9.78822266 9.31631836 10.46484375 10.21289062 C12.38334853 12.76606692 14.22821081 15.34231622 16 18 C16.99 18.66 17.98 19.32 19 20 C16.78125 20.3515625 16.78125 20.3515625 14 20 C11.71875 17.5859375 11.71875 17.5859375 9.5 14.375 C8.72133232 13.26993012 7.94139564 12.16575328 7.16015625 11.0625 C6.44730469 10.051875 5.73445312 9.04125 5 8 C3.99694169 6.77687116 2.98082147 5.56397033 1.9375 4.375 C0 2 0 2 0 0 Z " fill="#F6ADBB" transform="translate(1015,257)"/>
<path d="M0 0 C-1 2 -1 2 -3.765625 3 C-4.91546875 3.33 -6.0653125 3.66 -7.25 4 C-10.48114429 4.93571599 -13.62950903 5.84927394 -16.74609375 7.1171875 C-19.30237542 8.11843474 -21.27867562 8.15550425 -24 8 C-21.13661157 5.68012512 -18.43212933 4.20390373 -15 2.875 C-14.154375 2.54242188 -13.30875 2.20984375 -12.4375 1.8671875 C-8.11682194 0.33002319 -4.6085191 -0.10473907 0 0 Z " fill="#A7ABDF" transform="translate(409,39)"/>
<path d="M0 0 C1.32 0 2.64 0 4 0 C4 0.66 4 1.32 4 2 C4.53496094 2.06574219 5.06992187 2.13148437 5.62109375 2.19921875 C9.00492439 3.33827504 11.39368089 5.52353735 14.0625 7.8125 C14.59166016 8.25142578 15.12082031 8.69035156 15.66601562 9.14257812 C18.47899208 11.51790203 21.15907592 13.78344034 23 17 C22.67 17.99 22.34 18.98 22 20 C18 15.25 18 15.25 18 13 C17.11248047 12.59394531 17.11248047 12.59394531 16.20703125 12.1796875 C14.032039 11.01712527 12.49402048 9.78924083 10.6875 8.125 C7.34499825 5.17318028 3.93384721 3.0873475 0 1 C0 0.67 0 0.34 0 0 Z " fill="#C0C3E5" transform="translate(694,108)"/>
<path d="M0 0 C7.83318658 0.46549674 14.34283555 1.56189036 21 6 C20.67 6.66 20.34 7.32 20 8 C19.05898438 7.65066406 18.11796875 7.30132812 17.1484375 6.94140625 C15.89072526 6.48149655 14.63290707 6.02187653 13.375 5.5625 C12.14523437 5.11003906 10.91546875 4.65757813 9.6484375 4.19140625 C6.40451332 3.13209482 3.3743785 2.45164758 0 2 C0 1.34 0 0.68 0 0 Z " fill="#9EA3DA" transform="translate(677,39)"/>
<path d="M0 0 C0.99 0.33 1.98 0.66 3 1 C-0.00235362 4.17391668 -3.19753642 6.71252601 -6.75 9.25 C-7.73484375 9.95640625 -8.7196875 10.6628125 -9.734375 11.390625 C-10.48203125 11.92171875 -11.2296875 12.4528125 -12 13 C-12.33 12.01 -12.66 11.02 -13 10 C-8.87135515 6.33552232 -4.81284059 2.73456852 0 0 Z " fill="#9FA3D9" transform="translate(382,47)"/>
<path d="M0 0 C0.33 0.99 0.66 1.98 1 3 C-1.49734936 7.93112982 -4.97686583 12.23642287 -9 16 C-10.70507669 17.97042004 -12.34969627 19.98296211 -14 22 C-14.66 21.67 -15.32 21.34 -16 21 C-15.26394531 20.07058594 -14.52789063 19.14117187 -13.76953125 18.18359375 C-12.78376973 16.93496249 -11.79809742 15.68626079 -10.8125 14.4375 C-10.32974609 13.82841797 -9.84699219 13.21933594 -9.34960938 12.59179688 C-6.10592685 8.47732709 -3.01608937 4.28428051 0 0 Z " fill="#F3ADC2" transform="translate(849,251)"/>
<path d="M0 0 C0.33 0 0.66 0 1 0 C1 7.59 1 15.18 1 23 C0.01 22.67 -0.98 22.34 -2 22 C-1.86181468 18.52048477 -1.71317399 15.04149505 -1.5625 11.5625 C-1.52318359 10.56927734 -1.48386719 9.57605469 -1.44335938 8.55273438 C-1.40146484 7.60849609 -1.35957031 6.66425781 -1.31640625 5.69140625 C-1.27974854 4.81685791 -1.24309082 3.94230957 -1.20532227 3.04125977 C-1 1 -1 1 0 0 Z " fill="#9EA2D9" transform="translate(727,47)"/>
<path d="M0 0 C-0.33 0.66 -0.66 1.32 -1 2 C-3.00952148 2.61010742 -3.00952148 2.61010742 -5.62109375 3.10546875 C-6.55630859 3.28400391 -7.49152344 3.46253906 -8.45507812 3.64648438 C-9.43927734 3.82501953 -10.42347656 4.00355469 -11.4375 4.1875 C-12.41783203 4.37763672 -13.39816406 4.56777344 -14.40820312 4.76367188 C-21.7383537 6.13082315 -21.7383537 6.13082315 -24 5 C-16.04522388 1.81808955 -8.62172694 -0.366882 0 0 Z " fill="#B0B5E0" transform="translate(276,38)"/>
<path d="M0 0 C0.66 0.33 1.32 0.66 2 1 C1.56429687 1.556875 1.12859375 2.11375 0.6796875 2.6875 C0.08414063 3.450625 -0.51140625 4.21375 -1.125 5 C-2.08019531 6.22203125 -2.08019531 6.22203125 -3.0546875 7.46875 C-5.32171797 10.41862097 -7.49431431 13.43015284 -9.640625 16.46875 C-11 18 -11 18 -14 19 C-12.71606032 16.2682214 -11.30918785 13.94430645 -9.43359375 11.58203125 C-8.94826172 10.96779297 -8.46292969 10.35355469 -7.96289062 9.72070312 C-7.45951172 9.09099609 -6.95613281 8.46128906 -6.4375 7.8125 C-5.67663086 6.85053711 -5.67663086 6.85053711 -4.90039062 5.86914062 C-1.18849649 1.18849649 -1.18849649 1.18849649 0 0 Z " fill="#ED9EAE" transform="translate(938,257)"/>
<path d="M0 0 C0.33 0 0.66 0 1 0 C1 6.6 1 13.2 1 20 C0.34 20 -0.32 20 -1 20 C-1.22295635 17.60472566 -1.42874063 15.20998659 -1.625 12.8125 C-1.68945312 12.13896484 -1.75390625 11.46542969 -1.8203125 10.77148438 C-2.14362111 6.62909282 -1.89095265 3.71694891 0 0 Z " fill="#858AD1" transform="translate(545,149)"/>
<path d="M0 0 C0.66 0.33 1.32 0.66 2 1 C-0.32433767 4.4865065 -1.52250506 4.86599377 -5.375 6.25 C-6.33148437 6.60578125 -7.28796875 6.9615625 -8.2734375 7.328125 C-11.04064834 8.0100165 -12.36736194 7.9732027 -15 7 C-14.01 7 -13.02 7 -12 7 C-12 6.34 -12 5.68 -12 5 C-10.04578965 4.13644222 -8.08648653 3.28440066 -6.125 2.4375 C-5.03445313 1.96183594 -3.94390625 1.48617187 -2.8203125 0.99609375 C-1.88960937 0.66738281 -0.95890625 0.33867187 0 0 Z " fill="#9499D5" transform="translate(699,211)"/>
<path d="M0 0 C0 4.04016453 -1.46869212 4.9566059 -4.1875 7.875 C-5.00476562 8.75671875 -5.82203125 9.6384375 -6.6640625 10.546875 C-9.07166934 13.07526479 -11.49127434 15.57220098 -14 18 C-13.44960864 13.97001578 -11.40759288 11.92042706 -8.6875 9 C-7.90761719 8.154375 -7.12773438 7.30875 -6.32421875 6.4375 C-4.24658706 4.25860559 -2.14098187 2.11648551 0 0 Z " fill="#F5AFC0" transform="translate(1066,107)"/>
<path d="M0 0 C4.23862616 3.48172863 6.23702046 7.90798994 8 13 C8 13.99 8 14.98 8 16 C7.34 16 6.68 16 6 16 C3.69 11.05 1.38 6.1 -1 1 C-0.67 0.67 -0.34 0.34 0 0 Z " fill="#B2B6E0" transform="translate(717,127)"/>
<path d="M0 0 C3.97371764 2.14890759 6.73989309 4.57890756 9.75 7.9375 C10.52859375 8.79214844 11.3071875 9.64679688 12.109375 10.52734375 C13.86892687 12.82857584 14.60698985 14.1768771 15 17 C14.28457031 16.28199219 13.56914062 15.56398438 12.83203125 14.82421875 C11.00655192 13.00377522 9.17128845 11.19306481 7.32421875 9.39453125 C6.45410156 8.54246094 5.58398438 7.69039062 4.6875 6.8125 C3.80449219 5.95269531 2.92148437 5.09289063 2.01171875 4.20703125 C0 2 0 2 0 0 Z " fill="#B8BBDE" transform="translate(480,56)"/>
<path d="M0 0 C2.5419051 3.81285765 4.39078485 7.86347203 6.3671875 11.9921875 C7.98418257 14.97086263 9.80575607 17.42580041 12 20 C11.67 20.66 11.34 21.32 11 22 C10.38125 21.195625 9.7625 20.39125 9.125 19.5625 C7.25835959 16.96125481 7.25835959 16.96125481 5 16 C4.05041135 14.09794515 3.18742926 12.15205846 2.375 10.1875 C1.92898438 9.12917969 1.48296875 8.07085937 1.0234375 6.98046875 C0 4 0 4 0 0 Z " fill="#BDBFE1" transform="translate(617,179)"/>
<path d="M0 0 C1.95766281 -0.08082094 3.91626728 -0.13910778 5.875 -0.1875 C7.51082031 -0.23970703 7.51082031 -0.23970703 9.1796875 -0.29296875 C10.11039062 -0.19628906 11.04109375 -0.09960938 12 0 C12.66 0.99 13.32 1.98 14 3 C12.04174127 3.02694851 10.08337774 3.04637218 8.125 3.0625 C7.03445313 3.07410156 5.94390625 3.08570313 4.8203125 3.09765625 C2 3 2 3 0 2 C0 1.34 0 0.68 0 0 Z " fill="#6E75C9" transform="translate(289,38)"/>
<path d="M0 0 C4.43776639 2.27885301 7.25496742 5.34180347 10.3125 9.1875 C10.9940918 10.02571289 10.9940918 10.02571289 11.68945312 10.88085938 C12.79982383 12.24836856 13.90087985 13.62343204 15 15 C14.01 15.33 13.02 15.66 12 16 C11.30132813 15.07316406 10.60265625 14.14632812 9.8828125 13.19140625 C8.96374645 11.98161523 8.0444644 10.77198829 7.125 9.5625 C6.43470703 8.64500977 6.43470703 8.64500977 5.73046875 7.70898438 C3.30765076 4.35742987 3.30765076 4.35742987 0 2 C0 1.34 0 0.68 0 0 Z " fill="#E5A6B2" transform="translate(1083,226)"/>
<path d="M0 0 C4.45988622 4.45988622 6.02630605 9.89393791 7 16 C6.57421875 18.33984375 6.57421875 18.33984375 6 20 C5.80664062 19.30132812 5.61328125 18.60265625 5.4140625 17.8828125 C5.15367187 16.97273438 4.89328125 16.06265625 4.625 15.125 C4.36976563 14.22007813 4.11453125 13.31515625 3.8515625 12.3828125 C3.1395685 9.85430274 3.1395685 9.85430274 1 8 C0.43479997 5.34462628 0.26211802 2.70855287 0 0 Z " fill="#AEB2E1" transform="translate(500,81)"/>
<path d="M0 0 C0.66 0 1.32 0 2 0 C1.76539063 0.56460938 1.53078125 1.12921875 1.2890625 1.7109375 C0.74351543 4.1154003 0.74351543 4.1154003 2.3984375 6.2890625 C3.05070312 7.05992187 3.70296875 7.83078125 4.375 8.625 C7.96517413 12.93034826 7.96517413 12.93034826 9 15 C5.03998247 14.48194893 3.58947255 12.77719521 1.1875 9.6875 C0.56230469 8.90761719 -0.06289062 8.12773437 -0.70703125 7.32421875 C-2 5 -2 5 -1.76171875 2.76953125 C-1 1 -1 1 0 0 Z " fill="#F4BEC7" transform="translate(1029,150)"/>
<path d="M0 0 C0.99 0 1.98 0 3 0 C3.69906942 1.59915881 4.38389468 3.20455045 5.0625 4.8125 C5.63677734 6.15248047 5.63677734 6.15248047 6.22265625 7.51953125 C7 10 7 10 6 13 C2.57068046 9.2440786 1.43570917 4.76533255 0 0 Z " fill="#B2B5E1" transform="translate(432,116)"/>
<path d="M0 0 C-0.33 0.66 -0.66 1.32 -1 2 C-3.63797183 2.66982059 -6.20138895 3.21554953 -8.875 3.6875 C-9.60847656 3.82994141 -10.34195313 3.97238281 -11.09765625 4.11914062 C-14.50730951 4.74331212 -16.66186696 5.11271101 -20 4 C-13.18168055 1.63809849 -7.2903211 -0.16954235 0 0 Z " fill="#B3B7E2" transform="translate(642,39)"/>
<path d="M0 0 C0.66 0 1.32 0 2 0 C1.52343588 1.79236067 1.04366502 3.58386897 0.5625 5.375 C0.29566406 6.37273437 0.02882813 7.37046875 -0.24609375 8.3984375 C-1 11 -1 11 -2 13 C-2.66 13 -3.32 13 -4 13 C-4.33 13.66 -4.66 14.32 -5 15 C-4.43174347 9.45949887 -2.37113483 4.96284034 0 0 Z " fill="#ABAFDE" transform="translate(723,179)"/>
<path d="M0 0 C3 3 3 3 3.29296875 5.26171875 C3.25816406 6.06222656 3.22335938 6.86273438 3.1875 7.6875 C3.16042969 8.49574219 3.13335937 9.30398438 3.10546875 10.13671875 C3.07066406 10.75160156 3.03585938 11.36648438 3 12 C2.01 12.33 1.02 12.66 0 13 C0 8.71 0 4.42 0 0 Z " fill="#9195CC" transform="translate(226,263)"/>
<path d="M0 0 C0.66 0 1.32 0 2 0 C2.67057887 1.7902061 3.3363469 3.58221489 4 5.375 C4.556875 6.87160156 4.556875 6.87160156 5.125 8.3984375 C6 11 6 11 6 13 C5.01 13 4.02 13 3 13 C2.49487756 11.39743892 1.99608373 9.79288208 1.5 8.1875 C1.2215625 7.29417969 0.943125 6.40085938 0.65625 5.48046875 C0 3 0 3 0 0 Z " fill="#A5A9D7" transform="translate(549,200)"/>
<path d="M0 0 C12.66970387 0.77904328 12.66970387 0.77904328 18 3 C18 3.33 18 3.66 18 4 C15.93690624 3.88521587 13.87451646 3.75773802 11.8125 3.625 C10.66394531 3.55539062 9.51539063 3.48578125 8.33203125 3.4140625 C5.20040883 3.02490426 2.84714191 2.3190149 0 1 C0 0.67 0 0.34 0 0 Z " fill="#B7BAE0" transform="translate(625,280)"/>
<path d="M0 0 C0.66 0 1.32 0 2 0 C3.14982602 4.09003859 3.11094256 8.03177051 3.0625 12.25 C3.05798828 12.99507812 3.05347656 13.74015625 3.04882812 14.5078125 C3.03709246 16.3385764 3.0191585 18.16929873 3 20 C2.67 20 2.34 20 2 20 C1.66254646 17.60468244 1.3299171 15.20885732 1 12.8125 C0.90460938 12.13896484 0.80921875 11.46542969 0.7109375 10.77148438 C0.21675387 7.15335423 -0.11346131 3.65203599 0 0 Z " fill="#A0A5DC" transform="translate(438,130)"/>
<path d="M0 0 C0.33 0.66 0.66 1.32 1 2 C-2.85286104 9.56811989 -2.85286104 9.56811989 -6 12 C-6.66 12 -7.32 12 -8 12 C-6.49087042 7.01987239 -3.44338151 3.75740058 0 0 Z " fill="#B9BDE4" transform="translate(575,73)"/>
<path d="M0 0 C0.33 0.66 0.66 1.32 1 2 C-3.95 8.93 -3.95 8.93 -9 16 C-9.66 15.67 -10.32 15.34 -11 15 C-10.62488281 14.50371094 -10.24976563 14.00742187 -9.86328125 13.49609375 C-6.50836081 9.04258476 -3.22288764 4.54995902 0 0 Z " fill="#F3B4C0" transform="translate(1021,46)"/>
<path d="M0 0 C1.43655854 -0.08131463 2.8744483 -0.13933559 4.3125 -0.1875 C5.51326172 -0.23970703 5.51326172 -0.23970703 6.73828125 -0.29296875 C9.47851584 0.06198392 10.29171079 0.89366282 12 3 C10.37509046 3.02698189 8.75005367 3.04638757 7.125 3.0625 C5.76761719 3.07990234 5.76761719 3.07990234 4.3828125 3.09765625 C2 3 2 3 0 2 C0 1.34 0 0.68 0 0 Z " fill="#787ECD" transform="translate(431,38)"/>
<path d="M0 0 C4.54075781 4.14010271 7.71842138 8.82390176 11 14 C7.41297339 12.53185858 5.59626852 10.61565711 3.25 7.5625 C2.63640625 6.78003906 2.0228125 5.99757812 1.390625 5.19140625 C0 3 0 3 0 0 Z " fill="#F0BAC3" transform="translate(1075,213)"/>
<path d="M0 0 C4.95258714 3.77339973 8.43679155 7.90789714 12 13 C8.98264206 12.66700329 8.01144059 12.01183726 5.859375 9.78515625 C4.81523438 8.43744141 4.81523438 8.43744141 3.75 7.0625 C3.04359375 6.16660156 2.3371875 5.27070313 1.609375 4.34765625 C0 2 0 2 0 0 Z " fill="#DBA1AC" transform="translate(905,127)"/>
<path d="M0 0 C0.66 0 1.32 0 2 0 C3.18359375 1.64453125 3.18359375 1.64453125 4.4375 3.8125 C6.05383563 6.59421869 7.63229027 8.81176681 10 11 C9.67 11.66 9.34 12.32 9 13 C5.0747975 9.29909479 2.05419844 5.45040344 -1 1 C-0.67 0.67 -0.34 0.34 0 0 Z " fill="#E79FAC" transform="translate(889,107)"/>
<path d="M0 0 C0.66 0 1.32 0 2 0 C0.63055898 2.94956528 -0.87830409 5.52468811 -3 8 C-3.66 8 -4.32 8 -5 8 C-5.66 9.32 -6.32 10.64 -7 12 C-7.33 11.34 -7.66 10.68 -8 10 C-6.85500893 8.52018126 -5.708983 7.04116318 -4.5625 5.5625 C-3.60537109 4.32693359 -3.60537109 4.32693359 -2.62890625 3.06640625 C-1 1 -1 1 0 0 Z " fill="#F7AEBC" transform="translate(1086,82)"/>
<path d="M0 0 C0.66 0 1.32 0 2 0 C2.8353125 1.546875 2.8353125 1.546875 3.6875 3.125 C5.77145129 6.7924555 8.22036927 9.83430945 11 13 C6.62024357 12.27795772 4.98152437 10.1781532 2.26171875 6.85546875 C0.73681551 4.61296399 0.16382299 2.70307931 0 0 Z " fill="#E593A0" transform="translate(864,77)"/>
<path d="M0 0 C0.33 0.66 0.66 1.32 1 2 C-1.35264864 6.99937836 -5.32444324 10.94178253 -9 15 C-9 11.24101705 -7.96571869 10.36618615 -5.625 7.5 C-3.62903453 5.0358451 -1.76144052 2.64216078 0 0 Z " fill="#F5BCC6" transform="translate(1003,69)"/>
<path d="M0 0 C3.20728102 1.06909367 3.99713063 1.81572865 6.125 4.3125 C6.64320313 4.90675781 7.16140625 5.50101562 7.6953125 6.11328125 C9.06507125 8.09410003 9.57412871 9.64732079 10 12 C5.99620626 9.02575322 3.00297061 5.94676137 0 2 C0 1.34 0 0.68 0 0 Z " fill="#F6B1BD" transform="translate(855,68)"/>
<path d="M0 0 C0 3.80345877 -1.13786331 4.77701015 -3.5 7.6875 C-4.1496875 8.49574219 -4.799375 9.30398437 -5.46875 10.13671875 C-5.9740625 10.75160156 -6.479375 11.36648437 -7 12 C-7.99 11.67 -8.98 11.34 -10 11 C-6.7 7.37 -3.4 3.74 0 0 Z " fill="#F298A8" transform="translate(1051,124)"/>
<path d="M0 0 C-1.93467942 0.83986084 -3.87285129 1.67168027 -5.8125 2.5 C-7.43091797 3.19609375 -7.43091797 3.19609375 -9.08203125 3.90625 C-12 5 -12 5 -15 5 C-10.97762084 0.17314501 -6.10543708 -1.86108718 0 0 Z " fill="#939BD6" transform="translate(258,44)"/>
<path d="M0 0 C3.77300358 1.0197307 4.80206144 1.65872662 6.8125 5.125 C7.204375 6.07375 7.59625 7.0225 8 8 C4.74333728 7.43850643 3.04376677 6.62770014 1 4 C0.3125 1.8125 0.3125 1.8125 0 0 Z " fill="#8E93C9" transform="translate(425,107)"/>
<path d="M0 0 C1.66666667 1.66666667 3.33333333 3.33333333 5 5 C5.763125 5.721875 6.52625 6.44375 7.3125 7.1875 C9 9 9 9 9 11 C4.55092795 9.51697598 2.25420608 5.91714499 0 2 C0 1.34 0 0.68 0 0 Z " fill="#F6B2BE" transform="translate(940,56)"/>
<path d="M0 0 C2.5625 -0.5625 2.5625 -0.5625 6 0 C8.69200266 2.75648176 10.85727677 5.8049334 13 9 C12.67 9.66 12.34 10.32 12 11 C9.4000702 8.48972295 7.00908773 6.0136316 5 3 C5 2.34 5 1.68 5 1 C3.35 1 1.7 1 0 1 C0 0.67 0 0.34 0 0 Z " fill="#F5B0BC" transform="translate(927,45)"/>
<path d="M0 0 C0.66 0 1.32 0 2 0 C0.59023295 3.03852705 -1.08870228 5.5939595 -3.125 8.25 C-3.66382813 8.95640625 -4.20265625 9.6628125 -4.7578125 10.390625 C-5.16773438 10.92171875 -5.57765625 11.4528125 -6 12 C-6.33 11.01 -6.66 10.02 -7 9 C-5.63671875 6.73828125 -5.63671875 6.73828125 -3.6875 4.3125 C-3.05199219 3.50425781 -2.41648437 2.69601563 -1.76171875 1.86328125 C-1.18035156 1.24839844 -0.59898437 0.63351563 0 0 Z " fill="#D498A4" transform="translate(915,167)"/>
<path d="M0 0 C3.85103301 0.53675903 5.31797587 2.11600923 7.75 5.0625 C8.36359375 5.79597656 8.9771875 6.52945313 9.609375 7.28515625 C10.06828125 7.85105469 10.5271875 8.41695312 11 9 C10.67 9.66 10.34 10.32 10 11 C8.33035479 9.35718838 6.6643536 7.71067239 5 6.0625 C4.071875 5.14597656 3.14375 4.22945312 2.1875 3.28515625 C0 1 0 1 0 0 Z " fill="#BCBEE9" transform="translate(335,57)"/>
<path d="M0 0 C5.66104589 0.49658297 9.87674471 1.54510684 15 4 C12.03668994 5.48165503 10.10295983 4.48358108 6.9375 3.6875 C5.85339844 3.42324219 4.76929688 3.15898438 3.65234375 2.88671875 C1 2 1 2 0 0 Z " fill="#BBBFE5" transform="translate(302,39)"/>
<path d="M0 0 C3.2645028 3.2645028 3.93236055 7.41047299 4.125 11.9375 C4.08375 12.618125 4.0425 13.29875 4 14 C3.34 14 2.68 14 2 14 C1.66179834 12.4176994 1.32964061 10.83410625 1 9.25 C0.814375 8.36828125 0.62875 7.4865625 0.4375 6.578125 C0 4 0 4 0 0 Z " fill="#8E94D2" transform="translate(295,120)"/>
<path d="M0 0 C0.66 0 1.32 0 2 0 C0.61811547 3.21043882 -0.92421903 5.04936365 -3.625 7.25 C-4.57246094 8.03117187 -4.57246094 8.03117187 -5.5390625 8.828125 C-6.02117187 9.21484375 -6.50328125 9.6015625 -7 10 C-7 9.01 -7 8.02 -7 7 C-5.36739286 5.62517293 -3.69774938 4.29352333 -2 3 C-1.34 2.01 -0.68 1.02 0 0 Z " fill="#4B54BC" transform="translate(235,55)"/>
<path d="M0 0 C0.66 0.33 1.32 0.66 2 1 C-0.83430453 4.2542015 -2.68607774 5.5206753 -7 6 C-7 5.34 -7 4.68 -7 4 C-1.7265625 0.77734375 -1.7265625 0.77734375 0 0 Z " fill="#BCBEE6" transform="translate(605,50)"/>
<path d="M0 0 C0.33 0.99 0.66 1.98 1 3 C0.07421875 4.82421875 0.07421875 4.82421875 -1.3125 6.6875 C-1.76238281 7.31011719 -2.21226562 7.93273437 -2.67578125 8.57421875 C-3.11277344 9.04472656 -3.54976562 9.51523438 -4 10 C-4.66 10 -5.32 10 -6 10 C-4.6302836 6.00499382 -2.74277578 3.19990508 0 0 Z " fill="#EA9CAA" transform="translate(946,246)"/>
<path d="M0 0 C0.66 0.33 1.32 0.66 2 1 C1.34 4.63 0.68 8.26 0 12 C-0.33 12 -0.66 12 -1 12 C-1.02698189 10.37509046 -1.04638757 8.75005367 -1.0625 7.125 C-1.07410156 6.22007812 -1.08570313 5.31515625 -1.09765625 4.3828125 C-1 2 -1 2 0 0 Z " fill="#A9ADE1" transform="translate(548,123)"/>
<path d="M0 0 C0.66 0.33 1.32 0.66 2 1 C-1.44615385 6.78461538 -1.44615385 6.78461538 -4.25 7.875 C-4.8275 7.91625 -5.405 7.9575 -6 8 C-4.26440562 4.942048 -2.61527381 2.36620011 0 0 Z " fill="#F59EB1" transform="translate(865,232)"/>
<path d="M0 0 C1.13643966 3.40931897 0.86747764 4.00335456 -0.4375 7.1875 C-0.72496094 7.90292969 -1.01242187 8.61835937 -1.30859375 9.35546875 C-1.53675781 9.89816406 -1.76492188 10.44085938 -2 11 C-2.66 11 -3.32 11 -4 11 C-3.67 9.02 -3.34 7.04 -3 5 C-2.34 5 -1.68 5 -1 5 C-0.67 3.35 -0.34 1.7 0 0 Z " fill="#9EA2DC" transform="translate(553,111)"/>
<path d="M0 0 C6.57142857 5 6.57142857 5 8 10 C1.42857143 5 1.42857143 5 0 0 Z " fill="#B7BAE0" transform="translate(718,58)"/>
<path d="M0 0 C3.33523252 1.38009621 5.18607951 2.84950652 7 6 C6.67 6.99 6.34 7.98 6 9 C4.99406757 7.8803014 3.9954151 6.7540588 3 5.625 C2.443125 4.99851563 1.88625 4.37203125 1.3125 3.7265625 C0 2 0 2 0 0 Z " fill="#F7AEBB" transform="translate(995,231)"/>
<path d="M0 0 C2.49415272 0.99766109 3.78740335 1.68616685 5.3125 3.9375 C6 6 6 6 5 9 C5 8.34 5 7.68 5 7 C4.01 6.67 3.02 6.34 2 6 C0.8125 2.9375 0.8125 2.9375 0 0 Z " fill="#A0A4E1" transform="translate(345,68)"/>
<path d="M0 0 C3.53600465 1.91135386 5.78972846 3.62642766 8 7 C4.21388773 6.45912682 2.44599233 4.88277668 0 2 C0 1.34 0 0.68 0 0 Z " fill="#C6C9EA" transform="translate(480,56)"/>
<path d="M0 0 C1.1446875 1.175625 1.1446875 1.175625 2.3125 2.375 C4.90891805 5.07257717 4.90891805 5.07257717 8 7 C5.6875 7.25 5.6875 7.25 3 7 C1.1875 5.1875 1.1875 5.1875 0 3 C0 2.01 0 1.02 0 0 Z " fill="#F29DAD" transform="translate(1026,270)"/>
<path d="M0 0 C3.53600465 1.91135386 5.78972846 3.62642766 8 7 C7.67 7.66 7.34 8.32 7 9 C5.14453125 6.70507812 5.14453125 6.70507812 3.2890625 4.41015625 C2.0333609 2.86733563 2.0333609 2.86733563 0 2 C0 1.34 0 0.68 0 0 Z " fill="#F49AA9" transform="translate(1083,226)"/>
<path d="M0 0 C2.79872437 2.52788007 4.45773019 4.20411134 5 8 C2 7 2 7 0.3125 3.9375 C-0.120625 2.968125 -0.55375 1.99875 -1 1 C-0.67 0.67 -0.34 0.34 0 0 Z " fill="#A3A7D6" transform="translate(717,127)"/>
<path d="M0 0 C5.57142857 5.14285714 5.57142857 5.14285714 6 9 C0.42857143 3.85714286 0.42857143 3.85714286 0 0 Z " fill="#B2B5E2" transform="translate(711,119)"/>
<path d="M0 0 C0.66 0.33 1.32 0.66 2 1 C-0.38957269 4.24299151 -2.2047869 6.50902342 -6 8 C-5.67 7.01 -5.34 6.02 -5 5 C-4.34 5 -3.68 5 -3 5 C-2.5359375 4.0409375 -2.5359375 4.0409375 -2.0625 3.0625 C-1 1 -1 1 0 0 Z " fill="#A9ACDC" transform="translate(634,114)"/>
<path d="M0 0 C0.8971875 0.309375 0.8971875 0.309375 1.8125 0.625 C-1.1875 2.625 -1.1875 2.625 -4.1875 2.625 C-4.5175 3.615 -4.8475 4.605 -5.1875 5.625 C-5.8475 5.625 -6.5075 5.625 -7.1875 5.625 C-7.1875 4.965 -7.1875 4.305 -7.1875 3.625 C-6.5275 3.625 -5.8675 3.625 -5.1875 3.625 C-5.1875 2.965 -5.1875 2.305 -5.1875 1.625 C-2.1875 -0.375 -2.1875 -0.375 0 0 Z " fill="#A0A3CF" transform="translate(389.1875,106.375)"/>
<path d="M0 0 C3.36591866 1.44253657 5.51047079 3.33264727 8 6 C5.21788056 5.62403791 3.4120716 5.32681541 1.1875 3.5625 C0 2 0 2 0 0 Z " fill="#BDC1E6" transform="translate(328,50)"/>
<path d="M0 0 C3.465 1.98 3.465 1.98 7 4 C6.01 4.66 5.02 5.32 4 6 C2 4.6875 2 4.6875 0 3 C0 2.01 0 1.02 0 0 Z " fill="#9B9FD6" transform="translate(596,265)"/>
<path d="M0 0 C0.66 0.33 1.32 0.66 2 1 C-0.475 4.465 -0.475 4.465 -3 8 C-3.33 6.68 -3.66 5.36 -4 4 C-2.0625 1.75 -2.0625 1.75 0 0 Z " fill="#F5AEBB" transform="translate(951,240)"/>
<path d="M0 0 C0.99 0.33 1.98 0.66 3 1 C3.33 3.64 3.66 6.28 4 9 C1.3144406 6.3144406 0.93950026 3.62378672 0 0 Z " fill="#BABCE5" transform="translate(553,213)"/>
<path d="M0 0 C3.7952131 1.49097658 5.61042731 3.75700849 8 7 C7.01 7 6.02 7 5 7 C3.61328125 5.46875 3.61328125 5.46875 2.3125 3.5 C1.87550781 2.8503125 1.43851563 2.200625 0.98828125 1.53125 C0.49908203 0.77328125 0.49908203 0.77328125 0 0 Z " fill="#F9BFC7" transform="translate(915,140)"/>
<path d="M0 0 C2.35171131 0.59861742 4.6859378 1.26924352 7 2 C7.33 2.66 7.66 3.32 8 4 C4.28400809 4.20086443 3.22791555 4.1519437 0 2 C0 1.34 0 0.68 0 0 Z " fill="#B9BCE5" transform="translate(698,45)"/>
</svg>
