<?xml version="1.0" encoding="UTF-8"?>
<svg version="1.1" xmlns="http://www.w3.org/2000/svg" width="1200" height="619">
<path d="M0 0 C13.87706784 12.32803601 24.45245952 27.19789668 33.02612305 43.57788086 C33.36385742 44.22063965 33.7015918 44.86339844 34.04956055 45.52563477 C52.11940872 80.46803384 54.52979673 121.16346641 43.00878906 158.65991211 C33.18430887 188.5687595 13.141169 220.6611371 -14.97387695 236.57788086 C-23.06503207 240.21890066 -32.68121392 241.21218233 -41.22387695 238.51538086 C-50.53870546 234.2778974 -55.92032596 225.89090547 -61.7668457 217.89428711 C-64.86772431 213.6734095 -68.14174198 209.61728514 -71.47387695 205.57788086 C-76.32120616 199.68349394 -80.96229177 193.67106013 -85.50048828 187.53613281 C-89.59485434 182.02173175 -93.86367833 176.66224419 -98.22998047 171.36083984 C-100.33542817 168.77667082 -101.91002691 166.769431 -102.97387695 163.57788086 C-102.29583008 163.61268555 -101.6177832 163.64749023 -100.91918945 163.68334961 C-88.70512514 164.03860633 -79.58995954 160.74336646 -70.62231445 152.38647461 C-61.31611999 142.69122519 -56.26320013 131.61150129 -55.66137695 118.20288086 C-55.96784362 106.65930304 -60.13553338 95.91000447 -67.9387207 87.46069336 C-76.16753505 79.84785552 -87.85485085 75.37209701 -98.97387695 74.57788086 C-99.80790039 74.5147168 -100.64192383 74.45155273 -101.5012207 74.38647461 C-118.75115399 73.66869215 -135.12195843 80.24759203 -147.97387695 91.57788086 C-149.08182617 92.54467773 -149.08182617 92.54467773 -150.2121582 93.53100586 C-167.01298453 109.20017031 -176.24873613 133.18000757 -177.09814453 155.90209961 C-177.75875058 187.6439134 -174.49758931 219.43290387 -157.42700195 247.11694336 C-155.97387695 249.57788086 -155.97387695 249.57788086 -154.97387695 252.57788086 C-182.59391449 244.44410603 -209.15455316 219.58826023 -223.97387695 195.57788086 C-224.35302246 194.97331055 -224.73216797 194.36874023 -225.12280273 193.74584961 C-245.11706049 161.4339249 -253.28082158 119.07568088 -245.00512695 81.64428711 C-244.66840772 80.28705472 -244.32429903 78.93164006 -243.97387695 77.57788086 C-243.78051758 76.79912598 -243.5871582 76.02037109 -243.38793945 75.21801758 C-238.91752206 57.64334428 -231.78213872 41.1968906 -220.97387695 26.57788086 C-220.40024414 25.79413086 -219.82661133 25.01038086 -219.2355957 24.20288086 C-214.82182309 18.35843713 -209.97441069 12.92355577 -204.97387695 7.57788086 C-204.13985352 6.67811523 -203.30583008 5.77834961 -202.4465332 4.85131836 C-149.25095678 -50.60956161 -56.40572005 -48.8510384 0 0 Z " fill="#0A175D" transform="translate(606.973876953125,36.422119140625)"/>
<path d="M0 0 C284.46 0 568.92 0 862 0 C862 11.88 862 23.76 862 36 C577.54 36 293.08 36 0 36 C0 24.12 0 12.24 0 0 Z " fill="#05115B" transform="translate(0,559)"/>
<path d="M0 0 C1.84124335 -0.00739302 3.68247722 -0.01797095 5.52368164 -0.03204346 C20.84988136 -0.1385095 36.37545985 0.22776214 51.24206543 4.36373901 C52.0244458 4.57732056 52.80682617 4.7909021 53.61291504 5.01095581 C70.28842653 9.81455204 84.25946388 18.87740478 93.14831543 33.99264526 C102.65620439 51.86654436 103.64259497 72.32400645 98.56237793 91.72702026 C92.67161805 109.98837588 80.25513334 123.19674798 63.49206543 132.17623901 C54.98502318 136.17623901 54.98502318 136.17623901 50.49206543 136.17623901 C50.82303223 136.63248657 51.15399902 137.08873413 51.49499512 137.55880737 C57.54092248 145.89848385 63.56741928 154.24983244 69.49206543 162.67623901 C73.6159559 168.54113083 77.78520785 174.3705757 81.99206543 180.17623901 C86.70032074 186.67385502 91.35141735 193.20847594 95.96594238 199.7729187 C99.6616105 205.02167993 103.41148369 210.22928224 107.17956543 215.42623901 C122.49206543 236.56729449 122.49206543 236.56729449 122.49206543 238.17623901 C113.51348198 238.71323234 104.54053408 239.11966328 95.54930878 239.36791897 C91.37156871 239.48720519 87.20491639 239.64819565 83.03356934 239.91134644 C56.24880683 241.55684947 56.24880683 241.55684947 48.4704895 236.02880859 C43.43165024 230.75864717 40.13079195 224.78421722 37.03408813 218.23178101 C34.42488203 213.06159849 31.02649034 208.4501462 27.67956543 203.73873901 C26.43611023 201.91846124 25.19599938 200.09588951 23.96081543 198.26998901 C20.50266352 193.18536566 17.02118857 188.11703617 13.51818848 183.0632019 C8.75177555 176.15960695 4.14768389 169.15966671 -0.50793457 162.17623901 C-0.83793457 187.58623901 -1.16793457 212.99623901 -1.50793457 239.17623901 C-19.98793457 239.17623901 -38.46793457 239.17623901 -57.50793457 239.17623901 C-57.50793457 160.96623901 -57.50793457 82.75623901 -57.50793457 2.17623901 C-50.68927895 1.20214535 -44.12660501 0.8280122 -37.25793457 0.61373901 C-36.6047525 0.59322479 -35.95157043 0.57271057 -35.27859497 0.55157471 C-23.5214309 0.193816 -11.76229345 0.04330871 0 0 Z M-1.50793457 50.17623901 C-1.50793457 67.33623901 -1.50793457 84.49623901 -1.50793457 102.17623901 C18.6787325 102.34241513 18.6787325 102.34241513 35.24206543 92.47311401 C41.17349667 85.91431986 41.89883494 80.37573443 41.73425293 71.62545776 C41.30090469 65.45374011 39.98065685 61.27489832 35.49206543 56.92623901 C23.95327613 48.25437683 13.5901043 50.17623901 -1.50793457 50.17623901 Z " fill="#EA0804" transform="translate(57.5079345703125,247.82376098632813)"/>
<path d="M0 0 C13.16083449 10.80068484 17.90242686 24.48262552 20 41 C20.25415031 45.49634723 20.25423098 49.97694383 20.22705078 54.47949219 C20.22734283 55.76871582 20.22763489 57.05793945 20.22793579 58.38623047 C20.22850372 61.88133376 20.2168415 65.37629649 20.20278788 68.87136745 C20.19018584 72.53885094 20.18910262 76.20633854 20.18673706 79.87384033 C20.18054988 86.80083458 20.16417693 93.72776482 20.14403808 100.65473104 C20.12159251 108.54844138 20.110664 116.44215497 20.10064721 124.33588934 C20.07980786 140.55730281 20.04316667 156.77862824 20 173 C1.52 173 -16.96 173 -36 173 C-36.05607422 160.39683594 -36.05607422 160.39683594 -36.11328125 147.5390625 C-36.14742123 141.52853386 -36.18341455 135.51803864 -36.22207737 129.50753975 C-36.27187234 121.72818873 -36.31734338 113.94889255 -36.34643555 106.16943359 C-36.37195968 99.34824949 -36.41292495 92.52729531 -36.46318626 85.70624924 C-36.47983377 83.1076673 -36.49136118 80.50904721 -36.49761391 77.91041946 C-36.50727764 74.26247429 -36.5353658 70.61509105 -36.56762695 66.96728516 C-36.56619186 65.89985077 -36.56475677 64.83241638 -36.5632782 63.7326355 C-36.64353033 57.28964618 -37.06766022 50.85443334 -40 45 C-43.9640404 41.44261 -47.01407987 41.48529691 -52.19140625 41.6640625 C-59.83939933 42.57884331 -64.3579273 46.73506094 -69.1796875 52.51171875 C-78.33063238 65.02062838 -80.09511625 79.14552612 -80.20532227 94.21337891 C-80.21522186 95.07315338 -80.22512146 95.93292786 -80.23532104 96.8187561 C-80.26655785 99.62133157 -80.29154153 102.4239239 -80.31640625 105.2265625 C-80.33700857 107.185256 -80.35800583 109.14394538 -80.37937927 111.10263062 C-80.43426172 116.22842041 -80.48381849 121.35424805 -80.53222656 126.48010254 C-80.59158138 132.64606311 -80.65762105 138.81195534 -80.72252655 144.9778595 C-80.82010969 154.31853085 -80.90925686 163.65924842 -81 173 C-99.48 173 -117.96 173 -137 173 C-137 114.26 -137 55.52 -137 -5 C-119.18 -5 -101.36 -5 -83 -5 C-82.505 1.93 -82.505 1.93 -82 9 C-81.21625 7.96875 -80.4325 6.9375 -79.625 5.875 C-61.87975782 -14.60027944 -21.33005885 -13.89777206 0 0 Z " fill="#EA0804" transform="translate(845,314)"/>
<path d="M0 0 C10.98899149 9.72983621 16.0734758 23.95440282 17.18065071 38.34861183 C17.47868124 44.77720075 17.46647287 51.21036862 17.4765625 57.64453125 C17.49092882 59.74266018 17.50669551 61.84077993 17.52377319 63.93888855 C17.56540844 69.44819273 17.59050938 74.95744022 17.61126709 80.46685791 C17.64708076 89.19186392 17.70823226 97.91675633 17.76766205 106.64162827 C17.78188989 108.76273058 17.79548896 110.88383722 17.80844879 113.00494766 C17.92016298 131.02033562 18.35789669 148.99479158 19 167 C0.85 167 -17.3 167 -36 167 C-36.33 163.37 -36.66 159.74 -37 156 C-38.381875 157.051875 -39.76375 158.10375 -41.1875 159.1875 C-57.15104216 170.31019369 -76.97757777 172.12222554 -95.75 168.875 C-108.20761683 166.06580084 -118.69512182 160.22394903 -126.25 149.8125 C-134.26297375 137.03977617 -135.6030519 121.69559349 -132.9375 107.125 C-129.16160216 91.26972528 -120.28163346 78.4575302 -106.61328125 69.55078125 C-92.62341459 61.24887234 -77.92421369 56.70768437 -62 54 C-61.27683594 53.86722656 -60.55367187 53.73445313 -59.80859375 53.59765625 C-52.96414108 52.51850929 -45.91018227 52.9190213 -39 53 C-39.92098002 46.86821195 -40.78588302 41.799411 -45 37 C-55.58856936 30.60273934 -70.57425332 31.83920168 -82.3125 34.125 C-93.79782765 37.00981234 -104.2396695 41.85575315 -114.48828125 47.6796875 C-117 49 -117 49 -119 49 C-119.71419993 42.07679616 -120.42604163 35.15335278 -121.13623047 28.22973633 C-121.37819767 25.87356042 -121.62070823 23.51744025 -121.86376953 21.16137695 C-122.21268695 17.77830212 -122.55966116 14.39503283 -122.90625 11.01171875 C-123.0156189 9.95538742 -123.12498779 8.89905609 -123.2376709 7.81071472 C-123.33777466 6.82992447 -123.43787842 5.84913422 -123.54101562 4.83862305 C-123.62984009 3.97480515 -123.71866455 3.11098724 -123.81018066 2.22099304 C-124 0 -124 0 -124 -3 C-110.19059739 -8.01544985 -96.54699192 -11.84171079 -82 -14 C-81.30632324 -14.103125 -80.61264648 -14.20625 -79.89794922 -14.3125 C-53.43765177 -17.74333273 -21.91070934 -16.91232877 0 0 Z M-77.8125 105.75 C-79.55962644 109.06034483 -80.1138282 112.30058342 -80 116 C-78.8258886 119.52233421 -78.00570499 121.34924971 -74.875 123.375 C-67.86785398 124.89829261 -61.33186306 124.52882487 -55 121 C-47.5898716 115.79362726 -42.13073216 108.91033448 -40 100 C-39.83201531 96.74955291 -39.83201531 96.74955291 -40 94 C-53.227847 94 -67.98640994 96.26274063 -77.8125 105.75 Z " fill="#EA0804" transform="translate(659,320)"/>
<path d="M0 0 C15.4181886 13.02945516 23.45457945 31.94309865 25.80371094 51.63696289 C26.22149957 56.66653523 26.18459464 61.70629497 26.1875 66.75 C26.19974609 67.8534375 26.21199219 68.956875 26.22460938 70.09375 C26.22654297 71.19203125 26.22847656 72.2903125 26.23046875 73.421875 C26.23457764 74.39737305 26.23868652 75.37287109 26.24291992 76.37792969 C25.8908899 81.62689196 24.86486259 86.81082446 24 92 C-25.5 92.495 -25.5 92.495 -76 93 C-72.68346791 106.94527463 -72.68346791 106.94527463 -63.375 116.875 C-48.25040054 125.09118279 -28.12833762 123.41164656 -12 119 C-4.57742428 116.64371843 2.69360984 113.82962751 9.859375 110.78515625 C12 110 12 110 15 110 C15.71850741 115.54932317 16.43035777 121.09944614 17.13623047 126.65039062 C17.37694451 128.53603781 17.61943067 130.42145971 17.86376953 132.30664062 C18.21600493 135.02676055 18.56171924 137.74764478 18.90625 140.46875 C19.0156189 141.30241089 19.12498779 142.13607178 19.2376709 142.99499512 C19.86886687 148.04075283 20.10211596 152.91462527 20 158 C-1.50037198 165.65634024 -21.64156628 170.23054405 -44.5 170.25 C-45.21242859 170.25067474 -45.92485718 170.25134949 -46.65887451 170.25204468 C-71.11687903 170.2152528 -94.11013439 165.29660091 -112.3984375 147.8515625 C-132.89331355 125.38720887 -135.20117187 95.02186222 -134 66 C-132.13758011 42.41351458 -122.92335564 21.4693759 -106 5 C-105.31035156 4.31292969 -104.62070313 3.62585938 -103.91015625 2.91796875 C-76.95353294 -22.38487399 -28.6378235 -21.21320259 0 0 Z M-68.4921875 37.24609375 C-71.26966679 40.4768922 -74 44.63182051 -74 49 C-59.48 49 -44.96 49 -30 49 C-31.05455074 42.67269558 -32.54322366 37.69891486 -37.74609375 33.63671875 C-48.04630661 27.54519501 -59.78058849 29.16254025 -68.4921875 37.24609375 Z " fill="#EA0804" transform="translate(306,320)"/>
<path d="M0 0 C15.29523767 13.11981531 23.54176466 31.1759704 26 51 C26.10057461 53.63420953 26.16369424 56.24143697 26.16796875 58.875 C26.17129715 59.60315918 26.17462555 60.33131836 26.17805481 61.08154297 C26.18308537 62.61099624 26.18546434 64.14046034 26.18530273 65.66992188 C26.18749404 67.99367467 26.20570378 70.31695561 26.22460938 72.640625 C26.22754328 74.13541506 26.2295281 75.63020735 26.23046875 77.125 C26.23765427 77.81062012 26.24483978 78.49624023 26.25224304 79.20263672 C26.22954784 84.05339277 25.4017678 87.0938127 24 92 C-9 92 -42 92 -76 92 C-71.61939468 107.64841171 -71.61939468 107.64841171 -60.484375 117.74609375 C-43.97292248 126.07970422 -22.61472198 122.60154444 -5.63037109 117.25390625 C2.49239054 114.49504472 2.49239054 114.49504472 10.1875 110.7578125 C12.50572975 109.78855265 13.64048003 110.31547053 16 111 C16.74051088 116.88867961 17.47061253 122.77852224 18.19116211 128.66967773 C18.43766258 130.67295998 18.68698749 132.67589681 18.93920898 134.6784668 C19.30157394 137.55951838 19.65371239 140.44166564 20.00390625 143.32421875 C20.17570152 144.66355721 20.17570152 144.66355721 20.35096741 146.029953 C20.85424575 150.2524064 21.23190525 153.84746833 20 158 C-14.99881465 170.23154002 -56.28644831 177.9124697 -91.5390625 161.84936523 C-97.54141598 158.91688827 -102.88279476 155.29741688 -108 151 C-108.63035156 150.48179687 -109.26070312 149.96359375 -109.91015625 149.4296875 C-119.14353171 141.05865462 -125.51710923 128.79317058 -129 117 C-129.29197266 116.02522705 -129.29197266 116.02522705 -129.58984375 115.03076172 C-137.71766431 86.51034563 -135.46331542 51.32957283 -121.4453125 25.08984375 C-109.51410799 5.25207549 -93.68563835 -6.92707862 -71.359375 -13.203125 C-47.12226799 -18.95239224 -20.06713987 -15.09449084 0 0 Z M-67.6484375 36.33203125 C-70.14521102 39.41330956 -74 44.90146839 -74 49 C-59.48 49 -44.96 49 -30 49 C-31.0381686 41.73281982 -32.19042043 38.73364498 -37.3125 33.75 C-46.65246076 27.66816509 -59.36775958 28.81465604 -67.6484375 36.33203125 Z " fill="#EA0804" transform="translate(1174,320)"/>
<path d="M0 0 C1.07326538 -0.00409378 1.07326538 -0.00409378 2.16821289 -0.00827026 C15.48068309 -0.01586532 28.55771191 1.36479057 41.3125 5.4375 C41.6425 5.7675 41.9725 6.0975 42.3125 6.4375 C42.11134891 16.41382062 40.72689118 26.43137235 39.58300781 36.33740234 C39.308104 38.72569128 39.04057369 41.11473732 38.7734375 43.50390625 C38.59939502 45.02869574 38.42493222 46.55343733 38.25 48.078125 C38.13120483 49.14513641 38.13120483 49.14513641 38.01000977 50.23370361 C37.42726614 55.20796772 37.42726614 55.20796772 36.3125 57.4375 C31.75405615 56.48131552 27.24185265 55.45404014 22.76953125 54.1484375 C9.14230024 50.1888215 -3.42715582 47.7295872 -16.6875 54.4375 C-23.84215329 58.89228412 -27.39097278 66.05747171 -29.73046875 73.9609375 C-33.40062916 90.39912073 -33.016174 106.68808055 -25.41796875 121.84375 C-21.6152595 127.54352188 -15.96127084 130.38907921 -9.39453125 132 C7.2969435 134.69761208 22.58086973 130.00511829 37.3125 122.4375 C38.81914584 123.94414584 38.60231988 125.37615069 38.79321289 127.47900391 C38.87322037 128.33724762 38.95322784 129.19549133 39.03565979 130.07974243 C39.11799362 131.01506805 39.20032745 131.95039368 39.28515625 132.9140625 C39.37252548 133.87267181 39.45989471 134.83128113 39.5499115 135.81893921 C39.73441603 137.85484627 39.9166858 139.89095688 40.09692383 141.92724609 C40.37201715 145.02886895 40.65516038 148.12967712 40.93945312 151.23046875 C41.11767248 153.20828969 41.29542167 155.18615307 41.47265625 157.1640625 C41.55701431 158.08724274 41.64137238 159.01042297 41.72828674 159.96157837 C42.15308542 164.80984413 42.40188561 169.57076509 42.3125 174.4375 C35.00721476 177.58677491 27.8172276 179.97358694 20.0625 181.6875 C18.96542725 181.93161621 18.96542725 181.93161621 17.84619141 182.18066406 C-9.02281954 187.86460934 -38.45426849 185.57858791 -62.0859375 170.953125 C-78.51872378 159.30602736 -86.47887152 139.63472001 -89.77734375 120.44921875 C-90.87482252 113.02025425 -91.03200716 105.68738006 -91 98.1875 C-90.99817719 97.50840576 -90.99635437 96.82931152 -90.99447632 96.12963867 C-90.86749492 67.98030199 -83.11810451 42.57834985 -63.38671875 22.04296875 C-46.01150968 5.35025562 -23.50347178 0.00777858 0 0 Z " fill="#EA0804" transform="translate(982.6875,305.5625)"/>
<path d="M0 0 C2.99573708 2.99573708 5.13796152 5.46661992 7.5 8.875 C19.52357902 25.5744153 33.67679892 38.65791777 50.26757812 50.73242188 C50.83927734 51.15072266 51.41097656 51.56902344 52 52 C52.6858102 52.36180013 53.37162041 52.72360025 54.07821274 53.09636402 C56.47982705 55.47529508 56.47778776 57.16593825 56.51632524 60.46482819 C56.49884819 61.58398636 56.49884819 61.58398636 56.48101807 62.72575378 C56.48443577 63.52052622 56.48785347 64.31529865 56.49137473 65.13415509 C56.4979809 67.80618978 56.47593309 70.47722729 56.45410156 73.14916992 C56.45297367 75.06091793 56.4536058 76.97266767 56.45587158 78.88441467 C56.45702194 84.08256928 56.43346052 89.28035668 56.40557575 94.47842574 C56.3806157 99.90766155 56.37822436 105.33690524 56.37347412 110.76618958 C56.36102846 121.050968 56.32818531 131.33557689 56.28807616 141.62028056 C56.24340793 153.32747954 56.22138386 165.0346865 56.20129442 176.74194944 C56.15945406 200.82808202 56.0860818 224.9139821 56 249 C37.52 249 19.04 249 0 249 C0 166.83 0 84.66 0 0 Z " fill="#EA0805" transform="translate(358,238)"/>
<path d="M0 0 C18.48 0 36.96 0 56 0 C56 58.41 56 116.82 56 177 C37.52 177 19.04 177 0 177 C0 118.59 0 60.18 0 0 Z " fill="#E90905" transform="translate(448,309)"/>
<path d="M0 0 C2.62544976 2.62544976 2.60270459 4.48188864 3.25 8.125 C5.45355619 18.82953029 9.62469127 28.66396508 13.765625 38.73828125 C14.25611328 39.93364502 14.74660156 41.12900879 15.25195312 42.3605957 C16.23379204 44.74590741 17.22185583 47.12866847 18.21679688 49.50854492 C24.31236361 64.24412868 27.50918168 80.84696157 21.3203125 96.2109375 C20.88460937 97.13132812 20.44890625 98.05171875 20 99 C19.50242187 100.06476563 19.00484375 101.12953125 18.4921875 102.2265625 C14.25726616 110.63731325 8.97634022 119.68243986 1 125 C-12.89276318 112.0815345 -23.38660789 95.08237445 -24.125 75.72265625 C-23.6380647 63.16885546 -18.11991038 52.18658681 -13.0222168 40.95874023 C-7.12523542 27.78208503 -3.25073833 14.0355408 0 0 Z " fill="#EA0804" transform="translate(475,162)"/>
<path d="M0 0 C30.31428571 0 30.31428571 0 37 6 C40.92530555 10.46672701 41.13182867 16.26545265 41 22 C39.92713327 27.13443364 36.98945492 30.69167153 33 34 C30.83984375 34.6328125 30.83984375 34.6328125 29 35 C32.89579561 42.47485988 37.18188642 49.60982295 41.74755859 56.69140625 C45 61.78976063 45 61.78976063 45 64 C41.4067201 64.86150358 38.56563839 65.06612078 35 64 C30.72806614 59.19691983 28.06575291 53.28996309 25.37109375 47.5 C24.83613281 46.4275 24.30117188 45.355 23.75 44.25 C23.31171875 43.26515625 22.8734375 42.2803125 22.421875 41.265625 C19.08521933 37.67485186 19.08521933 37.67485186 8 38 C8 46.58 8 55.16 8 64 C5.36 64 2.72 64 0 64 C0 42.88 0 21.76 0 0 Z M8 8 C8 15.59 8 23.18 8 31 C19.51741033 31.46360217 19.51741033 31.46360217 29.5625 27 C31.64723784 22.64924278 31.78560343 18.73766964 31 14 C28.45306858 10.08164397 25.39138402 9.22331412 21 8 C17.56932474 7.76035114 17.56932474 7.76035114 14.125 7.875 C12.10375 7.91625 10.0825 7.9575 8 8 Z " fill="#05115B" transform="translate(879,533)"/>
<path d="M0 0 C2.97 0 5.94 0 9 0 C11.6145973 6.74021566 14.22890344 13.4805442 16.84301758 20.22094727 C17.73032205 22.50873302 18.6176905 24.79649396 19.50512695 27.08422852 C21.6069771 32.5026728 23.70785042 37.92148918 25.80615234 43.34130859 C27.10716927 46.70103478 28.41294227 50.0587377 29.72900391 53.41259766 C30.18581543 54.58226074 30.64262695 55.75192383 31.11328125 56.95703125 C31.48880127 57.91198486 31.86432129 58.86693848 32.2512207 59.85083008 C33 62 33 62 33 64 C30.03 64 27.06 64 24 64 C23.20688633 62.27149655 22.4155741 60.54216646 21.625 58.8125 C21.18414063 57.84957031 20.74328125 56.88664063 20.2890625 55.89453125 C17 48.50909091 17 48.50909091 17 45 C8.75 45 0.5 45 -8 45 C-8.99 48.3 -9.98 51.6 -11 55 C-12.21876703 58.0734125 -13.5978257 61.00224804 -15 64 C-17.97 64 -20.94 64 -24 64 C-21.99802522 56.91481143 -19.58963383 50.08325154 -16.875 43.2421875 C-16.48683105 42.2542923 -16.09866211 41.26639709 -15.69873047 40.24856567 C-14.46958647 37.12254532 -13.23499062 33.99871454 -12 30.875 C-10.7662031 27.74368527 -9.53353586 24.61192833 -8.30126953 21.48001099 C-7.5377688 19.54065495 -6.77318397 17.60172522 -6.00732422 15.66329956 C-3.95398164 10.46014127 -1.94770796 5.24365243 0 0 Z M4 11 C3.38511719 12.86205078 3.38511719 12.86205078 2.7578125 14.76171875 C2.21362211 16.4036725 1.66934681 18.0455981 1.125 19.6875 C0.85558594 20.50412109 0.58617187 21.32074219 0.30859375 22.16210938 C-0.78268423 25.44925157 -1.8727708 28.69190576 -3.1953125 31.89453125 C-4.17850203 34.09138458 -4.17850203 34.09138458 -4 37 C1.94 37 7.88 37 14 37 C11.03 28.42 8.06 19.84 5 11 C4.67 11 4.34 11 4 11 Z " fill="#05115B" transform="translate(1040,533)"/>
<path d="M0 0 C11.88 0 23.76 0 36 0 C36 2.64 36 5.28 36 8 C27.09 8 18.18 8 9 8 C9 14.27 9 20.54 9 27 C17.58 27 26.16 27 35 27 C35 29.64 35 32.28 35 35 C26.42 35 17.84 35 9 35 C9 41.93 9 48.86 9 56 C17.91 56 26.82 56 36 56 C36 58.64 36 61.28 36 64 C24.12 64 12.24 64 0 64 C0 42.88 0 21.76 0 0 Z " fill="#06115B" transform="translate(933,533)"/>
<path d="M0 0 C15.84 0 31.68 0 48 0 C48 2.64 48 5.28 48 8 C41.73 8 35.46 8 29 8 C29 26.48 29 44.96 29 64 C26.03 64 23.06 64 20 64 C20 45.52 20 27.04 20 8 C13.4 8 6.8 8 0 8 C0 5.36 0 2.72 0 0 Z " fill="#06115B" transform="translate(974,533)"/>
<path d="M0 0 C2.97 0 5.94 0 9 0 C9 18.48 9 36.96 9 56 C18.24 56 27.48 56 37 56 C37 58.64 37 61.28 37 64 C24.79 64 12.58 64 0 64 C0 42.88 0 21.76 0 0 Z " fill="#05125C" transform="translate(1110,533)"/>
<path d="M0 0 C7.59 0 15.18 0 23 0 C23 1.98 23 3.96 23 6 C21.02 6.66 19.04 7.32 17 8 C16.67 24.17 16.34 40.34 16 57 C19.465 57.495 19.465 57.495 23 58 C23 59.98 23 61.96 23 64 C15.41 64 7.82 64 0 64 C0 62.02 0 60.04 0 58 C3.465 57.505 3.465 57.505 7 57 C6.67 40.83 6.34 24.66 6 8 C4.02 7.34 2.04 6.68 0 6 C0 4.02 0 2.04 0 0 Z " fill="#05115C" transform="translate(1076,533)"/>
</svg>
