<?xml version="1.0" encoding="UTF-8"?>
<svg version="1.1" xmlns="http://www.w3.org/2000/svg" width="3264" height="968">
<path d="M0 0 C1.31378632 0.09361313 1.31378632 0.09361313 2.65411377 0.18911743 C35.31217617 2.61070065 70.32999662 9.31098154 100.0625 23.4375 C103.3718225 25.00479513 106.70471892 26.42063659 110.11328125 27.75390625 C115.90270511 30.05200639 121.51026513 32.68244574 127.125 35.375 C128.10984375 35.83970703 129.0946875 36.30441406 130.109375 36.78320312 C135.08867769 39.16330981 139.86072126 41.64968203 144.49365234 44.64916992 C146.7564832 46.1021948 149.05907292 47.47310031 151.375 48.83984375 C152.21546875 49.33806641 153.0559375 49.83628906 153.921875 50.34960938 C155.63891553 51.36552502 157.35766702 52.3785545 159.078125 53.38867188 C164.48826716 56.60405545 169.54470649 60.06095903 174.5 63.9375 C175.62610153 64.80364623 176.75239447 65.66954367 177.87890625 66.53515625 C178.94034054 67.35646545 180.00153843 68.17808024 181.0625 69 C184.49368395 71.65482429 187.9307334 74.28197321 191.5 76.75 C194.50101769 78.93824206 196.88625464 81.30453593 199.5 83.9375 C201.32381793 85.61457396 203.15732722 87.28116492 205 88.9375 C207.79691781 91.45158343 210.53765205 93.97520662 213.1953125 96.63671875 C215.42092344 98.96001587 215.42092344 98.96001587 217.875 100.75 C222.21571566 104.36726305 226.68998288 108.50744865 228.5 113.9375 C229.09554687 114.23011719 229.69109375 114.52273438 230.3046875 114.82421875 C233.20771914 116.29639672 234.60489497 118.20436949 236.625 120.75 C237.79869141 122.22533203 237.79869141 122.22533203 238.99609375 123.73046875 C239.83134539 124.79899776 240.66596641 125.86801998 241.5 126.9375 C241.92684082 127.47971191 242.35368164 128.02192383 242.79345703 128.58056641 C257.5 147.27345797 257.5 147.27345797 257.5 150.9375 C258.16 150.9375 258.82 150.9375 259.5 150.9375 C260.95647434 152.90820524 262.26927362 154.86210471 263.5625 156.9375 C263.96025635 157.56760986 264.3580127 158.19771973 264.76782227 158.84692383 C269.2760127 166.06411155 273.43266511 173.46530643 277.5 180.9375 C277.91427246 181.69224609 278.32854492 182.44699219 278.75537109 183.22460938 C284.41396993 193.56759245 289.43750098 203.9620438 293.71630859 214.94824219 C294.47109856 216.86413896 295.2545709 218.76505794 296.05078125 220.6640625 C307.36638059 247.97354514 313.50350363 276.74365621 317.5 305.9375 C317.63596336 306.89230255 317.63596336 306.89230255 317.77467346 307.86639404 C318.68247073 314.92546472 318.69759444 321.97714399 318.73828125 329.0859375 C318.74235678 329.76110035 318.7464323 330.4362632 318.75063133 331.13188553 C318.7714035 334.72268602 318.78572947 338.31344959 318.79516602 341.90429688 C318.8039207 344.8110926 318.82455237 347.71739373 318.85668945 350.62402344 C319.05346776 368.82345472 318.22290105 386.21056749 314.99093628 404.19509888 C314.39230981 407.53906419 313.85534624 410.89109118 313.32539368 414.24650574 C312.19388968 421.21333372 310.49799979 427.945761 308.45703125 434.703125 C307.59304668 437.6230402 306.87041127 440.5337351 306.1875 443.5 C299.8759183 468.84651063 289.23848791 493.20276965 276.5 515.9375 C276.06719727 516.7217334 275.63439453 517.5059668 275.18847656 518.31396484 C267.20720718 532.74029873 258.16782376 546.24814349 247.890625 559.14453125 C246.58870279 560.8231332 245.40585952 562.53126873 244.25 564.3125 C242.78355893 566.5121616 241.392422 568.13109718 239.5 569.9375 C238.84 570.9275 238.18 571.9175 237.5 572.9375 C236.84 572.9375 236.18 572.9375 235.5 572.9375 C235.27699219 573.47761719 235.05398438 574.01773438 234.82421875 574.57421875 C233.07301645 577.69952079 230.75273146 580.15918089 228.3125 582.75 C227.78930176 583.30969482 227.26610352 583.86938965 226.72705078 584.44604492 C208.42352716 603.89320398 208.42352716 603.89320398 198.453125 611.421875 C196.64018366 612.82871748 195.1135874 614.31168845 193.5 615.9375 C170.1469428 635.9375 170.1469428 635.9375 164.5 635.9375 C164.5 636.5975 164.5 637.2575 164.5 637.9375 C162.6550293 639.26269531 162.6550293 639.26269531 160.07421875 640.765625 C159.13126953 641.31863281 158.18832031 641.87164063 157.21679688 642.44140625 C156.21712891 643.01761719 155.21746094 643.59382812 154.1875 644.1875 C153.23037109 644.74824219 152.27324219 645.30898438 151.28710938 645.88671875 C135.85641965 654.88535666 120.13872395 663.3858776 103.5 669.9375 C102.07159064 670.51035697 100.6432071 671.08327832 99.21484375 671.65625 C75.89811111 680.9375 75.89811111 680.9375 69.5 680.9375 C69.5 681.5975 69.5 682.2575 69.5 682.9375 C68.91226807 683.04852051 68.32453613 683.15954102 67.71899414 683.27392578 C63.11035798 684.16725751 58.54651365 685.14925424 53.99609375 686.3046875 C37.39768718 690.47182994 20.88139637 692.77775584 3.89916992 694.57666016 C1.03951074 694.88022808 -1.81594838 695.20670122 -4.671875 695.54296875 C-7.57109663 695.84176608 -10.28513613 696.02595299 -13.1875 695.9375 C-15.61979388 695.86421054 -17.65170661 695.96844629 -20.046875 696.45703125 C-25.07937991 697.15725535 -29.99715972 696.85725275 -35.0625 696.625 C-36.73469604 696.55007324 -36.73469604 696.55007324 -38.44067383 696.47363281 C-79.16003294 694.51237262 -122.32764785 687.95558361 -159.62768555 670.79394531 C-161.11144085 670.11523706 -162.62232267 669.49587599 -164.140625 668.8984375 C-167.26948198 667.62410171 -170.23942863 666.09454632 -173.25 664.5625 C-177.08232858 662.62008689 -180.90762463 660.71684957 -184.875 659.0625 C-191.37352144 656.25298885 -197.45547801 652.55373119 -203.58789062 649.03417969 C-204.84525706 648.31302417 -206.10433042 647.59483516 -207.36523438 646.87988281 C-216.85101423 641.4984279 -225.76117328 635.45233762 -234.5 628.9375 C-236.00626953 627.81794922 -236.00626953 627.81794922 -237.54296875 626.67578125 C-240.53708309 624.44063125 -243.52116425 622.19296227 -246.5 619.9375 C-247.35207031 619.29425781 -248.20414062 618.65101563 -249.08203125 617.98828125 C-253.18551547 614.85112333 -256.88634555 611.63929236 -260.5 607.9375 C-261.97410118 606.61931337 -263.45404738 605.30765385 -264.9375 604 C-274.33324274 595.58884108 -283.47230334 586.67444307 -291.5 576.9375 C-292.55574219 575.66326172 -292.55574219 575.66326172 -293.6328125 574.36328125 C-295.93521039 571.56528246 -298.2196458 568.75348144 -300.5 565.9375 C-301.19480469 565.08800781 -301.88960938 564.23851562 -302.60546875 563.36328125 C-307.1780922 557.72931387 -311.42432944 551.93967518 -315.5 545.9375 C-315.99113281 545.22078125 -316.48226562 544.5040625 -316.98828125 543.765625 C-348.62619586 497.03361097 -366.45073598 445.46460922 -374.5 389.9375 C-374.68264404 388.77669922 -374.86528809 387.61589844 -375.0534668 386.41992188 C-375.83735839 379.96185515 -375.70698526 373.43733378 -375.73828125 366.94140625 C-375.74439454 365.85734654 -375.74439454 365.85734654 -375.75063133 364.75138664 C-375.77142614 360.91002577 -375.7857442 357.06869969 -375.79516602 353.22729492 C-375.80393642 350.10599708 -375.8246037 346.98515751 -375.85668945 343.86401367 C-376.03925057 325.71243911 -375.54995833 308.37781578 -371.99093628 290.49082947 C-371.34700179 287.14176568 -370.82908196 283.77913714 -370.32539368 280.40653992 C-369.22810163 273.13425937 -367.60229978 266.18316259 -365.45703125 259.13671875 C-364.58714622 256.22881737 -363.8672811 253.33183925 -363.1875 250.375 C-357.24839857 226.46063944 -347.43997208 203.51923158 -335.59741211 181.97729492 C-334.14184747 179.27179047 -332.78318628 176.52284925 -331.43823242 173.76098633 C-329.68265499 170.34896243 -327.5713435 167.16345795 -325.5 163.9375 C-324.76330078 162.73867188 -324.76330078 162.73867188 -324.01171875 161.515625 C-318.93869071 153.33097832 -313.2548565 145.6475321 -307.5 137.9375 C-306.65601658 136.79965226 -305.81225637 135.66163892 -304.96875 134.5234375 C-296.75015006 123.48311825 -296.75015006 123.48311825 -293.5 119.9375 C-292.84 119.9375 -292.18 119.9375 -291.5 119.9375 C-291.22849121 119.34453125 -290.95698242 118.7515625 -290.67724609 118.140625 C-289.52077117 115.97637164 -288.3387243 114.46746946 -286.6640625 112.6875 C-286.10050049 112.08502441 -285.53693848 111.48254883 -284.95629883 110.86181641 C-284.35197021 110.22679199 -283.7476416 109.59176758 -283.125 108.9375 C-282.18660278 107.94435791 -282.18660278 107.94435791 -281.22924805 106.93115234 C-279.32693407 104.92600407 -277.4155941 102.929959 -275.5 100.9375 C-274.9539209 100.36805664 -274.4078418 99.79861328 -273.84521484 99.21191406 C-267.97179803 93.11863673 -261.91715836 87.4248399 -255.28125 82.15234375 C-252.30463842 79.78192414 -249.40400896 77.33367769 -246.5 74.875 C-241.00413434 70.29628779 -235.37217871 66.02080308 -229.5 61.9375 C-228.69103271 61.37361572 -228.69103271 61.37361572 -227.86572266 60.79833984 C-205.8022 45.50722329 -181.72314407 31.97430085 -156.51171875 22.68408203 C-154.19006574 21.82247828 -151.87684209 20.93964166 -149.5625 20.05859375 C-119.8185461 8.84705903 -89.34512156 2.40735715 -57.6875 0.0625 C-56.86662903 0.00083649 -56.04575806 -0.06082703 -55.20001221 -0.12435913 C-36.750233 -1.46832912 -18.44676017 -1.31933196 0 0 Z M-112.5 133.9375 C-113.4597876 134.31745117 -113.4597876 134.31745117 -114.43896484 134.70507812 C-131.10356089 141.3725876 -147.45860785 150.01041699 -161.4375 161.3125 C-163.5 162.9375 -163.5 162.9375 -166.5 163.9375 C-167.85541292 165.2483819 -169.18638005 166.58474053 -170.5 167.9375 C-172.01075876 169.1377909 -173.53283357 170.32390013 -175.0625 171.5 C-180.7693731 176.13010459 -185.98085063 181.19258404 -191.1875 186.375 C-191.98293213 187.16140869 -192.77836426 187.94781738 -193.59790039 188.75805664 C-198.99493556 194.18199012 -203.81569606 199.89337927 -208.5 205.9375 C-209.23565186 206.81849365 -209.97130371 207.6994873 -210.72924805 208.60717773 C-212.70167327 210.71510899 -212.70167327 210.71510899 -212.5 212.9375 C-213.16 212.9375 -213.82 212.9375 -214.5 212.9375 C-215.82417192 214.74514829 -215.82417192 214.74514829 -217.125 217.125 C-219.45876861 221.16377917 -221.87675041 225.12333087 -224.375 229.0625 C-228.91828261 236.45613101 -232.83033148 244.07674034 -236.5 251.9375 C-236.83 252.64052246 -237.16 253.34354492 -237.5 254.06787109 C-256.36617926 294.86782614 -261.42118983 339.75723823 -254.5 383.9375 C-254.38785156 384.68290039 -254.27570313 385.42830078 -254.16015625 386.19628906 C-250.24643518 411.69587294 -240.9941901 435.49653645 -228.5 457.9375 C-227.3528781 460.04096446 -226.20686594 462.14503492 -225.0625 464.25 C-224.61003906 465.07113281 -224.15757812 465.89226562 -223.69140625 466.73828125 C-222.58270783 468.78482947 -221.52743652 470.84917554 -220.5 472.9375 C-219.84 472.9375 -219.18 472.9375 -218.5 472.9375 C-218.25765625 473.64261719 -218.0153125 474.34773438 -217.765625 475.07421875 C-216.30679946 478.37458642 -214.45182115 480.89287494 -212.25 483.75 C-211.43735982 484.80978836 -210.62486008 485.86968442 -209.8125 486.9296875 C-209.049375 487.92226563 -208.28625 488.91484375 -207.5 489.9375 C-205.98914372 491.99469271 -204.48231899 494.05448584 -202.984375 496.12109375 C-200.98434943 498.56849347 -198.75256294 500.72023363 -196.5 502.9375 C-195.44355992 504.01390773 -194.38897199 505.0921354 -193.3359375 506.171875 C-186.39735283 513.24147071 -179.37473923 519.8983115 -171.5 525.9375 C-170.51128906 526.69675781 -169.52257812 527.45601562 -168.50390625 528.23828125 C-165.52178578 530.4986146 -162.51736026 532.72449694 -159.5 534.9375 C-158.70207031 535.53304688 -157.90414062 536.12859375 -157.08203125 536.7421875 C-138.23924483 550.44029354 -116.50451354 559.67576685 -94.5 566.9375 C-93.81760254 567.16469727 -93.13520508 567.39189453 -92.43212891 567.62597656 C-52.28406573 580.69117421 -3.43105999 580.77662079 36.5 566.9375 C38.60344855 566.33083789 40.70764203 565.7267538 42.8125 565.125 C50.05776474 562.90311881 56.87557257 559.85712504 63.76123047 556.72314453 C65.93175177 555.74241755 68.12252531 554.81132192 70.3125 553.875 C92.52689091 543.89948107 113.6926623 528.44352611 130.5 510.9375 C135.5 505.9375 135.5 505.9375 137.34765625 504.23046875 C148.08538738 494.03839365 156.93807396 481.62036919 164.5 468.9375 C165.27409388 467.6884017 166.04888727 466.43973674 166.82421875 465.19140625 C173.37076541 454.51300198 178.63025538 443.4668116 183.5 431.9375 C183.98210937 430.82117188 184.46421875 429.70484375 184.9609375 428.5546875 C200.12125559 391.57123638 202.48440547 350.05577983 196.5 310.9375 C196.2925863 309.45838691 196.08552272 307.97922466 195.87890625 306.5 C191.98249462 280.28721 181.96723951 254.68741008 168.5 231.9375 C168.15179199 231.33744141 167.80358398 230.73738281 167.44482422 230.11914062 C161.08906121 219.22666839 153.68075207 209.51815168 145.5 199.9375 C144.81808594 199.13570313 144.13617187 198.33390625 143.43359375 197.5078125 C141.80966147 195.63143599 140.15894449 193.78293006 138.5 191.9375 C137.79488281 191.12925781 137.08976562 190.32101562 136.36328125 189.48828125 C131.70107203 184.19283479 126.90481915 179.45857075 121.5 174.9375 C120.08267578 173.68839844 120.08267578 173.68839844 118.63671875 172.4140625 C107.79553975 162.91136317 95.95403738 155.16765544 83.5 147.9375 C81.91832031 146.98230469 81.91832031 146.98230469 80.3046875 146.0078125 C71.98488533 141.04139998 63.57527006 137.33396579 54.5 133.9375 C53.18128906 133.380625 53.18128906 133.380625 51.8359375 132.8125 C48.40446334 131.52713175 45.13754352 131.30741968 41.5 130.9375 C41.5 130.2775 41.5 129.6175 41.5 128.9375 C31.6708785 126.19657926 21.82718045 123.66078092 11.8125 121.6875 C11.02012939 121.52475586 10.22775879 121.36201172 9.41137695 121.19433594 C-30.20817489 113.6736069 -75.36407474 118.93575762 -112.5 133.9375 Z " fill="#FE2828" transform="translate(384.5,142.0625)"/>
<path d="M0 0 C1.09570312 0.34289062 2.19140625 0.68578125 3.3203125 1.0390625 C19.4012413 6.32333934 35.38212055 13.92276921 49 24 C50.31871094 24.91458984 50.31871094 24.91458984 51.6640625 25.84765625 C67.71323318 37.10982645 81.91427521 50.57591067 94 66 C94.77859375 66.96164062 95.5571875 67.92328125 96.359375 68.9140625 C115.22673597 92.64848156 128.79357704 119.96647371 136.3125 149.3125 C136.69498901 150.79834595 136.69498901 150.79834595 137.08520508 152.31420898 C141.27745696 169.44508608 141.27745696 169.44508608 139 174 C102.7 174 66.4 174 29 174 C27.0388787 168.7703432 25.33698018 163.82742532 23.8125 158.5 C18.97495541 142.40028536 10.25743082 125.80832572 -1.9375 114.0625 C-2.618125 113.381875 -3.29875 112.70125 -4 112 C-4 111.34 -4 110.68 -4 110 C-4.59167969 109.72929687 -5.18335937 109.45859375 -5.79296875 109.1796875 C-7.967961 108.01712527 -9.50597952 106.78924083 -11.3125 105.125 C-14.62372217 102.2276806 -18.09005199 100.00590519 -22 98 C-22.79792969 97.5875 -23.59585938 97.175 -24.41796875 96.75 C-26.93241487 95.47185492 -29.46247818 94.23156596 -32 93 C-33.11375 92.443125 -34.2275 91.88625 -35.375 91.3125 C-39.57316847 89.79247349 -43.6245668 89.12166034 -48.03125 88.47265625 C-50.54828402 88.07191794 -52.91708176 87.53075058 -55.375 86.875 C-65.92010289 84.56476545 -76.29774493 86.16592496 -86.8125 87.8125 C-87.87404297 87.97766113 -88.93558594 88.14282227 -90.02929688 88.31298828 C-96.26113914 89.35130307 -102.08189149 90.79341869 -108 93 C-109.25683594 93.43892578 -109.25683594 93.43892578 -110.5390625 93.88671875 C-143.24276656 106.44151151 -166.8923243 131.18463409 -181.33789062 162.72753906 C-184.68687855 170.32825478 -187.47619983 178.09112512 -190 186 C-190.22284668 186.68046387 -190.44569336 187.36092773 -190.67529297 188.06201172 C-201.49814847 221.59616429 -201.96132535 257.43610007 -197 292 C-196.88785156 292.80373047 -196.77570312 293.60746094 -196.66015625 294.43554688 C-191.96920855 327.12739844 -179.55543169 364.40322468 -156.203125 388.69140625 C-154.44337591 390.53539865 -152.87329727 392.39125964 -151.2734375 394.3671875 C-147.78855887 398.45610445 -143.74733127 401.47614851 -139.375 404.5625 C-138.57739258 405.1296875 -137.77978516 405.696875 -136.95800781 406.28125 C-130.90448169 410.51407488 -124.84374422 414.17223489 -118 417 C-116.92878906 417.44730469 -115.85757813 417.89460938 -114.75390625 418.35546875 C-102.77000899 422.99395793 -89.82638635 425.31620234 -77 426 C-75.60201172 426.07927734 -75.60201172 426.07927734 -74.17578125 426.16015625 C-55.62419906 426.69552186 -37.61298978 422.31836112 -21.2902832 413.6418457 C-16.28957976 411 -16.28957976 411 -13 411 C-13 410.34 -13 409.68 -13 409 C-11.0234375 407.44921875 -11.0234375 407.44921875 -8.375 405.6875 C-7.4571875 405.05714844 -6.539375 404.42679688 -5.59375 403.77734375 C-4.7378125 403.19082031 -3.881875 402.60429688 -3 402 C9.18816058 393.22452438 17.75826127 377.16166159 22 363 C23.32561871 352.39505034 23.5550744 341.67821443 24 331 C-9.33 331 -42.66 331 -77 331 C-77 298 -77 265 -77 231 C-5.39 231 66.22 231 140 231 C140 323.73 140 416.46 140 512 C134.30889623 512.63234486 129.18523977 513.12771543 123.54003906 513.14526367 C122.51135963 513.15030159 122.51135963 513.15030159 121.4618988 513.15544128 C119.22978838 513.16482233 116.99775382 513.16688704 114.765625 513.16796875 C113.19862844 513.17118752 111.63163218 513.17455204 110.06463623 513.17805481 C106.79682721 513.18401185 103.52904453 513.18589798 100.26123047 513.18530273 C96.07945056 513.18520067 91.89783873 513.19891387 87.71609879 513.21607494 C84.48701197 513.227197 81.257966 513.22922197 78.028862 513.22869301 C76.48672653 513.22987046 74.94458991 513.23427902 73.40247345 513.24202538 C71.24898925 513.25184066 69.09587314 513.24894262 66.94238281 513.24291992 C65.1077951 513.24505745 65.1077951 513.24505745 63.23614502 513.24723816 C60.01961121 513.00149828 57.84572823 512.49316215 55 511 C53.12109375 508.42578125 53.12109375 508.42578125 51.4375 505.3125 C50.84324219 504.23355469 50.24898437 503.15460937 49.63671875 502.04296875 C49.09660156 501.03878906 48.55648437 500.03460937 48 499 C47.25462868 497.70565678 46.5056503 496.41336928 45.75 495.125 C44.06983579 492.12470677 42.50742217 489.09021546 41 486 C35.85952099 488.76284143 30.87082588 491.69380147 25.9375 494.8125 C18.52675796 499.39275029 10.86273007 503.26047238 3 507 C2.23800293 507.36770508 1.47600586 507.73541016 0.69091797 508.11425781 C-19.37653353 517.74696357 -40.10381678 524.05011614 -62 528 C-62.75152344 528.13809082 -63.50304688 528.27618164 -64.27734375 528.41845703 C-104.81250511 535.40054561 -149.18691634 526.46548659 -185 507 C-185.59474121 506.68450195 -186.18948242 506.36900391 -186.80224609 506.04394531 C-195.93723081 501.18571426 -204.15465563 495.4727986 -212.37451172 489.22607422 C-214.53703912 487.59492183 -216.74074846 486.02210561 -218.9375 484.4375 C-219.948125 483.633125 -220.95875 482.82875 -222 482 C-222 481.34 -222 480.68 -222 480 C-222.57234375 479.7421875 -223.1446875 479.484375 -223.734375 479.21875 C-226.21128995 477.88634058 -228.1341166 476.34943882 -230.25 474.5 C-230.95640625 473.8915625 -231.6628125 473.283125 -232.390625 472.65625 C-234 471 -234 471 -234 469 C-234.61875 468.690625 -235.2375 468.38125 -235.875 468.0625 C-240 466 -240 466 -240.875 464.1875 C-242.72271567 460.59471953 -245.75321922 458.22956351 -248.6875 455.5 C-250.9704149 453.03198389 -251.33278603 452.11366521 -252 449 C-252.99 448.67 -253.98 448.34 -255 448 C-256.81255374 445.76181463 -258.48168203 443.54355386 -260.125 441.1875 C-260.80755859 440.24293945 -260.80755859 440.24293945 -261.50390625 439.27929688 C-264.90058525 434.4765742 -264.90058525 434.4765742 -265.44873047 431.84887695 C-265.63064941 431.23874756 -265.81256836 430.62861816 -266 430 C-266.99 429.67 -267.98 429.34 -269 429 C-270.3917911 426.89302413 -271.61684559 424.83908904 -272.8125 422.625 C-273.15998291 421.9973877 -273.50746582 421.36977539 -273.86547852 420.72314453 C-274.57544524 419.43807056 -275.28141974 418.15078296 -275.98339844 416.86132812 C-276.91525563 415.15516116 -277.86682741 413.45980023 -278.8203125 411.765625 C-282.87733384 404.51394434 -282.87733384 404.51394434 -283.53515625 401.7578125 C-283.68855469 401.17773438 -283.84195312 400.59765625 -284 400 C-284.66 399.67 -285.32 399.34 -286 399 C-286.67618108 397.23425202 -287.26577141 395.43502062 -287.8125 393.625 C-289.15825293 389.38688256 -290.65712889 385.39234873 -292.5625 381.375 C-294.52777039 377.18082539 -296.01995506 373.06610523 -297.265625 368.609375 C-298.04527059 365.83914492 -298.92858948 363.11367359 -299.8125 360.375 C-306.4416659 338.65876688 -310.7436613 316.59228351 -313 294 C-313.13547241 292.78884521 -313.13547241 292.78884521 -313.27368164 291.55322266 C-314.32274111 281.04387803 -314.2437533 270.48839506 -314.25 259.9375 C-314.25067474 258.91288666 -314.25134949 257.88827332 -314.25204468 256.83261108 C-314.23518317 240.68669195 -313.59631737 224.96545209 -311 209 C-310.82839355 207.90316895 -310.65678711 206.80633789 -310.47998047 205.67626953 C-306.8154545 182.7230412 -301.09655273 160.65816194 -291.95214844 139.26831055 C-290.92737714 136.82699 -289.96565932 134.36520795 -289.00390625 131.8984375 C-287.3007602 127.62218121 -285.34604694 123.5900794 -283.125 119.5625 C-282.78275391 118.93142334 -282.44050781 118.30034668 -282.08789062 117.65014648 C-281.06361963 115.76397147 -280.03220442 113.88184208 -279 112 C-278.38898438 110.8759375 -277.77796875 109.751875 -277.1484375 108.59375 C-275.77044718 106.05981519 -274.38781748 103.52856138 -273 101 C-272.34 101 -271.68 101 -271 101 C-270.9175 100.278125 -270.835 99.55625 -270.75 98.8125 C-269.82492823 95.34348086 -268.34320662 93.72318608 -266 91 C-264.99015829 89.6950571 -263.99083092 88.38193561 -263 87.0625 C-262.48824219 86.381875 -261.97648437 85.70125 -261.44921875 85 C-260.16189955 83.2234301 -258.97789485 81.41998758 -257.8125 79.5625 C-256 77 -256 77 -253 76 C-252.67 75.175 -252.34 74.35 -252 73.5 C-251.67 72.675 -251.34 71.85 -251 71 C-249.515 70.505 -249.515 70.505 -248 70 C-247.71125 69.236875 -247.4225 68.47375 -247.125 67.6875 C-245.7088105 64.30438065 -243.92124953 63.17395314 -241 61 C-238.39785034 58.52478447 -236.07191195 56.09306252 -233.875 53.25 C-232 51 -232 51 -229 50 C-228.46375 49.29875 -227.9275 48.5975 -227.375 47.875 C-224.11669355 43.9307343 -220.24781251 40.84554235 -216 38 C-215.34 38 -214.68 38 -214 38 C-214 37.34 -214 36.68 -214 36 C-210.20225054 33.05090964 -206.06776401 30.55997074 -202 28 C-201.4117041 27.62891113 -200.8234082 27.25782227 -200.21728516 26.87548828 C-182.37186776 15.70325504 -163.52604724 6.62339587 -143.29370117 0.69189453 C-141.55306705 0.16683257 -139.82007267 -0.3836373 -138.09106445 -0.94580078 C-130.23504871 -3.47050358 -122.44722663 -5.2611138 -114.3125 -6.625 C-113.05719482 -6.83592285 -111.80188965 -7.0468457 -110.50854492 -7.26416016 C-73.56294567 -13.22395193 -35.65966487 -12.2506945 0 0 Z " fill="#000000" transform="translate(2292,229)"/>
<path d="M0 0 C289.49680171 0 289.49680171 0 326 20 C326.8559375 20.42925781 327.711875 20.85851562 328.59375 21.30078125 C335.10241536 24.63532635 340.4432834 29.29362943 346 34 C347.39992188 35.06541016 347.39992188 35.06541016 348.828125 36.15234375 C349.54484375 36.76207031 350.2615625 37.37179687 351 38 C351 38.66 351 39.32 351 40 C351.66 40 352.32 40 353 40 C356.23662407 43.46734066 359.09366971 47.25438292 362 51 C362.61617187 51.79019531 363.23234375 52.58039063 363.8671875 53.39453125 C382.82130021 79.03062378 389.17110795 112.08564389 389.1875 143.3125 C389.19974609 144.52873047 389.21199219 145.74496094 389.22460938 146.99804688 C389.28192972 182.9761151 374.37841052 214.06212921 349.5 239.5625 C348.675 240.366875 347.85 241.17125 347 242 C346.36835937 242.66515625 345.73671875 243.3303125 345.0859375 244.015625 C337.87234032 251.50960935 329.69987154 257.35684008 321 263 C323.93370333 265.27191444 326.96366434 267.24738001 330.125 269.1875 C338.94668651 274.78633037 346.41242233 280.88989293 353 289 C353.63550781 289.71414063 354.27101563 290.42828125 354.92578125 291.1640625 C368.93145451 307.42696077 375.32696426 328.95936416 375.27124023 350.16845703 C375.27908035 351.7538755 375.27908035 351.7538755 375.28707886 353.37132263 C375.29725317 355.64758969 375.30308768 357.92387958 375.30496025 360.20016861 C375.30865559 363.81835781 375.32547004 367.43628056 375.34571838 371.05441284 C375.40081679 381.33537814 375.43170953 391.61638214 375.45629883 401.89746094 C375.47228938 408.20613944 375.5026274 414.51462836 375.54106331 420.82320786 C375.55261246 423.20947106 375.55864276 425.59576833 375.55874443 427.98205948 C375.56010889 451.48942755 376.40054025 471.72057748 393.62109375 489.51953125 C402 498.25615764 402 498.25615764 402 502 C397.45215683 503.13836123 392.97413171 503.15470052 388.31689453 503.16113281 C387.02057854 503.16858017 387.02057854 503.16858017 385.69807434 503.17617798 C382.84297886 503.19076198 379.9879391 503.19759824 377.1328125 503.203125 C376.15215694 503.20595238 375.17150139 503.20877975 374.161129 503.21169281 C368.96321087 503.22667677 363.7653204 503.23590897 358.56738281 503.24023438 C353.23403872 503.24569255 347.90095335 503.26966644 342.5676899 503.29820633 C338.43746239 503.31697289 334.30729517 503.32204589 330.17702866 503.32357025 C328.21332269 503.32656993 326.24961708 503.33450593 324.28595352 503.34775543 C310.19399285 503.4359881 296.03183943 503.36392755 283.3125 496.5 C282.19488281 495.9121875 281.07726563 495.324375 279.92578125 494.71875 C277.45267222 493.26592227 275.15682347 491.88918844 273 490 C273 489.34 273 488.68 273 488 C272.42507813 487.81566406 271.85015625 487.63132812 271.2578125 487.44140625 C267.95259005 485.33132479 266.59704654 482.339033 264.875 478.9375 C264.52824219 478.32583984 264.18148438 477.71417969 263.82421875 477.08398438 C257.23505395 464.19598196 258.71624804 447.01862508 258.72560501 432.92571449 C258.72658706 429.65650782 258.71343589 426.38761514 258.69662476 423.11845398 C258.65083562 413.83704947 258.62574657 404.55568394 258.61914062 395.27416992 C258.61409878 389.56153224 258.58972945 383.8492321 258.55381393 378.13670921 C258.54409322 375.97962669 258.54164116 373.82249735 258.54698563 371.66539955 C258.58105866 357.2508572 258.60590144 344.24386605 250 332 C249.566875 331.278125 249.13375 330.55625 248.6875 329.8125 C246.18480208 327.12441705 243.42098755 326.2909387 240 325 C240 324.34 240 323.68 240 323 C225.42972299 319.23000645 211.61940659 318.39634476 196.61328125 318.390625 C194.33113963 318.37560501 192.04900872 318.35887003 189.76689148 318.34051514 C183.82741736 318.29725794 177.88808973 318.27693593 171.94848633 318.26177979 C165.86075321 318.24205689 159.77317491 318.20010514 153.68554688 318.16015625 C141.79041284 318.08530628 129.89531419 318.03474275 118 318 C118.00092179 318.94221122 118.00184359 319.88442244 118.00279331 320.85518551 C118.02496041 343.74642105 118.04141031 366.6376552 118.05181217 389.52889919 C118.05697571 400.59877846 118.0640195 411.66865066 118.07543945 422.73852539 C118.08538454 432.38331054 118.09185301 442.02809057 118.09408849 451.67288071 C118.0953959 456.78306561 118.09848364 461.89323585 118.10573006 467.00341606 C118.1124875 471.80742559 118.11461753 476.61141433 118.11310768 481.41542816 C118.11338413 483.18398463 118.11539088 484.95254175 118.11920547 486.72109413 C118.12413843 489.12487473 118.12299978 491.52857557 118.12025452 493.93235779 C118.12316736 494.64148848 118.1260802 495.35061918 118.12908131 496.08123869 C118.11412121 500.88587879 118.11412121 500.88587879 117 502 C104.19549559 503.42472183 91.22133295 503.14722929 78.359375 503.1328125 C76.21706125 503.13348768 74.07474757 503.13445949 71.93243408 503.13571167 C67.47822325 503.13717475 63.02403267 503.13507666 58.56982422 503.13037109 C52.86027318 503.12463275 47.15076873 503.12798732 41.44121933 503.13394356 C37.03352505 503.13755141 32.62584189 503.13641026 28.21814728 503.13381577 C26.11139165 503.13314927 24.004635 503.13396523 21.89788055 503.13629532 C18.96672361 503.13883001 16.0356434 503.13497154 13.10449219 503.12939453 C12.23698837 503.13141876 11.36948456 503.13344299 10.47569275 503.13552856 C9.67714371 503.13270874 8.87859467 503.12988892 8.05584717 503.12698364 C7.01958254 503.1264181 7.01958254 503.1264181 5.96238327 503.12584114 C4 503 4 503 0 502 C0 336.34 0 170.68 0 0 Z M118 104 C118 135.68 118 167.36 118 200 C138.3344993 200.86022761 138.3344993 200.86022761 158.65625 201.1328125 C160.10819515 201.13349124 161.56014019 201.1344659 163.01208496 201.13571167 C166.0028597 201.13715824 168.99360391 201.13513259 171.984375 201.13037109 C175.76663857 201.12463356 179.54883173 201.12799768 183.33109283 201.13394356 C186.31010446 201.13759737 189.28910001 201.13638943 192.26811218 201.13381577 C193.66159575 201.13316191 195.05508092 201.13391897 196.44856262 201.13629532 C215.98861868 201.21640707 215.98861868 201.21640707 235.25 198.3125 C235.99958984 198.13807373 236.74917969 197.96364746 237.52148438 197.78393555 C251.086858 194.41442482 261.75062176 187.34432199 269.9375 175.9375 C277.52202835 163.09938582 276.81896668 147.86419089 273.8125 133.75 C272.24369774 127.97183723 269.7375145 122.70572856 266 118 C265.34 118 264.68 118 264 118 C264 117.34 264 116.68 264 116 C256.99928939 108.79926908 246.526944 104.26597055 236.52603531 103.91258049 C233.42067456 103.87669252 230.3169807 103.87641456 227.21142578 103.88647461 C226.03036758 103.88632858 224.84930939 103.88618256 223.63246155 103.8860321 C220.40769558 103.88660783 217.18297346 103.89161004 213.95821619 103.89860606 C210.58297575 103.90487342 207.20773437 103.90544607 203.83248901 103.90663147 C197.44718167 103.90973483 191.06189153 103.91793477 184.67659175 103.92798096 C176.69064781 103.94027174 168.70470105 103.94573251 160.71875 103.95117188 C146.47915328 103.96090078 132.23959407 103.98093479 118 104 Z " fill="#000000" transform="translate(1576,239)"/>
<path d="M0 0 C59.544375 -0.020625 119.08875 -0.04125 180.4375 -0.0625 C199.27513428 -0.071604 218.11276855 -0.08070801 237.52124023 -0.09008789 C260.4317627 -0.09460449 260.4317627 -0.09460449 271.13929749 -0.09544373 C278.65675669 -0.09637963 286.17420854 -0.10006196 293.69166565 -0.10557556 C302.35014607 -0.11191671 311.00861939 -0.11484165 319.66710216 -0.11344495 C324.10139122 -0.11283948 328.53566438 -0.11383525 332.96995056 -0.11921513 C336.97184027 -0.12404119 340.97370267 -0.12434991 344.97559357 -0.12090111 C346.42975293 -0.12047357 347.88391393 -0.1217716 349.33807003 -0.12488258 C351.30506992 -0.12884669 353.27207996 -0.12615606 355.23908138 -0.12304783 C356.33533398 -0.12342755 357.43158657 -0.12380727 358.56105894 -0.1241985 C361 0 361 0 362 1 C362.10601865 4.12487043 362.14677424 7.22776174 362.14526367 10.35327148 C362.15030159 11.82633759 362.15030159 11.82633759 362.15544128 13.3291626 C362.16498274 16.59315232 362.16689598 19.85709093 362.16796875 23.12109375 C362.17117906 25.37931846 362.17454295 27.63754295 362.17805481 29.89576721 C362.18405405 34.63632693 362.18589389 39.37686839 362.18530273 44.11743164 C362.18520105 50.20542085 362.1988558 56.29329357 362.21607494 62.38125515 C362.22716869 67.0471094 362.22922276 71.71293525 362.22869301 76.37880135 C362.229877 78.6239773 362.23432205 80.86915389 362.24202538 83.11431694 C362.25177263 86.24874002 362.24896815 89.38290718 362.24291992 92.51733398 C362.24853943 93.45299698 362.25415894 94.38865997 362.25994873 95.35267639 C362.253657 96.62937698 362.253657 96.62937698 362.24723816 97.93186951 C362.24778293 98.67353583 362.24832769 99.41520216 362.24888897 100.17934322 C362 102 362 102 360 104 C358.21271598 104.24839699 358.21271598 104.24839699 356.0057354 104.24609566 C354.74573984 104.2520688 354.74573984 104.2520688 353.46028984 104.25816262 C352.53228793 104.25233693 351.60428602 104.24651125 350.64816284 104.24050903 C349.17552072 104.24307231 349.17552072 104.24307231 347.67312825 104.24568737 C344.36257912 104.24899821 341.05222987 104.23795237 337.74169922 104.22705078 C335.37690231 104.22648701 333.01210505 104.22680256 330.64730835 104.22793579 C324.87900738 104.22845176 319.11077256 104.21975582 313.34248672 104.20706047 C306.63224223 104.19278433 299.92200725 104.18977197 293.21174969 104.18748413 C281.24450532 104.18310388 269.27728817 104.16978586 257.31005859 104.15087891 C245.68310686 104.13252862 234.05616251 104.11836796 222.42919922 104.10986328 C221.35466898 104.10907511 221.35466898 104.10907511 220.25843106 104.10827102 C216.66479528 104.105661 213.07115944 104.10313357 209.47752357 104.10064721 C179.65165918 104.07990445 149.82584307 104.04302918 120 104 C120 132.38 120 160.76 120 190 C126.19958496 189.98952637 132.39916992 189.97905273 138.78662109 189.96826172 C159.21854663 189.93519403 179.65047319 189.91295754 200.08241844 189.89637566 C212.47618343 189.88605056 224.86992312 189.87196675 237.26367188 189.84912109 C248.06247048 189.82922488 258.86125077 189.81629254 269.6600672 189.81182301 C275.38119309 189.80920922 281.10226657 189.80304024 286.8233757 189.78853989 C292.20276633 189.77501545 297.58208271 189.77076689 302.96148872 189.77378464 C304.94087311 189.77323216 306.92025985 189.76922425 308.89962959 189.76158905 C311.5921452 189.75170811 314.28437666 189.75400586 316.97689819 189.75949097 C317.76871691 189.75366528 318.56053563 189.7478396 319.37634885 189.74183738 C324.77175758 189.77175758 324.77175758 189.77175758 327 192 C327.204152 195.00211576 327.28313361 197.91236077 327.2746582 200.91601562 C327.2823246 202.30151863 327.2823246 202.30151863 327.29014587 203.7150116 C327.30408578 206.778823 327.30308196 209.84241059 327.30078125 212.90625 C327.30466546 215.02852462 327.30899955 217.15079847 327.31376648 219.27307129 C327.32123794 223.72520465 327.32093049 228.17725873 327.31567383 232.62939453 C327.30987474 238.34638066 327.32681645 244.06304329 327.3500185 249.77997589 C327.36471954 254.163614 327.36563256 258.54717352 327.36250877 262.93083191 C327.36302371 265.03924704 327.36829351 267.14766639 327.37832069 269.25605774 C327.39059904 272.19891659 327.38394563 275.14113645 327.37231445 278.08398438 C327.37995819 278.96197189 327.38760193 279.83995941 327.39547729 280.74455261 C327.3742218 283.16638184 327.3742218 283.16638184 327 287 C323.22627803 289.51581465 320.2635191 289.27293121 315.89460754 289.24050903 C314.64119561 289.24307231 314.64119561 289.24307231 313.36246222 289.24568737 C310.552509 289.24899097 307.74279269 289.23796427 304.93286133 289.22705078 C302.92259222 289.22648686 300.9123227 289.22680286 298.90205383 289.22793579 C293.4354278 289.22851103 287.96888904 289.21672903 282.50228333 289.20278788 C276.79276102 289.19030902 271.08323685 289.18911227 265.373703 289.18673706 C254.55774714 289.18051391 243.74183158 289.16409181 232.92589349 289.14403808 C218.31324219 289.11753139 203.70057992 289.10671318 189.08791065 289.09503365 C166.0585769 289.0762118 143.0293282 289.03637167 120 289 C120 324.64 120 360.28 120 397 C137.38558594 396.98839844 154.77117188 396.97679687 172.68359375 396.96484375 C183.66210952 396.9597375 194.64062444 396.95488252 205.61914062 396.95117188 C211.38321943 396.94921387 217.14729821 396.94719334 222.91137695 396.94506836 C223.63385654 396.94480461 224.35633612 396.94454086 225.10070902 396.94426912 C236.77979213 396.93991433 248.45887034 396.9320275 260.13795053 396.9228472 C272.11495649 396.91351092 284.09195987 396.90794445 296.06896931 396.90591151 C302.80000169 396.90465994 309.53102383 396.90163818 316.26205254 396.89426994 C322.58942067 396.88751395 328.91677304 396.88538217 335.24414444 396.88689232 C337.57387058 396.8866158 339.90359721 396.88460819 342.23332024 396.88079453 C345.39905111 396.87586385 348.56472139 396.87699939 351.73045349 396.87974548 C352.66525919 396.87683264 353.60006489 396.8739198 354.56319803 396.87091869 C360.88587879 396.88587879 360.88587879 396.88587879 362 398 C362.09742068 399.33839473 362.12631559 400.68186825 362.12698364 402.02380371 C362.12980347 402.89039108 362.13262329 403.75697845 362.13552856 404.64982605 C362.13249222 406.08676567 362.13249222 406.08676567 362.12939453 407.55273438 C362.13202301 409.05747063 362.13202301 409.05747063 362.13470459 410.59260559 C362.13912516 413.92633772 362.13618439 417.26001729 362.1328125 420.59375 C362.13348548 422.89921072 362.13445545 425.20467136 362.13571167 427.51013184 C362.13718892 432.34904657 362.13503321 437.18794287 362.13037109 442.02685547 C362.1246738 448.24494645 362.12795266 454.46299428 362.13394356 460.68108368 C362.13754843 465.44383065 362.13641092 470.2065673 362.13381577 474.96931458 C362.13314629 477.26276149 362.13397562 479.55620932 362.13629532 481.84965515 C362.13882064 485.04888406 362.13498295 488.24804203 362.12939453 491.44726562 C362.13141876 492.40522537 362.13344299 493.36318512 362.13552856 494.35017395 C362.13129883 495.65005501 362.13129883 495.65005501 362.12698364 496.97619629 C362.12660662 497.7335331 362.12622959 498.4908699 362.12584114 499.27115631 C362 501 362 501 361 502 C352.95937104 503.41104594 344.69205245 503.14118419 336.56152344 503.12698364 C335.11476254 503.12813756 333.66800194 503.1297269 332.22124195 503.13171089 C328.26853938 503.13586657 324.3158611 503.13383063 320.36315846 503.13072467 C316.09195244 503.12845559 311.82075049 503.13195757 307.54954529 503.13470459 C299.19353429 503.13914422 290.83753229 503.13819412 282.48152095 503.13529195 C275.69354129 503.13303203 268.90556415 503.13272795 262.11758423 503.13381577 C261.1509155 503.133969 260.18424677 503.13412223 259.18828505 503.13428011 C257.22451885 503.13459983 255.26075266 503.13492405 253.29698646 503.1352527 C234.89882454 503.13810188 216.50066762 503.13482864 198.10250652 503.12945233 C182.30515159 503.12497913 166.50780401 503.12576556 150.71044922 503.13037109 C132.36495658 503.135717 114.0194683 503.13783322 95.67397499 503.13475883 C93.71994654 503.13444028 91.7659181 503.1341259 89.81188965 503.13381577 C88.85044647 503.13366149 87.88900328 503.13350721 86.89842546 503.13334826 C80.11201077 503.13248358 73.32559884 503.13394483 66.53918457 503.13629532 C58.27899073 503.13909343 50.01880639 503.13835457 41.75861365 503.13301457 C37.54168617 503.13037859 33.32477458 503.12937085 29.10784721 503.13266373 C25.2530827 503.13562844 21.3983489 503.13403095 17.54358721 503.12868617 C16.14412927 503.12756282 14.74466877 503.12815139 13.34521246 503.13056196 C11.45301834 503.13357304 9.56081702 503.12990729 7.66862488 503.12584114 C6.08762639 503.12559761 6.08762639 503.12559761 4.47468853 503.12534916 C2 503 2 503 0 502 C0 336.34 0 170.68 0 0 Z " fill="#000000" transform="translate(2471,239)"/>
<path d="M0 0 C43.23 0 86.46 0 131 0 C137.54396994 17.45058651 137.54396994 17.45058651 139.24804688 22.70068359 C141.01200567 28.09450304 142.89815566 33.44836754 144.75 38.8125 C144.97164825 39.45471497 145.19329651 40.09692993 145.42166138 40.75860596 C150.06957065 54.2237161 154.74842869 67.67701437 159.5234375 81.09765625 C160.21630437 83.04510218 160.90914367 84.99255791 161.60192871 86.94003296 C162.07556581 88.27146094 162.54927998 89.60286151 163.02307129 90.93423462 C166.46965547 100.62409782 169.85144611 110.33401528 173.1875 120.0625 C177.03279609 131.27247737 181.02923697 142.41903689 185.10498047 153.546875 C186.52589803 157.4414139 187.92495084 161.34346146 189.3125 165.25 C189.54291992 165.89291992 189.77333984 166.53583984 190.01074219 167.19824219 C191.25367612 170.71167511 192.3780664 174.23963978 193.42578125 177.81640625 C195.018687 183.19367921 196.92286457 188.43189429 198.875 193.6875 C201.14875074 199.87043415 203.39061509 206.05060123 205.4375 212.3125 C207.5961203 218.90425998 209.94373223 225.41854784 212.3125 231.9375 C215.77868297 241.48667145 219.06758135 251.08189062 222.25439453 260.72753906 C225.81267887 271.49031741 229.59264992 282.1385978 233.7890625 292.671875 C235.08189258 296.2250725 236.1535664 299.80891075 237.22314453 303.43408203 C238.40915785 307.3514296 239.75894411 311.20492848 241.125 315.0625 C241.422854 315.90973633 241.72070801 316.75697266 242.02758789 317.62988281 C243.72103589 322.43210738 245.43974046 327.22473421 247.17578125 332.01171875 C251.3555149 343.53732068 255.40837876 355.08738441 259.25488281 366.72875977 C262.48302793 376.4938173 265.88320512 386.1678962 269.625 395.75 C271.42944863 400.38517742 272.95054928 405.02200056 274.3203125 409.80078125 C275.30105739 412.974111 276.67257301 415.9579798 278 419 C278.48500975 420.38155832 278.95399866 421.76880507 279.41015625 423.16015625 C279.67135254 423.95317139 279.93254883 424.74618652 280.20166016 425.56323242 C280.4651123 426.36736572 280.72856445 427.17149902 281 428 C281.73258623 430.21782624 282.4666554 432.4351561 283.20117188 434.65234375 C283.68933895 436.12590908 284.17633174 437.59986399 284.66210938 439.07421875 C286.00775358 443.12890394 287.40995932 447.15621639 288.87890625 451.16796875 C291.34111291 457.89405387 293.67056764 464.66449895 296 471.4375 C296.42539063 472.67048828 296.85078125 473.90347656 297.2890625 475.17382812 C298.12797088 477.6094931 298.96398171 480.04615829 299.796875 482.48388672 C300.59138456 484.80582802 301.39333099 487.1252395 302.203125 489.44189453 C302.75226563 491.03493408 302.75226563 491.03493408 303.3125 492.66015625 C303.63863281 493.59609619 303.96476562 494.53203613 304.30078125 495.49633789 C305 498 305 498 305 502 C291.99090191 503.27686507 278.98680512 503.14570972 265.9296875 503.1328125 C263.51547231 503.13348717 261.10125719 503.13445855 258.68704224 503.13571167 C253.65593817 503.13717814 248.62485198 503.13506616 243.59375 503.13037109 C237.14203934 503.1246436 230.69037 503.12797844 224.23866081 503.13394356 C219.26650682 503.13755144 214.29436269 503.13641006 209.3222084 503.13381577 C206.94192627 503.13314871 204.56164324 503.13396718 202.18136215 503.13629532 C198.86681476 503.13882886 195.55233529 503.13497265 192.23779297 503.12939453 C191.2549382 503.13141876 190.27208344 503.13344299 189.25944519 503.13552856 C187.90583138 503.13129883 187.90583138 503.13129883 186.52487183 503.12698364 C185.35197255 503.1264181 185.35197255 503.1264181 184.15537834 503.12584114 C181.93245391 502.99605634 180.09126413 502.77515703 178 502 C176.89216205 499.70426821 176.11312318 497.63597055 175.36328125 495.21875 C174.84499181 493.65480601 174.32624009 492.09101518 173.80712891 490.52734375 C173.3800766 489.2132251 173.3800766 489.2132251 172.94439697 487.87255859 C171.1463361 482.40342287 169.2386129 476.97153699 167.35546875 471.53125 C166.50390556 469.05751593 165.65300641 466.58355317 164.80273438 464.109375 C164.58770704 463.4838826 164.37267971 462.8583902 164.1511364 462.21394348 C163.06477092 459.05369276 161.97920674 455.89316941 160.89428711 452.73242188 C159.61214603 448.9981343 158.32814967 445.26449244 157.04296875 441.53125 C156.62594696 440.31912842 156.20892517 439.10700684 155.77926636 437.8581543 C152.51875605 428.41737521 149.14879583 419.01842018 145.6816864 409.65148926 C145.32822647 408.6856189 144.97476654 407.71974854 144.6105957 406.72460938 C144.29838577 405.88071655 143.98617584 405.03682373 143.664505 404.1673584 C143 402 143 402 143 399 C94.82 399 46.64 399 -3 399 C-3.99 403.29 -4.98 407.58 -6 412 C-6.91594595 414.65308483 -7.83395646 417.30639514 -8.83203125 419.9296875 C-10.27616792 423.72597988 -11.64430954 427.5463709 -13 431.375 C-13.25724854 432.10074219 -13.51449707 432.82648438 -13.77954102 433.57421875 C-15.71921632 439.0939311 -17.48331308 444.65402499 -19.140625 450.265625 C-20 453 -20 453 -21.01953125 455.4921875 C-22.10044398 458.25691249 -22.77271804 460.98301069 -23.4375 463.875 C-24.56550082 468.51672336 -26.07925195 472.62069444 -28 477 C-29.05774079 480.2921157 -30.05457525 483.59820226 -31.03515625 486.9140625 C-31.90012668 489.68056712 -32.91132342 492.31638983 -34 495 C-34.68679942 497.32748694 -35.35761043 499.65986656 -36 502 C-48.62582627 503.37498228 -61.29068484 503.14531055 -73.97265625 503.1328125 C-76.38830068 503.13348705 -78.80394504 503.13445833 -81.21958923 503.13571167 C-86.25666965 503.137179 -91.29373222 503.13506353 -96.33081055 503.13037109 C-102.79039697 503.12464668 -109.24994208 503.12797597 -115.70952702 503.13394356 C-120.68597222 503.13755173 -125.66240757 503.13640987 -130.63885307 503.13381577 C-133.02192629 503.13314864 -135.40500041 503.13396745 -137.78807259 503.13629532 C-141.10751865 503.13882901 -144.42689689 503.13497229 -147.74633789 503.12939453 C-148.7307637 503.13141876 -149.71518951 503.13344299 -150.72944641 503.13552856 C-152.08522797 503.13129883 -152.08522797 503.13129883 -153.46839905 503.12698364 C-154.25163072 503.12660662 -155.03486238 503.12622959 -155.84182835 503.12584114 C-158.01108076 502.99935389 -159.91537588 502.59749677 -162 502 C-160.51495412 494.66710508 -158.39181198 487.6680421 -156.0625 480.5625 C-155.45802253 478.70062042 -154.85355023 476.83873915 -154.24928284 474.97679138 C-153.60735901 473.00099866 -152.96353996 471.02583159 -152.31933594 469.05078125 C-151.00038298 465.00478744 -149.69050851 460.95589415 -148.3828125 456.90625 C-139.49447526 429.38583348 -130.56264201 401.87943684 -121.625 374.375 C-121.35955383 373.5580365 -121.09410767 372.741073 -120.82061768 371.89935303 C-117.63317566 362.09000202 -114.44070818 352.28230688 -111.2421875 342.4765625 C-110.2998261 339.58637766 -109.35752107 336.69617445 -108.41522217 333.80596924 C-107.529664 331.09094653 -106.64302917 328.3762771 -105.75634766 325.66162109 C-103.25808715 318.00387502 -100.77989459 310.34217897 -98.39453125 302.6484375 C-96.10525172 295.26830022 -93.6593008 287.94573365 -91.1875 280.625 C-86.27228297 266.00421891 -81.55922424 251.32119016 -76.875 236.625 C-72.40849268 222.61428675 -67.92724949 208.61382986 -63.23657227 194.67626953 C-55.90624295 172.86919667 -48.86589214 150.95751305 -42 129 C-38.12597207 116.62245463 -34.13486836 104.29285188 -30 92 C-25.93722528 79.97789792 -25.93722528 79.97789792 -22.125 67.875 C-20.32549167 61.93809753 -18.35519015 56.06582762 -16.375 50.1875 C-12.51282502 38.71309674 -8.89301869 27.16900983 -5.32568359 15.6003418 C-5.11925232 14.93336273 -4.91282104 14.26638367 -4.70013428 13.57919312 C-4.13772577 11.76141563 -3.57781021 9.94286737 -3.01806641 8.12426758 C-2.12301277 5.37750465 -1.07291595 2.68228988 0 0 Z M68 183 C65.0964493 190.27077654 62.46535776 197.5391781 60.22265625 205.0390625 C58.62758846 210.28897066 56.86593392 215.48458766 55.125 220.6875 C54.77751709 221.72664551 54.43003418 222.76579102 54.07202148 223.83642578 C52.7550052 227.77060947 51.43538857 231.70391496 50.11425781 235.63671875 C47.3272596 243.93504714 44.59824947 252.23634369 42.0546875 260.61328125 C39.30222829 269.4517336 36.28322715 278.20822544 33.31640625 286.9765625 C32.90720947 288.19146362 32.90720947 288.19146362 32.48974609 289.4309082 C31.96799048 290.97982057 31.4437114 292.52788598 30.91650391 294.07495117 C29.68669807 297.73046322 28.75967425 301.20162873 28 305 C55.39 305 82.78 305 111 305 C108.96960373 298.23201242 106.87219453 291.55175456 104.55078125 284.88671875 C104.22094238 283.93489716 103.89110352 282.98307556 103.55126953 282.00241089 C102.47400794 278.89662658 101.39340216 275.79201898 100.3125 272.6875 C99.75567032 271.08453568 99.75567032 271.08453568 99.18759155 269.44918823 C92.99896174 251.63382665 86.71776156 233.85219576 80.35473633 216.09838867 C76.42299656 205.11210194 72.63991714 194.08646517 69 183 C68.67 183 68.34 183 68 183 Z " fill="#000000" transform="translate(1265,239)"/>
<path d="M0 0 C50.55843078 -0.02286409 101.11686104 -0.04049706 151.67529598 -0.05106533 C157.63745318 -0.05231611 163.59961038 -0.05361043 169.56176758 -0.05493164 C171.34228521 -0.05532511 171.34228521 -0.05532511 173.15877289 -0.05572652 C192.4057149 -0.06008372 211.65265394 -0.06797154 230.89959418 -0.0771528 C250.63300537 -0.08648795 270.366415 -0.09205531 290.0998283 -0.09408849 C302.28688038 -0.09546401 314.47392406 -0.09981614 326.66097356 -0.10791647 C335.00595189 -0.11318222 343.35092586 -0.11480469 351.69590574 -0.11350138 C356.51819492 -0.11285773 361.34046937 -0.11387852 366.16275597 -0.11920547 C370.56990669 -0.1240386 374.97703267 -0.12433923 379.38418449 -0.12089889 C380.98580726 -0.12047311 382.58743152 -0.12176958 384.18905132 -0.12488318 C386.35168398 -0.12884584 388.51422505 -0.12676424 390.67685604 -0.12304783 C392.48527411 -0.12361741 392.48527411 -0.12361741 394.33022588 -0.1241985 C397 0 397 0 398 1 C398.10068417 4.13023484 398.1361416 7.2384492 398.12939453 10.36914062 C398.13202301 11.84461617 398.13202301 11.84461617 398.13470459 13.34989929 C398.13912505 16.61870053 398.13618443 19.88744816 398.1328125 23.15625 C398.13348548 25.41687022 398.13445546 27.67749038 398.13571167 29.93811035 C398.13718891 34.68286832 398.13503326 39.42760749 398.13037109 44.17236328 C398.1246738 50.26938624 398.12795266 56.36636519 398.13394356 62.46338654 C398.13754848 67.13348729 398.1364109 71.80357753 398.13381577 76.47367859 C398.1331463 78.72246811 398.13397558 80.97125857 398.13629532 83.220047 C398.13882071 86.35701038 398.13498285 89.49390141 398.12939453 92.63085938 C398.13141876 93.57011765 398.13344299 94.50937592 398.13552856 95.47709656 C398.11426225 101.88573775 398.11426225 101.88573775 397 103 C394.61722235 103.1305443 392.26191066 103.19667552 389.87719727 103.22119141 C388.75386993 103.23845024 388.75386993 103.23845024 387.60784912 103.25605774 C385.09407764 103.29311552 382.58028382 103.32264828 380.06640625 103.3515625 C378.28189339 103.37475275 376.49738313 103.39814331 374.71287537 103.42172241 C370.9270251 103.47045179 367.14115107 103.51523836 363.35522461 103.55761719 C359.5810327 103.60025225 355.80699609 103.64849084 352.03295898 103.703125 C321.97784324 104.13219647 292.07749202 103.60154984 262 103 C262 234.67 262 366.34 262 502 C252.99965686 503.12504289 252.99965686 503.12504289 248.76823425 503.12698364 C247.81077301 503.12980347 246.85331177 503.13262329 245.86683655 503.13552856 C244.84367844 503.13350433 243.82052032 503.1314801 242.76635742 503.12939453 C241.66785461 503.13114685 240.56935181 503.13289917 239.43756104 503.13470459 C235.82684728 503.1390862 232.21618295 503.13619915 228.60546875 503.1328125 C226.09060151 503.13348636 223.57573433 503.13445707 221.06086731 503.13571167 C215.80139668 503.13718343 210.54193881 503.13514589 205.2824707 503.13037109 C199.20321759 503.12491578 193.12399795 503.1267034 187.04474562 503.1321975 C181.18638996 503.13727965 175.32804702 503.13674566 169.46969032 503.13381577 C166.97972929 503.13314769 164.4897674 503.13397078 161.99980736 503.13629532 C158.52873824 503.13882594 155.05773418 503.13497605 151.58666992 503.12939453 C150.03675102 503.13243088 150.03675102 503.13243088 148.45552063 503.13552856 C147.04047745 503.13129883 147.04047745 503.13129883 145.59684753 503.12698364 C144.36663014 503.1264181 144.36663014 503.1264181 143.11155987 503.12584114 C141 503 141 503 138 502 C138 370.66 138 239.32 138 104 C92.79 104 47.58 104 1 104 C0 103 0 103 -0.12304783 101.268363 C-0.12212604 100.50972737 -0.12120424 99.75109175 -0.12025452 98.96946716 C-0.12162918 98.10143463 -0.12300385 97.2334021 -0.12442017 96.33906555 C-0.12082489 95.37953476 -0.11722961 94.42000397 -0.11352539 93.43139648 C-0.11367142 92.42663269 -0.11381744 91.4218689 -0.1139679 90.38665771 C-0.1132683 87.04811483 -0.10547374 83.70962695 -0.09765625 80.37109375 C-0.09579224 78.06323782 -0.09436826 75.75538149 -0.09336853 73.44752502 C-0.08954204 67.35982174 -0.07971065 61.27214214 -0.06866455 55.18444824 C-0.05845323 48.97778646 -0.05387151 42.77112087 -0.04882812 36.56445312 C-0.0380885 24.37629165 -0.02101052 12.18814779 0 0 Z " fill="#000000" transform="translate(813,239)"/>
<path d="M0 0 C134.31 0 268.62 0 407 0 C408.72953461 3.45906923 408.14715196 7.45973574 408.14526367 11.26733398 C408.15030159 12.70894897 408.15030159 12.70894897 408.15544128 14.1796875 C408.16496928 17.3685026 408.16689529 20.55726529 408.16796875 23.74609375 C408.17117992 25.9556531 408.17454388 28.16521223 408.17805481 30.37477112 C408.18405062 35.01100152 408.18589423 39.64721326 408.18530273 44.28344727 C408.18520106 50.23342693 408.1988571 56.1832874 408.21607494 62.13323879 C408.22717585 66.69790703 408.22922254 71.26254628 408.22869301 75.82722664 C408.22987586 78.0213366 408.23431464 80.21544726 408.24202538 82.40954399 C408.25178726 85.47420555 408.24896232 88.53860601 408.24291992 91.60327148 C408.24853943 92.51506668 408.25415894 93.42686188 408.25994873 94.36628723 C408.253657 95.61763962 408.253657 95.61763962 408.24723816 96.89427185 C408.24778293 97.61896888 408.24832769 98.3436659 408.24888897 99.09032345 C408 101 408 101 406 104 C358.81 104 311.62 104 263 104 C263 235.34 263 366.68 263 502 C259.03270823 502.66121529 255.90363487 503.12520097 252.00201416 503.12698364 C250.56777855 503.13121338 250.56777855 503.13121338 249.10456848 503.13552856 C248.07264877 503.13350433 247.04072906 503.1314801 245.97753906 503.12939453 C244.32781349 503.13202301 244.32781349 503.13202301 242.64476013 503.13470459 C239.0183656 503.13909737 235.39202001 503.13619496 231.765625 503.1328125 C229.24550365 503.13348608 226.72538236 503.13445657 224.20526123 503.13571167 C218.92964174 503.13718499 213.65403495 503.13514063 208.37841797 503.13037109 C202.27646524 503.12491826 196.17454586 503.12670077 190.07259393 503.1321975 C184.19928982 503.13727658 178.32599611 503.1367467 172.45269012 503.13381577 C169.95352931 503.13314707 167.45436765 503.13397293 164.95520782 503.13629532 C161.47174286 503.13882288 157.98834291 503.13498027 154.50488281 503.12939453 C153.46486618 503.13141876 152.42484955 503.13344299 151.35331726 503.13552856 C149.9360006 503.13129883 149.9360006 503.13129883 148.49005127 503.12698364 C147.66638691 503.12660662 146.84272255 503.12622959 145.99409866 503.12584114 C144 503 144 503 142 502 C142 370.66 142 239.32 142 104 C95.14 104 48.28 104 0 104 C0 69.68 0 35.36 0 0 Z " fill="#000000" transform="translate(2847,239)"/>
<path d="M0 0 C0.82062424 -0.00807175 1.64124847 -0.01614349 2.48674011 -0.02445984 C4.22575801 -0.03826426 5.96480259 -0.04900264 7.70385742 -0.05688477 C9.45198724 -0.06831255 11.20008477 -0.08861516 12.94799805 -0.1184082 C24.83521996 -0.32057568 35.14931207 0.71436106 46.54296875 4.23828125 C48.28320312 4.76736084 48.28320312 4.76736084 50.05859375 5.30712891 C55.85642594 7.11610567 61.22941814 9.30777758 66.54296875 12.23828125 C67.67025391 12.84349609 67.67025391 12.84349609 68.8203125 13.4609375 C73.21525427 15.85219533 77.45563046 18.3430833 81.54296875 21.23828125 C82.16171875 21.67140625 82.78046875 22.10453125 83.41796875 22.55078125 C108.1575618 40.7416585 125.97578115 69.18693905 131.10083008 99.54248047 C131.81636183 105.52355152 131.76766188 111.50857296 131.78320312 117.52368164 C131.79283988 119.77073179 131.82388923 122.01683824 131.85546875 124.26367188 C131.92425376 133.62830551 130.94592188 142.12981008 128.54296875 151.23828125 C128.26066406 152.3833313 128.26066406 152.3833313 127.97265625 153.55151367 C124.48590643 167.19376283 117.85800251 182.51835716 108.54296875 193.23828125 C107.88296875 193.23828125 107.22296875 193.23828125 106.54296875 193.23828125 C106.39601563 194.10646484 106.39601563 194.10646484 106.24609375 194.9921875 C104.93214212 199.18953297 101.49554495 202.07839651 98.54296875 205.23828125 C97.67671875 206.18703125 96.81046875 207.13578125 95.91796875 208.11328125 C93.54296875 210.23828125 93.54296875 210.23828125 90.85546875 211.30078125 C88.40469398 211.97749012 88.40469398 211.97749012 87.78125 214.03125 C86.0253367 217.16087466 83.3943713 218.64640566 80.41796875 220.48828125 C79.80268311 220.8752417 79.18739746 221.26220215 78.5534668 221.66088867 C58.54111164 233.99802938 37.17982745 241.55098953 13.54296875 242.23828125 C12.69863281 242.27824219 11.85429687 242.31820312 10.984375 242.359375 C-12.97439821 243.02817491 -39.25285358 234.5639783 -58.45703125 220.23828125 C-59.22015625 219.69945312 -59.98328125 219.160625 -60.76953125 218.60546875 C-64.95448315 215.59753457 -64.95448315 215.59753457 -66.45703125 214.23828125 C-66.45703125 213.57828125 -66.45703125 212.91828125 -66.45703125 212.23828125 C-67.22015625 211.97015625 -67.98328125 211.70203125 -68.76953125 211.42578125 C-71.34691743 210.2869362 -72.72657989 209.42411454 -74.45703125 207.23828125 C-74.45703125 206.57828125 -74.45703125 205.91828125 -74.45703125 205.23828125 C-75.44703125 204.90828125 -76.43703125 204.57828125 -77.45703125 204.23828125 C-80.70107343 200.77419745 -83.55115684 196.98763933 -86.45703125 193.23828125 C-87.0603125 192.48417969 -87.66359375 191.73007812 -88.28515625 190.953125 C-97.69660862 178.48514955 -103.48700932 163.23055816 -107.45703125 148.23828125 C-107.69035156 147.36300781 -107.92367187 146.48773437 -108.1640625 145.5859375 C-115.27213656 114.85246619 -107.64025826 82.28963878 -91.890625 55.58203125 C-90.4831057 53.40363626 -89.00986357 51.315293 -87.45703125 49.23828125 C-86.88726562 48.46613281 -86.3175 47.69398438 -85.73046875 46.8984375 C-65.79776378 20.93670449 -33.51827716 0.31862595 0 0 Z " fill="#FE2828" transform="translate(344.45703125,366.76171875)"/>
<path d="M0 0 C8.96313135 6.53219889 13.64512343 13.58279903 15.59765625 24.5234375 C16.5275199 32.7593727 14.36263931 41.18483505 9.90234375 48.18359375 C5.32124908 53.73840288 0.21211285 56.83665171 -6.40234375 59.5234375 C-7.55089844 60.07064453 -7.55089844 60.07064453 -8.72265625 60.62890625 C-16.73420402 63.30331505 -27.5729169 62.52811435 -35.15625 58.921875 C-43.98834128 53.42293817 -49.92050832 46.71257622 -52.40234375 36.5234375 C-53.21711503 27.31462727 -53.32461699 17.70527629 -48.40234375 9.5234375 C-47.41234375 9.1934375 -46.42234375 8.8634375 -45.40234375 8.5234375 C-44.7191325 7.19850557 -44.05421033 5.86406876 -43.40234375 4.5234375 C-32.14455349 -6.51837597 -13.41423866 -8.24484913 0 0 Z M-30.40234375 8.5234375 C-30.40234375 8.8534375 -30.40234375 9.1834375 -30.40234375 9.5234375 C-29.54068604 9.53745605 -29.54068604 9.53745605 -28.66162109 9.55175781 C-26.03269071 9.60578781 -23.40547808 9.68936644 -20.77734375 9.7734375 C-19.42189453 9.79470703 -19.42189453 9.79470703 -18.0390625 9.81640625 C-12.24183775 10.0279838 -8.84176815 10.70179707 -4.40234375 14.5234375 C-2.66602739 17.99607023 -2.80043973 21.73536763 -3.40234375 25.5234375 C-5.5839352 28.27913197 -7.27411869 29.95932497 -10.40234375 31.5234375 C-8.7605611 36.29953248 -6.13687673 40.31726654 -3.40234375 44.5234375 C1.07000693 40.52659537 3.37566016 34.87860574 3.76953125 28.92578125 C3.36730681 23.01125374 1.53140956 18.63384649 -1.40234375 13.5234375 C-2.06234375 13.5234375 -2.72234375 13.5234375 -3.40234375 13.5234375 C-3.40234375 12.8634375 -3.40234375 12.2034375 -3.40234375 11.5234375 C-4.06234375 11.5234375 -4.72234375 11.5234375 -5.40234375 11.5234375 C-5.73234375 10.5334375 -6.06234375 9.5434375 -6.40234375 8.5234375 C-13.9057726 4.119251 -22.97071542 3.70292183 -30.40234375 8.5234375 Z M-33.40234375 10.5234375 C-39.31359309 17.02581178 -41.03448407 22.80690832 -40.828125 31.44140625 C-40.1504305 36.34691967 -38.25395642 40.49101621 -35.40234375 44.5234375 C-34.41234375 45.1834375 -33.42234375 45.8434375 -32.40234375 46.5234375 C-32.40234375 34.6434375 -32.40234375 22.7634375 -32.40234375 10.5234375 C-32.73234375 10.5234375 -33.06234375 10.5234375 -33.40234375 10.5234375 Z M-22.40234375 18.5234375 C-22.40234375 20.5034375 -22.40234375 22.4834375 -22.40234375 24.5234375 C-17.61261165 24.75772063 -17.61261165 24.75772063 -13.40234375 22.5234375 C-13.40234375 21.2034375 -13.40234375 19.8834375 -13.40234375 18.5234375 C-16.37234375 18.5234375 -19.34234375 18.5234375 -22.40234375 18.5234375 Z M-22.40234375 33.5234375 C-22.40234375 37.8134375 -22.40234375 42.1034375 -22.40234375 46.5234375 C-25.37234375 46.5234375 -28.34234375 46.5234375 -31.40234375 46.5234375 C-27.18560961 50.88072945 -25.24109529 51.70387554 -19.15234375 51.8359375 C-13.52753059 51.81102138 -10.50013842 51.38707248 -6.40234375 47.5234375 C-6.40234375 47.1934375 -6.40234375 46.8634375 -6.40234375 46.5234375 C-7.45421875 46.5234375 -8.50609375 46.5234375 -9.58984375 46.5234375 C-13.75163696 45.43181961 -14.08847579 45.14241154 -16.21484375 41.7109375 C-16.97347727 40.33089768 -17.70330724 38.93460109 -18.40234375 37.5234375 C-18.77746094 36.77707031 -19.15257813 36.03070312 -19.5390625 35.26171875 C-19.82394531 34.68808594 -20.10882812 34.11445312 -20.40234375 33.5234375 C-21.06234375 33.5234375 -21.72234375 33.5234375 -22.40234375 33.5234375 Z " fill="#030000" transform="translate(3187.40234375,681.4765625)"/>
<path d="M0 0 C0 4.71449589 -3.07505492 7.049362 -6.25 10.3125 C-7.11625 11.1478125 -7.11625 11.1478125 -8 12 C-8.66 11.67 -9.32 11.34 -10 11 C-8.71284028 9.35063952 -7.42012981 7.70560953 -6.125 6.0625 C-5.04605469 4.68771484 -5.04605469 4.68771484 -3.9453125 3.28515625 C-2 1 -2 1 0 0 Z " fill="#E01818" transform="translate(93,261)"/>
<path d="M0 0 C1.875 0.625 1.875 0.625 4 2 C5.25 5.125 5.25 5.125 6 8 C1.125 3.375 1.125 3.375 0 0 Z " fill="#C31515" transform="translate(63,678)"/>
</svg>
