<?xml version="1.0" encoding="UTF-8"?>
<svg version="1.1" xmlns="http://www.w3.org/2000/svg" width="3840" height="2160">
<path d="M0 0 C2.00226476 1.82674155 4.03516702 3.59661224 6.08984375 5.36328125 C10.92236024 9.58201972 15.44515911 14.08756037 19.96875 18.6328125 C20.78021484 19.44041016 21.59167969 20.24800781 22.42773438 21.08007812 C27.29513948 25.95534022 31.95210175 30.9404931 36.40625 36.1953125 C36.94870361 36.83106201 37.49115723 37.46681152 38.05004883 38.12182617 C47.06612252 48.75675268 55.43410695 59.76014504 63.40625 71.1953125 C63.83856934 71.81019531 64.27088867 72.42507813 64.71630859 73.05859375 C84.39455796 101.17705859 99.67553717 132.00755296 111.40625 164.1953125 C111.78120605 165.22366211 112.15616211 166.25201172 112.54248047 167.31152344 C121.62914232 192.59292848 127.56016402 218.63023411 131.40625 245.1953125 C131.6539917 246.8649707 131.6539917 246.8649707 131.90673828 248.56835938 C136.88087448 283.64965089 136.60429933 321.16299563 131.40625 356.1953125 C131.23464355 357.38060547 131.06303711 358.56589844 130.88623047 359.78710938 C119.36980523 437.22194717 85.5469259 509.79025324 33.40625 568.1953125 C32.57609375 569.13632813 31.7459375 570.07734375 30.890625 571.046875 C19.68707469 583.52199391 7.97341249 596.05761728 -5.27734375 606.375 C-7.54987285 608.16083231 -9.6584576 610.04770139 -11.78125 612.0078125 C-28.8165038 627.24039394 -48.75377713 639.94593579 -68.59375 651.1953125 C-69.44211426 651.67822754 -70.29047852 652.16114258 -71.16455078 652.65869141 C-90.91499617 663.82347979 -111.20072983 673.0532511 -132.53125 680.7578125 C-134.2632666 681.38465942 -134.2632666 681.38465942 -136.03027344 682.02416992 C-141.91144209 684.09272186 -147.59841155 685.77314776 -153.76782227 686.71850586 C-154.37037842 686.87585205 -154.97293457 687.03319824 -155.59375 687.1953125 C-155.92375 687.8553125 -156.25375 688.5153125 -156.59375 689.1953125 C-158.73828125 689.79296875 -158.73828125 689.79296875 -161.40625 690.2578125 C-166.21355552 691.11702072 -170.828578 692.26194138 -175.5234375 693.6015625 C-181.86289549 695.33184186 -188.24983025 696.55769999 -194.71875 697.6953125 C-195.92853516 697.90961914 -197.13832031 698.12392578 -198.38476562 698.34472656 C-216.7499149 701.51723672 -235.69842104 704.40047489 -254.375 704.1640625 C-256.78634592 704.14797775 -256.78634592 704.14797775 -259.90625 704.6953125 C-266.74367106 705.62242044 -273.88561836 705.9273301 -280.59375 704.1953125 C-282.19730873 704.15115254 -283.80256762 704.15589788 -285.40625 704.1953125 C-314.6345886 704.3870995 -343.37691193 698.20250291 -371.59375 691.1953125 C-372.8300415 690.89173828 -372.8300415 690.89173828 -374.09130859 690.58203125 C-384.84054474 687.92737026 -395.25073052 684.75070563 -405.63427734 680.90966797 C-407.49357992 680.23183102 -409.36570283 679.58946796 -411.23828125 678.94921875 C-423.37437238 674.79488902 -434.72681921 669.24542608 -446.10546875 663.359375 C-448.29036381 662.33724199 -450.23859309 661.66965324 -452.59375 661.1953125 C-452.59375 660.5353125 -452.59375 659.8753125 -452.59375 659.1953125 C-453.41875 658.9478125 -454.24375 658.7003125 -455.09375 658.4453125 C-466.97210705 654.20304212 -477.70976797 646.80365981 -488.34375 640.1328125 C-489.53158081 639.3912793 -489.53158081 639.3912793 -490.7434082 638.63476562 C-495.88824366 635.3852826 -500.76823581 631.89902102 -505.59375 628.1953125 C-507.08841797 627.08736328 -507.08841797 627.08736328 -508.61328125 625.95703125 C-514.65083418 621.47319823 -520.5367974 616.85506599 -526.31640625 612.04296875 C-528.65372757 610.0878238 -528.65372757 610.0878238 -531.59375 608.1953125 C-531.59375 607.5353125 -531.59375 606.8753125 -531.59375 606.1953125 C-532.13 605.9478125 -532.66625 605.7003125 -533.21875 605.4453125 C-538.93496306 602.43677931 -542.80885589 599.00175257 -546.9140625 594.09375 C-548.92209932 591.82420141 -551.219124 590.06622995 -553.59375 588.1953125 C-553.59375 587.5353125 -553.59375 586.8753125 -553.59375 586.1953125 C-554.25375 586.1953125 -554.91375 586.1953125 -555.59375 586.1953125 C-555.59375 585.5353125 -555.59375 584.8753125 -555.59375 584.1953125 C-556.25375 584.1953125 -556.91375 584.1953125 -557.59375 584.1953125 C-558.86328125 582.9375 -558.86328125 582.9375 -560.40625 581.0703125 C-563.23694151 577.72762482 -566.16103047 574.51289491 -569.17358398 571.3359375 C-576.1410538 563.97023925 -582.47909632 556.27666765 -588.59375 548.1953125 C-589.74810547 546.68324219 -589.74810547 546.68324219 -590.92578125 545.140625 C-595.07060086 539.66743062 -599.13032232 534.13138829 -603.15625 528.5703125 C-603.598479 527.96574219 -604.04070801 527.36117187 -604.49633789 526.73828125 C-607.59375 522.42669346 -607.59375 522.42669346 -607.59375 520.1953125 C-608.25375 519.8653125 -608.91375 519.5353125 -609.59375 519.1953125 C-610.70883453 517.43589152 -611.76113413 515.63644556 -612.78125 513.8203125 C-615.08612145 509.77250108 -617.45867174 505.82778152 -620.03125 501.9453125 C-624.49150941 494.99606905 -628.01696827 487.62388081 -631.59375 480.1953125 C-632.09092529 479.17775879 -632.09092529 479.17775879 -632.59814453 478.13964844 C-640.35042316 462.27152561 -646.88895223 445.90653988 -652.59375 429.1953125 C-652.92342773 428.25328979 -652.92342773 428.25328979 -653.25976562 427.29223633 C-662.90474919 399.22029186 -668.62696548 369.67580883 -671.59375 340.1953125 C-671.68946289 339.30658447 -671.78517578 338.41785645 -671.88378906 337.50219727 C-674.73310764 307.0047865 -674.26649307 274.47367999 -669.59375 244.1953125 C-669.39507324 242.89400391 -669.19639648 241.59269531 -668.99169922 240.25195312 C-661.33741962 191.18968847 -645.44191266 144.24430681 -620.59375 101.1953125 C-620.10938477 100.3492041 -619.62501953 99.5030957 -619.12597656 98.63134766 C-597.32449964 60.72998246 -567.61974132 22.11381174 -532.93359375 -4.95703125 C-530.71149435 -6.71171074 -528.66223523 -8.56079486 -526.59375 -10.4921875 C-465.62375371 -65.15869041 -379.47413802 -96.24738456 -298.59375 -101.8046875 C-297.80145996 -101.86108398 -297.00916992 -101.91748047 -296.19287109 -101.97558594 C-203.51503818 -108.34895471 -107.97620874 -81.98338087 0 0 Z M-314.59375 37.1953125 C-315.51929688 37.36691895 -316.44484375 37.53852539 -317.3984375 37.71533203 C-367.92812681 47.2923514 -414.37500565 70.14176024 -451.75390625 105.56640625 C-454.59375 108.1953125 -454.59375 108.1953125 -457.26171875 110.31640625 C-459.39547316 112.03556181 -461.08381414 113.73149973 -462.84375 115.8203125 C-465.4042137 118.82583534 -468.02977861 121.74192201 -470.71875 124.6328125 C-481.68602723 136.83111065 -490.99486242 150.25809512 -499.59375 164.1953125 C-500.26664063 165.26136719 -500.93953125 166.32742188 -501.6328125 167.42578125 C-537.09429841 226.16342766 -545.03355491 300.32720715 -528.93652344 366.32226562 C-517.61325252 410.45877138 -495.23444712 451.37766904 -463.59375 484.1953125 C-462.92923828 484.88705566 -462.26472656 485.57879883 -461.58007812 486.29150391 C-452.64854433 495.53974463 -443.66689749 504.34257062 -433.28271484 511.94628906 C-431.57782092 513.20709237 -429.90723529 514.50459683 -428.23828125 515.8125 C-373.82007292 557.86885214 -301.534904 574.37660825 -233.90625 565.9453125 C-189.68297535 559.80098672 -146.20933478 543.45256998 -110.59375 516.1953125 C-110.02108398 515.76395996 -109.44841797 515.33260742 -108.85839844 514.88818359 C-99.94334498 508.16137053 -91.62714793 500.94870278 -83.59375 493.1953125 C-82.58127197 492.22368164 -82.58127197 492.22368164 -81.54833984 491.23242188 C-72.07695049 482.10120665 -63.3361979 472.83511844 -55.59375 462.1953125 C-55.11631348 461.55158691 -54.63887695 460.90786133 -54.14697266 460.24462891 C-12.95555354 404.59538313 5.89460416 333.97609163 -3.59375 265.1953125 C-3.71733887 264.2971582 -3.84092773 263.39900391 -3.96826172 262.47363281 C-7.96728528 234.65981807 -15.80102421 205.96373397 -29.76953125 181.42578125 C-31.46888668 178.4164302 -32.98235008 175.37633782 -34.46875 172.2578125 C-40.7618532 159.60357254 -48.78179196 148.19567072 -57.59375 137.1953125 C-58.24859375 136.34710937 -58.9034375 135.49890625 -59.578125 134.625 C-70.26928823 120.8855299 -82.86281771 106.94125951 -96.59375 96.1953125 C-97.25375 96.1953125 -97.91375 96.1953125 -98.59375 96.1953125 C-98.59375 95.5353125 -98.59375 94.8753125 -98.59375 94.1953125 C-100.41420271 92.66943143 -102.30235437 91.22380419 -104.21875 89.8203125 C-105.26289062 89.04945313 -106.30703125 88.27859375 -107.3828125 87.484375 C-112.54537959 83.1668048 -112.54537959 83.1668048 -118.59375 81.1953125 C-118.59375 80.5353125 -118.59375 79.8753125 -118.59375 79.1953125 C-119.58375 79.1953125 -120.57375 79.1953125 -121.59375 79.1953125 C-121.59375 78.5353125 -121.59375 77.8753125 -121.59375 77.1953125 C-125.39802492 74.9939259 -125.39802492 74.9939259 -129.59375 74.1953125 C-129.59375 73.5353125 -129.59375 72.8753125 -129.59375 72.1953125 C-131.24375 71.8653125 -132.89375 71.5353125 -134.59375 71.1953125 C-134.59375 70.5353125 -134.59375 69.8753125 -134.59375 69.1953125 C-135.21121094 68.89238281 -135.82867188 68.58945312 -136.46484375 68.27734375 C-140.7953483 66.13516113 -145.07831407 63.95439167 -149.28125 61.5703125 C-152.96370089 59.50376226 -156.67242082 57.77760322 -160.59375 56.1953125 C-161.34269531 55.88851562 -162.09164063 55.58171875 -162.86328125 55.265625 C-173.28328879 51.03198414 -183.81520024 47.40514713 -194.59375 44.1953125 C-195.69589844 43.85371094 -196.79804688 43.51210938 -197.93359375 43.16015625 C-207.06113768 40.41039216 -216.19399179 38.66486478 -225.59375 37.1953125 C-226.82609375 36.999375 -228.0584375 36.8034375 -229.328125 36.6015625 C-243.36299393 34.48073786 -257.30006489 33.95535132 -271.46875 33.9453125 C-272.33024658 33.94463776 -273.19174316 33.94396301 -274.0793457 33.94326782 C-287.79158793 33.96026988 -301.09457776 34.61384766 -314.59375 37.1953125 Z " fill="#FE2828" transform="translate(701.59375,783.8046875)"/>
<path d="M0 0 C35.42782634 34.05243354 61.23366191 79.60223873 71.80224609 127.58740234 C72.05433838 128.71142456 72.05433838 128.71142456 72.31152344 129.8581543 C73.50803578 135.69131367 73.42724609 140.31674571 73.42724609 146.52490234 C31.84724609 146.52490234 -9.73275391 146.52490234 -52.57275391 146.52490234 C-55.86389315 136.65148462 -55.86389315 136.65148462 -57.11572266 132.61474609 C-63.14116144 113.57575314 -71.33785719 94.60211888 -85.35791016 79.97802734 C-86.57275391 78.52490234 -86.57275391 78.52490234 -86.57275391 76.52490234 C-87.23275391 76.52490234 -87.89275391 76.52490234 -88.57275391 76.52490234 C-88.57275391 75.86490234 -88.57275391 75.20490234 -88.57275391 74.52490234 C-89.23275391 74.52490234 -89.89275391 74.52490234 -90.57275391 74.52490234 C-90.57275391 73.86490234 -90.57275391 73.20490234 -90.57275391 72.52490234 C-91.13865234 72.27224609 -91.70455078 72.01958984 -92.28759766 71.75927734 C-94.87758815 70.36023975 -96.892947 68.68104792 -99.13525391 66.77490234 C-113.77354444 54.94920912 -132.91412847 47.36226272 -151.61181641 45.70849609 C-153.35886894 45.54492743 -155.09376634 45.26165019 -156.82275391 44.96240234 C-189.29582886 41.17387693 -226.28235531 52.77064753 -252.09619141 72.50146484 C-256.40711495 76.02363897 -260.52580436 79.70349934 -264.57275391 83.52490234 C-265.36166016 84.23775391 -266.15056641 84.95060547 -266.96337891 85.68505859 C-304.1947191 120.69452848 -319.77747426 179.33532565 -321.69677734 228.71582031 C-323.08337596 286.65338845 -310.85541585 350.15556443 -272.57275391 395.52490234 C-271.89728516 396.33572266 -271.22181641 397.14654297 -270.52587891 397.98193359 C-248.20985146 423.84083401 -217.19603755 437.82258901 -183.57275391 441.21240234 C-151.5694998 443.31097638 -120.67563967 436.83439209 -94.57275391 417.52490234 C-93.19023437 416.52910156 -93.19023437 416.52910156 -91.77978516 415.51318359 C-75.15850805 402.83037554 -64.07644834 383.7915273 -59.57275391 363.52490234 C-59.31473999 362.41417358 -59.31473999 362.41417358 -59.05151367 361.28100586 C-58.48033779 357.99288522 -58.35572262 354.81028046 -58.25634766 351.47412109 C-58.22517601 350.48591118 -58.22517601 350.48591118 -58.19337463 349.47773743 C-58.12839902 347.38939049 -58.06923815 345.30092622 -58.01025391 343.21240234 C-57.96701912 341.78986455 -57.9234033 340.36733828 -57.87939453 338.94482422 C-57.77277175 335.47163937 -57.67136043 331.99832508 -57.57275391 328.52490234 C-59.23224564 328.7683992 -59.23224564 328.7683992 -60.92526245 329.01681519 C-65.93455565 329.63901708 -70.89053723 329.66522106 -75.93261719 329.65429688 C-76.93851898 329.65604919 -77.94442078 329.65780151 -78.98080444 329.65960693 C-82.28490964 329.66398569 -85.58896073 329.66110194 -88.89306641 329.65771484 C-91.19896454 329.65838892 -93.50486261 329.65935981 -95.8107605 329.66061401 C-100.63393839 329.66208551 -105.45709771 329.65995365 -110.28027344 329.65527344 C-116.45843543 329.64957008 -122.63655403 329.65286248 -128.81471443 329.6588459 C-133.57250291 329.66246083 -138.33028112 329.66130874 -143.08806992 329.65871811 C-145.36621989 329.65805176 -147.6443708 329.65886707 -149.92251968 329.66119766 C-153.10559815 329.66374014 -156.28860644 329.6598613 -159.47167969 329.65429688 C-160.87918488 329.65733322 -160.87918488 329.65733322 -162.31512451 329.66043091 C-163.18688324 329.65761108 -164.05864197 329.65479126 -164.95681763 329.65188599 C-165.70782808 329.65150896 -166.45883854 329.65113194 -167.23260689 329.65074348 C-170.03382393 329.50010836 -172.80565824 328.98608496 -175.57275391 328.52490234 C-175.57275391 290.90490234 -175.57275391 253.28490234 -175.57275391 214.52490234 C-93.07275391 214.52490234 -10.57275391 214.52490234 74.42724609 214.52490234 C74.42724609 321.77490234 74.42724609 429.02490234 74.42724609 539.52490234 C67.82058965 540.12550748 61.49894761 540.67442514 54.9140625 540.67016602 C54.14020203 540.67352463 53.36634155 540.67688324 52.56903076 540.68034363 C50.05560631 540.68970891 47.54224931 540.69178839 45.02880859 540.69287109 C43.26288832 540.69609038 41.49696831 540.69945494 39.73104858 540.70295715 C36.05148703 540.70890978 32.37194884 540.71080072 28.69238281 540.71020508 C23.98155492 540.7101029 19.27087586 540.72382946 14.56008339 540.74097729 C10.92267161 540.75209197 7.28529613 540.75412456 3.64786911 540.75359535 C1.91035823 540.7547734 0.17284635 540.75918532 -1.56464767 540.76692772 C-3.98851841 540.7767303 -6.41206144 540.77385014 -8.8359375 540.76782227 C-9.54873871 540.77344177 -10.26153992 540.77906128 -10.99594116 540.78485107 C-14.9522279 540.75986331 -18.05542975 540.38755208 -21.57275391 538.52490234 C-23.27026367 536.29760742 -23.27026367 536.29760742 -24.76416016 533.54443359 C-25.31652344 532.54476562 -25.86888672 531.54509766 -26.43798828 530.51513672 C-26.99808594 529.46648438 -27.55818359 528.41783203 -28.13525391 527.33740234 C-28.98120117 525.79342773 -28.98120117 525.79342773 -29.84423828 524.21826172 C-30.93652054 522.22404814 -32.02349747 520.22691716 -33.10449219 518.2265625 C-34.87819514 514.96287829 -36.71279679 511.74003604 -38.57275391 508.52490234 C-42.43946162 509.18326265 -45.2200564 511.00916882 -48.51025391 513.08740234 C-49.36623169 513.62204102 -49.36623169 513.62204102 -50.23950195 514.16748047 C-53.08718968 515.94684554 -55.92108077 517.74699282 -58.75244141 519.55224609 C-89.66721938 539.01853397 -126.3108188 552.79108825 -162.57275391 557.52490234 C-163.86826172 557.70923828 -165.16376953 557.89357422 -166.49853516 558.08349609 C-186.23741334 560.66691204 -206.93745676 560.9576466 -226.57275391 557.52490234 C-228.24059209 557.2649487 -229.90857115 557.00589789 -231.57666016 556.74755859 C-272.60418756 550.1217424 -307.33209014 532.73820656 -340.00146484 507.69482422 C-341.48875971 506.58744121 -343.02990219 505.55347015 -344.57275391 504.52490234 C-344.57275391 503.86490234 -344.57275391 503.20490234 -344.57275391 502.52490234 C-345.11673828 502.29931641 -345.66072266 502.07373047 -346.22119141 501.84130859 C-349.30915509 500.11266447 -351.61730365 497.8794009 -354.19775391 495.46240234 C-357.61485144 492.10956588 -357.61485144 492.10956588 -361.57275391 489.52490234 C-361.57275391 488.86490234 -361.57275391 488.20490234 -361.57275391 487.52490234 C-362.23275391 487.52490234 -362.89275391 487.52490234 -363.57275391 487.52490234 C-363.57275391 486.86490234 -363.57275391 486.20490234 -363.57275391 485.52490234 C-364.23275391 485.52490234 -364.89275391 485.52490234 -365.57275391 485.52490234 C-367.08056641 484.06396484 -367.08056641 484.06396484 -368.69775391 482.14990234 C-369.23658203 481.52341797 -369.77541016 480.89693359 -370.33056641 480.25146484 C-371.57275391 478.52490234 -371.57275391 478.52490234 -371.57275391 476.52490234 C-372.23275391 476.52490234 -372.89275391 476.52490234 -373.57275391 476.52490234 C-376.30266327 473.63257275 -378.70021729 470.45850842 -381.15429688 467.33056641 C-382.12754556 466.0916426 -383.10602272 464.85681356 -384.08886719 463.62548828 C-417.57275391 421.63365505 -417.57275391 421.63365505 -417.57275391 407.52490234 C-418.23275391 407.19490234 -418.89275391 406.86490234 -419.57275391 406.52490234 C-420.59082031 404.49731445 -420.59082031 404.49731445 -421.67431641 401.80224609 C-422.07803467 400.80161133 -422.48175293 399.80097656 -422.89770508 398.77001953 C-423.32672119 397.67850586 -423.7557373 396.58699219 -424.19775391 395.46240234 C-424.6428833 394.33350586 -425.0880127 393.20460938 -425.54663086 392.04150391 C-437.29865822 361.88741904 -444.6131119 331.4317622 -449.11132812 299.45629883 C-449.50780251 296.64248766 -449.50780251 296.64248766 -450.11425781 294.39550781 C-450.62596318 292.30781531 -450.76498126 290.3708453 -450.85400391 288.22412109 C-450.91007812 287.00499023 -450.91007812 287.00499023 -450.96728516 285.76123047 C-451.00208984 284.92011719 -451.03689453 284.07900391 -451.07275391 283.21240234 C-451.14252574 281.549507 -451.21539356 279.88673839 -451.29150391 278.22412109 C-451.32179688 277.4902417 -451.35208984 276.7563623 -451.38330078 276.00024414 C-451.54695469 273.39875079 -451.54695469 273.39875079 -452.09130859 270.35058594 C-452.67265614 265.73105444 -452.64774722 261.26266699 -452.55712891 256.61474609 C-452.54190186 255.66255692 -452.5266748 254.71036774 -452.51098633 253.72932434 C-452.45708116 250.6401036 -452.391794 247.55132044 -452.32275391 244.46240234 C-452.2997522 243.40645874 -452.27675049 242.35051514 -452.25305176 241.26257324 C-450.64164038 171.02368177 -433.40347646 101.3955713 -390.57275391 44.52490234 C-390.03392578 43.80302734 -389.49509766 43.08115234 -388.93994141 42.33740234 C-376.04343073 25.39126271 -361.44065029 9.57004601 -344.57275391 -3.47509766 C-343.48517282 -4.35066417 -342.39932648 -5.2283885 -341.31494141 -6.10791016 C-306.87163577 -33.8986147 -265.04504937 -52.41175661 -221.57275391 -60.47509766 C-220.77885254 -60.62527344 -219.98495117 -60.77544922 -219.16699219 -60.93017578 C-139.56601697 -75.54909073 -59.28228918 -55.60130258 0 0 Z " fill="#000000" transform="translate(2775.57275390625,836.47509765625)"/>
<path d="M0 0 C361.05638142 0 361.05638142 0 409 46.5625 C416.10999202 53.67538933 421.76771918 61.43396765 427 70 C427.59288818 70.95519531 427.59288818 70.95519531 428.19775391 71.9296875 C450.49612529 108.54871382 456.92844949 159.96072072 447.37646484 201.62084961 C445.0559941 211.12790686 442.04163741 220.07191736 438 229 C437.71817871 229.63325195 437.43635742 230.26650391 437.14599609 230.91894531 C430.41064389 245.87730344 421.19879686 259.15436692 409.86328125 270.99609375 C407.95018064 272.86501863 407.95018064 272.86501863 407 275 C406.34 275 405.68 275 405 275 C404.62681641 275.87591797 404.62681641 275.87591797 404.24609375 276.76953125 C402.82504563 279.31316284 401.26807085 280.79407698 399.0625 282.6875 C398.02802734 283.59048828 398.02802734 283.59048828 396.97265625 284.51171875 C395 286 395 286 392 287 C392 287.66 392 288.32 392 289 C389.88698645 290.6711743 387.77580932 292.22196421 385.5625 293.75 C384.92812012 294.19520996 384.29374023 294.64041992 383.64013672 295.09912109 C378.81134798 298.4754768 373.93853654 301.78603178 369 305 C369.73863281 305.3403125 370.47726562 305.680625 371.23828125 306.03125 C383.00896152 311.65485328 392.54450842 319.08350224 402 328 C402.75023438 328.67417969 403.50046875 329.34835937 404.2734375 330.04296875 C421.70587181 346.34382399 432.72045354 371.427496 434.19152832 395.07938576 C434.26862552 398.31507294 434.28994479 401.54586913 434.28710938 404.7824707 C434.29394241 405.99883209 434.30077545 407.21519348 434.30781555 408.46841431 C434.32482235 411.76821534 434.33346367 415.06791253 434.33885384 418.3677485 C434.34713374 421.84808863 434.36806925 425.32835036 434.38806152 428.80863953 C434.43675302 437.64322265 434.46923258 446.47783902 434.5 455.3125 C434.53322578 464.84489631 434.56944674 474.37723018 434.62413073 483.9095313 C434.64346664 487.36001452 434.65882176 490.81041521 434.66447449 494.26095009 C434.72171826 523.6263722 436.33415972 546.94438676 457.3984375 569.18359375 C460.56834981 572.6152856 463.29403919 576.19702806 466 580 C463.08804047 581.65664228 460.99526738 582.25243809 457.65390015 582.26742554 C456.79092819 582.27595551 455.92795624 582.28448547 455.03883362 582.29327393 C454.09966599 582.29236755 453.16049835 582.29146118 452.19287109 582.29052734 C450.69917747 582.30060318 450.69917747 582.30060318 449.17530823 582.31088257 C445.87463407 582.32991367 442.57416318 582.33379108 439.2734375 582.3359375 C436.96814898 582.342368 434.66286128 582.34909655 432.35757446 582.35610962 C427.51375441 582.36809949 422.67000572 582.37178929 417.82617188 582.37060547 C411.66459389 582.37040359 405.50348395 582.39756218 399.34201622 582.43214989 C394.57170583 582.45457402 389.80150466 582.45843809 385.031147 582.45738602 C382.76289908 582.45972423 380.49464732 582.46844557 378.22645187 582.48405075 C355.30414848 582.62682824 333.84115528 580.41034126 316.18359375 564.34765625 C303.08750845 550.36254166 301.86030444 530.3505396 301.84228516 512.22314453 C301.83720444 511.09003845 301.83212372 509.95693237 301.82688904 508.78948975 C301.81624462 506.34512206 301.80760156 503.90074499 301.80076981 501.45636368 C301.78889849 497.57924706 301.7694262 493.70223776 301.74765015 489.82516479 C301.68610619 478.8071476 301.63177274 467.7891383 301.59863281 456.77099609 C301.5782283 450.01609539 301.54227909 443.26140294 301.49787521 436.5066185 C301.48377181 433.94317874 301.47500566 431.37970354 301.47182083 428.81622696 C301.46688187 425.22248731 301.4436483 421.62927581 301.41650391 418.03564453 C301.41951004 416.99111115 301.42251617 415.94657776 301.4256134 414.87039185 C301.27425014 401.29483163 297.62341794 388.85254694 288 379 C285.72409722 377.53276906 283.38756008 376.28560928 281 375 C280.67 374.34 280.34 373.68 280 373 C277.80115778 372.14917253 277.80115778 372.14917253 275.125 371.5 C274.24070312 371.2628125 273.35640625 371.025625 272.4453125 370.78125 C263.35761591 368.72054782 254.78705112 367.69935917 245.46020508 367.68115234 C244.23968036 367.67099909 243.01915564 367.66084583 241.76164532 367.6503849 C237.84760994 367.6199788 233.93364641 367.60265883 230.01953125 367.5859375 C227.588332 367.56898403 225.15713863 367.55116532 222.72595215 367.5324707 C213.75486878 367.46951375 204.78367452 367.42325118 195.8125 367.375 C175.744375 367.25125 155.67625 367.1275 135 367 C135 437.62 135 508.24 135 581 C115.46279902 582.14924712 115.46279902 582.14924712 105.77636719 582.12939453 C104.67976273 582.13114685 103.58315826 582.13289917 102.45332336 582.13470459 C98.90115685 582.13903481 95.34904183 582.13621933 91.796875 582.1328125 C89.29966218 582.1334875 86.80244942 582.13445915 84.30523682 582.13571167 C79.10794439 582.13717614 73.9106693 582.13507242 68.71337891 582.13037109 C63.38296284 582.12578389 58.05258145 582.12555846 52.72216797 582.13037109 C46.25110516 582.13616179 39.78006262 582.13708108 33.30899811 582.13381577 C30.85139206 582.13314931 28.39378515 582.13396509 25.93618011 582.13629532 C22.51439604 582.13883141 19.09267761 582.13496926 15.67089844 582.12939453 C14.15297447 582.13243088 14.15297447 582.13243088 12.60438538 582.13552856 C11.67128036 582.13270874 10.73817535 582.12988892 9.77679443 582.12698364 C8.97018246 582.12660662 8.16357048 582.12622959 7.33251572 582.12584114 C5 582 5 582 0 581 C0 389.27 0 197.54 0 0 Z M135 118 C135 155.62 135 193.24 135 232 C142.22185787 232.65653253 149.16050923 233.14893262 156.37060547 233.14526367 C157.34309738 233.14862228 158.31558929 233.1519809 159.31755066 233.15544128 C162.50077632 233.16486046 165.68394881 233.16689026 168.8671875 233.16796875 C171.11044332 233.17118914 173.35369894 233.17455378 175.59695435 233.17805481 C180.29218023 233.1840247 184.98738778 233.18589707 189.68261719 233.18530273 C195.64065364 233.18520159 201.59856963 233.19881359 207.55657768 233.21607494 C212.19144204 233.22730749 216.82627838 233.22921847 221.46115494 233.22869301 C223.65434303 233.2298578 225.84753222 233.23419301 228.04070663 233.24202538 C270.65996977 233.46247111 270.65996977 233.46247111 306.88671875 213.2421875 C317.99939568 201.45165782 322.3078858 187.58360875 322.02709961 171.48461914 C321.53807726 158.94725866 318.95377788 144.45266873 310 135 C309.34 135 308.68 135 308 135 C307.01 133.02 307.01 133.02 306 131 C305.34 131 304.68 131 304 131 C303.67 130.01 303.34 129.02 303 128 C300.18024954 126.16775044 300.18024954 126.16775044 296.6875 124.5 C295.53636719 123.9121875 294.38523437 123.324375 293.19921875 122.71875 C283.24022093 118.34038006 273.36069651 117.56909994 262.60253906 117.65942383 C261.20177224 117.6602723 259.80100409 117.65979068 258.40023804 117.65809631 C254.63648576 117.65724349 250.87302644 117.67475203 247.10934162 117.69581819 C243.16159403 117.71470543 239.21383805 117.71634484 235.26605225 117.71989441 C227.80778513 117.72917977 220.34965159 117.75374547 212.89144301 117.78394288 C202.80087044 117.82390244 192.71026077 117.83997015 182.61962891 117.85744953 C166.74631943 117.88556956 150.87329167 117.9453622 135 118 Z " fill="#000000" transform="translate(1855,795)"/>
<path d="M0 0 C138.27 0 276.54 0 419 0 C419 38.61 419 77.22 419 117 C418 118 418 118 416.07402128 118.1241985 C414.79417391 118.12362892 414.79417391 118.12362892 413.48847103 118.12304783 C412.01723322 118.1260344 412.01723322 118.1260344 410.51627344 118.12908131 C408.88060799 118.12471205 408.88060799 118.12471205 407.2118988 118.12025452 C405.48939985 118.12153615 405.48939985 118.12153615 403.73210293 118.12284368 C400.53050515 118.12421182 397.32894731 118.12106452 394.12735426 118.11606562 C390.68016852 118.11176429 387.23298479 118.11320732 383.78579712 118.1139679 C377.80859875 118.11449333 371.83141126 118.11134447 365.85421562 118.10573006 C357.21209674 118.09761773 348.56998314 118.09500011 339.92786086 118.09374207 C325.90804032 118.09155112 311.88822559 118.0848899 297.8684082 118.07543945 C284.24601267 118.06626642 270.6236187 118.05918506 257.0012207 118.05493164 C256.16213767 118.05466892 255.32305464 118.05440619 254.45854484 118.05413551 C250.24929146 118.05283051 246.04003808 118.05156679 241.83078468 118.05032361 C206.88718463 118.03994968 171.94359531 118.02151068 137 118 C137 151.99 137 185.98 137 221 C147.89761353 220.99214478 147.89761353 220.99214478 159.01538086 220.98413086 C182.23447923 220.96809656 205.45357718 220.95696428 228.67267954 220.94893467 C232.27649666 220.94768389 235.88031376 220.94638958 239.48413086 220.94506836 C240.20161609 220.94480605 240.91910133 220.94454374 241.65832854 220.94427348 C253.29093668 220.93991669 264.92353991 220.93202909 276.55614512 220.9228472 C288.48343053 220.91351091 300.41071335 220.90794444 312.33800226 220.90591151 C319.04108898 220.90465994 325.74416543 220.9016382 332.44724846 220.89426994 C338.74835179 220.88751393 345.04943928 220.88538218 351.35054588 220.88689232 C353.67059668 220.8866158 355.99064797 220.88460821 358.31069565 220.88079453 C361.46328943 220.87586382 364.61582235 220.8769994 367.76841736 220.87974548 C368.69933211 220.87683264 369.63024686 220.8739198 370.58937114 220.87091869 C376.88587879 220.88587879 376.88587879 220.88587879 378 222 C378.09554399 223.42946471 378.12188438 224.86362665 378.12025452 226.29627991 C378.12231651 227.68667732 378.12231651 227.68667732 378.12442017 229.10516357 C378.12082489 230.13014954 378.11722961 231.1551355 378.11352539 232.21118164 C378.11367142 233.28422043 378.11381744 234.35725922 378.1139679 235.46281433 C378.11326824 239.02861516 378.10547338 242.59436449 378.09765625 246.16015625 C378.09579226 248.62495393 378.09436827 251.08975199 378.09336853 253.55455017 C378.08954187 260.05653905 378.07971032 266.55850575 378.06866455 273.06048584 C378.05791748 279.68940817 378.05387159 286.31833693 378.04882812 292.94726562 C378.03808819 305.96485324 378.02120097 318.98242544 378 332 C372.41261651 332.94878581 367.02499987 333.14131822 361.36405945 333.12698364 C359.93612846 333.12932363 359.93612846 333.12932363 358.47935039 333.13171089 C355.29961288 333.13568953 352.11992338 333.13254345 348.94018555 333.12939453 C346.65671257 333.13074992 344.3732398 333.13253062 342.08976746 333.13470459 C335.89602489 333.13926129 329.70229899 333.13749693 323.50855613 333.1343255 C317.03124175 333.13179435 310.55392881 333.13414141 304.07661438 333.13571167 C292.50833525 333.13764699 280.94006373 333.13454039 269.3717858 333.12945233 C258.87700384 333.12497949 248.38223293 333.12576532 237.88745117 333.13037109 C225.69800843 333.13571809 213.50857437 333.13771744 201.31913024 333.13475883 C194.86706992 333.13319693 188.41501722 333.13300006 181.96295738 333.13629532 C175.9030627 333.13917425 169.84318899 333.13719794 163.78329659 333.13140106 C161.55396433 333.13007388 159.32463033 333.13046688 157.09529877 333.13266373 C154.06384908 333.13537665 151.03246762 333.13199239 148.00102234 333.12698364 C147.10892286 333.12921436 146.21682337 333.13144509 145.29769057 333.13374341 C139.22830092 333.11415046 139.22830092 333.11415046 137 332 C137 374.57 137 417.14 137 461 C230.06 461 323.12 461 419 461 C419 500.6 419 540.2 419 581 C400.99989615 582.12500649 400.99989615 582.12500649 394.77425575 582.12584114 C393.73190551 582.1280213 393.73190551 582.1280213 392.66849768 582.13024551 C390.40093293 582.13381852 388.13343919 582.1304609 385.86587524 582.12698364 C384.19944645 582.12813889 382.53301792 582.12972912 380.8665899 582.13171089 C376.3345626 582.13584811 371.80255661 582.13383921 367.27052927 582.13072467 C362.36547616 582.12844798 357.46042654 582.13196124 352.55537415 582.13470459 C342.9689385 582.13913571 333.38251071 582.13819808 323.79607476 582.13529195 C316.00900133 582.13302929 308.22193009 582.13272912 300.43485641 582.13381577 C298.76959456 582.13404561 298.76959456 582.13404561 297.07069104 582.13428011 C294.81525005 582.13459984 292.55980906 582.13492405 290.30436806 582.1352527 C269.19361248 582.13809922 248.08286125 582.1348325 226.97210638 582.12945233 C208.8472875 582.12497638 190.72247502 582.12576833 172.59765625 582.13037109 C151.53832531 582.13571658 130.47899817 582.13783371 109.41966665 582.13475883 C107.17701872 582.13444028 104.9343708 582.13412591 102.69172287 582.13381577 C101.58831588 582.13366149 100.48490889 582.13350721 99.34806532 582.13334826 C91.56070295 582.13248368 83.77334299 582.13394455 75.98598099 582.13629532 C66.51088602 582.13909283 57.03579933 582.13835572 47.56070532 582.13301457 C42.72400528 582.13037825 37.88731908 582.12937148 33.05061913 582.13266373 C28.62986605 582.13562753 24.20913975 582.13403249 19.78838913 582.12868617 C18.18318992 582.12756246 16.57798847 582.12815216 14.97279067 582.13056196 C12.80315032 582.1335712 10.63360361 582.130516 8.46396828 582.12584114 C7.25525806 582.12567879 6.04654784 582.12551644 4.80121005 582.12534916 C2 582 2 582 0 581 C0 389.27 0 197.54 0 0 Z " fill="#000000" transform="translate(2898,795)"/>
<path d="M0 0 C49.5 0 99 0 150 0 C153.08231726 7.39756142 156.03505494 14.64529062 158.609375 22.203125 C158.93310593 23.1423732 159.25683685 24.0816214 159.59037781 25.04933167 C160.28480528 27.06478364 160.97761199 29.08079468 161.66891479 31.09732056 C163.54794705 36.57698705 165.44018234 42.05209153 167.33203125 47.52734375 C167.72064835 48.65271042 168.10926544 49.77807709 168.50965881 50.93754578 C172.42223097 62.25180416 176.42471434 73.53348337 180.4375 84.8125 C186.76398347 102.60532275 192.97569385 120.43548866 199.13397217 138.28717041 C204.88098797 154.94128855 210.71831008 171.5611182 216.61962891 188.16113281 C222.34586593 204.2729583 227.97609179 220.41625217 233.56378174 236.57659912 C238.78755173 251.6795802 244.08449838 266.75486495 249.4375 281.8125 C255.76317361 299.60674252 261.97652099 317.43743534 268.13497925 335.29019165 C273.51679914 350.88659537 278.97197635 366.45483836 284.5 382 C290.41677608 398.63835873 296.24135365 415.30625854 302 432 C308.120319 449.74179486 314.32273935 467.45184606 320.61056519 485.13494873 C326.87387873 502.75311201 333.02501774 520.4087001 339.11743164 538.08666992 C339.77727384 539.99796446 340.43734463 541.90918009 341.09765625 543.8203125 C341.41485123 544.73998306 341.7320462 545.65965363 342.05885315 546.60719299 C343.74863436 551.481728 345.4820723 556.33642833 347.27294922 561.17480469 C347.64471786 562.1811496 348.01648651 563.18749451 348.39952087 564.22433472 C349.11355235 566.14870742 349.833289 568.07097596 350.55958557 569.99075317 C350.87950974 570.85215912 351.1994339 571.71356506 351.52905273 572.60107422 C351.81368881 573.35621307 352.09832489 574.11135193 352.3915863 574.88937378 C353 577 353 577 353 581 C338.76809923 582.22424015 324.54267766 582.14829503 310.26828671 582.1343255 C306.82023481 582.13176054 303.37218533 582.13415016 299.9241333 582.13571167 C294.15172844 582.13751852 288.37933649 582.13516329 282.60693359 582.13037109 C275.94018398 582.12490025 269.27346483 582.12671741 262.60671592 582.1321975 C256.8560573 582.13673425 251.10540784 582.13737735 245.35474801 582.13475883 C241.93094905 582.13320313 238.50716443 582.13298354 235.08336639 582.13629532 C231.28049124 582.13882705 227.4776754 582.13497527 223.67480469 582.12939453 C222.54548019 582.13141876 221.4161557 582.13344299 220.25260925 582.13552856 C219.2184639 582.13270874 218.18431854 582.12988892 217.11883545 582.12698364 C216.22151073 582.12660662 215.32418602 582.12622959 214.39966965 582.12584114 C212.08505149 582.00446019 210.17480136 581.80403711 208 581 C206.68237305 578.44775391 206.68237305 578.44775391 205.51171875 574.9765625 C205.2919487 574.34061157 205.07217865 573.70466064 204.8457489 573.04943848 C204.11121262 570.91280315 203.39978727 568.76914503 202.6875 566.625 C202.16981059 565.10733637 201.65040294 563.5902579 201.12939453 562.07373047 C200.005453 558.79641337 198.88995068 555.51638328 197.77978516 552.234375 C195.02192645 544.099428 192.17582724 535.99509927 189.34017944 527.88702393 C188.37501853 525.12505302 187.41235283 522.36222455 186.45043945 519.59912109 C182.43652549 508.07347505 178.3793091 496.56478799 174.23193359 485.08642578 C171.35319581 477.09367972 168.68925533 469.067766 166 461 C109.9 461 53.8 461 -4 461 C-7.96 472.88 -11.92 484.76 -16 497 C-19.77734375 508.296875 -19.77734375 508.296875 -21.37426758 513.07226562 C-27.34335996 530.93078376 -33.22311435 548.81617757 -39.00170898 566.73730469 C-39.26400299 567.54895081 -39.526297 568.36059692 -39.79653931 569.19683838 C-40.28644277 570.7131109 -40.77502405 572.22981148 -41.26205444 573.74700928 C-42.88764492 578.77528984 -42.88764492 578.77528984 -44 581 C-52.17015715 582.47788199 -60.77328005 582.14399331 -69.04882812 582.12939453 C-70.2926123 582.13114685 -71.53639648 582.13289917 -72.81787109 582.13470459 C-76.18924434 582.13832083 -79.56055523 582.13751775 -82.93192482 582.1343255 C-86.47475892 582.13177215 -90.01759058 582.13414725 -93.5604248 582.13571167 C-99.4979703 582.13752284 -105.43550329 582.13515281 -111.37304688 582.13037109 C-118.2328454 582.12491039 -125.09261429 582.12670842 -131.95241213 582.1321975 C-137.86010126 582.13673478 -143.76778147 582.13737676 -149.67547178 582.13475883 C-153.19658107 582.13320203 -156.71767641 582.13298636 -160.23878479 582.13629532 C-164.15464434 582.13971958 -168.07047055 582.13497432 -171.98632812 582.12939453 C-173.14998901 582.13141876 -174.3136499 582.13344299 -175.51257324 582.13552856 C-176.5777417 582.13270874 -177.64291016 582.12988892 -178.74035645 582.12698364 C-179.66499947 582.12660662 -180.58964249 582.12622959 -181.54230499 582.12584114 C-183.83748502 582.00832124 -185.80169734 581.64723419 -188 581 C-186.55390464 573.87175835 -184.50961391 567.08766408 -182.2109375 560.19140625 C-181.83601669 559.05416107 -181.46109589 557.91691589 -181.07481384 556.74520874 C-180.0574854 553.66046355 -179.0365989 550.57692208 -178.01449966 547.49375534 C-176.2661253 542.21375675 -174.52928467 536.92994225 -172.79132271 531.64650917 C-172.34846344 530.30025 -171.90546313 528.95403722 -171.46232414 527.6078701 C-167.33731897 515.07476963 -163.30856116 502.51225765 -159.3125 489.9375 C-152.42329501 468.27763753 -145.32654031 446.68820261 -138.20950699 425.10245895 C-131.72288899 405.42765473 -125.27327844 385.74414283 -119 366 C-112.47189949 345.45384536 -105.75050801 324.97385617 -99 304.5 C-91.91077319 282.99875946 -84.87186399 261.48533737 -78.01464844 239.90869141 C-71.72500587 220.13037793 -65.24004454 200.41808817 -58.74428558 180.70679474 C-52.11940678 160.60235426 -45.55838794 140.48125914 -39.1472168 120.30740356 C-31.98488372 97.78722974 -24.58484142 75.34552373 -17.17971897 52.90428352 C-16.17948281 49.8727735 -15.17994162 46.84103447 -14.18037605 43.80930328 C-13.50687019 41.76788718 -12.83205456 39.72690803 -12.15708923 37.68597412 C-8.02171265 25.148998 -4.02410896 12.5753405 0 0 Z M78 207 C70.93885143 228.05125255 63.98254051 249.13483663 57.10821533 270.24783325 C51.7109737 286.81958418 46.24102904 303.36568798 40.69189453 319.88720703 C37.93191412 328.11612395 35.22273473 336.35849836 32.6015625 344.6328125 C32.33991302 345.45699677 32.07826355 346.28118103 31.8086853 347.13034058 C30.55282557 350.50414358 30.55282557 350.50414358 30 354 C63 354 96 354 130 354 C129.30559344 350.52796718 128.60059883 347.58554402 127.45629883 344.29370117 C127.14064468 343.38056152 126.82499054 342.46742188 126.49977112 341.52661133 C126.15566696 340.54200928 125.81156281 339.55740723 125.45703125 338.54296875 C125.09701523 337.50462891 124.73699921 336.46628906 124.36607361 335.39648438 C123.1848028 331.99234939 121.99877397 328.5898944 120.8125 325.1875 C119.98904171 322.81884139 119.16580146 320.45010697 118.34277344 318.08129883 C116.28012716 312.14776164 114.21323886 306.21571243 112.14483643 300.28417969 C111.09658681 297.27707752 110.04962793 294.26953104 109.00341797 291.26171875 C99.20742098 263.10123522 89.21704031 235.01063301 79 207 C78.67 207 78.34 207 78 207 Z " fill="#000000" transform="translate(1493,795)"/>
<path d="M0 0 C152.13 0 304.26 0 461 0 C461 38.61 461 77.22 461 117 C449.74957107 118.12504289 449.74957107 118.12504289 444.35757446 118.12698364 C442.52816818 118.13121338 442.52816818 118.13121338 440.6618042 118.13552856 C439.35753479 118.13350433 438.05326538 118.1314801 436.70947266 118.12939453 C435.29578608 118.13075229 433.88209987 118.13253432 432.46841431 118.13470459 C428.6589331 118.13923187 424.84947921 118.13750954 421.03999758 118.1343255 C417.0433778 118.13178044 413.04676025 118.13414512 409.05014038 118.13571167 C402.34738752 118.13752585 395.64464571 118.13514548 388.94189453 118.13037109 C381.19486473 118.12491658 373.44786119 118.12670276 365.70083201 118.1321975 C359.03735111 118.13673416 352.37387812 118.13737686 345.71039617 118.13475883 C341.73541989 118.13320082 337.76045598 118.13298954 333.7854805 118.13629532 C330.05407604 118.13918251 326.32270556 118.13718271 322.59130478 118.13140106 C320.5692118 118.12944771 318.54711595 118.13241923 316.52502441 118.13552856 C315.32233917 118.13270874 314.11965393 118.12988892 312.88052368 118.12698364 C311.83529352 118.12660662 310.79006336 118.12622959 309.71315956 118.12584114 C307 118 307 118 303 117 C303 270.12 303 423.24 303 581 C291.74912766 582.12508723 291.74912766 582.12508723 286.96499634 582.13371277 C285.88001862 582.13797775 284.79504089 582.14224274 283.67718506 582.14663696 C282.52252747 582.14618378 281.36786987 582.14573059 280.17822266 582.14526367 C278.93473053 582.14862228 277.6912384 582.1519809 276.4100647 582.15544128 C273.03031191 582.16326285 269.65062058 582.1666156 266.27086306 582.16725707 C264.15646767 582.16797132 262.04207859 582.17011248 259.92768478 582.17275429 C252.54439641 582.1819739 245.16112598 582.18609266 237.77783203 582.18530273 C230.90328381 582.1847 224.02881354 582.19529862 217.15428507 582.2110464 C211.2381426 582.22411453 205.32202569 582.22948707 199.40586889 582.22884732 C195.87799979 582.22859251 192.35020039 582.23143607 188.82234573 582.24202538 C184.89666923 582.25349103 180.9711007 582.24896408 177.04541016 582.24291992 C175.87860718 582.24853943 174.7118042 582.25415894 173.50964355 582.25994873 C172.44158478 582.25575424 171.373526 582.25155975 170.27310181 582.24723816 C168.88224082 582.24805531 168.88224082 582.24805531 167.46328163 582.24888897 C165 582 165 582 161 580 C161 427.87 161 275.74 161 119 C108.2 118.67 55.4 118.34 1 118 C0.67 117.67 0.34 117.34 0 117 C0 78.39 0 39.78 0 0 Z " fill="#000000" transform="translate(966,795)"/>
<path d="M0 0 C155.76 0 311.52 0 472 0 C472 38.94 472 77.88 472 118 C416.56 118 361.12 118 304 118 C304 270.79 304 423.58 304 581 C299.48961627 581.64434053 295.72200565 582.12520396 291.27433777 582.12698364 C289.63610046 582.13121338 289.63610046 582.13121338 287.96476746 582.13552856 C286.78683121 582.13350433 285.60889496 582.1314801 284.39526367 582.12939453 C283.13924347 582.13114685 281.88322327 582.13289917 280.58914185 582.13470459 C277.16182405 582.13834011 273.73456698 582.13750478 270.30725265 582.1343255 C266.71674124 582.13178612 263.12623234 582.13414358 259.53572083 582.13571167 C253.51282284 582.13752758 247.48993714 582.135141 241.46704102 582.13037109 C234.49994813 582.12491722 227.53288445 582.12670159 220.56579226 582.1321975 C214.58010425 582.13673037 208.59442504 582.13737869 202.60873586 582.13475883 C199.03507814 582.13319861 195.46143417 582.1329956 191.88777733 582.13629532 C187.91109447 582.13971133 183.93444459 582.13498152 179.95776367 582.12939453 C178.76970627 582.13141876 177.58164886 582.13344299 176.35758972 582.13552856 C175.27953064 582.13270874 174.20147156 582.12988892 173.09074402 582.12698364 C172.15038898 582.12660662 171.21003393 582.12622959 170.24118328 582.12584114 C168 582 168 582 166 581 C166 428.21 166 275.42 166 118 C111.22 118 56.44 118 0 118 C0 79.06 0 40.12 0 0 Z " fill="#000000" transform="translate(3336,795)"/>
<path d="M0 0 C0.69474426 -0.00067474 1.38948853 -0.00134949 2.10528564 -0.00204468 C12.7552733 0.01439096 22.76382202 0.58940524 33.125 3.25 C33.78467773 3.4056543 34.44435547 3.56130859 35.12402344 3.72167969 C52.29152696 7.80762708 69.04317728 15.60431067 83.125 26.25 C84.00671875 26.91128906 84.8884375 27.57257812 85.796875 28.25390625 C114.72314381 50.95183105 133.61723298 82.98815582 139.4375 119.375 C143.62735302 157.00310306 134.94809253 194.20437965 111.64794922 224.35009766 C107.73142423 229.23602223 103.49926368 233.77075399 99.125 238.25 C98.53589844 238.889375 97.94679688 239.52875 97.33984375 240.1875 C73.65764775 265.32437635 36.8073226 278.1514564 2.9765625 279.44140625 C-14.26446985 279.69544897 -29.56642578 276.39582409 -45.875 271.25 C-46.97199219 270.90839844 -48.06898438 270.56679687 -49.19921875 270.21484375 C-56.53932949 267.73956553 -63.13158046 264.00559442 -69.875 260.25 C-71.20349961 259.57375225 -72.53463686 258.90241772 -73.875 258.25 C-73.875 257.59 -73.875 256.93 -73.875 256.25 C-74.49375 256.105625 -75.1125 255.96125 -75.75 255.8125 C-77.875 255.25 -77.875 255.25 -79.875 254.25 C-79.875 253.59 -79.875 252.93 -79.875 252.25 C-80.6175 251.981875 -81.36 251.71375 -82.125 251.4375 C-84.76561949 250.29723249 -86.73052844 249.15619694 -88.875 247.25 C-88.875 246.59 -88.875 245.93 -88.875 245.25 C-89.431875 245.0025 -89.98875 244.755 -90.5625 244.5 C-93.29910913 243.02075182 -95.55150869 241.31532561 -97.875 239.25 C-97.875 238.59 -97.875 237.93 -97.875 237.25 C-98.535 237.25 -99.195 237.25 -99.875 237.25 C-119.92970443 215.7390411 -133.19017191 189.2265293 -137.875 160.25 C-137.99004883 159.58194336 -138.10509766 158.91388672 -138.22363281 158.22558594 C-143.74845314 125.12335262 -134.3914954 88.34093857 -115.546875 60.734375 C-110.75293778 54.19718788 -105.44017317 48.1375171 -99.875 42.25 C-99.12863281 41.43917969 -98.38226563 40.62835937 -97.61328125 39.79296875 C-72.34730631 13.27413555 -36.15033196 0.0314499 0 0 Z " fill="#FE2828" transform="translate(431.875,942.75)"/>
<path d="M0 0 C8.29692149 6.80381496 12.90293527 14.51410334 14.6875 25.1875 C15.64159857 34.91196623 13.24571971 44.17153703 7.4609375 52.05859375 C-0.32306341 61.40282391 -8.95212634 65.9657335 -21.0546875 67.734375 C-32.86811339 68.37293856 -41.72820305 64.1265118 -50.875 56.8125 C-57.11366982 50.86772897 -60.92157295 42.78771135 -61.6484375 34.234375 C-61.90164787 22.26845541 -60.12354578 13.67668318 -52.29296875 4.2265625 C-38.58563429 -9.8863144 -15.89876109 -11.1470637 0 0 Z M-43.3125 9.1875 C-49.96970924 16.39542727 -50.72291435 23.99770133 -50.5546875 33.55859375 C-49.99408635 41.95856909 -46.5828677 47.5765162 -40.3125 53.1875 C-33.03076859 57.90160597 -25.58193668 59.26657688 -17.04296875 57.796875 C-9.8348624 55.827585 -4.03662952 51.26994203 0.10546875 45.0625 C1.94322707 41.55948053 3.30132083 38.14583647 3.6875 34.1875 C3.78224609 33.23810547 3.78224609 33.23810547 3.87890625 32.26953125 C4.29837406 24.6243922 1.91597908 17.53021863 -2.3125 11.1875 C-2.9725 11.1875 -3.6325 11.1875 -4.3125 11.1875 C-4.3125 10.5275 -4.3125 9.8675 -4.3125 9.1875 C-4.9725 9.1875 -5.6325 9.1875 -6.3125 9.1875 C-6.8075 7.7025 -6.8075 7.7025 -7.3125 6.1875 C-19.25299247 -1.54183664 -32.75360799 0.22781881 -43.3125 9.1875 Z " fill="#040000" transform="translate(3733.3125,1310.8125)"/>
<path d="M0 0 C3.67125 -0.061875 7.3425 -0.12375 11.125 -0.1875 C12.84420654 -0.22846802 12.84420654 -0.22846802 14.59814453 -0.27026367 C20.1340771 -0.31540147 24.26871182 -0.23719717 29 3 C32.00663524 6.50774111 32.47019797 9.59738458 32.29296875 14.0703125 C31.86045852 16.91911321 30.77720667 18.76203604 29 21 C26 23 26 23 22 23 C22.30292969 23.50974365 22.60585937 24.0194873 22.91796875 24.54467773 C24.28090053 26.84095568 25.64049064 29.13919431 27 31.4375 C27.47695312 32.23994141 27.95390625 33.04238281 28.4453125 33.86914062 C28.89648438 34.63291016 29.34765625 35.39667969 29.8125 36.18359375 C30.23144531 36.89056396 30.65039062 37.59753418 31.08203125 38.32592773 C32 40 32 40 32 41 C28.7 41 25.4 41 22 41 C21.39671875 39.85660156 20.7934375 38.71320313 20.171875 37.53515625 C19.36528017 36.04389372 18.55795013 34.55302868 17.75 33.0625 C17.35425781 32.30775391 16.95851563 31.55300781 16.55078125 30.77539062 C16.15761719 30.05673828 15.76445312 29.33808594 15.359375 28.59765625 C15.00327148 27.93258057 14.64716797 27.26750488 14.28027344 26.58227539 C12.89684897 24.54806243 12.89684897 24.54806243 9 24 C9 29.61 9 35.22 9 41 C6.03 41 3.06 41 0 41 C0 27.47 0 13.94 0 0 Z M9 7 C9 10.3 9 13.6 9 17 C10.5675 17.061875 12.135 17.12375 13.75 17.1875 C14.63171875 17.22230469 15.5134375 17.25710938 16.421875 17.29296875 C19.49201421 16.94408929 20.80981386 16.14962714 23 14 C23.33425735 11.37374861 23.33425735 11.37374861 23 9 C18.27537952 6.5614862 14.19845061 6.84482237 9 7 Z " fill="#040000" transform="translate(3695,1320)"/>
<path d="" fill="#9F1919" transform="translate(0,0)"/>
</svg>
