<?xml version="1.0" encoding="UTF-8"?>
<svg version="1.1" xmlns="http://www.w3.org/2000/svg" width="1280" height="322">
<path d="M0 0 C0.67708008 0.06203613 1.35416016 0.12407227 2.05175781 0.18798828 C29.7441295 2.8908633 57.05433313 13.82513028 79 31 C79 31.66 79 32.32 79 33 C80.32 33.33 81.64 33.66 83 34 C83 34.66 83 35.32 83 36 C83.99 36 84.98 36 86 36 C87.17444404 37.07081663 88.3346496 38.16104204 89.421875 39.3203125 C91.35215329 41.37481662 93.36464686 43.33633654 95.375 45.3125 C119 69.01572848 119 69.01572848 119 78 C119.66 78 120.32 78 121 78 C121.25394531 78.67546875 121.50789063 79.3509375 121.76953125 80.046875 C122.11371094 80.93890625 122.45789063 81.8309375 122.8125 82.75 C123.14894531 83.63171875 123.48539062 84.5134375 123.83203125 85.421875 C124.8688671 87.98573747 124.8688671 87.98573747 126.453125 89.83984375 C128.64524212 92.9010578 129.73352053 96.28043149 130.9375 99.8125 C131.19764893 100.57022705 131.45779785 101.3279541 131.72583008 102.10864258 C142.85931104 135.04791501 145.40400247 171.70031279 134 205 C133.76345703 205.71478516 133.52691406 206.42957031 133.28320312 207.16601562 C132.51373322 209.49008884 131.7293771 211.80847132 130.9375 214.125 C130.69217529 214.84864746 130.44685059 215.57229492 130.1940918 216.31787109 C128.8801099 220.03854699 127.43865078 222.92170312 125 226 C124.34819756 227.56432586 123.74552401 229.14982157 123.1875 230.75 C121.51164354 235.1265636 119.42292311 238.49610728 116.46484375 242.11328125 C114.92388912 244.01984252 114.92388912 244.01984252 113.58984375 246.35546875 C111.76964972 249.38316251 109.73986947 252.17055006 107.625 255 C106.87476563 256.010625 106.12453125 257.02125 105.3515625 258.0625 C103.06121668 260.92353 100.61459121 263.43726845 98 266 C97.195625 267.010625 96.39125 268.02125 95.5625 269.0625 C92.92560831 272.08527828 90.3513959 273.83555681 87 276 C86.24976563 276.763125 85.49953125 277.52625 84.7265625 278.3125 C81.78864982 281.20832224 78.73606644 283.56552882 75.375 285.9375 C74.75963379 286.37352539 74.14426758 286.80955078 73.51025391 287.25878906 C68.22064778 290.94959427 62.75783445 294.09191863 57 297 C56.05769531 297.50144531 55.11539063 298.00289063 54.14453125 298.51953125 C18.73068174 316.99835629 -23.80334521 319.81112394 -62 309 C-65.73864259 307.82092744 -69.36002311 306.4519009 -73 305 C-74.68609375 304.38898438 -74.68609375 304.38898438 -76.40625 303.765625 C-89.15833908 298.99698665 -101.2081182 292.33279415 -112 284 C-112 283.34 -112 282.68 -112 282 C-112.99 282 -113.98 282 -115 282 C-116.15088226 280.91886818 -117.28839763 279.82104655 -118.3671875 278.66796875 C-120.3760425 276.6158609 -122.52425976 274.76359689 -124.6875 272.875 C-132.56626763 265.78994525 -139.41195739 258.06845145 -145.625 249.5 C-146.06328125 248.90034424 -146.5015625 248.30068848 -146.953125 247.68286133 C-150 243.36993605 -150 243.36993605 -150 240 C-150.66 240 -151.32 240 -152 240 C-163.91020755 218.66425404 -172.14591005 198.22026245 -172.16796875 173.54296875 C-172.17129715 172.24482742 -172.17462555 170.9466861 -172.17805481 169.60920715 C-172.18401944 166.86828785 -172.18589749 164.12739994 -172.18530273 161.38647461 C-172.18520131 157.90013689 -172.1988453 154.41400372 -172.21607494 150.92771435 C-172.22996776 147.57029667 -172.22928624 144.21291471 -172.23046875 140.85546875 C-172.23765427 139.61661423 -172.24483978 138.3777597 -172.25224304 137.10136414 C-172.19481505 115.11490125 -163.6383346 93.43387226 -152 75 C-151.43410156 74.06671875 -150.86820313 73.1334375 -150.28515625 72.171875 C-146.30650825 65.71221068 -141.86127636 59.81775468 -137 54 C-136.41605469 53.28070313 -135.83210938 52.56140625 -135.23046875 51.8203125 C-133.86970421 50.17150292 -132.44146319 48.5787454 -131 47 C-130.34 47 -129.68 47 -129 47 C-128.78472656 46.43925781 -128.56945312 45.87851562 -128.34765625 45.30078125 C-126.53499759 42.20612633 -124.21935425 40.44353761 -121.4375 38.1875 C-120.89810791 37.74881592 -120.35871582 37.31013184 -119.80297852 36.8581543 C-118.20754801 35.56501589 -116.60415038 34.282292 -115 33 C-114.2059375 32.35289063 -113.411875 31.70578125 -112.59375 31.0390625 C-107.00823787 26.56660532 -101.09929442 22.73254367 -95 19 C-93.88625 18.29875 -92.7725 17.5975 -91.625 16.875 C-87.43971628 14.53323411 -82.93126469 12.9546894 -78.4453125 11.2890625 C-76.23954777 10.46377638 -74.04512163 9.60709494 -71.8671875 8.7109375 C-49.0496418 -0.61051601 -24.37370637 -2.29889596 0 0 Z M-77 73 C-77 73.66 -77 74.32 -77 75 C-77.58136719 75.26425781 -78.16273437 75.52851562 -78.76171875 75.80078125 C-87.28854218 80.36925384 -95.23026339 89.30701786 -101 97 C-101 97.99 -101 98.98 -101 100 C-101.66 100 -102.32 100 -103 100 C-108.29456945 109.44198218 -112.7235262 118.6845083 -116 129 C-116.33515625 129.90878906 -116.6703125 130.81757813 -117.015625 131.75390625 C-118.17737899 135.58492835 -118.68882685 139.28153933 -119.125 143.25 C-119.21136719 143.94996094 -119.29773438 144.64992188 -119.38671875 145.37109375 C-120.43709722 154.52439186 -120.08022418 163.33309677 -118.75 172.4375 C-118.61577637 173.35909912 -118.48155273 174.28069824 -118.34326172 175.23022461 C-117.31142792 181.87023359 -115.73956968 187.84798387 -113 194 C-112.10354491 196.18724527 -111.20772309 198.37475019 -110.3125 200.5625 C-108.73786044 204.31894073 -108.73786044 204.31894073 -107 208 C-106.34 208 -105.68 208 -105 208 C-104.75894531 208.87527344 -104.51789063 209.75054687 -104.26953125 210.65234375 C-102.88474852 214.30390929 -101.20258737 216.59089257 -98.6875 219.5625 C-97.54861328 220.92568359 -97.54861328 220.92568359 -96.38671875 222.31640625 C-94.01575433 224.98228605 -91.52618298 227.48214052 -89 230 C-88.10664352 231.06824637 -87.22713991 232.14859468 -86.375 233.25 C-84.23003634 236.20737266 -84.23003634 236.20737266 -81 237 C-80.236875 237.804375 -79.47375 238.60875 -78.6875 239.4375 C-75.82704508 242.16491051 -73.78193472 243.03252833 -70 244 C-70 244.66 -70 245.32 -70 246 C-47.06813985 259.65902838 -18.93814239 264.08786798 7.02050781 257.70727539 C25.24625448 252.84271471 43.02487981 243.9482542 56 230 C56.65484375 229.32710937 57.3096875 228.65421875 57.984375 227.9609375 C77.08161537 207.74420372 86.71306357 181.24274009 86.18359375 153.5234375 C84.74343338 125.884615 73.62858423 101.56536818 54 82 C50.44078019 78.8524248 46.78400102 75.87264302 43 73 C42.47736572 72.59491211 41.95473145 72.18982422 41.41625977 71.77246094 C36.94763692 68.42019229 32.30714391 66.08036838 27.1875 63.875 C26.39287354 63.52808105 25.59824707 63.18116211 24.77954102 62.82373047 C19.27591938 60.45804497 13.81796597 58.4477747 8 57 C7.31389648 56.82734619 6.62779297 56.65469238 5.92089844 56.47680664 C0.53980901 55.19957105 -4.66717561 54.5571221 -10.1875 54.3125 C-11.01411133 54.27487549 -11.84072266 54.23725098 -12.69238281 54.19848633 C-35.34584736 53.32804252 -58.63013152 59.24583203 -77 73 Z " fill="#FE2828" transform="translate(172,3)"/>
<path d="M0 0 C117.14285714 0 117.14285714 0 135.25 12.1875 C143.31542474 20.43622985 148.65535453 28.97004785 152 40 C152.5878125 41.84271484 152.5878125 41.84271484 153.1875 43.72265625 C159.33586103 64.76856887 157.58172079 87.38864724 147.75 106.9375 C142.94076615 115.24340388 136.82400207 122.29571727 130 129 C130.66 129 131.32 129 132 129 C132 129.66 132 130.32 132 131 C132.66 131 133.32 131 134 131 C134 131.66 134 132.32 134 133 C134.5878125 133.2475 135.175625 133.495 135.78125 133.75 C142.83186696 137.72217857 146.86613735 146.49706357 149 154 C150.19848161 160.51903039 150.20387984 167.0027848 150.28125 173.6171875 C150.29965942 174.82891632 150.31806885 176.04064514 150.33703613 177.28909302 C150.39557693 181.15101441 150.44846786 185.01297912 150.5 188.875 C150.5679814 193.95581562 150.64168241 199.0365025 150.71875 204.1171875 C150.73911316 205.85196854 150.73911316 205.85196854 150.7598877 207.62179565 C150.6703451 219.82381161 150.6703451 219.82381161 154.3125 231.25 C154.7559375 232.08144531 155.199375 232.91289062 155.65625 233.76953125 C157.22315897 236.37041794 159.07973121 238.65300481 161 241 C161 241.99 161 242.98 161 244 C155.00436173 244.09920868 149.009206 244.17162945 143.01293945 244.21972656 C140.97509432 244.23978632 138.93730634 244.26704099 136.8996582 244.30175781 C133.96290953 244.35052434 131.02692482 244.37302541 128.08984375 244.390625 C127.18540024 244.41127014 126.28095673 244.43191528 125.34910583 244.45318604 C119.3488078 244.45529309 115.92272852 243.47783883 111 240 C102.21687684 231.21687684 102.86719888 219.33886502 102.82421875 207.71484375 C102.80103455 205.30402759 102.7769178 202.89322025 102.75195312 200.48242188 C102.7167724 196.70135449 102.68744031 192.92061592 102.67407227 189.1394043 C102.65860758 185.47665369 102.61842669 181.81484543 102.57421875 178.15234375 C102.57612717 177.02408676 102.57803558 175.89582977 102.58000183 174.73338318 C102.48640575 168.72817274 102.37038339 164.53210135 98 160 C86.11925481 152.47461684 86.11925481 152.47461684 48 155 C48 184.37 48 213.74 48 244 C32.16 244 16.32 244 0 244 C0 163.48 0 82.96 0 0 Z M48 51 C48 66.18 48 81.36 48 97 C51.06516548 98.53258274 54.28381059 98.18378833 57.6484375 98.203125 C58.41620514 98.20882507 59.18397278 98.21452515 59.9750061 98.22039795 C61.60750957 98.2298591 63.24003224 98.23638635 64.87255859 98.24023438 C67.33076296 98.24982737 69.78808982 98.28079021 72.24609375 98.3125 C89.23023683 98.47194332 89.23023683 98.47194332 104 91 C104.33 90.01 104.66 89.02 105 88 C105.66 88 106.32 88 107 88 C110.61036293 77.89957989 111.60474952 68.95727888 107 59 C104.48267909 55.05619725 102.49804162 53.28515475 98 52 C92.57915864 50.83943905 87.30307672 50.87165933 81.7890625 50.90234375 C80.93014404 50.90335083 80.07122559 50.90435791 79.1862793 50.90539551 C75.99917248 50.91059998 72.8120848 50.92456113 69.625 50.9375 C58.920625 50.9684375 58.920625 50.9684375 48 51 Z " fill="#000000" transform="translate(617,45)"/>
<path d="M0 0 C0.93767212 0.66044312 0.93767212 0.66044312 1.89428711 1.33422852 C3.40848614 2.4389552 4.86654043 3.61984722 6.3125 4.8125 C6.3125 5.4725 6.3125 6.1325 6.3125 6.8125 C6.9725 6.8125 7.6325 6.8125 8.3125 6.8125 C8.3125 7.4725 8.3125 8.1325 8.3125 8.8125 C8.9725 8.8125 9.6325 8.8125 10.3125 8.8125 C23.3125 22.9167471 23.3125 22.9167471 23.3125 28.8125 C23.9725 28.8125 24.6325 28.8125 25.3125 28.8125 C29.61147457 37.65196457 33.51739726 46.35971536 36.3125 55.8125 C36.53808594 56.50472656 36.76367188 57.19695312 36.99609375 57.91015625 C38.86296851 64.18028046 38.3125 68.72415219 38.3125 75.8125 C23.7925 75.8125 9.2725 75.8125 -5.6875 75.8125 C-10.6875 59.8125 -10.6875 59.8125 -11.6875 54.8125 C-12.3475 54.8125 -13.0075 54.8125 -13.6875 54.8125 C-17.5625 48.1875 -17.5625 48.1875 -18.6875 44.8125 C-19.3475 44.8125 -20.0075 44.8125 -20.6875 44.8125 C-20.6875 44.1525 -20.6875 43.4925 -20.6875 42.8125 C-21.3475 42.8125 -22.0075 42.8125 -22.6875 42.8125 C-22.6875 42.1525 -22.6875 41.4925 -22.6875 40.8125 C-23.409375 40.544375 -24.13125 40.27625 -24.875 40 C-27.6875 38.8125 -27.6875 38.8125 -30.1875 37.25 C-37.58850883 32.99441992 -48.50912948 33.98314741 -56.53515625 36.05859375 C-63.34362563 38.44341152 -72.3318571 43.10121421 -75.6875 49.8125 C-76.3475 49.8125 -77.0075 49.8125 -77.6875 49.8125 C-78.0896875 50.616875 -78.0896875 50.616875 -78.5 51.4375 C-79.89583333 54.22916667 -81.29166667 57.02083333 -82.6875 59.8125 C-83.3475 59.8125 -84.0075 59.8125 -84.6875 59.8125 C-84.79320312 60.4725 -84.89890625 61.1325 -85.0078125 61.8125 C-85.86712345 65.60532075 -87.21608099 69.17320982 -88.5625 72.8125 C-99.47445389 103.19359129 -98.14369047 137.85773568 -85.2734375 167.55078125 C-79.64532615 179.12583785 -72.17896842 189.35960893 -59.76171875 194.10546875 C-59.07722656 194.33878906 -58.39273438 194.57210937 -57.6875 194.8125 C-56.016875 195.43125 -56.016875 195.43125 -54.3125 196.0625 C-43.85773506 198.22555482 -33.95680151 196.83777576 -24.8828125 191.01171875 C-15.97476763 184.2051266 -11.81939651 177.55043089 -8.6875 166.8125 C-8.3575 161.8625 -8.0275 156.9125 -7.6875 151.8125 C-20.8875 151.8125 -34.0875 151.8125 -47.6875 151.8125 C-47.6875 135.6425 -47.6875 119.4725 -47.6875 102.8125 C-18.9775 102.8125 9.7325 102.8125 39.3125 102.8125 C39.3125 148.0225 39.3125 193.2325 39.3125 239.8125 C28.0925 239.8125 16.8725 239.8125 5.3125 239.8125 C3.12917415 236.17362358 1.16869571 232.61328169 -0.6875 228.8125 C-3.6575 229.8025 -3.6575 229.8025 -6.6875 230.8125 C-6.6875 231.4725 -6.6875 232.1325 -6.6875 232.8125 C-15.32585954 239.89658531 -23.89517869 240.86233777 -34.6015625 240.7421875 C-36.10746016 240.74691801 -37.61335256 240.75372413 -39.11923218 240.76248169 C-42.25449193 240.77272554 -45.38834326 240.75805224 -48.5234375 240.72509766 C-52.51625498 240.68514196 -56.50578537 240.70826127 -60.49848366 240.7501049 C-63.60104608 240.77554981 -66.70284438 240.76728372 -69.80543137 240.74921036 C-71.27644632 240.74458528 -72.74753371 240.75011277 -74.2184639 240.76656723 C-83.96753004 240.85176078 -90.24939273 239.41533492 -97.6875 232.8125 C-99.234375 231.6678125 -99.234375 231.6678125 -100.8125 230.5 C-101.43125 229.943125 -102.05 229.38625 -102.6875 228.8125 C-102.6875 228.1525 -102.6875 227.4925 -102.6875 226.8125 C-103.3475 226.8125 -104.0075 226.8125 -104.6875 226.8125 C-104.6875 226.1525 -104.6875 225.4925 -104.6875 224.8125 C-105.3475 224.8125 -106.0075 224.8125 -106.6875 224.8125 C-120.66019913 210.59889226 -129.80483685 191.92874396 -134.828125 172.87109375 C-135.6024498 169.87803874 -135.6024498 169.87803874 -136.703125 167.37890625 C-139.07170782 161.20367246 -139.71948664 154.33089269 -140.6875 147.8125 C-140.85862305 146.67578857 -140.85862305 146.67578857 -141.03320312 145.51611328 C-144.21208932 123.16397487 -144.12171963 97.80938903 -138.6875 75.8125 C-138.378125 74.53503906 -138.06875 73.25757812 -137.75 71.94140625 C-131.876357 48.74733327 -121.79433149 24.3779791 -102.6875 8.8125 C-102.0275 8.8125 -101.3675 8.8125 -100.6875 8.8125 C-100.48125 8.235 -100.275 7.6575 -100.0625 7.0625 C-98.18360705 3.9879479 -95.71264244 2.60996328 -92.6875 0.8125 C-91.82769531 0.27367187 -90.96789062 -0.26515625 -90.08203125 -0.8203125 C-62.10851675 -17.89265556 -27.27706889 -19.21816952 0 0 Z " fill="#000000" transform="translate(919.6875,49.1875)"/>
<path d="M0 0 C47.52 0 95.04 0 144 0 C144 16.83 144 33.66 144 51 C112.32 51 80.64 51 48 51 C48 64.86 48 78.72 48 93 C75.39 93 102.78 93 131 93 C131.0309375 104.6015625 131.0309375 104.6015625 131.0625 116.4375 C131.071604 118.88212646 131.08070801 121.32675293 131.09008789 123.84545898 C131.09300691 125.77067001 131.0955555 127.69588165 131.09765625 129.62109375 C131.10277222 130.63079224 131.10788818 131.64049072 131.11315918 132.68078613 C131.11334045 134.11194763 131.11334045 134.11194763 131.11352539 135.57202148 C131.115746 136.40475082 131.11796661 137.23748016 131.12025452 138.09544373 C131 140 131 140 130 141 C127.44410112 141.09506052 124.91532028 141.12556761 122.35913086 141.11352539 C121.15922264 141.11374443 121.15922264 141.11374443 119.93507385 141.1139679 C117.27830335 141.11326855 114.62160207 141.10547518 111.96484375 141.09765625 C110.12781309 141.09579215 108.29078194 141.09436821 106.45375061 141.09336853 C101.60890338 141.08954275 96.76408592 141.07971196 91.91925049 141.06866455 C86.11148443 141.05665742 80.30370844 141.05204848 74.49593353 141.04621124 C65.66393495 141.03650023 56.83200176 141.0173441 48 141 C48 158.16 48 175.32 48 193 C79.68 193 111.36 193 144 193 C144 209.83 144 226.66 144 244 C96.48 244 48.96 244 0 244 C0 163.48 0 82.96 0 0 Z " fill="#000000" transform="translate(974,45)"/>
<path d="M0 0 C7.51132765 -0.0758691 15.02255704 -0.12852324 22.53417969 -0.16479492 C25.09118339 -0.1799107 27.64816106 -0.20040366 30.20507812 -0.22631836 C33.87376317 -0.26257862 37.5421064 -0.27969836 41.2109375 -0.29296875 C42.35992523 -0.30845261 43.50891296 -0.32393646 44.69271851 -0.33988953 C46.28414169 -0.34022942 46.28414169 -0.34022942 47.90771484 -0.34057617 C49.31336197 -0.35056892 49.31336197 -0.35056892 50.74740601 -0.36076355 C51.49076202 -0.24171158 52.23411804 -0.12265961 53 0 C55.00551803 3.00827705 55.69203112 5.09463656 56.5859375 8.55859375 C56.87726563 9.66783203 57.16859375 10.77707031 57.46875 11.91992188 C57.7678125 13.08072266 58.066875 14.24152344 58.375 15.4375 C60.07858678 22.02193828 61.79768307 28.55572717 64.00390625 34.9921875 C66.21718814 41.47096018 67.90192398 48.04892755 69.5625 54.6875 C71.26288482 61.46264752 72.95895604 68.18490099 75.24291992 74.78930664 C79.09164586 86.02768568 82.42987547 97.49367652 85.375 109 C88.5742773 121.49649682 92.26953192 133.85499061 95.89648438 146.23242188 C96.89718501 149.64897325 97.89486504 153.06638097 98.890625 156.484375 C101.16865418 164.30379555 103.44837766 172.12269188 105.7421875 179.9375 C109.65852372 193.29547012 113.46262943 206.68156207 117.18896484 220.09375 C117.96864061 222.8876273 118.75789248 225.67859737 119.55078125 228.46875 C119.78651855 229.30293457 120.02225586 230.13711914 120.26513672 230.99658203 C120.69999737 232.53485816 121.13763643 234.07235274 121.57861328 235.60888672 C122.39418736 238.50816582 123 240.97112834 123 244 C105.84 244 88.68 244 71 244 C69.96875 240.1225 68.9375 236.245 67.875 232.25 C65.35777184 222.82304904 62.71958991 213.44973679 59.77880859 204.14550781 C58.66978983 200.5744522 58 197.77373978 58 194 C29.785 194.495 29.785 194.495 1 195 C-0.65 200.94 -2.3 206.88 -4 213 C-4.86625 215.908125 -5.7325 218.81625 -6.625 221.8125 C-8.48318934 228.05905472 -10.06450886 234.27978583 -11.421875 240.65625 C-12 243 -12 243 -13 244 C-14.59610982 244.09333705 -16.19633428 244.11745372 -17.79516602 244.11352539 C-18.81614883 244.11344986 -19.83713165 244.11337433 -20.88905334 244.11329651 C-21.9994548 244.10813522 -23.10985626 244.10297394 -24.25390625 244.09765625 C-25.38448959 244.0962413 -26.51507294 244.09482635 -27.67991638 244.09336853 C-31.30747065 244.08775019 -34.93496424 244.07519458 -38.5625 244.0625 C-41.01497307 244.05748736 -43.4674471 244.05292405 -45.91992188 244.04882812 C-51.94663545 244.0377748 -57.97331339 244.02101884 -64 244 C-63.69216773 242.25073165 -63.38147028 240.50196736 -63.06958008 238.75341797 C-62.89687088 237.77952118 -62.72416168 236.80562439 -62.54621887 235.80221558 C-61.83483827 232.15268625 -60.81111896 228.66442209 -59.6875 225.125 C-57.72593836 218.71592282 -56.06674524 212.2809062 -54.5625 205.75 C-52.69952679 197.68941295 -50.55297378 189.75230811 -48.23291016 181.81225586 C-46.49855476 175.84226374 -44.91783576 169.8502805 -43.4375 163.8125 C-41.92275154 157.63915165 -40.34528036 151.49441219 -38.625 145.375 C-34.13501193 129.39841049 -29.79616305 113.38454776 -25.84375 97.26611328 C-24.14466063 90.41284188 -22.20405687 83.6399029 -20.23242188 76.86083984 C-18.50314769 70.87395036 -16.92258136 64.86435329 -15.4375 58.8125 C-13.74597818 51.91938145 -11.94581566 45.07111419 -10.02416992 38.23876953 C-8.05587424 31.23338786 -6.14670471 24.2125838 -4.25 17.1875 C-3.94400879 16.05940918 -3.63801758 14.93131836 -3.32275391 13.76904297 C-3.03577637 12.70443848 -2.74879883 11.63983398 -2.453125 10.54296875 C-2.06882324 9.1202063 -2.06882324 9.1202063 -1.67675781 7.66870117 C-1.03128388 5.12336368 -0.50536182 2.57615585 0 0 Z M28 93 C25.52466862 99.2176223 23.7504779 105.45078485 22.125 111.9375 C20.10914018 119.85128755 17.99396432 127.71100699 15.56103516 135.50756836 C14.26142978 139.75779166 13.64211276 143.50521068 13 148 C23.23 148 33.46 148 44 148 C42.38211691 139.83263627 42.38211691 139.83263627 40.4140625 131.79296875 C40.12490967 130.71756836 39.83575684 129.64216797 39.5378418 128.53417969 C39.236604 127.42977539 38.93536621 126.32537109 38.625 125.1875 C38.15864136 123.46708496 38.15864136 123.46708496 37.68286133 121.71191406 C35.04701367 112.04782626 32.18033546 102.49934261 29 93 C28.67 93 28.34 93 28 93 Z " fill="#000000" transform="translate(493,45)"/>
<path d="M0 0 C52.14 0 104.28 0 158 0 C158 16.83 158 33.66 158 51 C140.18 51 122.36 51 104 51 C104 114.69 104 178.38 104 244 C87.5 244 71 244 54 244 C54 180.31 54 116.62 54 51 C36.18 51 18.36 51 0 51 C0 34.17 0 17.34 0 0 Z " fill="#020000" transform="translate(314,45)"/>
<path d="M0 0 C51.48 0 102.96 0 156 0 C156 16.83 156 33.66 156 51 C139.17 51 122.34 51 105 51 C105 114.69 105 178.38 105 244 C88.83 244 72.66 244 56 244 C56 180.31 56 116.62 56 51 C37.52 51 19.04 51 0 51 C0 34.17 0 17.34 0 0 Z " fill="#000000" transform="translate(1124,45)"/>
<path d="M0 0 C3.23249015 2.46530002 6.27605943 4.97339937 9 8 C9 8.66 9 9.32 9 10 C10.485 10.495 10.485 10.495 12 11 C12 11.99 12 12.98 12 14 C12.66 14 13.32 14 14 14 C23.12576292 28.8106644 25.21948791 43.8144032 22.33984375 60.921875 C20.31068328 68.26550336 16.81987796 75.07606133 12 81 C11.34 81 10.68 81 10 81 C9.773125 81.5775 9.54625 82.155 9.3125 82.75 C7.65948561 85.58373895 5.60357787 87.03144113 3 89 C2.57203125 89.46277344 2.1440625 89.92554688 1.703125 90.40234375 C-7.00370444 98.5699888 -19.78566872 101.73244563 -31.375 102.4375 C-41.48084071 102.0400793 -52.03326266 98.48336867 -61 94 C-61 93.34 -61 92.68 -61 92 C-61.99 91.7215625 -61.99 91.7215625 -63 91.4375 C-73.50023737 86.40613626 -80.35898338 75.85119843 -84.4375 65.25 C-85.87238433 60.81892547 -86.80549862 56.65111985 -87 52 C-87.03996094 51.08476562 -87.07992187 50.16953125 -87.12109375 49.2265625 C-87.35327351 38.60092421 -85.80534003 29.50021247 -81 20 C-80.4225 18.824375 -79.845 17.64875 -79.25 16.4375 C-78.8375 15.633125 -78.425 14.82875 -78 14 C-77.34 14 -76.68 14 -76 14 C-75.95875 13.443125 -75.9175 12.88625 -75.875 12.3125 C-74.77870329 9.4151444 -72.9981324 8.13852683 -70.5859375 6.28125 C-68.80406017 4.91744102 -68.80406017 4.91744102 -66.875 2.5625 C-48.49381412 -13.82073089 -19.98201248 -12.0185928 0 0 Z " fill="#FE2828" transform="translate(187,113)"/>
<path d="M0 0 C1.13050781 -0.02835937 2.26101563 -0.05671875 3.42578125 -0.0859375 C7.33734647 0.46683459 8.89533659 1.63719729 11.6875 4.375 C15.21288578 9.66307867 15.07055024 16.03839355 14.0625 22.1875 C10.92116423 29.46968747 10.92116423 29.46968747 7.6875 31.375 C2.61243834 32.29773848 -2.638782 32.59302709 -7.421875 30.4140625 C-11.37234531 27.34364745 -12.99623177 23.60219416 -13.68359375 18.76171875 C-13.85179556 11.92481008 -12.69308286 7.67152291 -8.3125 2.375 C-5.55912027 -0.37837973 -3.8403476 0.04349205 0 0 Z M-1.3125 5.375 C2.6875 6.375 2.6875 6.375 2.6875 6.375 Z M-6.3125 9.375 C-8.23153365 12.1971083 -8.30360212 13.50401932 -8.0625 17 C-7.61768815 20.42772884 -7.61768815 20.42772884 -5.3125 22.375 C-5.3125 18.085 -5.3125 13.795 -5.3125 9.375 C-5.6425 9.375 -5.9725 9.375 -6.3125 9.375 Z M-0.3125 11.375 C-0.3125 12.035 -0.3125 12.695 -0.3125 13.375 C0.6775 13.045 1.6675 12.715 2.6875 12.375 C1.6975 12.045 0.7075 11.715 -0.3125 11.375 Z M7.6875 11.375 C6.18928941 14.74597383 5.6875 16.57942119 5.6875 20.375 C6.3475 21.035 7.0075 21.695 7.6875 22.375 C8.89022819 19.96954362 8.78821472 18.42503047 8.75 15.75 C8.74097656 14.93273437 8.73195313 14.11546875 8.72265625 13.2734375 C8.71105469 12.64695312 8.69945312 12.02046875 8.6875 11.375 C8.3575 11.375 8.0275 11.375 7.6875 11.375 Z M-0.3125 20.375 C-0.3125 22.025 -0.3125 23.675 -0.3125 25.375 C-1.3025 25.87 -1.3025 25.87 -2.3125 26.375 C-0.6625 26.375 0.9875 26.375 2.6875 26.375 C2.0275 24.395 1.3675 22.415 0.6875 20.375 C0.3575 20.375 0.0275 20.375 -0.3125 20.375 Z " fill="#030000" transform="translate(1251.3125,257.625)"/>
</svg>
