<?xml version="1.0" encoding="UTF-8"?>
<svg version="1.1" xmlns="http://www.w3.org/2000/svg" width="2409" height="709">
<path d="M0 0 C2.34682912 2.1331402 4.73565836 4.20897698 7.1328125 6.28515625 C11.29224062 9.99530816 14.90942558 13.92020009 18.4453125 18.22265625 C18.87714844 18.73683105 19.30898437 19.25100586 19.75390625 19.78076172 C42.57152503 46.99649198 57.20709904 78.50506144 64.4453125 113.22265625 C64.62465332 114.0724707 64.80399414 114.92228516 64.98876953 115.79785156 C69.99964008 140.90694073 69.7718446 170.19948923 64.4453125 195.22265625 C64.19587891 196.4748999 64.19587891 196.4748999 63.94140625 197.75244141 C52.99648362 252.0210161 19.86386175 298.50892198 -25.8046875 329.28515625 C-76.83644024 363.01031432 -137.07763282 375.86513288 -197.5546875 377.22265625 C-199.30458984 377.26712891 -199.30458984 377.26712891 -201.08984375 377.3125 C-204.24997234 377.34997188 -207.39519823 377.30286403 -210.5546875 377.22265625 C-211.75786621 377.19582764 -211.75786621 377.19582764 -212.98535156 377.16845703 C-278.06114889 375.57585535 -345.00418819 359.75460829 -396.5546875 318.22265625 C-397.38589111 317.56281738 -397.38589111 317.56281738 -398.23388672 316.88964844 C-412.67281455 305.37139076 -425.7553241 292.21870743 -436.5546875 277.22265625 C-436.96348145 276.66352539 -437.37227539 276.10439453 -437.79345703 275.52832031 C-470.70988295 230.0679616 -481.28728341 173.21386656 -473.05517578 118.26220703 C-468.09120704 88.11517733 -456.29036495 59.10496092 -438.5546875 34.22265625 C-438.13864258 33.63838867 -437.72259766 33.05412109 -437.29394531 32.45214844 C-431.43904843 24.34072507 -424.89617638 16.93071995 -417.98339844 9.71435547 C-416.66803532 8.34100129 -415.364679 6.95617385 -414.0625 5.5703125 C-407.92784829 -0.79564574 -401.24123909 -6.21883182 -394.20068359 -11.53271484 C-392.76391856 -12.61913254 -391.33981038 -13.72224818 -389.91796875 -14.828125 C-309.82866228 -75.55518155 -188.34893917 -81.51376886 0 0 Z M-310.5546875 46.22265625 C-330.03896911 69.58419352 -341.38883185 99.34238225 -345.5546875 129.22265625 C-345.6489502 129.86638184 -345.74321289 130.51010742 -345.84033203 131.17333984 C-346.80977444 138.57682761 -346.79828051 146.01677067 -346.8046875 153.47265625 C-346.80536224 154.18030121 -346.80603699 154.88794617 -346.80673218 155.61703491 C-346.75145146 192.26815076 -336.46563711 230.67994985 -312.5546875 259.22265625 C-311.64254014 260.35882218 -310.73111888 261.4955713 -309.8203125 262.6328125 C-287.8348596 289.64298436 -255.53369173 307.04508442 -220.87890625 310.94140625 C-182.49142796 313.85053747 -144.83698698 305.63888622 -115.1171875 280.16015625 C-112.90256829 278.20951915 -110.72138881 276.22627252 -108.5546875 274.22265625 C-107.30751953 273.08183594 -107.30751953 273.08183594 -106.03515625 271.91796875 C-77.06570821 244.21688533 -61.70976398 201.69613937 -60.5546875 162.22265625 C-60.51472656 161.02382812 -60.47476563 159.825 -60.43359375 158.58984375 C-59.74880973 118.06674235 -71.35385629 77.56929926 -97.5546875 46.22265625 C-98.24280518 45.39797852 -98.24280518 45.39797852 -98.94482422 44.55664062 C-120.44734645 19.19032343 -151.37497896 2.01321642 -184.5546875 -1.77734375 C-185.40289063 -1.88691406 -186.25109375 -1.99648437 -187.125 -2.109375 C-234.89191797 -7.45641806 -278.73340432 10.66226435 -310.5546875 46.22265625 Z " fill="#D93939" transform="translate(2318.5546875,87.77734375)"/>
<path d="M0 0 C1.16310699 -0.00423477 2.32621399 -0.00846954 3.52456665 -0.01283264 C7.25860276 -0.02264784 10.99251586 -0.02276512 14.7265625 -0.01953125 C16.00466797 -0.018927 17.28277344 -0.01832275 18.59960938 -0.0177002 C37.59343428 0.00672112 56.44101072 0.23540893 75.3515625 2.16796875 C75.99710083 2.23348938 76.64263916 2.29901001 77.30773926 2.36651611 C102.71441227 4.96820214 127.87817319 8.86002766 152.7890625 14.54296875 C153.9236792 14.79860596 155.0582959 15.05424316 156.22729492 15.31762695 C167.53894397 17.99087991 178.17004268 21.61021244 189.3515625 25.16796875 C189.3515625 59.48796875 189.3515625 93.80796875 189.3515625 129.16796875 C185.23546091 126.42390103 181.49696659 123.73838592 177.6640625 120.66796875 C136.60834259 88.62448004 84.69766529 72.12579595 33.3515625 67.16796875 C32.6414502 67.09739258 31.93133789 67.02681641 31.19970703 66.95410156 C0.47526455 64.02796418 -38.75512021 64.45487414 -64.7109375 83.60546875 C-73.61170607 91.23227235 -79.30698026 98.79368724 -80.5234375 110.66796875 C-80.97694546 120.68002905 -78.83890309 128.16059501 -72.6484375 136.16796875 C-57.23750092 152.41354019 -31.55943651 156.96529227 -10.6015625 161.03515625 C-9.94037037 161.16363953 -9.27917824 161.2921228 -8.59794998 161.42449951 C8.56879933 164.73798435 25.86475645 167.09728529 43.18145752 169.47009277 C96.9243663 176.83889989 158.85428156 185.9111736 194.23828125 231.796875 C209.73177004 253.13870794 214.58041568 278.25079361 214.6015625 304.10546875 C214.60223724 304.84473602 214.60291199 305.5840033 214.60360718 306.34567261 C214.58778729 317.2452789 214.18076154 327.58128847 211.3515625 338.16796875 C211.18527344 338.81894531 211.01898437 339.46992188 210.84765625 340.140625 C202.37336427 372.71956973 180.75871447 397.42687793 152.22753906 414.43408203 C75.00009954 459.37678586 -36.79794806 450.2896857 -150.00097656 429.29931641 C-161.51943031 426.19296844 -172.47502967 422.4654333 -183.6484375 418.16796875 C-183.6484375 386.15796875 -183.6484375 354.14796875 -183.6484375 321.16796875 C-171.89253872 327.58027717 -171.89253872 327.58027717 -167.01196289 330.58984375 C-116.36809697 361.58789715 -55.2149278 378.37346678 4.0390625 378.41796875 C5.25719635 378.41898087 5.25719635 378.41898087 6.49993896 378.42001343 C36.20496752 378.38102471 71.52328903 376.03962006 94.22265625 354.3828125 C102.2619335 345.58170848 104.80896601 335.40187533 104.59765625 323.66796875 C103.864842 313.24572165 99.42536186 304.87339219 91.9765625 297.60546875 C81.05331925 288.66826973 66.73811639 283.98518718 53.3515625 280.16796875 C52.53365234 279.93400391 51.71574219 279.70003906 50.87304688 279.45898438 C26.47755784 272.68761289 1.13424564 269.40234521 -23.81298828 265.32324219 C-70.76342508 257.63808979 -117.99851626 246.78572835 -153.6484375 213.16796875 C-154.39867187 212.49378906 -155.14890625 211.81960937 -155.921875 211.125 C-174.1312224 194.09766287 -183.46647641 169.39578991 -184.77294922 144.82641602 C-185.88310452 111.03563311 -177.66508535 78.67546979 -154.234375 53.44140625 C-146.41818157 45.25487462 -138.23713471 38.18460997 -128.6484375 32.16796875 C-128.0395166 31.78447266 -127.4305957 31.40097656 -126.80322266 31.00585938 C-89.93691473 8.20432005 -42.76988344 0.04799876 0 0 Z " fill="#D93939" transform="translate(1149.6484375,19.83203125)"/>
<path d="M0 0 C109.89 0 219.78 0 333 0 C333 34.65 333 69.3 333 105 C328.64244446 103.25697778 325.68336775 101.50873866 321.875 98.875 C269.46470197 64.14833778 188.52761951 66.21932541 130 65 C130 101.96 130 138.92 130 177 C139.920625 176.896875 149.84125 176.79375 160.0625 176.6875 C163.12152588 176.66260498 166.18055176 176.63770996 169.33227539 176.61206055 C197.54029633 176.29297435 226.79991696 175.27484525 253.8425293 166.5859375 C256 166 256 166 259 166 C259 194.05 259 222.1 259 251 C253.72 249.68 248.44 248.36 243 247 C239.24592145 246.23823074 235.5228193 245.51112686 231.75 244.875 C230.29231201 244.62689575 230.29231201 244.62689575 228.80517578 244.3737793 C196.19200058 238.99486098 162.93293161 239.67210065 130 239 C130 279.26 130 319.52 130 361 C141.67375 360.896875 153.3475 360.79375 165.375 360.6875 C168.98099121 360.66260498 172.58698242 360.63770996 176.30224609 360.61206055 C229.8444185 360.0964079 303.33751212 358.66614805 346.65625 322.80078125 C349 321 349 321 351 321 C351 355.65 351 390.3 351 426 C235.17 426 119.34 426 0 426 C2.97 422.04 2.97 422.04 6 418 C16.73413807 401.98364775 19.31803147 384.83628013 19.26069641 365.87115479 C19.2637248 364.49436543 19.2676177 363.11757775 19.27228898 361.74079299 C19.28248937 357.99482974 19.28040769 354.24896304 19.27610838 350.50299215 C19.27362653 346.44831427 19.28267337 342.39365877 19.29014587 338.33898926 C19.30285496 330.40948744 19.30469128 322.48001954 19.30234561 314.55050924 C19.3005579 308.10025582 19.30232179 301.65001264 19.30657005 295.19976044 C19.30716524 294.27945944 19.30776043 293.35915845 19.30837366 292.41096954 C19.30958549 290.54096891 19.31079963 288.67096829 19.31201603 286.80096766 C19.32287715 269.28792415 19.32073596 251.77489992 19.31463119 234.26185533 C19.30946435 218.2694891 19.32071387 202.27718382 19.33972941 186.28482965 C19.3591407 169.8324797 19.36735798 153.38015854 19.36360615 136.92779708 C19.36169897 127.7036779 19.36413439 118.47961058 19.37832069 109.25550079 C19.39027756 101.40202022 19.39159143 93.54862341 19.37953053 85.69514158 C19.37367167 81.6950144 19.37245856 77.6950401 19.38453293 73.6949234 C19.45516143 48.54411732 18.60343587 27.49678032 4 6 C2.68 4.02 1.36 2.04 0 0 Z " fill="#D93939" transform="translate(566,29)"/>
<path d="M0 0 C0 35.31 0 70.62 0 107 C-3.95182828 103.61271861 -7.81836358 100.27416517 -11.625 96.75 C-46.38889604 65.49390672 -90.06703732 48.79158245 -137 51 C-179.90143655 53.86378503 -220.9056485 69.33700573 -250 102 C-278.84952673 136.23357527 -290.01317367 179.72558753 -286.78173828 223.98974609 C-283.25655979 259.16099087 -269.29670861 291.29598629 -245 317 C-244.25363281 317.81082031 -243.50726562 318.62164062 -242.73828125 319.45703125 C-220.33829914 342.96775628 -190.24406614 354.71466989 -159 361 C-158.2795752 361.14695312 -157.55915039 361.29390625 -156.81689453 361.4453125 C-122.96358988 367.96456605 -85.76401496 362.09648525 -55 347 C-54.38495605 346.70399902 -53.76991211 346.40799805 -53.13623047 346.10302734 C-35.16488658 337.36518717 -18.71109305 325.02708487 -4.75 310.75 C-3.8425 309.8425 -2.935 308.935 -2 308 C-1.34 308 -0.68 308 0 308 C0 342.98 0 377.96 0 414 C-5.40118746 416.0254453 -9.8312029 417.55031409 -15.34765625 418.68359375 C-16.0287999 418.82401093 -16.70994354 418.9644281 -17.41172791 419.10910034 C-19.62689831 419.56119892 -21.84422561 420.00090002 -24.0625 420.4375 C-24.83021729 420.58996185 -25.59793457 420.74242371 -26.38891602 420.89950562 C-42.18358989 424.01735857 -57.98617056 426.2983365 -74 428 C-75.02641602 428.11714355 -76.05283203 428.23428711 -77.11035156 428.35498047 C-149.23107073 436.36178416 -229.46208688 428.79737716 -295 396 C-295.78439453 395.61521484 -296.56878906 395.23042969 -297.37695312 394.83398438 C-319.87685601 383.73839062 -339.87774995 369.2881716 -358 352 C-358.85207031 351.20078125 -359.70414063 350.4015625 -360.58203125 349.578125 C-367.46839108 342.94119237 -373.34732545 335.69076975 -379 328 C-379.41749512 327.43216797 -379.83499023 326.86433594 -380.26513672 326.27929688 C-400.41368721 298.43417592 -412.89489978 265.2367544 -416 231 C-416.10957031 229.89527344 -416.21914062 228.79054688 -416.33203125 227.65234375 C-420.8823757 174.80767692 -407.66983227 120.85872647 -373.61035156 79.47705078 C-371.45511335 76.93888259 -369.23546549 74.46811574 -367 72 C-366.13503906 71.01515625 -365.27007813 70.0303125 -364.37890625 69.015625 C-359.54798256 63.57440197 -354.61487497 58.61707813 -349 54 C-347.87074497 53.03556448 -346.74187555 52.07067737 -345.61328125 51.10546875 C-335.66777035 42.70274475 -325.20471814 35.61335308 -314 29 C-313.20609863 28.52820312 -312.41219727 28.05640625 -311.59423828 27.5703125 C-274.08815575 5.49804771 -230.9499154 -6.48771139 -188 -12 C-186.32260742 -12.22429688 -186.32260742 -12.22429688 -184.61132812 -12.453125 C-133.20659437 -19.04566134 -48.69994344 -24.34997172 0 0 Z " fill="#D93939" transform="translate(1814,35)"/>
<path d="M0 0 C158.73 0 317.46 0 481 0 C481 34.65 481 69.3 481 105 C476.66754309 103.26701724 473.7751668 101.56068575 470 98.9375 C426.59946052 70.24147942 366.37614971 68.39829511 316.12109375 65.94140625 C314.25809188 65.84943482 312.39509542 65.75735385 310.53210449 65.66516113 C306.02146418 65.44218047 301.51075378 65.22067298 297 65 C297.10491687 101.68019685 297.21476326 138.36037568 297.33111694 175.04053808 C297.34488466 179.38208712 297.35861203 183.72363629 297.37231445 188.06518555 C297.37504276 188.92942131 297.37777106 189.79365706 297.38058204 190.68408179 C297.42452142 204.63300066 297.46520134 218.58192721 297.50465261 232.53085942 C297.54528014 246.86970946 297.58946626 261.20854544 297.63687855 275.54737467 C297.66596713 284.37780872 297.69236013 293.20824204 297.71517897 302.03869455 C297.73114582 308.11410096 297.75060426 314.18949028 297.77266841 320.26487757 C297.78525304 323.75726025 297.79643323 327.24963044 297.80341911 330.74202919 C297.83149316 343.42159603 297.91138177 356.08832428 298.43470764 368.75852966 C298.47106368 369.6662333 298.50741973 370.57393694 298.54487747 371.50914675 C299.52913489 392.51367218 306.36202007 408.54303011 318 426 C267.18 426 216.36 426 164 426 C166.27101007 422.02573237 168.50878363 418.16749856 170.9375 414.3125 C181.22996175 397.08042389 183.14166181 378.69978209 183.15821838 359.02229309 C183.16315636 357.75924384 183.16809434 356.4961946 183.17318195 355.19487113 C183.18664161 351.719444 183.19414567 348.24402654 183.20060861 344.76858032 C183.20866668 341.00935427 183.22234554 337.25014799 183.23532104 333.49093628 C183.25700766 326.98790423 183.27518042 320.48487011 183.29092598 313.98182106 C183.31369619 304.57965288 183.34182884 295.17750667 183.37124526 285.77535721 C183.41883384 270.51878628 183.46212151 255.26220634 183.50268555 240.00561523 C183.54208503 225.19050394 183.58352184 210.37540063 183.62768555 195.56030273 C183.63177196 194.18912621 183.63177196 194.18912621 183.63594092 192.79024915 C183.64962113 188.20411615 183.66334126 183.61798327 183.67708123 179.03185046 C183.7909087 141.0212503 183.89774822 103.01063295 184 65 C176.65601938 65.38845331 169.31239917 65.78327041 161.96897888 66.18217468 C159.47936955 66.31670124 156.98968576 66.44985795 154.49992371 66.58152771 C75.39883616 70.21145287 75.39883616 70.21145287 5.29296875 103.23828125 C3 105 3 105 0 105 C0 70.35 0 35.7 0 0 Z " fill="#DA3739" transform="translate(42,29)"/>
<path d="M0 0 C1.24006821 -0.00085442 2.48013642 -0.00170885 3.75778246 -0.00258917 C7.18300446 -0.00394735 10.60816883 -0.00083785 14.03338385 0.0041889 C17.73334594 0.00851942 21.43330635 0.00704513 25.13327026 0.00628662 C31.53814615 0.00576303 37.94301182 0.00889258 44.34788513 0.01452446 C53.60818287 0.02266184 62.86847568 0.02525698 72.12877661 0.02651245 C87.15409117 0.02869945 102.1794003 0.03535 117.20471191 0.04481506 C131.7978106 0.05399828 146.3909078 0.06107467 160.98400879 0.06532288 C161.88397967 0.0655856 162.78395054 0.06584832 163.71119326 0.06611901 C168.2262177 0.06742407 172.74124214 0.06868777 177.25626659 0.06993091 C214.69514023 0.08029257 252.13400768 0.09790132 289.57287598 0.12025452 C289.22155762 2.51820374 289.22155762 2.51820374 288.57287598 5.12025452 C286.19396973 6.75306702 286.19396973 6.75306702 283.01037598 8.24525452 C268.48908947 15.48255817 255.93642319 25.72739125 243.57287598 36.12025452 C242.94042969 36.64828674 242.3079834 37.17631897 241.65637207 37.72035217 C235.01318804 43.27556204 228.60663811 48.91680512 222.56115723 55.12806702 C220.73441359 56.95839954 218.85820631 58.63811706 216.88537598 60.30775452 C212.95835219 63.66371707 209.37897909 67.31549192 205.76037598 70.99525452 C200.01125955 76.816321 194.01816199 82.07226715 187.57287598 87.12025452 C186.80072754 87.77123108 186.0285791 88.42220764 185.23303223 89.09291077 C170.7621932 101.20411215 154.37484844 109.93179178 136.19787598 114.93275452 C135.50460205 115.12780579 134.81132813 115.32285706 134.0970459 115.52381897 C117.11470211 119.85003241 99.43035908 119.40655125 82.05077076 119.35238576 C78.51731241 119.34363165 74.98385984 119.34667974 71.45039368 119.34819031 C65.34961549 119.34923171 59.24888056 119.34303379 53.14811325 119.33171463 C44.32777187 119.31536044 35.50745109 119.31024156 26.68709619 119.30773865 C12.37166723 119.30337698 -1.94373876 119.29010967 -16.25915527 119.27113342 C-30.15335985 119.25273484 -44.04755814 119.23859788 -57.94177246 119.2301178 C-59.22954151 119.22932963 -59.22954151 119.22932963 -60.54332609 119.22852553 C-64.85085123 119.22591519 -69.15837641 119.22338784 -73.46590161 119.22090173 C-109.11965879 119.20021689 -144.77338927 119.16503338 -180.42712402 119.12025452 C-180.75712402 117.80025452 -181.08712402 116.48025452 -181.42712402 115.12025452 C-180.68776611 114.63782288 -180.68776611 114.63782288 -179.93347168 114.14564514 C-170.78750469 108.16074632 -161.76798936 102.20796884 -153.42712402 95.12025452 C-152.38204339 94.24726901 -151.33643485 93.37491525 -150.29040527 92.50306702 C-143.53626169 86.85254812 -136.93285672 81.05584475 -130.42712402 75.12025452 C-129.55185059 74.33779358 -128.67657715 73.55533264 -127.77478027 72.74916077 C-121.35623912 66.96454961 -115.17222541 60.96988112 -109.05212402 54.87025452 C-108.29093262 54.1136554 -107.52974121 53.35705627 -106.7454834 52.57752991 C-103.4385211 49.26146254 -100.21559632 45.93875027 -97.20837402 42.34681702 C-93.19621403 37.57219605 -88.32675757 33.94467281 -83.42712402 30.12025452 C-82.03300293 29.00263733 -82.03300293 29.00263733 -80.61071777 27.86244202 C-57.25432094 9.6222083 -29.60522969 -0.07487243 0 0 Z " fill="#205499" transform="translate(676.4271240234375,569.8797454833984)"/>
<path d="M0 0 C1.86622765 -0.00128164 1.86622765 -0.00128164 3.77015686 -0.00258917 C7.20678037 -0.00394738 10.64334643 -0.00083774 14.07996297 0.0041889 C17.79219512 0.00851931 21.50442558 0.00704513 25.21665955 0.00628662 C31.64281634 0.00576303 38.06896295 0.00889264 44.49511719 0.01452446 C53.78618401 0.02266174 63.07724593 0.02525697 72.36831594 0.02651245 C87.44354479 0.02869947 102.51876823 0.03535006 117.59399414 0.04481506 C132.23559543 0.05399824 146.87719524 0.06107465 161.51879883 0.06532288 C162.4217567 0.0655856 163.32471457 0.06584832 164.2550348 0.06611901 C168.78504331 0.06742407 173.31505183 0.06868777 177.84506035 0.06993091 C215.4083481 0.08029261 252.97162968 0.09790141 290.53491211 0.12025452 C288.7565304 5.38645749 286.08237565 6.88947546 281.28491211 9.30775452 C273.18199862 13.63161638 265.84357918 18.57432661 258.53491211 24.12025452 C257.94436035 24.56659241 257.35380859 25.0129303 256.74536133 25.47279358 C249.52703075 30.95817901 242.64263676 36.6736787 235.99584961 42.84291077 C233.79531765 44.87927605 231.55762508 46.85287305 229.28491211 48.80775452 C226.1390431 51.53801075 223.21063465 54.42344278 220.29272461 57.39369202 C218.55827863 59.0973034 216.76252664 60.67169489 214.90991211 62.24525452 C211.14616871 65.47756026 207.69536247 68.95900307 204.22241211 72.49525452 C198.64070544 78.1451874 192.80493048 83.23577866 186.53491211 88.12025452 C185.54104492 88.93107483 184.54717773 89.74189514 183.52319336 90.57728577 C153.35046434 114.94540113 119.69936034 119.46984024 82.01280689 119.35238576 C78.47934854 119.34363165 74.94589598 119.34667974 71.41242981 119.34819031 C65.31165162 119.34923171 59.21091669 119.34303379 53.11014938 119.33171463 C44.289808 119.31536044 35.46948723 119.31024156 26.64913233 119.30773865 C12.33370336 119.30337698 -1.98170263 119.29010967 -16.29711914 119.27113342 C-30.19132371 119.25273484 -44.08552201 119.23859788 -57.97973633 119.2301178 C-59.26750538 119.22932963 -59.26750538 119.22932963 -60.58128996 119.22852553 C-64.8888151 119.22591519 -69.19634027 119.22338784 -73.50386548 119.22090173 C-109.15762265 119.20021689 -144.81135314 119.16503338 -180.46508789 119.12025452 C-180.79508789 117.80025452 -181.12508789 116.48025452 -181.46508789 115.12025452 C-180.85665039 114.75416077 -180.24821289 114.38806702 -179.62133789 114.01087952 C-163.19964884 103.86807158 -148.34583282 91.51615894 -134.11132812 78.52992249 C-132.39039641 76.96284102 -130.66261807 75.4032343 -128.92700195 73.85243225 C-122.98255775 68.49559373 -117.26930388 62.96823347 -111.67211914 57.24916077 C-110.99011948 56.55458771 -110.30811981 55.86001465 -109.60545349 55.14439392 C-106.79183495 52.27703416 -103.97945067 49.40888448 -101.1875 46.520401 C-91.37316275 36.38409369 -81.31077195 27.79979904 -69.46508789 20.12025452 C-68.40370605 19.42722229 -67.34232422 18.73419006 -66.2487793 18.02015686 C-46.48076163 5.45740875 -23.173527 -0.05840916 0 0 Z " fill="#19559B" transform="translate(204.465087890625,569.8797454833984)"/>
<path d="M0 0 C1.24519476 -0.00170885 2.49038952 -0.0034177 3.77331746 -0.00517833 C7.18504996 -0.00787757 10.59654677 -0.00172501 14.00825047 0.00837779 C17.70401672 0.0170902 21.39977689 0.01408667 25.09555054 0.01257324 C31.48396365 0.01152927 37.87233561 0.01775453 44.26073837 0.02904892 C53.49706183 0.04536758 62.73336559 0.05051841 71.9697019 0.0530249 C86.9584197 0.05739206 101.94711561 0.07067448 116.93582153 0.08963013 C131.48790376 0.10801435 146.03998002 0.12215838 160.59207153 0.13064575 C161.49046607 0.1311712 162.3888606 0.13169665 163.31447922 0.13223802 C167.82187982 0.13484827 172.32928046 0.13737564 176.83668113 0.13986182 C214.17491915 0.16056381 251.51313231 0.19576253 288.85134888 0.24050903 C288.525177 2.62698364 288.525177 2.62698364 287.85134888 5.24050903 C285.66554037 6.66803847 283.70176594 7.72669396 281.35134888 8.80300903 C261.73906038 18.55479287 244.71201722 33.46501084 228.87869263 48.42410278 C226.64181474 50.53341635 224.34229403 52.55199091 222.01150513 54.55691528 C217.57900594 58.41371055 213.46652652 62.55037369 209.35134888 66.74050903 C204.03752193 72.151127 198.63766266 77.33619376 192.85134888 82.24050903 C192.21858032 82.77982056 191.58581177 83.31913208 190.93386841 83.87478638 C162.8140991 107.64517267 132.31895268 119.45878403 95.55699158 119.36076355 C94.36744627 119.36161797 93.17790097 119.3624724 91.95230883 119.36335272 C88.6820918 119.36470589 85.41191526 119.36161566 82.14170301 119.35657465 C78.60334937 119.35222922 75.0649974 119.35371947 71.52664185 119.35447693 C65.40665561 119.35499958 59.28668009 119.35187987 53.16669655 119.34623909 C44.31838495 119.33808895 35.4700785 119.33550528 26.62176355 119.3342511 C12.26363737 119.33206609 -2.09448311 119.32542097 -16.4526062 119.31594849 C-30.3946632 119.3067601 -44.33671865 119.29968625 -58.27877808 119.29544067 C-59.13912984 119.29517795 -59.9994816 119.29491523 -60.88590463 119.29464454 C-65.20232424 119.29333944 -69.51874385 119.29207575 -73.83516347 119.29083264 C-109.60633009 119.28047719 -145.37749008 119.26287389 -181.14865112 119.24050903 C-181.47865112 117.92050903 -181.80865112 116.60050903 -182.14865112 115.24050903 C-181.2282605 114.64625122 -180.30786987 114.05199341 -179.35958862 113.43972778 C-170.23286011 107.48777786 -161.57249973 101.14889195 -153.14865112 94.24050903 C-152.59967163 93.79062622 -152.05069214 93.34074341 -151.4850769 92.87722778 C-143.66995397 86.43769639 -136.18199386 79.68016319 -128.78683472 72.76541138 C-127.13029326 71.22342062 -125.46362364 69.69320452 -123.79318237 68.16629028 C-111.75837205 57.18985897 -111.75837205 57.18985897 -100.71115112 45.24050903 C-75.91780492 16.52635459 -37.5958176 -0.19309168 0 0 Z " fill="#205499" transform="translate(2093.148651123047,569.7594909667969)"/>
<path d="M0 0 C1.24006821 -0.00085442 2.48013642 -0.00170885 3.75778246 -0.00258917 C7.18300446 -0.00394735 10.60816883 -0.00083785 14.03338385 0.0041889 C17.73334594 0.00851942 21.43330635 0.00704513 25.13327026 0.00628662 C31.53814615 0.00576303 37.94301182 0.00889258 44.34788513 0.01452446 C53.60818287 0.02266184 62.86847568 0.02525698 72.12877661 0.02651245 C87.15409117 0.02869945 102.1794003 0.03535 117.20471191 0.04481506 C131.7978106 0.05399828 146.3909078 0.06107467 160.98400879 0.06532288 C161.88397967 0.0655856 162.78395054 0.06584832 163.71119326 0.06611901 C168.2262177 0.06742407 172.74124214 0.06868777 177.25626659 0.06993091 C214.69514023 0.08029257 252.13400768 0.09790132 289.57287598 0.12025452 C289.2532959 2.50233459 289.2532959 2.50233459 288.57287598 5.12025452 C286.32475223 6.58959656 284.30003804 7.69354725 281.88537598 8.80775452 C273.81387606 12.82372848 266.73372768 17.66975869 259.57287598 23.12025452 C259.00214355 23.55209045 258.43141113 23.98392639 257.84338379 24.42884827 C239.569027 38.32271908 222.66209004 53.89065283 206.51037598 70.18275452 C202.02035489 74.70724145 197.49196849 79.06371121 192.57287598 83.12025452 C191.82844238 83.75133118 191.82844238 83.75133118 191.06896973 84.39515686 C158.08161408 112.3023832 124.6390297 119.48454928 82.16683638 119.35238576 C78.63267874 119.34364075 75.09852701 119.34667912 71.56436157 119.34819031 C65.46083746 119.34923227 59.35735655 119.34302839 53.25384331 119.33171463 C44.42950592 119.31536818 35.60518914 119.31024234 26.78083826 119.30773865 C12.45930843 119.30337579 -1.86219844 119.29010519 -16.18371582 119.27113342 C-30.08475633 119.25273797 -43.98579057 119.23859947 -57.88684082 119.2301178 C-58.74561624 119.22959235 -59.60439167 119.2290669 -60.48919059 119.22852553 C-64.79798635 119.22591521 -69.10678217 119.22338785 -73.41557801 119.22090173 C-109.0861097 119.20021316 -144.75661473 119.16502633 -180.42712402 119.12025452 C-180.75712402 117.80025452 -181.08712402 116.48025452 -181.42712402 115.12025452 C-180.49513184 114.51439514 -179.56313965 113.90853577 -178.60290527 113.28431702 C-161.25852845 101.92305129 -145.54855161 88.91417501 -130.35681152 74.83119202 C-128.39157373 73.01269198 -126.42121813 71.20433663 -124.43493652 69.40931702 C-115.88746115 61.67317916 -107.31540833 53.81201594 -99.86462402 44.99525452 C-75.16320758 16.34396957 -37.47923272 -0.09478599 0 0 Z " fill="#205499" transform="translate(1620.4271240234375,569.8797454833984)"/>
<path d="M0 0 C1.24006821 -0.00085442 2.48013642 -0.00170885 3.75778246 -0.00258917 C7.18300446 -0.00394735 10.60816883 -0.00083785 14.03338385 0.0041889 C17.73334594 0.00851942 21.43330635 0.00704513 25.13327026 0.00628662 C31.53814615 0.00576303 37.94301182 0.00889258 44.34788513 0.01452446 C53.60818287 0.02266184 62.86847568 0.02525698 72.12877661 0.02651245 C87.15409117 0.02869945 102.1794003 0.03535 117.20471191 0.04481506 C131.7978106 0.05399828 146.3909078 0.06107467 160.98400879 0.06532288 C161.88397967 0.0655856 162.78395054 0.06584832 163.71119326 0.06611901 C168.2262177 0.06742407 172.74124214 0.06868777 177.25626659 0.06993091 C214.69514023 0.08029257 252.13400768 0.09790132 289.57287598 0.12025452 C289.2532959 2.50233459 289.2532959 2.50233459 288.57287598 5.12025452 C286.32475223 6.58959656 284.30003804 7.69354725 281.88537598 8.80775452 C273.81455057 12.82339288 266.73156185 17.66791836 259.57287598 23.12025452 C258.97555664 23.57335999 258.3782373 24.02646545 257.76281738 24.49330139 C250.9491592 29.68778232 244.34744282 35.03756369 238.04943848 40.85462952 C235.97994619 42.7478559 233.88485725 44.59691768 231.76818848 46.43666077 C227.70848569 49.97955364 223.74999194 53.61892615 219.82287598 57.30775452 C219.13040771 57.95631409 218.43793945 58.60487366 217.7244873 59.27308655 C213.4819544 63.26554052 209.33960253 67.3368394 205.26037598 71.49525452 C200.83811387 75.9863946 196.20401792 80.07215997 191.26037598 83.98353577 C189.50154321 85.38191008 187.77046065 86.81609906 186.07287598 88.28822327 C155.65176813 114.48932987 121.0528006 119.47338978 82.16683638 119.35238576 C78.63267874 119.34364075 75.09852701 119.34667912 71.56436157 119.34819031 C65.46083746 119.34923227 59.35735655 119.34302839 53.25384331 119.33171463 C44.42950592 119.31536818 35.60518914 119.31024234 26.78083826 119.30773865 C12.45930843 119.30337579 -1.86219844 119.29010519 -16.18371582 119.27113342 C-30.08475633 119.25273797 -43.98579057 119.23859947 -57.88684082 119.2301178 C-58.74561624 119.22959235 -59.60439167 119.2290669 -60.48919059 119.22852553 C-64.79798635 119.22591521 -69.10678217 119.22338785 -73.41557801 119.22090173 C-109.0861097 119.20021316 -144.75661473 119.16502633 -180.42712402 119.12025452 C-180.75712402 117.80025452 -181.08712402 116.48025452 -181.42712402 115.12025452 C-180.73489746 114.677099 -180.73489746 114.677099 -180.02868652 114.22499084 C-168.55713209 106.83847735 -157.83426195 98.93590008 -147.42712402 90.12025452 C-146.78694336 89.58303772 -146.1467627 89.04582092 -145.48718262 88.49232483 C-136.51281646 80.96172221 -136.51281646 80.96172221 -128.11218262 72.80458069 C-126.38701209 71.08016002 -124.59023559 69.50112312 -122.73571777 67.91712952 C-118.43327778 64.17564181 -114.38341464 60.22493286 -110.36462402 56.18275452 C-109.69624512 55.5182428 -109.02786621 54.85373108 -108.3392334 54.16908264 C-104.38264312 50.2048022 -100.63765393 46.11811533 -96.97521973 41.88172913 C-73.14969303 14.77225505 -35.46088183 -0.08968153 0 0 Z " fill="#205499" transform="translate(1148.4271240234375,569.8797454833984)"/>
</svg>
