<?xml version="1.0" encoding="UTF-8"?>
<svg version="1.1" xmlns="http://www.w3.org/2000/svg" width="1280" height="322">
<path d="M0 0 C1.17751328 -0.00151062 1.17751328 -0.00151062 2.3788147 -0.00305176 C13.91986455 0.0069774 24.86463511 0.53917142 36.125 3.25 C37.53610239 3.55633175 38.94757084 3.86098148 40.359375 4.1640625 C48.41904357 5.96510057 55.71665077 8.57093843 63.125 12.25 C64.259375 12.70375 65.39375 13.1575 66.5625 13.625 C71.955483 16.08495716 77.22285908 18.90946062 82.125 22.25 C82.125 22.91 82.125 23.57 82.125 24.25 C82.681875 24.50265625 83.23875 24.7553125 83.8125 25.015625 C90.6167214 28.64760805 96.2198829 33.64134028 100.125 40.25 C100.805625 40.930625 101.48625 41.61125 102.1875 42.3125 C116.16466365 56.28966365 120.24828373 79.80524236 120.4375 98.5625 C120.31394302 116.36544924 117.18673981 136.35446249 105.125 150.25 C104.41614106 151.56138904 103.73043548 152.88777017 103.125 154.25 C102.465 154.25 101.805 154.25 101.125 154.25 C100.85558594 154.83394531 100.58617187 155.41789063 100.30859375 156.01953125 C94.88520848 166.23983815 84.04888754 173.8709963 74.125 179.25 C73.5475 179.56904297 72.97 179.88808594 72.375 180.21679688 C64.70328437 184.40059754 56.9552516 187.90044878 48.625 190.5625 C47.91569336 190.79243652 47.20638672 191.02237305 46.47558594 191.25927734 C32.09086687 195.62846771 18.25614464 196.76080689 3.30834961 196.69604492 C0.32660619 196.68754023 -2.65321002 196.71640387 -5.63476562 196.74804688 C-34.44030412 196.85265793 -60.28808308 188.77223649 -83.875 172.25 C-84.865 171.59 -85.855 170.93 -86.875 170.25 C-86.875 169.59 -86.875 168.93 -86.875 168.25 C-87.44863281 167.99863281 -88.02226563 167.74726563 -88.61328125 167.48828125 C-99.29732894 161.63881127 -107.43894479 148.14272196 -111.875 137.25 C-112.20322754 136.57332275 -112.53145508 135.89664551 -112.86962891 135.19946289 C-115.7165724 129.28033048 -117.07721511 123.52806005 -118.125 117.0625 C-118.29265869 116.04655762 -118.46031738 115.03061523 -118.63305664 113.98388672 C-120.79519271 100.18007139 -119.74987188 87.84443674 -116.875 74.25 C-116.68164062 73.26128906 -116.48828125 72.27257812 -116.2890625 71.25390625 C-113.57563911 59.39589366 -106.78016874 48.35445716 -98.875 39.25 C-98.20984375 38.44175781 -97.5446875 37.63351563 -96.859375 36.80078125 C-85.37184486 23.30913164 -70.23126266 14.58834852 -53.875 8.25 C-53.10704102 7.92435059 -52.33908203 7.59870117 -51.54785156 7.26318359 C-48.84136173 6.23724892 -46.2501982 5.58377583 -43.41796875 4.99609375 C-41.87206055 4.67415039 -41.87206055 4.67415039 -40.29492188 4.34570312 C-38.69487305 4.01989258 -38.69487305 4.01989258 -37.0625 3.6875 C-36.00740234 3.46642578 -34.95230469 3.24535156 -33.86523438 3.01757812 C-22.48704241 0.67104757 -11.59153764 0.01027552 0 0 Z M-38.875 45.25 C-39.70257812 45.8790625 -40.53015625 46.508125 -41.3828125 47.15625 C-53.14560572 57.03847126 -59.40505703 73.30898245 -60.875 88.25 C-62.35990484 109.74134598 -58.66078535 130.2383369 -44.17578125 146.9453125 C-31.42752904 159.7152086 -16.37353776 166.51595809 1.77270508 166.64160156 C17.52107359 166.38422912 31.9543982 159.4019244 43.04296875 148.3359375 C44.82319242 146.36315101 46.49125523 144.34545525 48.125 142.25 C48.63804687 141.59644531 49.15109375 140.94289063 49.6796875 140.26953125 C61.58235836 123.83397797 63.31098173 104.83811078 61.125 85.25 C61.03476563 84.36054687 60.94453125 83.47109375 60.8515625 82.5546875 C58.79770277 68.72536533 49.74733998 53.14312185 39.125 44.25 C33.40992845 40.27352276 27.69368789 36.63861378 21.125 34.25 C20.05765625 33.85167969 20.05765625 33.85167969 18.96875 33.4453125 C-1.24954135 26.55271318 -22.86968718 31.51799457 -38.875 45.25 Z " fill="#D93939" transform="translate(1038.875,13.75)"/>
<path d="M0 0 C0.81449615 -0.00696899 1.62899231 -0.01393799 2.46817017 -0.02111816 C5.09211432 -0.03845748 7.71584463 -0.04484156 10.33984375 -0.046875 C11.2368399 -0.04788208 12.13383606 -0.04888916 13.05801392 -0.04992676 C27.02332506 -0.03931992 40.51517172 0.69542145 54.27734375 3.203125 C56.16394226 3.52024742 58.050664 3.83663744 59.9375 4.15234375 C61.80140434 4.4782269 63.66471406 4.80753364 65.52734375 5.140625 C66.34936279 5.2859668 67.17138184 5.43130859 68.01831055 5.58105469 C74.5542565 6.83916942 79.82227253 8.85582637 86.27734375 11.203125 C86.27734375 26.713125 86.27734375 42.223125 86.27734375 58.203125 C82.3177063 56.61927002 79.91143737 55.3907904 76.58984375 52.953125 C53.73622502 36.74417074 23.31292042 28.12156909 -4.78515625 31.953125 C-16.14806378 34.08810123 -16.14806378 34.08810123 -25.72265625 40.203125 C-26.38265625 40.203125 -27.04265625 40.203125 -27.72265625 40.203125 C-30.53791144 46.02131907 -31.48130156 51.61480571 -29.66015625 57.828125 C-24.63727852 65.13843134 -13.76964583 68.23611098 -5.47779846 69.89007568 C-1.09074252 70.67308594 3.30809684 71.35407268 7.71484375 72.015625 C9.49968137 72.30197214 11.28419037 72.59037533 13.06835938 72.88085938 C20.83177065 74.1300771 28.60032185 75.26001449 36.40234375 76.23828125 C42.3635822 77.0178745 48.06829476 78.15013834 53.83984375 79.828125 C54.72897461 80.08609863 55.61810547 80.34407227 56.53417969 80.60986328 C69.84858335 84.69086042 83.26993973 92.14509255 91.15234375 104.0234375 C98.70354664 118.65389311 100.79965765 135.57208924 96.17578125 151.4375 C95.73105469 152.80648437 95.73105469 152.80648437 95.27734375 154.203125 C95.02210938 155.05390625 94.766875 155.9046875 94.50390625 156.78125 C89.93472961 170.11150846 79.13572706 179.16253623 67.15234375 185.765625 C54.5363731 191.88036788 38.76660327 196.23212582 24.70043945 196.38012695 C23.09003532 196.39937981 23.09003532 196.39937981 21.44709778 196.41902161 C20.29408676 196.42640854 19.14107574 196.43379547 17.953125 196.44140625 C16.73827927 196.449478 15.52343353 196.45754974 14.27177429 196.46586609 C11.69039322 196.47969122 9.10899399 196.49042039 6.52758789 196.49829102 C3.93996659 196.50968175 1.35236628 196.52992151 -1.23510742 196.55981445 C-26.90633362 196.85579832 -53.82309081 195.4457959 -77.72265625 185.203125 C-77.72265625 170.683125 -77.72265625 156.163125 -77.72265625 141.203125 C-73.72265625 142.203125 -73.72265625 142.203125 -71.91015625 143.578125 C-69.58932596 145.30217036 -67.23237459 146.30575196 -64.56567383 147.3918457 C-62.72265625 148.203125 -62.72265625 148.203125 -59.421875 150.12109375 C-35.99159883 163.64724526 -0.00664136 170.30976882 26.33984375 163.453125 C34.7445776 160.94398734 41.12288601 158.54432238 46.27734375 151.203125 C47.89438036 146.35201516 47.75717582 142.01172278 46.46484375 137.140625 C40.06316823 128.54408931 29.6535658 125.66204256 19.65234375 123.390625 C17.80129028 122.94819458 17.80129028 122.94819458 15.9128418 122.49682617 C7.99917481 120.66141969 0.23061757 119.39766068 -7.84765625 118.65234375 C-14.27305449 117.90746391 -20.47595458 116.35423832 -26.7265625 114.72216797 C-28.61658788 114.23070589 -30.51324625 113.76496156 -32.41015625 113.30078125 C-41.17485444 111.02156844 -48.8022644 107.48832181 -56.72265625 103.203125 C-56.72265625 102.543125 -56.72265625 101.883125 -56.72265625 101.203125 C-57.30273438 100.93628906 -57.8828125 100.66945313 -58.48046875 100.39453125 C-67.79478437 95.44528689 -74.43790248 86.05738632 -77.72265625 76.203125 C-78.94081551 69.26439432 -78.90115533 62.22408866 -78.72265625 55.203125 C-78.74070312 54.35234375 -78.75875 53.5015625 -78.77734375 52.625 C-78.53960452 41.28144234 -72.02476944 29.80997807 -64.36328125 21.68359375 C-59.39811799 17.203125 -59.39811799 17.203125 -56.72265625 17.203125 C-56.72265625 16.543125 -56.72265625 15.883125 -56.72265625 15.203125 C-53.72265625 13.203125 -53.72265625 13.203125 -49.72265625 13.203125 C-49.72265625 12.543125 -49.72265625 11.883125 -49.72265625 11.203125 C-35.11021497 2.98799653 -16.59451927 0.09578873 0 0 Z " fill="#D93939" transform="translate(613.72265625,13.796875)"/>
<path d="M0 0 C48.84 0 97.68 0 148 0 C148 15.84 148 31.68 148 48 C144.58078209 47.14519552 142.29030225 46.08358232 139.27880859 44.37133789 C127.6641876 37.91165448 114.95286182 35.47347292 102 33 C101.07123047 32.81824219 100.14246094 32.63648438 99.18554688 32.44921875 C95.22133644 31.89019459 91.31899238 31.76935463 87.3203125 31.68359375 C86.59900146 31.66494263 85.87769043 31.6462915 85.13452148 31.6270752 C82.46479412 31.55927215 79.79488438 31.49880947 77.125 31.4375 C68.153125 31.2209375 68.153125 31.2209375 59 31 C59 46.51 59 62.02 59 78 C78.16417007 77.48758904 96.28548196 76.15878179 115 72 C115 85.2 115 98.4 115 112 C110.71 111.01 106.42 110.02 102 109 C98.33837208 108.47569876 98.33837208 108.47569876 95.1484375 108.34765625 C93.98666992 108.28336426 92.82490234 108.21907227 91.62792969 108.15283203 C90.43071289 108.10239746 89.23349609 108.05196289 88 108 C86.73833008 107.94569824 85.47666016 107.89139648 84.17675781 107.83544922 C80.32647694 107.68505518 76.47635867 107.55722556 72.625 107.4375 C68.12875 107.293125 63.6325 107.14875 59 107 C59 123.83 59 140.66 59 158 C96.48523174 157.5075647 96.48523174 157.5075647 133 150 C134.63388672 149.48566406 134.63388672 149.48566406 136.30078125 148.9609375 C141.63110288 147.1473011 146.35308627 144.84668673 151.125 141.85546875 C153 141 153 141 156 142 C156.02527062 148.39037231 156.04283317 154.78073183 156.05493164 161.17114258 C156.05997308 163.34692873 156.06680607 165.52271147 156.07543945 167.69848633 C156.08751338 170.81853067 156.09323005 173.93853038 156.09765625 177.05859375 C156.10281754 178.03775253 156.10797882 179.01691132 156.11329651 180.02574158 C156.11337204 180.92659988 156.11344757 181.82745819 156.11352539 182.75561523 C156.115746 183.55281479 156.11796661 184.35001434 156.12025452 185.17137146 C156 187 156 187 155 188 C153.00038545 188.09672695 150.99729807 188.1218703 148.99534607 188.12025452 C147.03699326 188.12231651 147.03699326 188.12231651 145.03907776 188.12442017 C143.57870461 188.12088055 142.11833169 188.11724573 140.65795898 188.11352539 C139.13073732 188.11324353 137.60351553 188.11340123 136.07629395 188.1139679 C131.91738312 188.11425591 127.75850089 188.10835855 123.59959674 188.10139394 C119.25805476 188.09516106 114.91651219 188.09455665 110.57496643 188.09336853 C102.34786418 188.09025502 94.12077514 188.08204137 85.89367872 188.07201904 C76.52986936 188.06085851 67.16605938 188.05534761 57.80224502 188.05032361 C38.53482251 188.03985877 19.26741231 188.02225895 0 188 C1.20940585 185.50020131 2.4728401 183.2759636 4 180.9375 C8.94647621 172.23828439 8.29331443 161.42703869 8.2746582 151.73876953 C8.27901598 150.33953584 8.28420263 148.94030452 8.29014587 147.54107666 C8.30343257 143.77235299 8.30412619 140.00373023 8.30158257 136.23498774 C8.30050582 133.07431557 8.30541411 129.91366324 8.310188 126.75299537 C8.32124744 119.28892815 8.32174072 111.82491127 8.31567383 104.36083984 C8.30963649 96.69286276 8.32194712 89.02506928 8.3432439 81.35712349 C8.36092828 74.74357798 8.36685054 68.13009054 8.36360615 61.51652229 C8.36180404 57.57979254 8.36432125 53.6431938 8.37832069 49.70648575 C8.39100649 46.0012215 8.38885488 42.29624103 8.37590981 38.59098053 C8.37246235 36.6052118 8.38364212 34.61943396 8.39547729 32.63369751 C8.32999452 21.30390905 7.3577011 10.94855539 0 2 C0 1.34 0 0.68 0 0 Z " fill="#D93939" transform="translate(360,18)"/>
<path d="M0 0 C0.79526093 -0.00692368 1.59052185 -0.01384735 2.40988159 -0.02098083 C4.96861751 -0.0381957 7.52714636 -0.04457048 10.0859375 -0.046875 C11.39534302 -0.04888412 11.39534302 -0.04888412 12.73120117 -0.05093384 C31.67197503 -0.04462605 48.82489374 2.47591625 67.4609375 6.203125 C67.4609375 22.373125 67.4609375 38.543125 67.4609375 55.203125 C61.82748952 54.0764354 61.25758714 53.176363 57.4609375 49.203125 C41.79438555 35.91583912 23.71991181 30.04702146 3.1953125 31.421875 C-16.82420355 33.98595095 -34.02625718 42.13531448 -46.7265625 58.203125 C-55.10822337 70.1553734 -57.74033319 83.33653555 -57.8515625 97.640625 C-57.88056641 98.84912109 -57.90957031 100.05761719 -57.93945312 101.30273438 C-58.06521539 119.36412984 -50.94881965 134.64304645 -38.375 147.3984375 C-22.83169957 161.84327147 -3.5530383 165.98978376 17.15234375 165.34375 C22.15607944 165.03895392 26.74390161 163.83405246 31.4609375 162.203125 C32.29496094 161.9246875 33.12898437 161.64625 33.98828125 161.359375 C44.97182897 157.33380933 53.91904226 151.28772369 62.18359375 143.14453125 C64.4609375 141.203125 64.4609375 141.203125 67.4609375 141.203125 C67.4609375 157.043125 67.4609375 172.883125 67.4609375 189.203125 C50.05332209 195.73098078 32.95836554 196.85626785 14.47680664 196.72460938 C10.898564 196.70312576 7.32232374 196.72455514 3.74414062 196.75 C-25.31863836 196.78469966 -55.50170907 190.41552004 -79.5390625 173.203125 C-80.35503906 172.62175781 -81.17101562 172.04039062 -82.01171875 171.44140625 C-87.14554621 167.56052559 -91.60560754 163.21670052 -95.9765625 158.515625 C-96.48501709 157.96890137 -96.99347168 157.42217773 -97.51733398 156.85888672 C-112.36716213 140.48197509 -118.2608661 117.84065833 -117.7265625 96.16796875 C-116.3963154 75.13343647 -111.55654859 56.60801748 -97.5390625 40.203125 C-96.7759375 39.1925 -96.0128125 38.181875 -95.2265625 37.140625 C-91.42831368 32.98905071 -87.15572319 29.42253086 -82.5390625 26.203125 C-81.8790625 26.203125 -81.2190625 26.203125 -80.5390625 26.203125 C-80.5390625 25.543125 -80.5390625 24.883125 -80.5390625 24.203125 C-57.4477908 7.92120603 -28.08450612 0.1660012 0 0 Z " fill="#D93939" transform="translate(841.5390625,13.796875)"/>
<path d="M0 0 C69.96 0 139.92 0 212 0 C212 15.84 212 31.68 212 48 C208.2793161 47.06982902 205.80847655 45.92124576 202.5 44.0625 C195.77840539 40.25501393 195.77840539 40.25501393 188.5078125 37.78125 C187.64591309 37.57209961 186.78401367 37.36294922 185.89599609 37.14746094 C171.79240486 33.85206676 158.51832747 31.94220578 144.0390625 31.453125 C142.78456299 31.40881348 141.53006348 31.36450195 140.23754883 31.31884766 C137.15843487 31.21039719 134.07926094 31.10417939 131 31 C131.10763148 47.05622795 131.22045985 63.11240989 131.33933926 79.16855812 C131.39442811 86.62505256 131.44786773 94.08155177 131.49731445 101.53808594 C131.54045695 108.04329828 131.58680631 114.54847886 131.63687855 121.05364168 C131.66324001 124.4925134 131.6880826 127.93137981 131.70907402 131.37028885 C131.73341659 135.22558144 131.76342645 139.08079319 131.79467773 142.93603516 C131.8004332 144.05454361 131.80618866 145.17305206 131.81211853 146.32545471 C131.6373137 163.26737733 131.6373137 163.26737733 137 179 C140 184.78571429 140 184.78571429 140 188 C117.56 188 95.12 188 72 188 C73.03918134 183.84327465 74.65738197 180.81842535 76.74609375 177.12109375 C80.27217582 168.34433496 80.30197829 158.96409048 80.31884766 149.6340332 C80.32889328 148.3449556 80.3389389 147.05587799 80.34928894 145.72773743 C80.37634317 142.22851271 80.39166441 138.72932767 80.40471697 135.23002648 C80.4204564 131.55981464 80.44721151 127.88968259 80.4727478 124.2195282 C80.51934571 117.28547841 80.55618105 110.35141329 80.58942068 103.41728801 C80.6277771 95.51628722 80.67715136 87.61536694 80.72740483 79.71443427 C80.8304419 63.47634753 80.91979313 47.23821591 81 31 C76.52445605 31.13100486 72.04934679 31.27350193 67.57421875 31.41796875 C65.68648743 31.47301575 65.68648743 31.47301575 63.76062012 31.5291748 C54.24478546 31.84455675 45.28406972 32.92021849 36 35 C34.57479009 35.27124856 33.14898744 35.53939825 31.72265625 35.8046875 C22.58884609 37.60442279 15.1046123 40.58816895 7.07421875 45.29296875 C4 47 4 47 0 48 C0 32.16 0 16.32 0 0 Z " fill="#D93638" transform="translate(131,18)"/>
<path d="M0 0 C1.36135845 0.00084856 2.72271827 0.00036668 4.08407593 -0.00132751 C7.74039725 -0.00217999 11.39641672 0.01532267 15.05266857 0.03639436 C18.88830681 0.05528763 22.72395376 0.05692148 26.55963135 0.06047058 C33.80540457 0.06975421 41.05104022 0.09431748 48.29675317 0.12451905 C56.55320312 0.1581785 64.80966003 0.17457794 73.06616163 0.18960536 C90.03409586 0.22087083 107.00189662 0.27355876 123.96972656 0.34057617 C123.96972656 1.66057617 123.96972656 2.98057617 123.96972656 4.34057617 C122.95652344 4.68088867 122.95652344 4.68088867 121.92285156 5.02807617 C118.16143755 6.69981573 115.04009682 8.92951893 111.71972656 11.34057617 C111.08292969 11.79174805 110.44613281 12.24291992 109.79003906 12.70776367 C106.35524009 15.04265912 106.35524009 15.04265912 103.96972656 18.34057617 C102.85597656 18.99026367 102.85597656 18.99026367 101.71972656 19.65307617 C98.62769926 21.55045656 96.46833173 23.71704075 93.96972656 26.34057617 C91.5076056 28.86425016 89.11835678 31.22379529 86.34472656 33.40307617 C83.94083593 35.196123 83.94083593 35.196123 82.46972656 37.40307617 C80.60780406 39.8080594 78.60134142 40.83679625 75.96972656 42.34057617 C75.2259375 42.96577148 74.48214844 43.5909668 73.71582031 44.23510742 C70.73588407 46.51986651 67.82679777 47.98669355 64.40722656 49.52807617 C63.2921875 50.03725586 62.17714844 50.54643555 61.02832031 51.07104492 C56.5636676 52.9241894 53.05313201 53.46520018 48.21173096 53.46083069 C47.03666489 53.46220535 45.86159882 53.46358002 44.65092468 53.46499634 C42.72286736 53.45960342 42.72286736 53.45960342 40.75585938 53.45410156 C39.38582868 53.45381943 38.01579782 53.45397794 36.64576721 53.45454407 C32.92916721 53.45483101 29.21259947 53.44895089 25.49600697 53.44197011 C21.61092607 53.43571946 17.72584443 53.43513142 13.84075928 53.4339447 C6.48498895 53.43083644 -0.87076653 53.42262984 -8.22653031 53.41259521 C-16.60131053 53.40141841 -24.97609146 53.39591967 -33.35087729 53.39089978 C-50.57735126 53.38044682 -67.80381078 53.36285713 -85.03027344 53.34057617 C-85.03027344 52.35057617 -85.03027344 51.36057617 -85.03027344 50.34057617 C-82.79980469 48.69213867 -82.79980469 48.69213867 -79.84277344 46.96557617 C-75.6585043 44.4144529 -72.37121295 41.95240267 -69.03027344 38.34057617 C-67.64910316 37.05382183 -66.25212103 35.78390555 -64.84277344 34.52807617 C-64.16859375 33.92350586 -63.49441406 33.31893555 -62.79980469 32.69604492 C-61.03027344 31.34057617 -61.03027344 31.34057617 -59.03027344 31.34057617 C-58.76214844 30.74245117 -58.49402344 30.14432617 -58.21777344 29.52807617 C-57.03109937 27.34209764 -55.93428231 25.92725023 -54.03027344 24.34057617 C-53.37027344 24.34057617 -52.71027344 24.34057617 -52.03027344 24.34057617 C-51.76214844 23.74245117 -51.49402344 23.14432617 -51.21777344 22.52807617 C-50.03109937 20.34209764 -48.93428231 18.92725023 -47.03027344 17.34057617 C-46.37027344 17.34057617 -45.71027344 17.34057617 -45.03027344 17.34057617 C-44.53527344 15.85557617 -44.53527344 15.85557617 -44.03027344 14.34057617 C-40.53934584 11.73747964 -36.75798869 9.58748868 -33.03027344 7.34057617 C-32.10794922 6.72762695 -32.10794922 6.72762695 -31.16699219 6.10229492 C-21.85288658 0.11630645 -10.69932722 -0.09252379 0 0 Z " fill="#18549A" transform="translate(207.0302734375,254.659423828125)"/>
<path d="M0 0 C1.36135845 0.00084856 2.72271827 0.00036668 4.08407593 -0.00132751 C7.74039725 -0.00217999 11.39641672 0.01532267 15.05266857 0.03639436 C18.88830681 0.05528763 22.72395376 0.05692148 26.55963135 0.06047058 C33.80540457 0.06975421 41.05104022 0.09431748 48.29675317 0.12451905 C56.55320312 0.1581785 64.80966003 0.17457794 73.06616163 0.18960536 C90.03409586 0.22087083 107.00189662 0.27355876 123.96972656 0.34057617 C123.96972656 1.66057617 123.96972656 2.98057617 123.96972656 4.34057617 C121.98972656 4.67057617 120.00972656 5.00057617 117.96972656 5.34057617 C117.96972656 6.00057617 117.96972656 6.66057617 117.96972656 7.34057617 C116.24228865 8.57058432 114.45947217 9.72304649 112.65722656 10.84057617 C105.08341329 15.75549755 98.7150687 21.57294034 92.34472656 27.98120117 C89.68921384 30.61924342 86.84928434 32.95115589 83.96972656 35.34057617 C83.3290625 35.98124023 82.68839844 36.6219043 82.02832031 37.28198242 C74.37351742 44.93678531 62.61782006 52.92162077 51.42976856 53.463624 C50.40750014 53.46270221 49.38523172 53.46178041 48.33198547 53.46083069 C47.15829407 53.46220535 45.98460266 53.46358002 44.77534485 53.46499634 C43.48637802 53.46140106 42.19741119 53.45780579 40.86938477 53.45410156 C39.49950157 53.45381951 38.12961822 53.45397777 36.75973511 53.45454407 C33.03894383 53.45483136 29.3181847 53.44894566 25.5974009 53.44197011 C21.70964486 53.43572521 17.8218881 53.43513187 13.93412781 53.4339447 C6.571241 53.43083475 -0.79163099 53.42262587 -8.15451127 53.41259521 C-16.53652331 53.40142367 -24.91853605 53.395921 -33.30055368 53.39089978 C-50.54380218 53.38044299 -67.78703624 53.36285002 -85.03027344 53.34057617 C-85.03027344 52.35057617 -85.03027344 51.36057617 -85.03027344 50.34057617 C-82.82714844 48.68432617 -82.82714844 48.68432617 -79.78027344 46.84057617 C-74.24721354 43.31834327 -69.56732911 39.40839176 -64.86523438 34.84643555 C-61.21804969 31.34057617 -61.21804969 31.34057617 -59.03027344 31.34057617 C-58.80339844 30.76307617 -58.57652344 30.18557617 -58.34277344 29.59057617 C-56.68940414 26.75622881 -54.60063399 25.37295429 -52.03027344 23.34057617 C-51.30839844 22.43307617 -50.58652344 21.52557617 -49.84277344 20.59057617 C-37.18671875 4.97749936 -19.30185796 -0.16691527 0 0 Z " fill="#205499" transform="translate(827.0302734375,254.659423828125)"/>
<path d="M0 0 C1.35194871 0.00113252 2.70389987 0.00048675 4.05584717 -0.00177002 C7.67283634 -0.00290235 11.28927832 0.02036179 14.906142 0.04852581 C18.70571426 0.0737911 22.50530359 0.07590101 26.3049469 0.08062744 C33.47629973 0.09298431 40.64740419 0.1257054 47.8186484 0.1660254 C55.9929288 0.21097227 64.16722202 0.23278733 72.34159553 0.25280714 C89.13485739 0.29444598 105.92787047 0.3646536 122.72094727 0.45410156 C122.72094727 1.77410156 122.72094727 3.09410156 122.72094727 4.45410156 C121.54532227 5.01097656 120.36969727 5.56785156 119.15844727 6.14160156 C116.18176132 7.61672657 113.51715725 9.23021798 110.84594727 11.20410156 C107.72094727 13.45410156 107.72094727 13.45410156 105.72094727 13.45410156 C105.34969727 14.38222656 105.34969727 14.38222656 104.97094727 15.32910156 C103.46819011 17.88378873 102.32376232 18.15269403 99.72094727 19.45410156 C98.73094727 20.72253906 98.73094727 20.72253906 97.72094727 22.01660156 C95.5163745 24.70342462 94.89701937 24.71301807 91.72094727 25.45410156 C90.61258304 27.33726315 90.61258304 27.33726315 89.72094727 29.45410156 C88.22094727 31.20410156 88.22094727 31.20410156 86.72094727 32.45410156 C86.06094727 32.45410156 85.40094727 32.45410156 84.72094727 32.45410156 C84.47602539 33.03675781 84.23110352 33.61941406 83.97875977 34.21972656 C78.85412794 43.32310981 64.5787111 49.96489827 54.85725784 53.04448605 C52.20201954 53.5536006 49.70560927 53.57681489 47.00091553 53.57435608 C45.83426361 53.57573074 44.66761169 53.57710541 43.46560669 53.57852173 C42.18958588 53.57492645 40.91356506 53.57133118 39.59887695 53.56762695 C38.23869834 53.56734481 36.87851958 53.56750334 35.51834106 53.56806946 C31.82859961 53.56835639 28.13889066 53.56247643 24.44915676 53.5554955 C20.59210309 53.54924469 16.73504868 53.54865679 12.87799072 53.54747009 C5.57534429 53.54436188 -1.72728717 53.53615535 -9.02992702 53.5261206 C-17.34424888 53.51494365 -25.65857146 53.50944502 -33.97289896 53.50442517 C-51.07495888 53.49397232 -68.17700422 53.47638273 -85.27905273 53.45410156 C-84.52514648 49.66357422 -84.52514648 49.66357422 -82.31030273 47.77832031 C-81.47499023 47.23820312 -80.63967773 46.69808594 -79.77905273 46.14160156 C-72.75022099 41.44565818 -66.12410993 36.59141162 -60.27905273 30.45410156 C-58.78180755 28.9513518 -57.28152187 27.45162836 -55.77905273 25.95410156 C-53.39104167 23.57003111 -51.01189867 21.18058669 -48.65405273 18.76660156 C-34.5189585 5.00348349 -19.62137915 -0.2299503 0 0 Z " fill="#205499" transform="translate(621.279052734375,254.5458984375)"/>
<path d="M0 0 C1.35150636 0.00084858 2.70301409 0.00036663 4.05451965 -0.00132751 C7.68398328 -0.00217989 11.31314273 0.01532124 14.94253635 0.03639436 C18.75014725 0.05528919 22.55776694 0.0569216 26.36541748 0.06047058 C33.55806725 0.06975376 40.75057841 0.09431641 47.94316745 0.12451905 C56.13915891 0.15817992 64.33515738 0.1745783 72.53120089 0.18960536 C89.37472256 0.22086981 106.21810524 0.27355682 123.06152344 0.34057617 C123.06152344 1.66057617 123.06152344 2.98057617 123.06152344 4.34057617 C122.17464844 4.75307617 121.28777344 5.16557617 120.37402344 5.59057617 C117.24300566 7.24469877 114.79943306 9.12064945 112.06152344 11.34057617 C111.07152344 11.67057617 110.08152344 12.00057617 109.06152344 12.34057617 C107.92595993 13.44172866 106.79730966 14.55079596 105.70214844 15.69213867 C100.15061461 21.27010838 94.07047975 26.35205232 88.13574219 31.51635742 C84.87600394 34.38320819 81.6674156 37.30646101 78.45605469 40.22729492 C73.79679015 44.3393049 69.72462788 47.13787168 63.93652344 49.52807617 C63.31648437 49.78782227 62.69644531 50.04756836 62.05761719 50.31518555 C57.27730797 52.304411 53.60304999 53.4655009 48.42378235 53.46083069 C47.25009094 53.46220535 46.07639954 53.46358002 44.86714172 53.46499634 C43.5781749 53.46140106 42.28920807 53.45780579 40.96118164 53.45410156 C39.59129844 53.45381951 38.22141509 53.45397777 36.85153198 53.45454407 C33.13074071 53.45483136 29.40998157 53.44894566 25.68919778 53.44197011 C21.80144173 53.43572521 17.91368497 53.43513187 14.02592468 53.4339447 C6.66303787 53.43083475 -0.69983412 53.42262587 -8.0627144 53.41259521 C-16.44472644 53.40142367 -24.82673918 53.395921 -33.2087568 53.39089978 C-50.4520053 53.38044299 -67.69523937 53.36285002 -84.93847656 53.34057617 C-84.93847656 52.35057617 -84.93847656 51.36057617 -84.93847656 50.34057617 C-83.25878906 48.95385742 -83.25878906 48.95385742 -81.06347656 47.65307617 C-80.34417969 47.21608398 -79.62488281 46.7790918 -78.88378906 46.32885742 C-76.93847656 45.34057617 -76.93847656 45.34057617 -74.93847656 45.34057617 C-74.60847656 44.35057617 -74.27847656 43.36057617 -73.93847656 42.34057617 C-72.52815886 41.11630038 -71.05698725 39.96185804 -69.56347656 38.84057617 C-62.80621601 33.48960413 -56.89185367 27.3816821 -50.92919922 21.16870117 C-45.98062212 16.09323748 -40.99958869 12.01071279 -34.93847656 8.34057617 C-34.23730713 7.89149902 -33.5361377 7.44242187 -32.8137207 6.97973633 C-22.56086327 0.76234683 -11.7576964 -0.1024442 0 0 Z " fill="#205499" transform="translate(413.9384765625,254.659423828125)"/>
<path d="M0 0 C1.35091646 0.000565 2.70183353 0.00024582 4.05274963 -0.00088501 C7.69890842 -0.00145606 11.34493415 0.01025781 14.99106216 0.02426291 C18.80938279 0.03681186 22.62770686 0.03794404 26.44604492 0.04031372 C33.66712347 0.04651629 40.88814107 0.06291047 48.10919285 0.0830127 C56.3341226 0.10540987 64.55905534 0.11637471 72.78400803 0.12640357 C89.6945822 0.14727785 106.60509715 0.18242992 123.515625 0.22705078 C123.515625 1.54705078 123.515625 2.86705078 123.515625 4.22705078 C122.62875 4.63955078 121.741875 5.05205078 120.828125 5.47705078 C117.68294253 7.13865662 115.25421185 8.98000516 112.515625 11.22705078 C111.74992187 11.66533203 110.98421875 12.10361328 110.1953125 12.55517578 C107.19317429 14.42822994 104.79082965 16.56535499 102.203125 18.97705078 C98.95015065 21.98583403 95.69150816 24.96725179 92.328125 27.85205078 C89.61478071 30.20140986 87.08111689 32.6550788 84.578125 35.22705078 C79.19851991 40.67019451 73.74918462 45.54254651 66.515625 48.22705078 C64.23675112 49.24543456 61.96748992 50.28295338 59.69921875 51.32470703 C55.65532239 52.99579837 52.16982687 53.35128187 47.79559326 53.3473053 C46.62894135 53.34867996 45.46228943 53.35005463 44.26028442 53.35147095 C42.98426361 53.34787567 41.7082428 53.3442804 40.39355469 53.34057617 C39.03337608 53.34029403 37.67319732 53.34045256 36.3130188 53.34101868 C32.62327735 53.34130561 28.9335684 53.33542565 25.2438345 53.32844472 C21.38678082 53.32219391 17.52972641 53.32160601 13.67266846 53.32041931 C6.37002202 53.3173111 -0.93260944 53.30910457 -8.23524928 53.29906982 C-16.54957114 53.28789287 -24.86389372 53.28239424 -33.17822123 53.27737439 C-50.28028114 53.26692154 -67.38232649 53.24933195 -84.484375 53.22705078 C-84.484375 52.23705078 -84.484375 51.24705078 -84.484375 50.22705078 C-82.7890625 48.82470703 -82.7890625 48.82470703 -80.359375 47.28955078 C-69.56663457 40.0036952 -60.3761194 31.20469846 -51.296875 21.91455078 C-36.41754342 6.77508014 -21.35418043 -0.12261414 0 0 Z " fill="#215499" transform="translate(1033.484375,254.77294921875)"/>
</svg>
